<svg width="213" height="213" viewBox="0 0 213 213" fill="none" xmlns="http://www.w3.org/2000/svg">
<rect width="212.235" height="212.235" rx="106.118" fill="#0E425E"/>
<path d="M150.921 86.9225C147.987 86.9267 145.136 87.8979 142.809 89.6857C140.482 91.4735 138.81 93.9784 138.05 96.8126H112.05V82.6781H105.185V96.8126H79.1821C78.4225 93.9783 76.7499 91.4734 74.4232 89.6856C72.0965 87.8977 69.2453 86.9266 66.3111 86.9225C62.7789 86.9264 59.3926 88.3313 56.895 90.8289C54.3974 93.3264 52.9924 96.7127 52.9883 100.245C52.9924 103.179 53.9636 106.03 55.7515 108.357C57.5395 110.684 60.0445 112.356 62.8788 113.116V155.417L66.3111 158.849H84.6545V165.185L88.0868 168.617H129.145L132.578 165.185V145.614L129.145 142.182H88.0868L84.6545 145.614V151.987H69.7433V113.118C72.0056 112.51 74.0682 111.318 75.7248 109.661C77.3813 108.004 78.5736 105.942 79.1821 103.68H138.048C138.66 105.956 139.863 108.031 141.535 109.693C143.208 111.354 145.289 112.545 147.57 113.143V121.357H132.577V114.98L129.144 111.548H88.0857L84.6535 114.98V134.553L88.0857 137.985H129.144L132.577 134.553V128.221H151.002L154.434 124.789V113.096C157.25 112.322 159.734 110.647 161.506 108.326C163.277 106.005 164.239 103.167 164.243 100.247C164.239 96.7149 162.835 93.3281 160.337 90.83C157.84 88.332 154.454 86.9266 150.921 86.9225ZM91.519 149.047H125.713V161.755H91.519V149.047ZM66.3111 106.704C64.5989 106.702 62.9573 106.021 61.7466 104.811C60.5359 103.6 59.8548 101.958 59.8528 100.246C59.8545 98.5338 60.5354 96.892 61.7462 95.681C62.957 94.4701 64.5987 93.7889 66.3111 93.787C68.0232 93.7889 69.6647 94.4699 70.8753 95.6806C72.086 96.8912 72.767 98.5327 72.7689 100.245C72.767 101.957 72.086 103.599 70.8753 104.809C69.6647 106.02 68.0232 106.701 66.3111 106.703V106.704ZM125.713 131.119H91.519V118.411H125.713V131.119ZM150.921 106.704C149.209 106.702 147.567 106.021 146.357 104.81C145.146 103.599 144.466 101.957 144.464 100.245C144.466 98.5327 145.147 96.8912 146.358 95.6806C147.568 94.4699 149.21 93.7889 150.922 93.787C152.634 93.7889 154.276 94.4699 155.486 95.6806C156.697 96.8912 157.378 98.5327 157.38 100.245C157.378 101.957 156.697 103.599 155.486 104.81C154.275 106.02 152.633 106.701 150.921 106.703V106.704Z" fill="#0CC9AB"/>
<path d="M119.263 43.6172H97.9712C90.9307 43.6251 84.1807 46.4254 79.2022 51.4038C74.2237 56.3822 71.4233 63.1321 71.4153 70.1727C71.4191 73.4882 72.7379 76.6668 75.0823 79.0112C77.4267 81.3556 80.6053 82.6744 83.9208 82.6782H133.314C136.629 82.6744 139.808 81.3556 142.152 79.0112C144.497 76.6668 145.815 73.4882 145.819 70.1727C145.811 63.1321 143.011 56.3822 138.032 51.4038C133.054 46.4254 126.304 43.6251 119.263 43.6172ZM133.314 75.8119H129.372V68.3618H122.507V75.8119H102.283C102.4 72.9429 104.136 72.231 105.263 72.0779H112.992V65.2134H105.07L104.824 65.222C103.148 65.3894 101.535 65.9473 100.114 66.8509C97.1557 68.7308 95.4976 71.9063 95.4145 75.8119H83.9198C82.4984 75.8097 81.13 75.2712 80.0883 74.3041C79.0465 73.3369 78.4081 72.0123 78.3005 70.5949H84.8475L85.094 70.586C86.7699 70.4186 88.3832 69.8607 89.8045 68.957C92.84 67.0281 94.5115 63.7369 94.5115 59.6899H87.6469C87.6469 62.8211 85.823 63.5711 84.6553 63.73H79.3659C80.7085 59.864 83.2206 56.5115 86.5538 54.137C89.887 51.7626 93.8763 50.484 97.9688 50.4783H114.183V53.393L114.192 53.6394C114.359 55.3152 114.917 56.9284 115.821 58.3495C117.75 61.385 121.041 63.0569 125.088 63.0569V56.1923C121.957 56.1923 121.207 54.3685 121.048 53.2008V50.5631C125.938 51.0141 130.484 53.2739 133.796 56.9003C137.107 60.5266 138.946 65.2583 138.953 70.1693C138.952 71.6651 138.358 73.0995 137.301 74.1577C136.243 75.2159 134.81 75.8115 133.314 75.8136V75.8119Z" fill="#C5FFF6"/>
</svg>
