<svg width="213" height="213" viewBox="0 0 213 213" fill="none" xmlns="http://www.w3.org/2000/svg">
<rect width="212.235" height="212.235" rx="106.118" fill="#0E425E"/>
<path d="M105.451 118.045C107.209 115.257 109.503 112.845 112.199 110.949H87.3997L83.8518 114.497V134.729L87.3997 138.277H102.697C102.006 135.977 101.656 133.588 101.656 131.187V131.181H90.9458V118.045H105.451Z" fill="#0CC9AB"/>
<path d="M152.347 76.9829C149.314 76.9871 146.367 77.991 143.962 79.839C141.557 81.6871 139.828 84.2763 139.043 87.2061H112.165V69.6188H129.838L133.386 66.0709V45.8389L129.838 42.291H87.3963L83.8484 45.8389V66.0709L87.3963 69.6188H105.069V87.2061H78.1928C77.4076 84.2763 75.6787 81.6871 73.2736 79.839C70.8685 77.991 67.9214 76.9871 64.8882 76.9829C61.2372 76.9869 57.7368 78.439 55.1551 81.0207C52.5734 83.6024 51.1212 87.1029 51.1172 90.7539C51.1214 93.787 52.1252 96.7341 53.9733 99.1392C55.8214 101.544 58.4106 103.273 61.3404 104.058V156.298L64.8882 159.846H83.8495V166.396L87.3974 169.944H129.839L133.387 166.396V154.895C131.112 155.57 128.752 155.912 126.38 155.912C126.35 155.912 126.321 155.91 126.291 155.91V162.848H90.9442V149.712H110.028C107.756 147.705 105.87 145.3 104.463 142.616H87.3981L83.8502 146.164V152.75H68.4351V104.058C70.7735 103.429 72.9056 102.197 74.618 100.485C76.3303 98.7723 77.5627 96.6402 78.1917 94.3018H139.041C139.673 96.6552 140.917 98.7995 142.645 100.517C144.373 102.235 146.525 103.465 148.883 104.083V120.963C149.927 123.252 150.613 125.687 150.916 128.185H152.431L155.978 124.637V104.035C158.889 103.236 161.456 101.504 163.288 99.1046C165.119 96.7056 166.113 93.7721 166.117 90.7539C166.113 87.103 164.661 83.6029 162.08 81.0212C159.498 78.4395 155.998 76.9872 152.347 76.9829ZM90.9442 62.5231V49.3868H126.29V62.5231H90.9442ZM64.8872 97.4296C63.1174 97.4275 61.4206 96.7235 60.1692 95.472C58.9177 94.2205 58.2138 92.5238 58.2119 90.7539C58.2138 88.9841 58.9178 87.2873 60.1692 86.0358C61.4206 84.7844 63.1174 84.0806 64.8872 84.0786C66.657 84.0806 68.3537 84.7844 69.6052 86.0358C70.8566 87.2873 71.5605 88.9841 71.5625 90.7539C71.5605 92.5238 70.8566 94.2205 69.6052 95.472C68.3538 96.7235 66.657 97.4275 64.8872 97.4296ZM152.347 97.4296C150.577 97.4275 148.881 96.7235 147.629 95.472C146.378 94.2205 145.674 92.5238 145.671 90.7539C145.674 88.9841 146.378 87.2873 147.629 86.0358C148.881 84.7844 150.577 84.0806 152.347 84.0786C154.117 84.0806 155.814 84.7844 157.065 86.0358C158.317 87.2873 159.021 88.9841 159.022 90.7539C159.021 92.5238 158.317 94.2205 157.065 95.472C155.814 96.7235 154.117 97.4275 152.347 97.4296Z" fill="#0CC9AB"/>
<path d="M146.184 145.975C149.384 141.709 151.111 136.519 151.105 131.187C151.103 130.183 151.04 129.181 150.916 128.185C150.613 125.687 149.927 123.251 148.883 120.962C146.917 116.642 143.75 112.978 139.76 110.407C135.77 107.835 131.125 106.466 126.378 106.46C121.301 106.456 116.347 108.024 112.197 110.949C109.5 112.845 107.206 115.256 105.448 118.045C102.966 121.976 101.649 126.531 101.652 131.181V131.187C101.652 133.588 102.003 135.977 102.693 138.277C103.144 139.777 103.736 141.23 104.463 142.617C105.87 145.301 107.756 147.706 110.028 149.712C114.513 153.689 120.295 155.893 126.29 155.911C126.319 155.911 126.349 155.913 126.379 155.913C128.751 155.913 131.111 155.571 133.385 154.896C136.19 154.067 138.825 152.745 141.167 150.993L149.104 158.93L154.121 153.912L146.184 145.975ZM126.378 148.817C121.704 148.812 117.223 146.953 113.917 143.647C110.612 140.342 108.753 135.861 108.748 131.187C108.753 126.512 110.612 122.031 113.917 118.726C117.223 115.42 121.704 113.561 126.378 113.556C131.053 113.561 135.534 115.42 138.839 118.726C142.145 122.031 144.004 126.512 144.009 131.187C144.004 135.861 142.145 140.342 138.84 143.648C135.534 146.953 131.053 148.812 126.378 148.817Z" fill="#C5FFF6"/>
</svg>
