<svg width="214" height="213" viewBox="0 0 214 213" fill="none" xmlns="http://www.w3.org/2000/svg">
<rect x="0.875" width="212.235" height="212.235" rx="106.118" fill="#0E425E"/>
<path d="M156.566 144.4L160.013 140.954V74.8532L156.566 71.4065H136.369V78.2999H153.119V137.506H60.8628V78.2999H77.187V71.4065H57.4161L53.9695 74.8532V140.953L57.4161 144.4L156.566 144.4Z" fill="#0CC9AB"/>
<path d="M96.9411 123.439C96.9441 126.047 97.9814 128.547 99.8256 130.391C101.67 132.235 104.17 133.272 106.778 133.275C109.386 133.272 111.886 132.235 113.73 130.391C115.574 128.547 116.611 126.047 116.614 123.439C116.612 121.436 115.999 119.481 114.858 117.835C113.716 116.189 112.1 114.931 110.225 114.227V104.897H103.331V114.226C101.456 114.93 99.8398 116.189 98.6982 117.835C97.5565 119.481 96.9435 121.436 96.9411 123.439ZM106.778 120.495C107.558 120.496 108.306 120.807 108.858 121.358C109.41 121.91 109.72 122.658 109.721 123.439C109.72 124.219 109.41 124.967 108.858 125.519C108.306 126.071 107.558 126.381 106.778 126.382C105.998 126.381 105.25 126.071 104.698 125.519C104.146 124.967 103.835 124.219 103.834 123.439C103.835 122.658 104.146 121.91 104.698 121.358C105.249 120.807 105.998 120.496 106.778 120.495Z" fill="#0CC9AB"/>
<path d="M74.8547 114.345C73.0541 115.089 71.5144 116.35 70.4304 117.968C69.3463 119.587 68.7665 121.491 68.7644 123.439C68.7674 126.047 69.8047 128.547 71.6487 130.391C73.4928 132.235 75.993 133.272 78.6009 133.275C81.2088 133.272 83.7091 132.235 85.5533 130.391C87.3974 128.547 88.4348 126.047 88.4378 123.439C88.4351 121.382 87.7885 119.377 86.5888 117.706C85.389 116.035 83.6963 114.782 81.7481 114.121V104.712L88.3964 98.8449L83.5638 93.9158L74.8547 101.602V114.345ZM78.6009 120.495C79.3813 120.496 80.1294 120.807 80.6812 121.358C81.2331 121.91 81.5435 122.658 81.5444 123.439C81.5434 124.219 81.2329 124.967 80.6811 125.519C80.1293 126.071 79.3812 126.381 78.6009 126.382C77.8206 126.381 77.0726 126.071 76.5208 125.519C75.9691 124.967 75.6587 124.219 75.6577 123.439C75.6586 122.658 75.9689 121.91 76.5207 121.358C77.0724 120.807 77.8205 120.496 78.6009 120.495Z" fill="#0CC9AB"/>
<path d="M130.785 114.261C128.931 114.977 127.337 116.236 126.212 117.874C125.088 119.512 124.484 121.452 124.482 123.439C124.485 126.047 125.522 128.547 127.366 130.391C129.211 132.235 131.711 133.272 134.319 133.275C136.927 133.272 139.427 132.235 141.271 130.391C143.115 128.547 144.152 126.047 144.155 123.439C144.153 121.42 143.53 119.45 142.372 117.797C141.213 116.143 139.575 114.885 137.678 114.193V101.602L129.434 94.3263L124.466 99.1358L130.785 104.712V114.261ZM134.319 120.495C135.099 120.496 135.847 120.807 136.399 121.358C136.951 121.91 137.261 122.658 137.262 123.439C137.261 124.219 136.951 124.967 136.399 125.519C135.847 126.071 135.099 126.381 134.319 126.382C133.538 126.381 132.79 126.071 132.239 125.519C131.687 124.967 131.376 124.219 131.375 123.439C131.376 122.658 131.687 121.91 132.238 121.358C132.79 120.807 133.538 120.496 134.319 120.495Z" fill="#0CC9AB"/>
<path d="M168.369 149.693H45.6133V156.586H168.369V149.693Z" fill="#00FFFF"/>
<path d="M77.1867 77.4147V82.1446L81.8615 82.865C82.3126 82.9339 82.7576 83.0077 83.195 83.0794C83.5348 83.1352 83.8785 83.1918 84.2259 83.2466C84.5437 84.0648 84.868 84.8555 85.202 85.6265C84.9846 85.9156 84.7708 86.202 84.5606 86.4857C84.3121 86.8194 84.0677 87.1482 83.8257 87.4684L80.9598 91.2598L83.5638 93.9158L88.3964 98.8449L90.7746 101.27L94.6625 98.1987C94.9854 97.9436 95.3118 97.6924 95.6386 97.4404C95.9002 97.2388 96.1646 97.0354 96.4313 96.8272C97.2285 97.1933 98.0197 97.5264 98.8051 97.8268C98.8559 98.1866 98.9071 98.542 98.9588 98.8928C99.0194 99.3095 99.0801 99.7245 99.1373 100.137L99.7946 104.897H113.609L114.326 100.218C114.395 99.77 114.467 99.3257 114.538 98.8873C114.593 98.5454 114.65 98.2 114.704 97.8505C115.515 97.5364 116.31 97.2109 117.087 96.8741C117.37 97.0874 117.646 97.2925 117.911 97.4893C118.215 97.7154 118.508 97.9329 118.781 98.14L122.55 100.991L132.672 91.1919L129.563 87.2775C129.31 86.9597 129.057 86.6354 128.802 86.3083C128.623 86.0785 128.442 85.8473 128.259 85.6148C128.616 84.8184 128.943 84.041 129.24 83.2827C129.605 83.2304 129.966 83.1775 130.323 83.1242C130.756 83.0601 131.189 82.996 131.621 82.9353L136.37 82.2694V68.4844L131.704 67.7575C131.249 67.6868 130.799 67.6137 130.353 67.5413C129.994 67.4832 129.631 67.4249 129.265 67.3663C128.939 66.5469 128.612 65.7595 128.285 65.0043C128.494 64.7345 128.7 64.4663 128.905 64.1998C129.186 63.8348 129.468 63.4674 129.755 63.0968L132.823 59.15L122.639 49.4948L118.899 52.3997C118.546 52.6755 118.194 52.9426 117.844 53.2093C117.587 53.4051 117.329 53.603 117.068 53.8032C116.293 53.4399 115.492 53.0908 114.664 52.774C114.607 52.3738 114.548 51.9812 114.49 51.5935C114.43 51.1999 114.371 50.807 114.317 50.414L113.662 45.6504H99.7994L99.179 50.461C99.1191 50.9253 99.0593 51.3822 98.9998 51.8317C98.956 52.1646 98.9129 52.4924 98.8705 52.8171C98.0847 53.1294 97.3055 53.4541 96.533 53.7911C96.2666 53.5861 96.0067 53.3872 95.7568 53.1962C95.4466 52.958 95.1454 52.7285 94.8628 52.5097L91.1562 49.6392L80.8606 59.2338L83.9495 63.2141C84.21 63.5498 84.4665 63.8865 84.7219 64.2222C84.9161 64.4772 85.1127 64.7348 85.3119 64.995C85.0886 65.5268 84.8777 66.051 84.6698 66.5677C84.5628 66.8347 84.4569 67.0967 84.3524 67.3539C84.026 67.398 83.6906 67.4404 83.3491 67.4831C82.8782 67.5424 82.4061 67.6017 81.9339 67.6682L77.1853 68.3344V77.4134L77.1867 77.4147ZM82.7014 73.1305C84.2921 72.9075 85.8789 72.7679 87.4192 72.4208C87.6999 72.3166 87.9569 72.1576 88.1755 71.9531C88.3941 71.7486 88.5698 71.5027 88.6925 71.2297C89.5707 69.3161 90.2435 67.3063 91.17 65.4186C91.5874 64.5672 91.618 64.0106 91.0142 63.2954C90.0736 62.1845 89.215 61.004 88.3075 59.8346L91.4874 56.8704C92.5241 57.6735 93.7884 58.6144 95.0065 59.6116C95.2499 59.8412 95.5682 59.975 95.9026 59.9883C96.2076 59.9714 96.505 59.8872 96.7736 59.7419C98.753 58.8023 100.784 57.9558 102.844 57.2072C103.643 56.9166 103.981 56.5044 104.07 55.723C104.24 54.2337 104.446 52.7485 104.65 51.1658H108.855C109.045 52.5469 109.297 53.929 109.407 55.3222C109.498 56.4796 109.909 57.0393 111.133 57.3967C113.019 57.9962 114.844 58.7715 116.584 59.7125C116.9 59.8965 117.256 60.0028 117.621 60.0227C118.029 60.0048 118.416 59.8373 118.708 59.5523C119.851 58.5893 121.061 57.7048 122.283 56.756L125.401 59.7122C124.401 60.9978 123.46 62.2607 122.458 63.4739C121.962 64.075 122.003 64.5303 122.339 65.2397C123.277 67.2205 124.108 69.2564 124.876 71.3103C125.143 72.0259 125.455 72.4033 126.226 72.4991C127.754 72.6887 129.273 72.9596 130.855 73.206V77.4727C129.351 77.684 127.841 77.9342 126.323 78.0931C125.392 78.1909 125.045 78.6366 124.742 79.5272C124.067 81.4781 123.267 83.3838 122.347 85.2325C121.96 86.0253 121.887 86.5575 122.473 87.2406C123.451 88.378 124.352 89.5812 125.245 90.7045L122.108 93.74C121.102 92.9783 119.855 92.0856 118.669 91.1185C118.4 90.8705 118.051 90.7276 117.685 90.7159C117.32 90.7385 116.964 90.8415 116.644 91.0175C114.779 91.8991 112.87 92.6836 110.925 93.3681C110.12 93.6532 109.649 93.9613 109.551 94.8574C109.385 96.3468 109.113 97.8243 108.874 99.3798H104.6C104.402 97.9484 104.163 96.4874 104.011 95.017C103.907 94.0075 103.469 93.5725 102.444 93.2527C100.559 92.651 98.7324 91.8826 96.9845 90.9565C96.639 90.7503 96.2488 90.6307 95.8471 90.6077C95.3904 90.6308 94.9598 90.8275 94.6432 91.1574C93.5592 92.1177 92.3808 92.9707 91.2427 93.8696C90.2376 92.8446 89.2867 91.8743 88.2244 90.7914C89.084 89.654 89.9764 88.4104 90.939 87.2241C91.4977 86.5347 91.4388 85.987 91.0631 85.1967C90.1828 83.3315 89.3965 81.4235 88.707 79.4797C88.4233 78.687 88.1431 78.1899 87.2314 78.0921C85.7414 77.9318 84.2645 77.6533 82.7007 77.4123L82.7014 73.1305Z" fill="#C5FFF6"/>
<path d="M106.768 89.1966V83.6818C105.667 83.6875 104.576 83.4749 103.557 83.0562C102.539 82.6375 101.614 82.0211 100.836 81.2427C100 80.4083 99.3522 79.405 98.9357 78.2998C98.5763 77.3442 98.3923 76.3315 98.3928 75.3105C98.3882 73.9514 98.7144 72.6115 99.3431 71.4065C99.7341 70.6598 100.236 69.9768 100.832 69.3808C101.61 68.601 102.535 67.9833 103.553 67.5632C104.571 67.1432 105.663 66.9292 106.764 66.9337C108.289 66.9344 109.785 67.3512 111.091 68.1392C112.397 68.9273 113.463 70.0567 114.175 71.4058C114.811 72.6067 115.143 73.9451 115.142 75.304C115.143 76.3271 114.959 77.3419 114.598 78.2992C114.182 79.4021 113.536 80.4037 112.702 81.2371C111.925 82.0163 111 82.6334 109.983 83.053C108.965 83.4725 107.875 83.686 106.774 83.6812V89.1959H106.778C108.603 89.1996 110.411 88.8426 112.097 88.1456C113.784 87.4486 115.316 86.4253 116.606 85.1343C117.897 83.8433 118.919 82.3102 119.615 80.6229C120.311 78.9357 120.666 77.1277 120.661 75.3026C120.664 73.4784 120.307 71.6715 119.611 69.9855C118.914 68.2995 117.891 66.7677 116.601 65.4778C115.311 64.188 113.779 63.1655 112.093 62.4689C110.407 61.7724 108.6 61.4156 106.776 61.419H106.767C104.942 61.4154 103.134 61.7725 101.447 62.4697C99.7606 63.1668 98.2282 64.1903 96.9383 65.4814C95.6483 66.7725 94.6261 68.3058 93.9304 69.9931C93.2347 71.6804 92.8792 73.4885 92.8844 75.3136C92.8799 77.1381 93.236 78.9454 93.9321 80.6317C94.6282 82.3181 95.6507 83.8504 96.9407 85.1404C98.2308 86.4305 99.7631 87.4529 101.449 88.149C103.136 88.845 104.943 89.2011 106.768 89.1966Z" fill="#C5FFF6"/>
</svg>
