<svg width="213" height="213" viewBox="0 0 213 213" fill="none" xmlns="http://www.w3.org/2000/svg">
<rect x="0.171875" width="212.235" height="212.235" rx="106.118" fill="#0E425E"/>
<path d="M111.866 86.2385H99.5482L95.8978 89.8889V106.249C98.1128 104.523 100.574 103.139 103.199 102.142V93.5392H108.216V100.763C109.841 100.472 111.489 100.325 113.141 100.323C113.942 100.323 114.732 100.364 115.516 100.43V89.8889L111.866 86.2385Z" fill="#00FFFF"/>
<path d="M139.753 137.58C140.378 135.761 140.813 133.883 141.051 131.974H158.794L162.444 128.324V58.3183L158.794 54.668H53.7854L50.1351 58.3183V128.324L53.7854 131.974H85.2299C85.4681 133.883 85.9031 135.761 86.528 137.58H41.2852V144.881H90.3119C92.9142 148.505 96.3418 151.458 100.311 153.496C104.281 155.533 108.679 156.597 113.14 156.598C119.341 156.603 125.368 154.549 130.275 150.758L147.085 167.568L152.247 162.406L135.437 145.595C135.618 145.36 135.795 145.122 135.969 144.881H171.295V137.58H139.753ZM132.472 108.044C130.965 106.614 129.305 105.355 127.523 104.289V90.1435H132.54V108.044H132.472ZM85.2646 124.674H57.4358V61.9687H155.144V124.674H141.017C140.577 121.412 139.564 118.254 138.023 115.346H145.416V108.045H139.84V86.4932L136.19 82.8428H123.872L120.221 86.4932V101.227C118.678 100.828 117.104 100.562 115.516 100.431C114.732 100.365 113.941 100.323 113.14 100.323C111.489 100.325 109.841 100.472 108.215 100.763C106.503 101.066 104.824 101.528 103.198 102.143C100.573 103.139 98.1123 104.523 95.8973 106.249C95.1712 106.813 94.4746 107.412 93.8075 108.045H91.1913V77.697L87.541 74.0466H75.2236L71.5732 77.697V108.045H66.0649V115.346H88.2568C86.7173 118.254 85.7043 121.412 85.2646 124.674ZM78.8743 108.044V81.3473H83.891V108.044H78.8743ZM113.14 149.297C107.616 149.291 102.32 147.094 98.4132 143.188C94.5068 139.281 92.3095 133.985 92.3032 128.461C92.3095 122.936 94.5068 117.64 98.4132 113.733C102.32 109.827 107.616 107.63 113.14 107.624C118.665 107.63 123.961 109.827 127.868 113.734C131.774 117.64 133.971 122.936 133.977 128.461C133.971 133.985 131.774 139.281 127.868 143.188C123.961 147.094 118.665 149.291 113.14 149.297Z" fill="#0CC9AB"/>
<path d="M139.752 137.58C140.377 135.761 140.812 133.883 141.05 131.975L141.016 124.674L140.608 122.285L139.985 119.897L139.105 117.535L138.023 115.346L132.545 108.053L131.24 106.936L130.136 106.06L128.841 105.124L127.492 104.263L123.898 102.438L120.221 101.227L118.626 100.864L116.686 100.552L114.91 100.385L113.139 100.323L111.893 100.352L110.651 100.437L109.426 100.574L108.214 100.763L107.181 100.966L105.811 101.299L104.492 101.689L103.197 102.143L101.99 102.634L100.753 103.206L99.5709 103.824L98.4126 104.501L97.3927 105.161L96.3879 105.875L95.4463 106.607L94.5253 107.387L92.6758 109.169L90.906 111.223L89.3837 113.241L88.2561 115.346L87.2091 117.552L86.3466 119.881L85.6982 122.26L85.2639 124.674L85.2292 131.975C85.4674 133.883 85.9024 135.761 86.5273 137.58L90.3119 144.881L90.3113 144.881C92.9135 148.505 96.3411 151.459 100.311 153.496C104.28 155.534 108.678 156.597 113.14 156.599C119.341 156.603 125.367 154.549 130.274 150.758L147.084 167.568L152.247 162.406L135.437 145.595C135.618 145.36 135.795 145.122 135.968 144.881L139.752 137.58ZM113.14 149.298C107.615 149.292 102.319 147.094 98.4126 143.188C94.5062 139.282 92.3088 133.985 92.3025 128.461C92.3088 122.936 94.5062 117.64 98.4126 113.734C102.319 109.827 107.615 107.63 113.14 107.624C118.664 107.63 123.961 109.828 127.867 113.734C131.773 117.64 133.97 122.936 133.977 128.461C133.97 133.985 131.773 139.282 127.867 143.188C123.961 147.094 118.664 149.292 113.14 149.298Z" fill="#C5FFF6"/>
</svg>
