<svg width="214" height="213" viewBox="0 0 214 213" fill="none" xmlns="http://www.w3.org/2000/svg">
<rect x="0.875" width="212.235" height="212.235" rx="106.118" fill="#0E425E"/>
<path d="M154.828 127.202L155.573 103.784L152.164 100.266H123.254C126.406 97.8278 128.975 94.7175 130.774 91.1617C132.574 87.6058 133.559 83.6937 133.657 79.7097L133.674 79.6892V70.293L133.657 70.2722C133.477 63.2683 130.571 56.6112 125.557 51.7178C120.542 46.8244 113.817 44.0812 106.81 44.0723C99.8042 44.0811 93.0781 46.8241 88.0638 51.7172C83.0495 56.6104 80.1429 63.2674 79.9627 70.2712L79.9461 70.2919V79.6882L79.9627 79.709C80.0612 83.6927 81.046 87.6043 82.8455 91.1598C84.645 94.7153 87.214 97.8252 90.3658 100.264H61.4533L58.0446 103.781L58.7892 127.199H46.2891V134.016H59.0064L59.7489 157.362L63.1577 160.662H150.46L153.869 157.362L154.612 134.016H167.697V127.199L154.828 127.202ZM106.81 50.8887C111.258 50.8945 115.578 52.3766 119.092 55.1026C122.607 57.8285 125.117 61.6441 126.229 65.9506L107.749 62.0278L106.346 62.0251L87.3872 65.9711C88.4953 61.66 91.0043 57.8392 94.5201 55.1091C98.0358 52.3791 102.359 50.8945 106.81 50.8887ZM86.7642 79.045V73.0646L107.034 68.846L126.856 73.0537V79.045C126.85 84.3597 124.737 89.4551 120.978 93.2132C117.22 96.9714 112.125 99.0853 106.81 99.0914C101.496 99.0854 96.4001 96.9715 92.6419 93.2132C88.8838 89.455 86.77 84.3598 86.7642 79.045ZM147.16 153.848H66.4611L64.9734 107.083H148.649L147.16 153.848Z" fill="#0CC9AB"/>
<path d="M46.4174 76.9757L75.2552 91.5944L75.1888 83.3544L55.3206 73.5202L75.2549 63.6857V55.3131L46.4169 69.9318L46.4174 76.9757Z" fill="#C5FFF6"/>
<path d="M138.621 55.3145L138.689 63.6206L158.557 73.4551L138.622 83.2897V91.5957L167.46 77.0435V69.9328L138.621 55.3145Z" fill="#C5FFF6"/>
<path d="M123.012 127.55L124.308 126.821L122.221 121.53L120.768 121.897C120.472 121.972 120.181 122.045 119.894 122.116C119.321 122.259 118.774 122.396 118.224 122.54C117.391 121.61 116.517 120.71 115.621 119.859C115.799 119.283 115.96 118.717 116.106 118.205C116.176 117.96 116.242 117.723 116.308 117.5L116.713 116.109L111.478 113.611L110.683 114.951C110.541 115.191 110.398 115.43 110.253 115.667C109.966 116.141 109.671 116.629 109.39 117.133C108.662 117.084 107.946 117.079 107.252 117.074C106.698 117.07 106.173 117.067 105.655 117.042C105.357 116.576 105.081 116.072 104.792 115.542C104.65 115.282 104.507 115.022 104.361 114.763L103.63 113.473L98.3303 115.564L98.653 116.99C98.7192 117.282 98.7816 117.571 98.8436 117.857C98.9626 118.407 99.0849 118.972 99.2281 119.537C98.2395 120.408 97.3594 121.255 96.5447 122.116C95.9673 121.942 95.3997 121.789 94.8475 121.639C94.5853 121.568 94.3269 121.498 94.0744 121.428L92.6591 121.034L90.3071 126.305L91.6306 127.075C91.8669 127.211 92.101 127.352 92.3352 127.493C92.8278 127.787 93.3344 128.09 93.8665 128.373C93.7383 129.618 93.7113 130.871 93.7857 132.119C93.2475 132.405 92.7262 132.704 92.2197 132.994C91.9811 133.131 91.7424 133.267 91.5038 133.402L90.2086 134.13L92.2981 139.429L93.7247 139.105C94.0144 139.04 94.3011 138.977 94.5847 138.915C95.1386 138.795 95.7095 138.671 96.2757 138.527C97.1197 139.488 97.9862 140.39 98.8551 141.212C98.6795 141.792 98.5251 142.364 98.3864 142.878C98.3213 143.12 98.2586 143.351 98.1976 143.569L97.805 144.976L103.095 147.378L103.869 146.04C104.002 145.809 104.139 145.576 104.278 145.341C104.556 144.87 104.841 144.387 105.116 143.884C106.039 143.952 106.889 143.986 107.711 143.986C108.095 143.986 108.476 143.979 108.845 143.964C109.132 144.499 109.43 145.016 109.719 145.518C109.862 145.766 110.005 146.014 110.146 146.263L110.875 147.553L116.163 145.468L115.844 144.044C115.779 143.753 115.715 143.464 115.653 143.178C115.53 142.616 115.405 142.039 115.264 141.463C116.267 140.553 117.147 139.699 117.942 138.865C118.502 139.039 119.067 139.201 119.612 139.358C119.9 139.441 120.191 139.524 120.483 139.61L121.965 140.046L122.545 138.614L124.125 134.695L122.866 133.949C122.615 133.8 122.367 133.651 122.122 133.502C121.631 133.205 121.125 132.9 120.607 132.61C120.746 131.361 120.774 130.102 120.692 128.847C121.263 128.562 121.802 128.249 122.324 127.947C122.555 127.81 122.783 127.678 123.012 127.55ZM110.525 138.81C109.435 139.244 108.27 139.457 107.097 139.439C105.924 139.421 104.766 139.171 103.69 138.704C102.614 138.236 101.641 137.561 100.827 136.717C100.012 135.873 99.373 134.876 98.9451 133.783C98.5114 132.693 98.2974 131.528 98.3155 130.356C98.3335 129.183 98.5834 128.025 99.0505 126.949C99.5176 125.872 100.193 124.899 101.037 124.085C101.882 123.271 102.879 122.631 103.971 122.204C105.061 121.771 106.226 121.557 107.399 121.575C108.572 121.594 109.73 121.843 110.806 122.31C111.882 122.777 112.855 123.452 113.67 124.297C114.484 125.141 115.124 126.138 115.552 127.23C115.985 128.32 116.198 129.485 116.179 130.658C116.161 131.831 115.911 132.988 115.444 134.064C114.977 135.14 114.302 136.113 113.458 136.928C112.613 137.742 111.617 138.382 110.525 138.81Z" fill="#00FFFF"/>
</svg>
