<svg width="213" height="213" viewBox="0 0 213 213" fill="none" xmlns="http://www.w3.org/2000/svg">
<rect x="0.34375" y="0.0625" width="212.235" height="212.235" rx="106.118" fill="#0E425E"/>
<path d="M88.7304 105.141C79.1628 95.1133 74.3706 86.3275 73.1721 83.0809C72.8881 82.3021 72.3068 81.6678 71.5557 81.3171C70.8046 80.9663 69.9451 80.928 69.1657 81.2102C68.3851 81.4927 67.7486 82.0737 67.3964 82.8254C67.0442 83.5771 67.0051 84.4379 67.2876 85.2185C67.4397 85.6398 71.1689 95.6924 83.8585 109.103C91.2167 116.878 100.12 124.229 110.321 130.951C122.501 138.976 136.587 146.124 152.209 152.218C152.313 152.114 152.416 152.009 152.517 151.902L155.173 147.758C155.272 147.421 155.33 147.074 155.345 146.723C120.125 133.121 99.6932 116.632 88.7304 105.141Z" fill="#C5FFF6"/>
<path d="M159.441 140.432C158.315 138.996 157.095 137.635 155.788 136.36C150.379 131.164 146.203 126.691 142.648 122.279C140.664 119.818 138.635 117.343 136.673 114.949C135.725 113.793 134.778 112.637 133.832 111.48L133.82 111.466C132.747 110.096 131.19 109.19 129.469 108.933L130.117 107.013L129.987 106.848C129.575 106.308 129.114 105.808 128.611 105.352C127.807 104.617 127.1 103.782 126.509 102.867C124.568 99.8643 122.064 99.0057 120.119 98.8676L121.055 96.7183L121.077 96.7496L121.066 96.7342C120.801 96.3402 120.494 95.9751 120.153 95.6449C119.487 95.0026 118.828 94.341 118.13 93.6417C116.472 91.9221 114.728 90.2874 112.905 88.7438C103.564 81.0217 92.706 75.3466 81.0333 72.0858C78.2011 71.2745 75.2979 70.7366 72.3631 70.4792C71.5182 68.2969 70.673 66.115 69.8277 63.9335L69.167 62.229L68.6975 61.0125C68.2959 59.9727 67.8805 58.898 67.4604 57.8328C66.8556 56.2478 65.7851 54.8828 64.3898 53.9178C62.9945 52.9527 61.3398 52.4325 59.6433 52.4258C59.5876 52.4258 59.5323 52.4259 59.4769 52.4278C57.4818 52.4444 55.5594 53.1791 54.0618 54.4973C53.2281 55.2468 52.555 56.1573 52.0829 57.1741C51.6108 58.1908 51.3495 59.2926 51.3149 60.4131C51.2673 61.7451 51.4909 63.0729 51.9722 64.3158C53.6744 68.7267 55.4256 73.2656 57.159 77.7879C54.8856 82.447 53.5803 87.5185 53.3216 92.6961C52.8799 100.72 54.8841 108.592 59.2784 116.093C62.878 122.237 67.7675 127.792 74.2274 133.074C82.1428 139.54 90.8365 144.991 100.106 149.298C112.555 155.088 124.475 158.343 136.549 159.258C137.188 159.307 137.864 159.36 138.559 159.417C141.586 159.659 145.017 159.934 147.885 159.934C148.579 159.934 149.227 159.918 149.813 159.885C153.707 159.74 156.136 157.183 157.058 156.213L157.79 155.28L160.447 151.136L161.186 149.511C161.657 147.97 161.744 146.337 161.439 144.755C161.135 143.173 160.449 141.689 159.441 140.432ZM149.533 153.631C149.025 153.662 148.469 153.674 147.883 153.674C144.634 153.674 140.354 153.267 137.019 153.017C124.985 152.107 113.634 148.687 102.745 143.622C93.9467 139.541 85.6969 134.369 78.189 128.229C72.8585 123.87 68.1815 118.91 64.6787 112.93C61.0822 106.791 59.177 100.196 59.5707 93.0417C59.8123 87.9444 61.2764 82.9799 63.8393 78.5672C63.9474 78.3706 63.9736 78.1394 63.9125 77.9235C61.8896 72.6328 59.8559 67.346 57.8113 62.0633C57.6358 61.6077 57.554 61.1214 57.5709 60.6335C57.574 60.3619 57.6321 60.0938 57.7416 59.8452C57.8511 59.5966 58.0096 59.3727 58.2079 59.1871C58.5946 58.8562 59.0888 58.6783 59.5976 58.6864H59.6415C60.0828 58.6897 60.5122 58.8305 60.8697 59.0894C61.2271 59.3483 61.4949 59.7122 61.6357 60.1305C62.2079 61.581 62.7653 63.0372 63.3287 64.4911C64.8292 68.363 66.3288 72.235 67.8272 76.1074C67.9387 76.395 68.0188 76.6276 68.4185 76.6276H68.4499C68.7404 76.6188 69.0311 76.6148 69.3206 76.6148C72.7167 76.6559 76.0912 77.1613 79.3503 78.1171C90.1869 81.1359 100.266 86.4045 108.929 93.5797C111.373 95.5885 113.525 97.9521 115.809 100.153C115.877 100.234 115.94 100.319 115.997 100.408C115.768 100.436 115.606 100.465 115.442 100.473C113.68 100.563 111.918 100.607 110.157 100.605C106.823 100.605 103.492 100.457 100.162 100.215C99.8933 100.196 99.6197 100.168 99.3505 100.168C99.205 100.168 99.0597 100.178 98.9158 100.2C98.3174 100.293 97.7742 100.603 97.3905 101.072C97.0068 101.54 96.8094 102.134 96.8362 102.739C96.8451 103.328 97.0725 103.892 97.4743 104.322C97.876 104.752 98.4233 105.018 99.01 105.067C101.323 105.253 103.642 105.419 105.961 105.49C107.454 105.535 108.947 105.565 110.439 105.565C113.356 105.581 116.27 105.436 119.17 105.128C119.286 105.115 119.401 105.108 119.518 105.108C120.257 105.108 120.714 105.434 121.25 106.266C122.133 107.631 123.186 108.876 124.386 109.973C124.696 110.258 124.976 110.574 125.221 110.916C124.72 111.041 124.278 111.164 123.832 111.265C119.894 112.116 115.879 112.563 111.85 112.598C109.8 112.637 108.608 114.633 109.622 116.341C109.822 116.709 110.119 117.015 110.48 117.226C110.842 117.437 111.255 117.544 111.674 117.536C111.716 117.536 111.757 117.536 111.799 117.534C113.973 117.44 116.15 117.379 118.316 117.179C121.717 116.902 125.074 116.226 128.317 115.164C128.383 115.14 128.452 115.127 128.522 115.126C128.732 115.126 128.845 115.273 128.983 115.442C131.914 119.03 134.866 122.601 137.773 126.209C141.973 131.421 146.624 136.241 151.452 140.877C152.56 141.967 153.598 143.128 154.556 144.352C155.105 145.018 155.386 145.864 155.345 146.726C155.33 147.077 155.273 147.424 155.174 147.761L152.517 151.905C152.416 152.012 152.314 152.117 152.21 152.221C151.465 152.963 150.635 153.607 149.533 153.631Z" fill="#0CC9AB"/>
</svg>
