<svg width="213" height="214" viewBox="0 0 213 214" fill="none" xmlns="http://www.w3.org/2000/svg">
<rect y="0.9375" width="212.235" height="212.235" rx="106.118" fill="#0E425E"/>
<path d="M92.6871 97.3191L85.287 115.806H90.3591L91.3291 113.117H97.7593L98.6459 115.806H103.773L96.4285 97.3191H92.6871ZM92.6317 109.375L94.5719 103.056L96.4842 109.375H92.6317Z" fill="#C5FFF6"/>
<path d="M109.759 110.013H111.782C114.24 110.013 116.042 109.477 117.187 108.406C118.48 107.205 119.127 105.606 119.127 103.611C119.127 101.541 118.407 99.906 116.965 98.7045C115.857 97.7807 113.963 97.3187 111.284 97.3185H105.242V115.805H109.759V110.013ZM109.759 101.504H111.478C113.566 101.504 114.61 102.23 114.61 103.68C114.61 105.112 113.63 105.828 111.672 105.828H109.759V101.504Z" fill="#C5FFF6"/>
<path d="M125.973 97.3191H121.261V115.805H125.973V97.3191Z" fill="#C5FFF6"/>
<path d="M160.7 96.5435C159.655 96.4091 158.629 96.2741 157.616 96.1405C155.55 95.8688 153.579 95.6095 151.589 95.3715C150.066 91.2592 148.372 87.1956 146.542 83.2653C147.861 81.6152 149.118 79.972 150.252 78.4888C150.793 77.7824 151.313 77.1022 151.809 76.4612L154.831 72.5588L141.231 57.9653L137.04 61.2168C136.281 61.8058 135.498 62.4019 134.741 62.9784C133.188 64.1606 131.591 65.3764 130.023 66.6654C127.714 65.5677 125.386 64.6315 123.129 63.7239C121.324 62.9982 119.611 62.3092 117.946 61.5582C117.571 59.6503 117.319 57.6477 117.055 55.5458C116.93 54.5477 116.8 53.5156 116.654 52.478L115.953 47.4785H96.3564L95.599 52.3985C95.4417 53.4181 95.2733 54.4455 95.1104 55.4389C94.7911 57.3928 94.4604 59.4012 94.2046 61.4319C89.8549 63.006 85.8886 64.6373 82.1208 66.403C80.4661 65.0928 78.8063 63.8587 77.1936 62.6579C76.4153 62.079 75.6805 61.5324 74.9582 60.9866L70.9658 57.969L56.7923 71.8655L60.0256 75.959C60.6062 76.6926 61.17 77.4268 61.7674 78.204C62.9987 79.8036 64.2662 81.4503 65.6455 83.0612C63.6208 86.9579 61.9196 91.0143 60.5592 95.1894C58.4291 95.4298 56.3368 95.7352 54.3055 96.0313C53.3303 96.1739 52.4092 96.3083 51.4804 96.4378L46.4688 97.1302V116.721L51.3948 117.476C52.4095 117.631 53.4328 117.797 54.4225 117.958C56.3868 118.277 58.4062 118.605 60.4454 118.864C61.9631 123.095 63.6313 127.156 65.4115 130.955C64.0862 132.628 62.8445 134.298 61.7268 135.801C61.2043 136.506 60.7084 137.171 60.2404 137.79L57.2385 141.757L71.1403 156.116L75.2628 152.842C75.9801 152.272 76.7044 151.707 77.4712 151.108C78.9886 149.924 80.5485 148.706 82.0976 147.418C86.022 149.336 90.0545 151.025 94.1747 152.475C94.4221 154.584 94.7295 156.663 95.0283 158.684C95.1717 159.655 95.32 160.659 95.4568 161.632L96.1579 166.632H115.71L116.475 161.72C116.635 160.696 116.802 159.663 116.964 158.664C117.287 156.674 117.619 154.628 117.9 152.573C122.345 150.892 126.319 149.236 129.986 147.535C131.596 148.83 133.229 150.085 134.819 151.306C135.644 151.94 136.474 152.58 137.31 153.227L141.466 156.459L155.122 142.058L152.063 138.119C151.444 137.322 150.822 136.507 150.221 135.719C148.999 134.118 147.741 132.47 146.42 130.857C148.342 127.065 150.253 122.987 151.539 118.679C153.775 118.485 155.938 118.158 158.034 117.841C158.973 117.7 159.86 117.566 160.753 117.443L165.769 116.754V97.1955L160.7 96.5435ZM159.959 111.691C156.874 112.115 153.788 112.678 150.676 112.924C148.091 113.129 146.841 114.046 146.043 116.78C144.814 120.989 142.878 125.031 140.871 128.954C139.9 130.851 139.887 132.105 141.229 133.698C143.38 136.251 145.354 138.952 147.474 141.681L140.871 148.645C138 146.412 135.181 144.31 132.47 142.073C131.767 141.493 131.153 141.241 130.5 141.241C129.809 141.282 129.134 141.475 128.526 141.806C124.102 143.901 119.555 145.758 114.968 147.472C113.37 148.069 112.527 148.765 112.313 150.487C111.89 153.901 111.285 157.292 110.735 160.827H101.204C100.732 157.466 100.173 154.095 99.8164 150.703C99.5975 148.624 98.602 147.85 96.6131 147.175C92.2558 145.665 87.9995 143.878 83.8703 141.826C83.011 141.405 82.2878 141.15 81.596 141.15C80.865 141.15 80.1694 141.434 79.3852 142.108C76.8435 144.29 74.1581 146.304 71.6492 148.297L64.87 141.294C66.571 139.046 68.5657 136.263 70.7248 133.613C71.9891 132.061 71.7825 130.84 70.9507 129.09C68.9816 124.926 67.2291 120.662 65.7003 116.317C65.0643 114.519 64.3759 113.471 62.3745 113.248C59.0478 112.879 55.7475 112.27 52.2744 111.739V102.19C55.4711 101.748 58.7343 101.213 62.0177 100.873C64.2726 100.639 65.2437 99.6626 65.9582 97.3732C67.3019 93.1644 69.0181 89.0839 71.0866 85.18C72.1927 83.063 72.1875 81.7043 70.6375 79.9543C68.4935 77.5336 66.5881 74.9028 64.5803 72.3602L71.4556 65.6191C73.995 67.5384 76.773 69.5314 79.4227 71.6821C80.2179 72.3274 80.9303 72.6038 81.6767 72.6038C82.4729 72.5596 83.2493 72.3393 83.9501 71.9587C88.1159 69.9928 92.3774 68.2366 96.7188 66.6968C98.488 66.0633 99.599 65.4374 99.8179 63.4008C100.176 60.0735 100.797 56.7747 101.336 53.2825H110.904C111.402 56.8354 111.714 60.3795 112.489 63.8192C112.74 64.9308 114.032 66.1501 115.149 66.6628C119.423 68.6236 123.912 70.1286 128.126 72.1959C129.019 72.6337 129.767 72.8816 130.474 72.8816C131.273 72.8816 132.021 72.5652 132.868 71.8478C135.349 69.7474 137.986 67.8302 140.598 65.8032L147.217 72.9052C145.423 75.2207 143.322 78.0437 141.095 80.7646C140.004 82.0962 140.047 83.1161 140.804 84.7099C142.903 89.1314 144.793 93.6673 146.465 98.2676C147.114 100.053 148.035 100.806 149.78 101.006C153.106 101.386 156.423 101.848 159.958 102.302L159.959 111.691Z" fill="#0CC9AB"/>
<path d="M106.049 74.8646H106.027C101.8 74.8544 97.6126 75.6798 93.7057 77.2935C89.7987 78.9071 86.2493 81.2772 83.2615 84.2673C80.2736 87.2575 77.9064 90.8087 76.2958 94.7169C74.6851 98.6251 73.8629 102.813 73.8765 107.04C73.8676 111.266 74.6936 115.453 76.3072 119.359C77.9207 123.265 80.29 126.813 83.2789 129.801C86.2678 132.789 89.8174 135.157 93.724 136.769C97.6306 138.381 101.817 139.205 106.043 139.195V133.388C102.579 133.403 99.1457 132.731 95.9426 131.41C92.7395 130.09 89.83 128.147 87.3825 125.695C84.9293 123.249 82.9855 120.341 81.6638 117.139C80.342 113.937 79.6685 110.504 79.6821 107.04C79.6653 103.575 80.3358 100.141 81.655 96.9366C82.9741 93.7324 84.9156 90.8216 87.3671 88.3727C89.8145 85.9191 92.724 83.9751 95.9275 82.6532C99.131 81.3313 102.565 80.6576 106.03 80.6712H106.048C109.511 80.6571 112.942 81.3298 116.143 82.6503C119.344 83.9708 122.251 85.9131 124.696 88.3645C127.149 90.811 129.093 93.7193 130.415 96.9215C131.737 100.124 132.412 103.556 132.399 107.02C132.415 110.485 131.743 113.918 130.422 117.121C129.102 120.324 127.159 123.233 124.706 125.68C122.261 128.135 119.353 130.08 116.15 131.404C112.948 132.727 109.515 133.402 106.05 133.389L106.043 139.195H106.051C110.278 139.202 114.465 138.375 118.371 136.76C122.277 135.145 125.825 132.775 128.813 129.785C131.8 126.795 134.168 123.245 135.78 119.337C137.392 115.43 138.216 111.243 138.206 107.016C138.214 102.791 137.388 98.6063 135.775 94.7014C134.162 90.7964 131.793 87.2485 128.805 84.2612C125.818 81.2739 122.269 78.906 118.364 77.2935C114.459 75.681 110.274 74.8556 106.049 74.8646Z" fill="#0CC9AB"/>
</svg>
