<svg width="213" height="213" viewBox="0 0 213 213" fill="none" xmlns="http://www.w3.org/2000/svg">
<rect x="0.703125" y="0.34375" width="212.235" height="212.235" rx="106.118" fill="#0E425E"/>
<path d="M118.611 140.783L117.951 140.696C117.572 140.647 117.208 140.599 116.844 140.554C116.555 139.786 116.239 139.03 115.902 138.294C116.142 137.992 116.369 137.694 116.578 137.421C116.694 137.269 116.806 137.122 116.913 136.984L117.733 135.925L114.412 132.362L113.274 133.245C113.11 133.373 112.945 133.497 112.781 133.623C112.497 133.839 112.207 134.061 111.918 134.293C111.474 134.09 111.033 133.912 110.603 133.739C110.274 133.607 109.959 133.481 109.655 133.347C109.592 132.997 109.546 132.628 109.497 132.244C109.469 132.023 109.441 131.8 109.41 131.578L109.221 130.221H104.439L104.233 131.557C104.199 131.777 104.164 131.994 104.129 132.209C104.07 132.569 104.009 132.937 103.958 133.312C103.154 133.608 102.41 133.914 101.699 134.24C101.393 134.002 101.087 133.775 100.789 133.553C100.627 133.432 100.467 133.313 100.311 133.195L99.2268 132.375L95.7656 135.769L96.6436 136.88C96.7697 137.038 96.8923 137.199 97.0159 137.36C97.2413 137.653 97.4724 137.953 97.7205 138.251C97.3511 138.983 97.0332 139.74 96.7693 140.517C96.3765 140.564 95.9945 140.62 95.6215 140.674C95.4188 140.704 95.2168 140.734 95.016 140.761L93.6556 140.951V145.732L94.9929 145.937C95.2135 145.971 95.4283 146.006 95.642 146.04C96.0042 146.099 96.375 146.159 96.7508 146.211C97.038 146.996 97.3497 147.756 97.6785 148.471C97.4373 148.78 97.2107 149.085 97.0036 149.364C96.8933 149.512 96.787 149.655 96.6858 149.789L95.8709 150.866L97.9935 153.059L98.2693 153.342L99.2633 154.369L100.382 153.481C100.537 153.357 100.696 153.234 100.855 153.109C101.131 152.894 101.414 152.673 101.697 152.442C102.489 152.818 103.232 153.129 103.949 153.388C103.998 153.776 104.054 154.159 104.109 154.532C104.141 154.743 104.172 154.953 104.201 155.162L104.391 156.52H109.162L109.37 155.186C109.404 154.965 109.439 154.746 109.475 154.531C109.535 154.162 109.596 153.785 109.651 153.404C110.47 153.091 111.214 152.78 111.909 152.464C112.205 152.699 112.504 152.928 112.796 153.152C112.973 153.289 113.151 153.426 113.331 153.566L114.459 154.443L117.795 150.925L116.965 149.856C116.831 149.684 116.701 149.512 116.57 149.341C116.347 149.048 116.118 148.749 115.879 148.451C116.257 147.718 116.579 146.958 116.842 146.176C117.254 146.133 117.653 146.073 118.04 146.014C118.234 145.985 118.428 145.956 118.622 145.929L119.983 145.742V140.961L118.611 140.783ZM106.806 150.447V149.659C105.137 149.658 103.537 148.994 102.357 147.814C101.177 146.634 100.512 145.035 100.51 143.366C100.512 141.697 101.175 140.097 102.355 138.916C103.535 137.736 105.134 137.071 106.803 137.068C108.472 137.07 110.072 137.733 111.253 138.913C112.433 140.092 113.098 141.692 113.101 143.361C113.105 144.189 112.945 145.009 112.629 145.774C112.314 146.539 111.85 147.234 111.264 147.818C110.68 148.405 109.985 148.869 109.22 149.185C108.455 149.501 107.635 149.662 106.808 149.659L106.806 150.447Z" fill="#00FFFF"/>
<path d="M145.846 78.9904C149.152 78.9864 152.321 77.6715 154.659 75.334C156.996 72.9965 158.311 69.8273 158.315 66.5216C158.311 63.2159 156.996 60.0467 154.659 57.7092C152.321 55.3717 149.152 54.0567 145.846 54.0527C142.541 54.0567 139.371 55.3717 137.034 57.7092C134.696 60.0467 133.381 63.2159 133.377 66.5216C133.381 69.8273 134.696 72.9965 137.034 75.334C139.371 77.6715 142.541 78.9864 145.846 78.9904ZM145.846 60.359C147.48 60.3608 149.047 61.0109 150.203 62.1664C151.358 63.3219 152.008 64.8886 152.01 66.5228C152.008 68.157 151.358 69.7238 150.203 70.8793C149.047 72.0349 147.48 72.6848 145.846 72.6866C144.212 72.6848 142.645 72.0349 141.49 70.8793C140.334 69.7238 139.684 68.157 139.682 66.5228C139.684 64.8884 140.334 63.3214 141.489 62.1656C142.645 61.0098 144.212 60.3596 145.846 60.3578V60.359Z" fill="#C5FFF6"/>
<path d="M129.102 54.0527H122.797V78.9904H129.102V54.0527Z" fill="#C5FFF6"/>
<path d="M96.118 78.9904C99.4236 78.9864 102.593 77.6714 104.93 75.3339C107.268 72.9964 108.583 69.8273 108.587 66.5216C108.583 63.2159 107.268 60.0468 104.93 57.7093C102.593 55.3718 99.4236 54.0568 96.118 54.0527C92.8122 54.0567 89.6429 55.3716 87.3054 57.7091C84.9678 60.0466 83.6528 63.2158 83.6488 66.5216C83.6528 69.8274 84.9678 72.9966 87.3054 75.3341C89.6429 77.6716 92.8122 78.9865 96.118 78.9904ZM96.118 60.359C97.7521 60.3608 99.3188 61.0109 100.474 62.1664C101.63 63.322 102.28 64.8887 102.281 66.5228C102.28 68.157 101.63 69.7237 100.474 70.8792C99.3188 72.0348 97.7521 72.6848 96.118 72.6866C94.4837 72.6848 92.917 72.0349 91.7614 70.8793C90.6058 69.7238 89.9558 68.157 89.9538 66.5228C89.9554 64.8884 90.6054 63.3214 91.761 62.1656C92.9166 61.0097 94.4835 60.3596 96.118 60.3578V60.359Z" fill="#C5FFF6"/>
<path d="M67.7942 78.9904C71.0999 78.9864 74.2691 77.6715 76.6066 75.334C78.9441 72.9965 80.2591 69.8273 80.2631 66.5216C80.2591 63.2159 78.9441 60.0467 76.6066 57.7092C74.2691 55.3717 71.0999 54.0567 67.7942 54.0527C64.4885 54.0567 61.3193 55.3717 58.9818 57.7092C56.6444 60.0467 55.3294 63.2159 55.3254 66.5216C55.3294 69.8273 56.6444 72.9965 58.9818 75.334C61.3193 77.6715 64.4885 78.9864 67.7942 78.9904ZM67.7942 60.359C69.4284 60.3608 70.9951 61.0109 72.1506 62.1664C73.3062 63.3219 73.9562 64.8886 73.958 66.5228C73.9562 68.157 73.3062 69.7238 72.1506 70.8793C70.9951 72.0349 69.4284 72.6848 67.7942 72.6866C66.16 72.6848 64.5933 72.0349 63.4378 70.8793C62.2822 69.7238 61.6322 68.157 61.6304 66.5228C61.6319 64.8884 62.2817 63.3214 63.4373 62.1656C64.5929 61.0098 66.1598 60.3596 67.7942 60.3578V60.359Z" fill="#C5FFF6"/>
<path d="M119.166 54.0527H112.861V78.9904H119.166V54.0527Z" fill="#C5FFF6"/>
<path d="M44.2891 85.6278V91.9329H51.8201L83.6754 132.627C82.1109 135.986 81.3014 139.647 81.3038 143.352C81.3114 150.118 84.0022 156.604 88.786 161.387C93.5698 166.171 100.056 168.862 106.821 168.87C113.587 168.862 120.073 166.171 124.856 161.387C129.64 156.604 132.331 150.118 132.339 143.352C132.341 139.647 131.532 135.986 129.967 132.627L161.822 91.9329H169.353V85.6278H44.2891ZM106.821 162.565C101.727 162.559 96.8441 160.533 93.2423 156.931C89.6405 153.329 87.6145 148.446 87.6088 143.352C87.6146 138.258 89.6406 133.375 93.2424 129.773C96.8441 126.171 101.728 124.145 106.821 124.14C111.915 124.145 116.798 126.171 120.4 129.773C124.002 133.375 126.028 138.258 126.034 143.352C126.028 148.446 124.002 153.329 120.4 156.931C116.798 160.533 111.915 162.559 106.821 162.565ZM126.378 126.983C123.987 124.119 120.996 121.815 117.617 120.235C114.237 118.654 110.552 117.834 106.821 117.835C103.09 117.834 99.4051 118.654 96.0258 120.234C92.6466 121.815 89.6558 124.119 87.2652 126.984L59.8272 91.9329H153.815L126.378 126.983Z" fill="#0CC9AB"/>
</svg>
