<svg width="213" height="213" viewBox="0 0 213 213" fill="none" xmlns="http://www.w3.org/2000/svg">
<rect x="0.234375" width="212.235" height="212.235" rx="106.118" fill="#0E425E"/>
<path d="M139.581 80.9752C137.911 79.5535 134.617 76.995 132.466 76.995C129.35 76.995 123.077 80.8418 124.816 82.5201C124.816 82.5201 128.216 86.2032 130.058 86.7698C130.161 86.799 130.267 86.8128 130.374 86.8107C132.104 86.8107 136.804 84.0968 139.158 82.6682C139.866 82.2377 140.211 81.5115 139.581 80.9752Z" fill="#00FFFF"/>
<path d="M80.0859 123.555L47.6055 102.002V112.618L72.5339 128.085V128.489L47.6055 143.956V154.572L80.0859 133.02V123.555Z" fill="#C5FFF6"/>
<path d="M100.741 148.01H73.559V154.993H100.741V148.01Z" fill="#00FFFF"/>
<path d="M161 116.764C160.891 116.141 160.645 115.551 160.28 115.035C160.18 111.817 159.878 108.513 159.512 105.351C158.796 99.1361 154.351 92.4281 151.106 87.5315C149.917 85.7383 148.57 83.7052 148.281 82.9116C147.439 80.5965 146.402 73.3236 145.942 69.2488C145.688 67.0279 144.907 64.8996 143.665 63.0408C141.769 60.2271 137.987 56.942 130.733 57.2664C126.805 57.441 121.581 59.157 119.002 66.3276C117.51 70.4722 117.381 75.2076 117.295 78.3414C117.274 79.1095 117.256 79.7712 117.222 80.2753C117.101 82.0982 116.372 83.824 114.775 87.6052C112.972 91.8734 110.247 98.3237 106.326 109.836C106.215 110.161 106.118 110.479 106.017 110.798C104.123 111.487 102.266 112.747 100.541 113.92C99.6746 114.509 98.3708 115.395 97.8904 115.571C97.2876 115.724 96.7232 116 96.233 116.383C95.7428 116.766 95.3375 117.246 95.0429 117.794C94.3924 118.96 93.7566 120.979 94.6239 126.289C94.98 128.495 95.4844 130.674 96.1333 132.812C96.8874 135.074 98.8345 136.379 108.947 138.608C113.879 139.694 118.637 140.502 118.837 140.536L118.998 140.559C119.391 140.608 119.788 140.632 120.185 140.633C123.732 140.633 125.517 138.49 126.022 136.292C128.638 136.402 132.279 136.522 136.08 136.541C136.267 138.588 137.323 140.599 139.921 141.351C140.552 141.544 141.21 141.638 141.87 141.63C143.939 141.63 147.683 140.852 154.386 137C157.14 135.417 163.661 131.435 164.731 128.651C165.925 125.543 163.991 122.18 162.287 119.212C161.805 118.425 161.375 117.607 161 116.764ZM102.461 129.617C101.824 127.277 101.154 123.573 101.167 121.746C102.311 121.135 103.412 120.45 104.466 119.695C105.503 118.99 107.307 117.764 108.319 117.375C109.499 118.475 112.055 121.429 114.679 125.357C117.36 129.369 118.526 132.005 118.974 133.472C112.387 132.318 104.913 130.643 102.461 129.617ZM138.678 125.229C138.224 126.739 137.799 128.234 137.437 129.554C133.164 129.558 128.604 129.427 124.85 129.248C123.95 127.127 122.492 124.426 120.156 120.991C118.628 118.731 116.969 116.561 115.189 114.493C114.479 113.663 113.721 112.875 112.92 112.132C112.925 112.117 112.93 112.102 112.935 112.087C116.775 100.81 119.441 94.4989 121.206 90.3221C123 86.0742 123.988 83.7339 124.188 80.7397C124.231 80.099 124.25 79.3731 124.274 78.5324C124.51 69.8867 125.725 64.4803 131.047 64.2422C134.221 64.0987 136.414 64.9254 137.75 66.7657C138.4 67.685 138.823 68.745 138.985 69.8591L138.998 69.9869C139.129 71.1475 140.315 81.4366 141.719 85.298C142.292 86.8716 143.547 88.7664 145.286 91.3891C148.14 95.6971 152.051 101.597 152.576 106.15C152.849 108.528 153.046 110.706 153.169 112.705C152.556 112.72 151.888 112.756 151.144 112.82C149.095 112.994 147.06 113.306 145.053 113.753C142.571 114.377 141.2 116.844 138.678 125.229ZM150.543 131.152C147.122 133.088 144.782 133.994 143.373 134.381C144.826 128.732 146.731 122.493 147.805 120.3C149.876 119.913 153.004 119.587 154.648 119.684C155.118 120.715 155.647 121.719 156.233 122.69C156.901 123.788 157.489 124.932 157.993 126.114C155.669 128.017 153.175 129.703 150.543 131.152Z" fill="#0CC9AB"/>
</svg>
