<svg width="214" height="213" viewBox="0 0 214 213" fill="none" xmlns="http://www.w3.org/2000/svg">
<rect x="0.9375" y="0.34375" width="212.235" height="212.235" rx="106.118" fill="#0E425E"/>
<path d="M160.349 96.5218C159.234 96.5222 158.124 96.6563 157.042 96.9213C154.969 97.4283 153.04 98.4052 151.405 99.7765C149.94 101.003 148.741 102.516 147.881 104.222C147.448 105.081 147.105 105.982 146.859 106.912C146.552 108.075 146.396 109.272 146.397 110.474C146.398 111.315 146.474 112.153 146.626 112.979C146.813 114.011 147.117 115.018 147.531 115.981C148.357 117.889 149.596 119.59 151.16 120.96C152.722 122.332 154.57 123.338 156.571 123.902C157.8 124.25 159.071 124.426 160.349 124.426C164.048 124.422 167.594 122.951 170.21 120.335C172.825 117.72 174.297 114.173 174.301 110.474C174.297 106.775 172.826 103.229 170.21 100.613C167.594 97.9974 164.048 96.526 160.349 96.5218ZM160.349 118.355C158.259 118.353 156.256 117.522 154.779 116.044C153.301 114.567 152.47 112.564 152.468 110.474C152.47 108.385 153.301 106.382 154.779 104.904C156.256 103.427 158.259 102.596 160.349 102.593C162.438 102.596 164.441 103.427 165.919 104.904C167.396 106.382 168.227 108.385 168.229 110.474C168.227 112.564 167.396 114.567 165.919 116.045C164.441 117.522 162.438 118.353 160.349 118.356V118.355Z" fill="#C5FFF6"/>
<path d="M112.101 90.4071C114.432 90.4089 116.679 89.5397 118.402 87.9698L147.88 104.222C148.74 102.516 149.939 101.004 151.404 99.7769C153.039 98.4056 154.968 97.4287 157.041 96.9218L120.367 57.5203C121.098 56.1605 121.48 54.6401 121.479 53.096C121.476 50.6098 120.487 48.2264 118.729 46.4684C116.971 44.7104 114.588 43.7216 112.101 43.7188C109.615 43.7216 107.232 44.7104 105.474 46.4684C103.716 48.2264 102.727 50.6098 102.724 53.096C102.725 53.5334 102.756 53.9703 102.817 54.4035L64.935 73.6287C63.2932 72.3462 61.2693 71.6502 59.1859 71.6518C56.6998 71.6545 54.3163 72.6433 52.5583 74.4013C50.8003 76.1592 49.8114 78.5427 49.8086 81.0289C49.8113 83.5151 50.8002 85.8987 52.5582 87.6567C54.3161 89.4148 56.6997 90.4037 59.1859 90.4065C61.2607 90.408 63.2767 89.7177 64.9152 88.4449L102.524 107.634C102.461 108.074 102.429 108.518 102.428 108.962C102.429 109.406 102.461 109.85 102.524 110.29L64.9152 129.48C63.2768 128.207 61.2607 127.516 59.1859 127.518C56.6998 127.521 54.3162 128.51 52.5583 130.268C50.8003 132.025 49.8114 134.409 49.8086 136.895C49.8114 139.381 50.8003 141.765 52.5583 143.523C54.3162 145.281 56.6998 146.27 59.1859 146.272C61.2692 146.274 63.2931 145.578 64.935 144.296L102.817 163.521C102.756 163.954 102.725 164.391 102.724 164.828C102.727 167.314 103.716 169.698 105.474 171.456C107.232 173.214 109.615 174.203 112.101 174.205C114.588 174.203 116.971 173.214 118.729 171.456C120.487 169.698 121.476 167.314 121.479 164.828C121.48 163.37 121.139 161.932 120.483 160.63L156.57 123.902C154.57 123.337 152.721 122.332 151.159 120.96C149.595 119.59 148.356 117.889 147.53 115.981L118.703 130.242C116.95 128.496 114.576 127.516 112.101 127.518C110.147 127.52 108.242 128.133 106.652 129.269C105.062 130.406 103.866 132.011 103.231 133.86H69.6898L105.289 115.695C107.034 117.392 109.372 118.341 111.806 118.34C113.716 118.337 115.579 117.753 117.148 116.664C118.717 115.576 119.917 114.034 120.588 112.246L146.625 112.979C146.473 112.153 146.397 111.314 146.396 110.474C146.395 109.272 146.551 108.074 146.858 106.912L120.761 106.177C120.164 104.268 118.974 102.599 117.364 101.414C115.753 100.228 113.806 99.587 111.806 99.5847C109.372 99.5837 107.034 100.532 105.288 102.229L69.6895 84.0646H103.231C103.866 85.9134 105.061 87.5183 106.651 88.6552C108.242 89.7921 110.147 90.4045 112.101 90.4071ZM59.1859 84.3357C58.3093 84.3349 57.4689 83.9863 56.8491 83.3664C56.2293 82.7466 55.8807 81.906 55.88 81.0295C55.8809 80.153 56.2295 79.3127 56.8493 78.6929C57.4691 78.0732 58.3094 77.7248 59.1859 77.724C60.0624 77.7248 60.9028 78.0732 61.5226 78.6929C62.1424 79.3127 62.4909 80.153 62.4918 81.0295C62.4911 81.906 62.1426 82.7466 61.5227 83.3664C60.9029 83.9863 60.0625 84.3349 59.1859 84.3357ZM59.1859 140.202C58.3094 140.201 57.469 139.852 56.8492 139.233C56.2294 138.613 55.8808 137.772 55.88 136.896C55.8808 136.019 56.2294 135.179 56.8492 134.559C57.469 133.939 58.3094 133.591 59.1859 133.59C60.0625 133.591 60.9029 133.939 61.5227 134.559C62.1425 135.179 62.491 136.019 62.4918 136.896C62.491 137.772 62.1425 138.613 61.5227 139.233C60.9029 139.852 60.0625 140.201 59.1859 140.202ZM112.101 168.135C111.225 168.134 110.385 167.785 109.765 167.165C109.145 166.546 108.796 165.705 108.796 164.829C108.796 163.952 109.145 163.112 109.765 162.492C110.385 161.872 111.225 161.524 112.101 161.523C112.978 161.524 113.818 161.872 114.438 162.492C115.058 163.112 115.406 163.952 115.407 164.829C115.407 165.705 115.058 166.546 114.438 167.165C113.818 167.785 112.978 168.134 112.101 168.135ZM112.101 133.59C112.978 133.591 113.818 133.939 114.438 134.559C115.058 135.179 115.407 136.019 115.407 136.896C115.407 137.772 115.058 138.613 114.438 139.233C113.818 139.852 112.978 140.201 112.101 140.202C111.225 140.201 110.385 139.852 109.765 139.233C109.145 138.613 108.796 137.772 108.796 136.896C108.796 136.019 109.145 135.179 109.765 134.559C110.385 133.939 111.225 133.591 112.101 133.59ZM103.231 139.932C103.866 141.78 105.062 143.385 106.652 144.521C108.242 145.658 110.147 146.27 112.101 146.273C114.588 146.27 116.971 145.281 118.729 143.523C120.487 141.765 121.476 139.382 121.479 136.896C121.478 136.49 121.451 136.086 121.398 135.684L150.752 121.162L116.154 156.373C114.89 155.765 113.504 155.45 112.101 155.452C109.661 155.45 107.316 156.404 105.57 158.11L69.7505 139.932H103.231ZM111.806 105.657C112.682 105.658 113.523 106.006 114.143 106.626C114.762 107.246 115.111 108.086 115.112 108.963C115.111 109.839 114.762 110.68 114.143 111.3C113.523 111.919 112.682 112.268 111.806 112.269C110.929 112.268 110.089 111.919 109.469 111.3C108.849 110.68 108.501 109.839 108.5 108.963C108.501 108.086 108.849 107.246 109.469 106.626C110.088 106.007 110.928 105.658 111.805 105.657H111.806ZM112.101 84.3357C111.225 84.3349 110.384 83.9863 109.765 83.3664C109.145 82.7466 108.796 81.906 108.796 81.0295C108.796 80.153 109.145 79.3127 109.765 78.6929C110.385 78.0732 111.225 77.7248 112.101 77.724C112.978 77.7248 113.818 78.0732 114.438 78.6929C115.058 79.3127 115.406 80.153 115.407 81.0295C115.407 81.906 115.058 82.7466 114.438 83.3664C113.819 83.9863 112.978 84.3349 112.101 84.3357ZM112.101 49.7908C112.978 49.7916 113.818 50.1401 114.438 50.7599C115.058 51.3797 115.407 52.2202 115.407 53.0967C115.407 53.9732 115.058 54.8136 114.438 55.4334C113.818 56.0532 112.978 56.4017 112.101 56.4025C111.225 56.4017 110.385 56.0532 109.765 55.4334C109.145 54.8136 108.796 53.9732 108.796 53.0967C108.796 52.2202 109.145 51.3797 109.765 50.7599C110.385 50.1401 111.225 49.7916 112.101 49.7908ZM105.57 59.8156C107.316 61.521 109.661 62.4752 112.101 62.4739C113.418 62.4747 114.721 62.1963 115.922 61.657L150.362 98.6572L121.335 82.6539C121.43 82.1176 121.478 81.5741 121.479 81.0295C121.476 78.5434 120.487 76.1599 118.729 74.402C116.971 72.6441 114.588 71.6553 112.101 71.6525C110.147 71.6551 108.242 72.2673 106.652 73.404C105.062 74.5407 103.866 76.1452 103.231 77.9937H69.7505L105.57 59.8156Z" fill="#0CC9AB"/>
</svg>
