<svg width="214" height="214" viewBox="0 0 214 214" fill="none" xmlns="http://www.w3.org/2000/svg">
<rect x="0.9375" y="0.875" width="212.235" height="212.235" rx="106.118" fill="#0E425E"/>
<path d="M159.329 139.192L162.979 135.542V65.5407L159.329 61.8906H54.3281L50.678 65.5407V135.542L54.3281 139.192H159.329ZM57.9782 69.1908H155.679V131.892H57.9782V69.1908Z" fill="#0CC9AB"/>
<path d="M172.055 144.796H42.0547V152.096H172.055V144.796Z" fill="#0CC9AB"/>
<path d="M91.8248 81.1748C86.1141 81.1748 81.3335 83.0908 77.4829 86.9229C73.6323 90.7551 71.7067 95.5069 71.7059 101.179C71.7059 106.775 73.6412 111.48 77.5118 115.291C81.3823 119.102 86.1533 121.008 91.8248 121.01C97.5343 121.01 102.353 119.094 106.282 115.262C110.21 111.43 112.174 106.716 112.173 101.121C112.173 95.5267 110.209 90.8036 106.282 86.9518C102.354 83.1 97.535 81.1743 91.8248 81.1748ZM99.4126 109.098C98.4911 110.134 97.3565 110.96 96.0867 111.517C94.8168 112.075 93.4415 112.352 92.0548 112.329C90.6371 112.362 89.2286 112.091 87.9246 111.534C86.6205 110.977 85.4512 110.146 84.4958 109.098C82.4838 106.944 81.4779 104.246 81.4779 101.005C81.4779 97.8412 82.4743 95.1916 84.467 93.0558C85.4108 92.0182 86.5663 91.1953 87.8555 90.6428C89.1447 90.0903 90.5375 89.8211 91.9398 89.8533C93.3421 89.8288 94.7332 90.1074 96.0179 90.6701C97.3027 91.2328 98.4508 92.0662 99.3838 93.1135C101.396 95.2867 102.402 97.9747 102.402 101.177C102.477 104.107 101.404 106.95 99.4126 109.099V109.098Z" fill="#C5FFF6"/>
<path d="M133.042 98.2469L128.328 96.1201C126.144 95.1238 125.051 93.8592 125.051 92.3262C125.052 91.9277 125.142 91.5345 125.317 91.1761C125.491 90.8177 125.744 90.5035 126.057 90.2569C126.719 89.6851 127.568 89.3779 128.443 89.3944C130.435 89.3944 131.603 90.6209 131.949 93.0737H141.664C141.617 91.6037 141.385 90.1454 140.974 88.7334C140.538 87.5644 139.895 86.4836 139.076 85.5432C136.662 82.6314 133.213 81.1753 128.729 81.1748C124.972 81.1748 121.792 82.2669 119.187 84.4511C116.582 86.6353 115.279 89.3178 115.278 92.4988C115.278 95.7179 116.566 98.3621 119.143 100.431C120.553 101.534 122.105 102.443 123.757 103.132L128.198 104.972C130.928 106.084 132.293 107.463 132.293 109.11C132.302 109.599 132.21 110.084 132.02 110.535C131.831 110.985 131.549 111.391 131.193 111.726C130.833 112.076 130.407 112.35 129.939 112.532C129.472 112.715 128.973 112.802 128.471 112.789C127.906 112.81 127.344 112.693 126.834 112.448C126.325 112.202 125.883 111.836 125.547 111.381C124.832 110.442 124.475 109.187 124.476 107.616H114.646V108.88C114.646 112.598 115.891 115.549 118.382 117.733C120.873 119.917 124.264 121.009 128.557 121.009C132.772 121.009 136.058 119.975 138.415 117.907C140.772 115.838 141.95 112.964 141.95 109.284C141.95 106.755 141.27 104.647 139.909 102.961C138.549 101.275 136.259 99.7036 133.042 98.2469Z" fill="#C5FFF6"/>
</svg>
