<svg width="213" height="214" viewBox="0 0 213 214" fill="none" xmlns="http://www.w3.org/2000/svg">
<rect x="0.109375" y="0.9375" width="212.235" height="212.235" rx="106.118" fill="#0E425E"/>
<path d="M73.0995 84.3155C75.7466 80.3064 79.0665 76.7848 82.9126 73.906V65.5663C76.3501 69.4975 70.8061 74.9195 66.7299 81.3929H68.0363L73.0995 84.3155Z" fill="#C5FFF6"/>
<path d="M141.398 83.136L144.417 81.3928H147.887L148.959 82.0118C144.19 74.179 137.303 67.8536 129.095 63.7649V71.6779C133.931 74.6225 138.117 78.5211 141.398 83.136Z" fill="#C5FFF6"/>
<path d="M73.0992 129.795L68.0363 132.719H66.7299C70.806 139.192 76.3501 144.614 82.9126 148.545V140.205C79.0665 137.326 75.7466 133.804 73.0992 129.795Z" fill="#C5FFF6"/>
<path d="M148.962 132.098L147.889 132.717H144.419L141.4 130.974C138.12 135.589 133.934 139.487 129.097 142.432V150.345C137.306 146.256 144.192 139.931 148.962 132.098Z" fill="#C5FFF6"/>
<path d="M104.27 92.8156H107.74L127.362 81.487L129.097 78.4821V55.8241L127.362 52.8189L107.74 41.4902H104.27L84.6483 52.8189L82.9134 55.8241V78.4821L84.6483 81.487L104.27 92.8156ZM89.8531 61.8387L102.535 69.158V83.8007L89.8531 76.4793V61.8387ZM122.157 76.4786L109.475 83.8V69.1573L122.157 61.8376V76.4786ZM106.005 48.5024L118.691 55.8265H118.688L106.005 63.1479L93.3222 55.8265H93.3198L106.005 48.5024Z" fill="#0CC9AB"/>
<path d="M107.74 121.294H104.27L84.6483 132.623L82.9134 135.628V158.286L84.6483 161.291L104.27 172.619H107.74L127.362 161.291L129.097 158.286V135.628L127.362 132.623L107.74 121.294ZM106.005 128.306L118.691 135.63L118.688 135.631L106.005 142.951L93.3222 135.631L93.3198 135.63L106.005 128.306ZM89.8531 141.642L102.535 148.961V163.604L89.8531 156.282V141.642ZM122.157 156.282L109.475 163.603V148.961L122.157 141.642V156.282Z" fill="#0CC9AB"/>
<path d="M167.511 92.7213L147.889 81.3926H144.419L124.798 92.7213L123.063 95.7261V118.384L124.798 121.389L144.419 132.718H147.889L167.511 121.389L169.246 118.384V95.7261L167.511 92.7213ZM146.154 88.4041L158.84 95.7282H158.837L146.154 103.05L133.471 95.7282H133.469L146.154 88.4041ZM130.002 116.38V101.74L142.684 109.059V123.702L130.002 116.38ZM162.306 116.38L149.624 123.702V109.059L162.306 101.74V116.38Z" fill="#0CC9AB"/>
<path d="M89.3944 118.384V95.7255L87.6595 92.7207L68.0376 81.392H64.5678L44.9459 92.7207L43.2109 95.7255V118.384L44.9459 121.389L64.5678 132.717H68.0376L87.6595 121.389L89.3944 118.384ZM66.3027 88.4041L78.9884 95.7283H78.9856L66.3027 103.05L53.6198 95.7283H53.6173L66.3027 88.4041ZM50.1506 101.74L62.8329 109.059V123.702L50.1506 116.381V101.74ZM82.4548 116.38L69.7725 123.702V109.059L82.4548 101.74V116.38Z" fill="#0CC9AB"/>
</svg>
