<svg width="213" height="213" viewBox="0 0 213 213" fill="none" xmlns="http://www.w3.org/2000/svg">
<rect width="212.235" height="212.235" rx="106.118" fill="#0E425E"/>
<path d="M172.356 89.337C172.232 84.3111 170.15 79.5324 166.553 76.0193C162.957 72.5062 158.131 70.5366 153.104 70.5302C148.076 70.5365 143.25 72.5061 139.654 76.0192C136.057 79.5323 133.975 84.3111 133.851 89.337L133.839 89.3514V95.8148L133.851 95.8292C133.929 99.0675 134.822 102.234 136.447 105.036C138.073 107.838 140.378 110.185 143.151 111.86L141.253 121.507H139.33L140.044 112.631H121.586L118.792 104.508C122.328 102.63 125.301 99.8459 127.407 96.4408C129.512 93.0357 130.675 89.1321 130.775 85.1298L130.789 85.1126V77.3272L130.775 77.31C130.626 71.426 128.186 65.8326 123.974 61.721C119.762 57.6094 114.112 55.3044 108.226 55.2969C102.34 55.3044 96.6895 57.6094 92.4777 61.721C88.266 65.8326 85.8258 71.426 85.6767 77.31L85.6626 77.3272V85.1126L85.6767 85.1298C85.7769 89.1321 86.9394 93.0359 89.045 96.441C91.1507 99.8461 94.1239 102.63 97.6599 104.508L94.8661 112.631H74.6906L75.404 121.507H73.4814L71.5038 111.455C74.2976 109.785 76.6229 107.435 78.263 104.624C79.9031 101.813 80.8045 98.632 80.883 95.3782L80.8946 95.3642V88.9004L80.883 88.8863C80.759 83.8604 78.677 79.0817 75.0807 75.5685C71.4845 72.0554 66.6583 70.0857 61.6308 70.0792C56.6034 70.0857 51.7773 72.0554 48.1811 75.5685C44.5848 79.0817 42.5028 83.8604 42.3788 88.8863L42.3672 88.9004V95.3642L42.3788 95.3785C42.4573 98.6322 43.3586 101.813 44.9987 104.624C46.6388 107.435 48.9642 109.785 51.758 111.455L49.7804 121.507H43.9413V127.767H75.9069L78.6181 161.513L107.367 171.939L136.116 161.513L138.828 127.767H171.131V121.507H164.954L163.056 111.86C165.828 110.185 168.134 107.838 169.759 105.036C171.385 102.234 172.278 99.0675 172.356 95.8292L172.367 95.8148V89.3508L172.356 89.337ZM57.6805 113.777C58.9797 114.049 60.3035 114.186 61.6308 114.186C62.9582 114.186 64.282 114.049 65.5811 113.777L67.1015 121.505H56.1602L57.6805 113.777ZM61.6308 76.3386C64.2941 76.3416 66.8924 77.1609 69.0757 78.686C71.259 80.2112 72.9223 82.3689 73.8416 84.8685L62.4392 82.4483L61.1518 82.4461L49.4126 84.8891C50.329 82.3845 51.992 80.2215 54.1771 78.6924C56.3621 77.1632 58.9639 76.3416 61.6308 76.3386ZM48.6265 94.9216V91.4458L61.783 88.708L74.6353 91.4358V94.9216C74.6314 98.3694 73.26 101.675 70.8221 104.113C68.3841 106.551 65.0786 107.922 61.6308 107.926C58.183 107.922 54.8777 106.551 52.4397 104.113C50.0018 101.675 48.6304 98.3694 48.6265 94.9216ZM108.226 61.5562C111.758 61.5611 115.192 62.7109 118.015 64.833C120.838 66.955 122.897 69.9351 123.883 73.3263L109.067 70.1816L107.779 70.1791L92.5629 73.346C93.5458 69.9501 95.6043 66.9649 98.4288 64.8389C101.253 62.7129 104.692 61.561 108.227 61.5562H108.226ZM91.9204 84.5793V79.8726L108.409 76.4412L124.527 79.8626V84.5793C124.522 88.9021 122.803 93.0466 119.746 96.1035C116.69 99.1603 112.546 100.88 108.223 100.885C103.9 100.879 99.7567 99.1593 96.7007 96.1026C93.6446 93.0458 91.9259 88.9017 91.9213 84.5793H91.9204ZM103.541 106.651C105.08 106.978 106.65 107.143 108.224 107.143C109.799 107.143 111.368 106.978 112.908 106.651L114.965 112.631H101.484L103.541 106.651ZM130.198 157.001L107.365 165.281L84.5335 157.001L81.4717 118.89H133.26L130.198 157.001ZM153.102 76.7896C155.765 76.7926 158.363 77.6118 160.547 79.1369C162.73 80.662 164.393 82.8197 165.313 85.3192L153.91 82.8993L152.623 82.8968L140.884 85.3398C141.8 82.835 143.464 80.672 145.649 79.1429C147.834 77.6138 150.436 76.7923 153.104 76.7896H153.102ZM157.137 114.208L158.573 121.505H147.631L149.067 114.208C150.393 114.492 151.745 114.636 153.102 114.636C154.458 114.636 155.811 114.492 157.138 114.208H157.137ZM166.106 95.3729C166.102 98.8207 164.731 102.126 162.293 104.564C159.855 107.002 156.549 108.374 153.102 108.378C149.654 108.374 146.348 107.002 143.91 104.564C141.473 102.126 140.101 98.8207 140.097 95.3729V91.899L153.254 89.1611L166.106 91.889V95.3729Z" fill="#0CC9AB"/>
<path d="M114.953 133.266V131.62C114.951 129.595 114.145 127.653 112.713 126.221C111.281 124.789 109.34 123.984 107.315 123.981C105.29 123.984 103.348 124.789 101.916 126.221C100.484 127.653 99.6785 129.595 99.6761 131.62V133.271C98.0926 133.347 96.5988 134.028 95.5038 135.174C94.4088 136.321 93.7966 137.844 93.7939 139.43V149.773C93.7958 151.41 94.4469 152.979 95.6042 154.136C96.7615 155.293 98.3306 155.944 99.9672 155.946H114.769C116.406 155.944 117.975 155.293 119.132 154.136C120.289 152.979 120.94 151.41 120.942 149.773V139.43C120.94 137.826 120.313 136.286 119.196 135.135C118.078 133.985 116.556 133.314 114.953 133.266ZM105.935 131.62C105.936 131.254 106.081 130.904 106.34 130.645C106.599 130.387 106.949 130.241 107.315 130.241C107.68 130.241 108.031 130.387 108.289 130.645C108.548 130.904 108.693 131.254 108.694 131.62V133.256H105.935V131.62ZM114.683 149.687H100.053V139.521H114.683V149.687Z" fill="#C5FFF6"/>
</svg>
