<svg width="213" height="213" viewBox="0 0 213 213" fill="none" xmlns="http://www.w3.org/2000/svg">
<rect x="0.703125" width="212.235" height="212.235" rx="106.118" fill="#0E425E"/>
<path d="M111.533 63.8651C117.66 63.8624 123.715 65.1941 129.277 67.7675C134.838 70.341 139.772 74.0946 143.736 78.7675L146.09 81.5367L151.629 76.8287L149.275 74.0594C144.629 68.5831 138.846 64.1841 132.328 61.1683C125.81 58.1524 118.714 56.5921 111.533 56.5957C84.2267 56.5957 62.0117 78.8107 62.0117 106.117C62.0117 133.422 84.2267 155.637 111.533 155.637C118.713 155.64 125.807 154.079 132.324 151.064C138.84 148.048 144.621 143.649 149.266 138.174L151.621 135.405L146.082 130.696L143.728 133.465C139.765 138.137 134.832 141.891 129.272 144.464C123.713 147.038 117.659 148.37 111.533 148.368C100.331 148.355 89.5911 143.899 81.6702 135.979C73.7492 128.058 69.2938 117.318 69.2812 106.116C69.2939 94.9144 73.7495 84.175 81.6704 76.2542C89.5913 68.3333 100.331 63.8778 111.533 63.8651V63.8651Z" fill="#C5FFF6"/>
</svg>
