<svg width="213" height="213" viewBox="0 0 213 213" fill="none" xmlns="http://www.w3.org/2000/svg">
<rect x="0.234375" width="212.235" height="212.235" rx="106.118" fill="#0E425E"/>
<path d="M119.578 131.067C115.962 135.33 111.462 138.753 106.39 141.101C101.318 143.449 95.7958 144.664 90.2069 144.662C79.988 144.65 70.1912 140.586 62.9655 133.36C55.7398 126.134 51.6754 116.337 51.6639 106.118C51.6754 95.8986 55.74 86.1013 62.9661 78.8753C70.1921 71.6492 79.9894 67.5846 90.2086 67.5731C95.7988 67.5706 101.323 68.7855 106.396 71.1332C111.469 73.4809 115.97 76.9052 119.587 81.168L121.734 83.6947L126.787 79.3994L124.64 76.8731C120.401 71.8771 115.125 67.864 109.179 65.1128C103.233 62.3615 96.7593 60.938 90.2076 60.9414C65.2974 60.9414 45.0312 81.2075 45.0312 106.118C45.0312 131.028 65.2974 151.294 90.2076 151.294C96.7578 151.296 103.23 149.873 109.174 147.121C115.119 144.37 120.393 140.358 124.631 135.363L126.779 132.836L121.726 128.541L119.578 131.067Z" fill="#0CC9AB"/>
<path d="M132.756 92.7158H126.125V102.156H116.684V108.788H126.125V118.228H132.756V108.788H142.196V102.156H132.756V92.7158Z" fill="#C5FFF6"/>
<path d="M163.235 102.156V92.7158H156.603V102.156H147.163V108.788H156.603V118.228H163.235V108.788H172.675V102.156H163.235Z" fill="#C5FFF6"/>
</svg>
