<svg width="213" height="213" viewBox="0 0 213 213" fill="none" xmlns="http://www.w3.org/2000/svg">
<rect x="0.46875" width="212.235" height="212.235" rx="106.118" fill="#0E425E"/>
<path d="M122.988 135.591L125.152 133.045L120.06 128.716L117.896 131.262C114.252 135.557 109.717 139.008 104.605 141.374C99.4935 143.74 93.9279 144.965 88.2952 144.963C77.9962 144.951 68.1224 140.855 60.84 133.572C53.5576 126.29 49.4613 116.416 49.4498 106.117C49.4614 95.8178 53.5579 85.944 60.8404 78.6616C68.123 71.3791 77.9969 67.2829 88.2959 67.2714C93.9297 67.269 99.4967 68.4933 104.61 70.8594C109.723 73.2254 114.259 76.6764 117.904 80.9725L120.068 83.5188L125.16 79.1901L122.996 76.6439C118.724 71.6088 113.407 67.5643 107.415 64.7915C101.422 62.0188 94.8975 60.5844 88.2946 60.5879C63.1897 60.5879 42.7656 81.0122 42.7656 106.117C42.7656 131.222 63.1897 151.646 88.2946 151.646C94.8961 151.649 101.419 150.214 107.41 147.441C113.401 144.669 118.717 140.625 122.988 135.591Z" fill="#0CC9AB"/>
<path d="M168.837 103.707L170.409 97.023H161.534L163.63 88.1123H156.764L154.668 97.023H149.344L151.441 88.1123H144.575L142.478 97.023H134.538L132.965 103.707H140.906L139.733 108.691H131.793L130.22 115.374H138.16L136.369 122.987H143.235L145.026 115.374H150.35L148.559 122.987H155.425L157.216 115.374H166.091L167.664 108.691H158.788L159.961 103.707H168.837ZM151.924 108.69H146.601L147.773 103.706H153.097L151.924 108.69Z" fill="#C5FFF6"/>
</svg>
