<svg width="214" height="213" viewBox="0 0 214 213" fill="none" xmlns="http://www.w3.org/2000/svg">
<rect x="0.9375" width="212.235" height="212.235" rx="106.118" fill="#0E425E"/>
<path d="M61.4605 57.252L58.1875 60.525V151.711L61.4605 154.984H152.646L155.919 151.711V60.525L152.646 57.252H61.4605ZM64.7335 63.798H149.373V77.5066H64.7335V63.798ZM149.373 148.438H64.7335V84.0537H149.373V148.438Z" fill="#0CC9AB"/>
<path d="M72.8152 74.0317C74.3937 73.7756 75.4658 72.2883 75.2096 70.7097C74.9535 69.1311 73.4661 68.0591 71.8876 68.3153C70.309 68.5714 69.237 70.0587 69.4931 71.6373C69.7493 73.2159 71.2366 74.2879 72.8152 74.0317Z" fill="#00FFFF"/>
<path d="M83.9021 74.0691C85.5013 74.0691 86.7977 72.7727 86.7977 71.1735C86.7977 69.5743 85.5013 68.2779 83.9021 68.2779C82.3029 68.2779 81.0065 69.5743 81.0065 71.1735C81.0065 72.7727 82.3029 74.0691 83.9021 74.0691Z" fill="#00FFFF"/>
<path d="M95.4522 74.0691C97.0514 74.0691 98.3478 72.7727 98.3478 71.1735C98.3478 69.5743 97.0514 68.2779 95.4522 68.2779C93.853 68.2779 92.5566 69.5743 92.5566 71.1735C92.5566 72.7727 93.853 74.0691 95.4522 74.0691Z" fill="#00FFFF"/>
<path d="M102.163 133.423L79.3064 123.412V123.276L102.163 113.264V106.11L71.3562 120.422V126.265L102.163 140.578V133.423Z" fill="#C5FFF6"/>
<path d="M141.718 120.219L110.942 106.112V113.26L134.311 123.275V123.411L110.942 133.427V140.574L141.718 126.468V120.219Z" fill="#C5FFF6"/>
<path d="M138.36 94.9288C138.033 94.8057 137.696 94.7053 137.359 94.6149C136.867 92.7526 135.868 91.0631 134.474 89.734C133.079 91.0642 132.079 92.7556 131.588 94.6199C129.723 95.1112 128.032 96.1103 126.702 97.506C128.031 98.9003 129.721 99.8989 131.583 100.391C131.674 100.728 131.774 101.063 131.897 101.392C132.444 102.869 133.326 104.199 134.474 105.278C135.622 104.199 136.504 102.869 137.051 101.392C137.173 101.064 137.273 100.731 137.363 100.395C137.699 100.305 138.032 100.205 138.36 100.083C139.837 99.5357 141.167 98.6536 142.246 97.5057C141.167 96.3581 139.837 95.4761 138.36 94.9288Z" fill="#00FFFF"/>
<path d="M82.7024 95.0656C82.2324 93.0549 81.2213 91.2112 79.7786 89.734C78.3365 91.211 77.3257 93.0542 76.8558 95.0643C74.8455 95.5344 73.0021 96.5452 71.525 97.9874C73.0022 99.4301 74.8461 100.441 76.8567 100.911C76.9549 101.316 77.0643 101.719 77.2018 102.114C77.7387 103.667 78.6196 105.077 79.7786 106.241C80.9379 105.078 81.8189 103.667 82.3558 102.114C82.4911 101.719 82.6063 101.317 82.701 100.91C83.108 100.815 83.5101 100.7 83.9055 100.565C85.4579 100.028 86.8687 99.1467 88.0324 97.9874C86.8686 96.8284 85.4578 95.9475 83.9055 95.4106C83.5105 95.2755 83.109 95.1602 82.7024 95.0656Z" fill="#00FFFF"/>
</svg>
