<svg width="213" height="213" viewBox="0 0 213 213" fill="none" xmlns="http://www.w3.org/2000/svg">
<rect x="0.171875" width="212.235" height="212.235" rx="106.118" fill="#0E425E"/>
<path d="M154.126 127.2L154.871 103.781L151.463 100.264H122.551C125.702 97.8255 128.271 94.7154 130.071 91.1599C131.87 87.6043 132.855 83.6925 132.954 79.7087L132.971 79.6882V70.2914L132.954 70.2707C132.774 63.2666 129.868 56.6093 124.853 51.7159C119.839 46.8225 113.113 44.0793 106.106 44.0703C99.1001 44.0793 92.3739 46.8225 87.3596 51.7159C82.3454 56.6093 79.439 63.2666 79.2591 70.2707L79.2421 70.2914V79.6882L79.2591 79.709C79.3576 83.6928 80.3424 87.6046 82.1419 91.1602C83.9414 94.7158 86.5104 97.8259 89.6622 100.264H60.7505L57.3417 103.78L58.0865 127.199H45.5859V134.016H58.3036L59.0461 157.363L62.4532 160.663H149.758L153.165 157.363L153.908 134.016H166.994V127.199L154.126 127.2ZM106.106 50.8849C110.554 50.8907 114.874 52.3728 118.389 55.0988C121.903 57.8248 124.413 61.6403 125.525 65.9469L107.045 62.0243L105.642 62.0216L86.6829 65.9677C87.7911 61.6565 90.3002 57.8357 93.816 55.1056C97.3319 52.3755 101.655 50.8908 106.106 50.8849ZM86.0597 79.0419V73.0608L106.33 68.8423L126.153 73.0499V79.0416C126.147 84.3565 124.033 89.4519 120.275 93.2102C116.517 96.9684 111.421 99.0825 106.106 99.0887C100.792 99.0826 95.696 96.9685 91.9378 93.2102C88.1797 89.452 86.0657 84.3568 86.0597 79.0419ZM146.457 153.847H65.756L64.2684 107.081H147.944L146.457 153.847Z" fill="#0CC9AB"/>
<path d="M90.5856 147.864L111.951 147.983H111.966C114.561 147.979 117.081 147.112 119.129 145.519C121.177 143.925 122.636 141.695 123.277 139.18L120.783 140.197L120.038 138.916C119.936 138.741 119.833 138.566 119.729 138.391C119.565 138.113 119.397 137.83 119.232 137.539C118.972 137.548 118.706 137.553 118.438 137.553C118.312 137.553 118.183 137.55 118.055 137.548C117.77 138.951 117.008 140.213 115.9 141.12C114.792 142.027 113.405 142.525 111.973 142.528L90.5996 142.409C89.3791 142.408 88.209 141.922 87.3459 141.059C86.4829 140.196 85.9974 139.026 85.9959 137.805C85.9977 136.585 86.4834 135.415 87.3464 134.553C88.2094 133.69 89.3793 133.205 90.5996 133.204C90.693 133.204 90.754 133.204 90.7949 133.204C90.8515 133.208 90.9261 133.213 91.1075 133.213H93.8346L93.8325 129.164C93.8351 127.169 94.6287 125.257 96.0392 123.847C97.4496 122.436 99.3618 121.643 101.356 121.64C103.091 121.638 104.773 122.237 106.117 123.334L107.464 120.215L108.884 120.592C109.064 120.641 109.248 120.688 109.435 120.736C109.742 120.815 110.058 120.896 110.377 120.985C110.56 120.791 110.752 120.598 110.945 120.405C109.729 119.073 108.248 118.01 106.597 117.283C104.946 116.557 103.161 116.183 101.357 116.186C98.1207 116.19 95.0021 117.401 92.6116 119.583C90.2211 121.765 88.7308 124.76 88.4322 127.983C86.1966 128.48 84.1969 129.724 82.7627 131.509C81.3285 133.295 80.5454 135.516 80.5425 137.806C80.5446 140.47 81.6029 143.025 83.4854 144.91C85.368 146.796 87.9213 147.858 90.5856 147.864Z" fill="#C5FFF6"/>
<path d="M129.154 129.03C128.884 128.871 128.608 128.709 128.327 128.551C128.385 127.84 128.395 127.127 128.356 126.415C128.668 126.244 128.965 126.068 129.254 125.895C129.415 125.8 129.574 125.705 129.735 125.612L131.022 124.868L129.164 120.316L127.715 120.7C127.507 120.756 127.301 120.81 127.099 120.863C126.786 120.945 126.485 121.024 126.184 121.105C125.702 120.589 125.204 120.088 124.695 119.605C124.785 119.29 124.868 118.983 124.945 118.7C124.993 118.524 125.039 118.355 125.082 118.195L125.47 116.798L120.928 114.698L120.149 116.047C120.051 116.217 119.95 116.388 119.85 116.558C119.696 116.819 119.539 117.087 119.385 117.361C119.091 117.351 118.814 117.349 118.567 117.349C118.422 117.349 118.278 117.349 118.133 117.349C117.994 117.349 117.855 117.349 117.717 117.349C117.546 117.349 117.399 117.349 117.265 117.345C117.105 117.087 116.95 116.81 116.788 116.522C116.683 116.336 116.578 116.147 116.47 115.963L115.724 114.682L112.88 115.843L112.53 115.985L111.177 116.538L111.518 117.96C111.567 118.166 111.613 118.369 111.66 118.573C111.728 118.878 111.8 119.187 111.879 119.502C111.55 119.804 111.241 120.103 110.942 120.402C110.749 120.595 110.557 120.788 110.375 120.982C110.055 120.893 109.74 120.811 109.433 120.733C109.246 120.685 109.061 120.638 108.881 120.59L107.461 120.212L106.114 123.331L106.093 123.379L105.486 124.785L106.818 125.539C106.986 125.633 107.152 125.731 107.319 125.827C107.592 125.986 107.868 126.147 108.157 126.305C108.106 127.011 108.098 127.72 108.135 128.427C107.843 128.592 107.56 128.759 107.283 128.922C107.114 129.021 106.947 129.121 106.779 129.217L105.494 129.962L107.35 134.509L108.772 134.168C108.977 134.119 109.181 134.073 109.382 134.026C109.688 133.956 110 133.884 110.315 133.805C110.801 134.336 111.297 134.84 111.795 135.31C111.706 135.633 111.625 135.945 111.551 136.232C111.507 136.403 111.465 136.568 111.424 136.722L111.049 138.134L112.386 138.721L112.483 138.764L115.636 140.15L116.394 138.803C116.486 138.638 116.581 138.472 116.677 138.304C116.824 138.048 116.974 137.786 117.123 137.517C117.444 137.533 117.751 137.541 118.054 137.546C118.181 137.548 118.31 137.552 118.436 137.552C118.705 137.552 118.971 137.547 119.23 137.537C119.395 137.828 119.563 138.111 119.727 138.389C119.831 138.564 119.934 138.74 120.037 138.915L120.782 140.196L125.32 138.344L124.983 136.924C124.934 136.716 124.887 136.51 124.84 136.306C124.768 135.995 124.694 135.676 124.615 135.356C125.165 134.838 125.66 134.347 126.115 133.867C126.425 133.957 126.734 134.042 127.036 134.124C127.24 134.181 127.447 134.238 127.656 134.295L129.144 134.712L130.952 130.068L129.684 129.337C129.506 129.236 129.329 129.133 129.154 129.03ZM120.666 133.345C119.891 133.663 119.06 133.826 118.222 133.823C117.383 133.82 116.554 133.651 115.781 133.326C115.008 133.002 114.307 132.528 113.718 131.931C113.129 131.335 112.663 130.628 112.348 129.851C112.029 129.076 111.866 128.245 111.869 127.407C111.872 126.569 112.041 125.739 112.365 124.966C112.69 124.193 113.164 123.492 113.761 122.903C114.357 122.314 115.064 121.848 115.841 121.534C116.616 121.215 117.447 121.052 118.285 121.056C119.123 121.059 119.953 121.227 120.725 121.552C121.498 121.876 122.199 122.35 122.789 122.947C123.378 123.543 123.843 124.25 124.159 125.026C124.477 125.802 124.639 126.632 124.636 127.471C124.633 128.309 124.464 129.138 124.139 129.911C123.814 130.684 123.34 131.385 122.744 131.974C122.148 132.564 121.441 133.029 120.664 133.345H120.666Z" fill="#00FFFF"/>
</svg>
