<svg width="213" height="213" viewBox="0 0 213 213" fill="none" xmlns="http://www.w3.org/2000/svg">
<rect x="0.46875" width="212.235" height="212.235" rx="106.118" fill="#0E425E"/>
<path d="M97.4577 58.7344H110.619V126.403H54.0312V58.7344H69.08" stroke="#0CC9AB" stroke-width="6" stroke-linejoin="bevel"/>
<path d="M77.9357 125.672L68.8047 159.957" stroke="#0CC9AB" stroke-width="6" stroke-linejoin="bevel"/>
<path d="M88.5 125.672L97.631 159.957" stroke="#0CC9AB" stroke-width="6" stroke-linejoin="bevel"/>
<path d="M105.944 158.52H61.293V166.669H105.944V158.52Z" fill="#C5FFF6"/>
<path d="M149.23 76.1329V69.132C149.23 58.7702 140.831 50.3711 130.472 50.3711C120.114 50.3711 111.715 58.7702 111.715 69.132V76.1329L130.289 80.0748L149.233 76.1329H149.23Z" fill="#0E425E" stroke="#0CC9AB" stroke-width="6" stroke-linejoin="bevel"/>
<path d="M111.71 68.6177V75.6186C111.71 85.9804 120.109 94.3795 130.468 94.3795C140.826 94.3795 149.226 85.9804 149.226 75.6186V68.6177L130.652 64.6758L111.707 68.6177H111.71Z" fill="#0E425E" stroke="#0CC9AB" stroke-width="6" stroke-linejoin="bevel"/>
<path d="M169.219 126.458H91.7201L86.7969 105.869H174.142L169.219 126.458Z" fill="#0E425E" stroke="#0CC9AB" stroke-width="6" stroke-linejoin="bevel"/>
<path d="M151.427 164.795C137.744 168.869 123.181 168.947 109.452 165.028L108.638 164.795L105.355 119.406H154.71L151.427 164.795V164.795Z" fill="#0E425E" stroke="#0CC9AB" stroke-width="6" stroke-linejoin="bevel"/>
<path d="M163.724 97.9374C168.032 97.9374 171.525 94.4445 171.525 90.1357C171.525 85.8269 168.032 82.334 163.724 82.334C159.415 82.334 155.922 85.8269 155.922 90.1357C155.922 94.4445 159.415 97.9374 163.724 97.9374Z" fill="#C5FFF6"/>
<path d="M165.707 95.6973L169.554 106.883" stroke="#0CC9AB" stroke-width="6" stroke-linejoin="bevel"/>
<path d="M137.406 94.666L141.253 105.848" stroke="#0CC9AB" stroke-width="6" stroke-linejoin="bevel"/>
<path d="M123.534 94.666L119.688 105.848" stroke="#0CC9AB" stroke-width="6" stroke-linejoin="bevel"/>
<path d="M82.6902 50.8938C85.631 50.8938 88.3946 52.0393 90.4755 54.1169C93.8299 57.4713 94.6602 62.5718 92.54 66.8156L91.4339 69.0311L91.9656 71.0398L90.0127 70.5081L87.7414 71.6831C86.1922 72.484 84.4428 72.9074 82.6836 72.9074C79.7428 72.9074 76.9825 71.7619 74.9016 69.6843C72.8239 67.6066 71.6785 64.8398 71.6785 61.8989C71.6785 58.9581 72.8239 56.1945 74.9016 54.1136C76.9792 52.0327 79.746 50.8905 82.6869 50.8905M82.6869 44.3262C78.1903 44.3262 73.6937 46.0428 70.2606 49.4726C63.3975 56.3357 63.3975 67.4622 70.2606 74.3253C73.6904 77.7551 78.187 79.4717 82.6836 79.4717C85.457 79.4717 88.2305 78.8185 90.7545 77.5122L101.211 80.3546L98.4085 69.7466C101.691 63.1691 100.598 54.9604 95.1099 49.4759C91.68 46.046 87.1802 44.3295 82.6836 44.3295L82.6869 44.3262Z" fill="#00FFFF"/>
</svg>
