<svg width="213" height="213" viewBox="0 0 213 213" fill="none" xmlns="http://www.w3.org/2000/svg">
<rect x="0.640625" width="212.235" height="212.235" rx="106.118" fill="#0E425E"/>
<path d="M156.33 144.398L159.777 140.951V74.851L156.33 71.4043H136.133V78.2976H152.883V137.504H60.6251V78.2976H76.949V71.4043H57.1784L53.7318 74.851V140.951L57.1784 144.398H156.33Z" fill="#0CC9AB"/>
<path d="M168.135 149.691H45.3789V156.584H168.135V149.691Z" fill="#0CC9AB"/>
<path d="M96.231 112.077C93.5175 112.08 90.916 113.159 88.9972 115.078C87.0785 116.996 85.9991 119.598 85.996 122.311C85.9987 125.025 87.0778 127.627 88.9966 129.546C90.9154 131.465 93.5172 132.545 96.231 132.548C98.9451 132.545 101.547 131.466 103.467 129.547C105.386 127.627 106.465 125.025 106.468 122.311C106.465 119.597 105.385 116.996 103.466 115.077C101.547 113.158 98.9448 112.079 96.231 112.077ZM96.231 125.653C95.3448 125.652 94.4951 125.299 93.8686 124.673C93.2421 124.046 92.89 123.196 92.8894 122.31C92.8904 121.424 93.2428 120.575 93.8693 119.948C94.4957 119.322 95.3451 118.97 96.231 118.969C97.1172 118.969 97.9669 119.321 98.5937 119.948C99.2205 120.574 99.5732 121.424 99.5743 122.31C99.5736 123.196 99.2212 124.046 98.5943 124.673C97.9675 125.3 97.1175 125.652 96.231 125.653Z" fill="#00FFFF"/>
<path d="M127.623 122.311C127.626 125.025 128.705 127.627 130.623 129.546C132.542 131.465 135.144 132.545 137.858 132.548C140.572 132.545 143.174 131.466 145.093 129.547C147.013 127.627 148.092 125.025 148.095 122.311C148.091 119.597 147.012 116.996 145.093 115.077C143.174 113.158 140.572 112.079 137.858 112.077C135.144 112.08 132.543 113.159 130.624 115.078C128.705 116.996 127.626 119.598 127.623 122.311ZM137.858 118.97C138.744 118.971 139.594 119.323 140.221 119.949C140.847 120.575 141.2 121.425 141.201 122.311C141.201 123.198 140.848 124.048 140.221 124.675C139.594 125.301 138.744 125.654 137.858 125.655C136.972 125.654 136.122 125.301 135.496 124.674C134.869 124.047 134.517 123.197 134.516 122.311C134.517 121.425 134.87 120.576 135.496 119.95C136.123 119.323 136.972 118.971 137.858 118.97Z" fill="#00FFFF"/>
<path d="M74.2988 112.077H67.4054V132.546H74.2988V112.077Z" fill="#00FFFF"/>
<path d="M83.4272 112.077H76.5338V132.546H83.4272V112.077Z" fill="#00FFFF"/>
<path d="M115.928 112.077H109.035V132.546H115.928V112.077Z" fill="#00FFFF"/>
<path d="M125.054 112.077H118.161V132.546H125.054V112.077Z" fill="#00FFFF"/>
<path d="M76.9518 77.4122V82.1421L81.6262 82.8628C82.0771 82.9318 82.5203 83.0052 82.9588 83.0769C83.2993 83.1327 83.6433 83.1892 83.9928 83.2444C84.3102 84.0623 84.6345 84.8533 84.9685 85.6226C84.7514 85.9121 84.5375 86.1994 84.3267 86.4843C84.0786 86.8179 83.8342 87.1467 83.5923 87.4666L80.7263 91.2579L90.5408 101.268L94.4286 98.1965C94.7519 97.9414 95.0787 97.6898 95.4054 97.4382C95.667 97.2369 95.9311 97.0336 96.1982 96.8257C96.9953 97.1918 97.7864 97.525 98.5716 97.8253C98.6222 98.1852 98.675 98.5408 98.7257 98.8937C98.7863 99.3101 98.847 99.7247 98.9038 100.137L99.5615 104.897H113.375L114.093 100.218C114.162 99.7696 114.233 99.3256 114.305 98.8875C114.36 98.5451 114.416 98.1995 114.471 97.8505C115.282 97.5361 116.076 97.2107 116.853 96.874C117.137 97.087 117.413 97.2924 117.678 97.4896C117.982 97.7157 118.275 97.9328 118.548 98.1399L122.316 100.991L132.438 91.1938L129.329 87.2794C129.077 86.9613 128.824 86.6366 128.568 86.3092C128.389 86.0794 128.208 85.8487 128.026 85.6171C128.382 84.8202 128.708 84.0451 129.006 83.2847C129.371 83.2324 129.732 83.1794 130.089 83.1261C130.522 83.0624 130.955 82.9983 131.387 82.9376L136.136 82.2717V68.4867L131.47 67.7597C131.015 67.6887 130.566 67.6157 130.119 67.5433C129.76 67.4854 129.398 67.4264 129.031 67.3685C128.705 66.5489 128.379 65.7616 128.051 65.0066C128.26 64.7364 128.467 64.468 128.672 64.2017C128.952 63.8368 129.235 63.4692 129.521 63.0988L132.589 59.152L122.406 49.4968L118.666 52.4017C118.312 52.6774 117.961 52.9448 117.611 53.2116C117.354 53.4069 117.096 53.6049 116.835 53.8055C116.06 53.4422 115.259 53.093 114.43 52.7763C114.374 52.3758 114.315 51.9836 114.256 51.5948C114.198 51.206 114.138 50.809 114.084 50.416L113.429 45.6523H99.5666L98.9462 50.4629C98.8863 50.9275 98.8263 51.3831 98.7673 51.8333C98.7232 52.1665 98.6801 52.4944 98.6381 52.8194C97.8518 53.1316 97.0726 53.4562 96.3006 53.7931C96.0341 53.5883 95.7746 53.3898 95.5247 53.1989C95.2145 52.9604 94.9129 52.7309 94.6285 52.512L90.922 49.6412L80.6264 59.2361L83.7156 63.2167C83.9762 63.5528 84.2339 63.8891 84.4887 64.2255C84.6824 64.4804 84.8788 64.7375 85.0778 64.9969C84.8544 65.5291 84.6435 66.0533 84.4356 66.57C84.3283 66.8367 84.2226 67.0988 84.1182 67.3562C83.7918 67.4003 83.4565 67.4423 83.1149 67.4854C82.6441 67.5444 82.1719 67.6039 81.6997 67.6701L76.9512 68.3367V77.4154L76.9518 77.4122ZM82.4665 73.1284C84.0575 72.905 85.6444 72.7654 87.1844 72.4183C87.465 72.3142 87.7221 72.1552 87.9406 71.9508C88.1592 71.7464 88.335 71.5005 88.4576 71.2275C89.3358 69.3139 90.0086 67.3041 90.9351 65.4164C91.3525 64.5651 91.3831 64.0084 90.7793 63.2932C89.8387 62.1823 88.9804 61.0018 88.0726 59.8323L91.2529 56.8682C92.2896 57.671 93.5535 58.6122 94.7716 59.6093C95.0151 59.8389 95.3334 59.9726 95.6677 59.9857C95.9727 59.969 96.2702 59.8849 96.5387 59.7394C98.5185 58.7998 100.549 57.9533 102.609 57.2047C103.409 56.9141 103.746 56.5018 103.835 55.7205C104.006 54.2315 104.212 52.7463 104.415 51.1633H108.62C108.81 52.5447 109.062 53.9265 109.172 55.3197C109.263 56.4774 109.674 57.0367 110.898 57.3942C112.784 57.9939 114.609 58.7693 116.349 59.7103C116.665 59.8942 117.021 60.0006 117.386 60.0206C117.794 60.0025 118.181 59.8349 118.473 59.5498C119.616 58.5868 120.826 57.7027 122.048 56.7535L125.166 59.71C124.166 60.9953 123.225 62.2582 122.223 63.4714C121.727 64.0728 121.768 64.5282 122.104 65.2372C123.041 67.218 123.873 69.2543 124.64 71.3082C124.908 72.0237 125.219 72.4011 125.991 72.4969C127.519 72.6865 129.038 72.9571 130.62 73.2035V77.4711C129.115 77.6821 127.606 77.9327 126.088 78.0916C125.157 78.1895 124.81 78.6355 124.508 79.5258C123.832 81.4767 123.032 83.3824 122.112 85.2311C121.725 86.0238 121.652 86.5563 122.239 87.2394C123.215 88.3768 124.117 89.5798 125.009 90.7034C123.987 91.6936 122.99 92.6583 121.873 93.7385C120.867 92.9771 119.62 92.0841 118.433 91.1191C118.165 90.8709 117.815 90.7278 117.45 90.7161C117.085 90.7388 116.729 90.8417 116.409 91.0177C114.544 91.8995 112.635 92.6842 110.689 93.3687C109.885 93.6534 109.414 93.9615 109.316 94.8577C109.15 96.3473 108.878 97.825 108.639 99.3801H104.365C104.168 97.9487 103.928 96.4876 103.776 95.0172C103.673 94.0077 103.234 93.5731 102.209 93.2532C100.325 92.6515 98.4976 91.883 96.7497 90.9567C96.4046 90.751 96.015 90.6315 95.614 90.6082C95.1572 90.6311 94.7265 90.8279 94.4101 91.158C93.3261 92.1179 92.1476 92.971 91.0099 93.8702L87.9916 90.7916C88.8509 89.6542 89.7432 88.4106 90.7062 87.2243C91.2646 86.535 91.2056 85.9872 90.8299 85.1973C89.9452 83.336 89.1683 81.4194 88.4738 79.4799C88.1905 78.6872 87.9103 78.1905 86.9983 78.0922C85.5083 77.9323 84.0314 77.6538 82.4676 77.4126L82.4665 73.1284Z" fill="#C5FFF6"/>
<path d="M106.533 89.1935V83.6788C105.432 83.6845 104.341 83.4719 103.323 83.0532C102.305 82.6345 101.38 82.0181 100.601 81.2396C99.7655 80.4053 99.1178 79.402 98.7015 78.2968C98.3418 77.3413 98.1577 76.3286 98.1583 75.3076C98.1537 73.9484 98.4798 72.6084 99.1086 71.4034C99.4995 70.6567 100.001 69.9737 100.598 69.3778C101.375 68.598 102.3 67.9802 103.318 67.5602C104.337 67.1401 105.428 66.9262 106.53 66.9307C108.055 66.9315 109.551 67.3483 110.857 68.1364C112.163 68.9245 113.229 70.054 113.94 71.4031C114.576 72.604 114.908 73.9424 114.908 75.3013C114.909 76.3244 114.725 77.3393 114.363 78.2965C113.947 79.3993 113.301 80.4007 112.468 81.2341C111.69 82.0133 110.766 82.6305 109.748 83.0501C108.731 83.4697 107.64 83.6833 106.539 83.6785V89.1929H106.543C108.368 89.1966 110.176 88.8397 111.863 88.1427C113.55 87.4457 115.082 86.4224 116.372 85.1314C117.662 83.8404 118.685 82.3073 119.38 80.6201C120.076 78.9328 120.432 77.1248 120.427 75.2997C120.43 73.4754 120.073 71.6685 119.376 69.9825C118.68 68.2966 117.657 66.7648 116.367 65.4749C115.077 64.185 113.545 63.1625 111.859 62.4659C110.173 61.7694 108.366 61.4124 106.542 61.4156H106.532C104.707 61.4121 102.899 61.7692 101.213 62.4664C99.5261 63.1635 97.9937 64.187 96.7038 65.4781C95.4138 66.7692 94.3916 68.3025 93.6959 69.9898C93.0002 71.6771 92.6447 73.4852 92.6498 75.3103C92.6454 77.1348 93.0014 78.9421 93.6975 80.6285C94.3937 82.3149 95.4161 83.8471 96.7062 85.1372C97.9963 86.4273 99.5285 87.4497 101.215 88.1458C102.901 88.8419 104.709 89.198 106.533 89.1935Z" fill="#C5FFF6"/>
</svg>
