<svg width="213" height="214" viewBox="0 0 213 214" fill="none" xmlns="http://www.w3.org/2000/svg">
<rect x="0.171875" y="0.875" width="212.235" height="212.235" rx="106.118" fill="#0E425E"/>
<path d="M158.789 139.189L162.439 135.539V65.5388L158.789 61.8887H53.7878L50.1377 65.5388V135.539L53.7878 139.189H158.789ZM57.4378 69.1888H155.139V131.889H57.4378V69.1888Z" fill="#0CC9AB"/>
<path d="M171.289 144.795H41.2891V152.095H171.289V144.795Z" fill="#0CC9AB"/>
<path d="M126.543 100.608C127.829 98.5347 128.931 96.3524 129.836 94.0863C132.494 87.292 132.087 81.6796 128.69 78.2814C125.294 74.8831 119.681 74.478 112.885 77.136C110.619 78.0403 108.437 79.1421 106.364 80.4287C104.291 79.1426 102.109 78.0413 99.8435 77.1375C93.0489 74.4802 87.4365 74.8864 84.0386 78.2828C80.6408 81.6792 80.2352 87.292 82.8929 94.0877C83.7974 96.3537 84.8992 98.5358 86.1856 100.609C84.8992 102.682 83.7974 104.864 82.8929 107.13C80.2352 113.925 80.6422 119.537 84.0386 122.935C85.9546 124.851 88.5746 125.815 91.7151 125.815C94.1421 125.815 96.8804 125.239 99.842 124.08C102.108 123.176 104.29 122.074 106.363 120.788C108.436 122.074 110.618 123.176 112.885 124.08C115.847 125.239 118.584 125.815 121.011 125.815C124.151 125.815 126.772 124.851 128.688 122.935C132.083 119.541 132.491 113.926 129.833 107.13C128.93 104.864 127.829 102.681 126.543 100.608ZM115.546 83.935C117.639 83.1159 119.551 82.6991 121.025 82.6991C122.156 82.6991 123.029 82.9451 123.528 83.4441C124.677 84.5928 124.485 87.726 123.037 91.4261C122.701 92.2853 122.299 93.1683 121.844 94.0655C120.527 92.4715 119.106 90.9027 117.587 89.3846C116.068 87.8665 114.501 86.4452 112.906 85.1282C113.804 84.6738 114.687 84.2723 115.546 83.935ZM106.365 89.2707C108.505 90.887 110.53 92.6499 112.425 94.5469C114.321 96.442 116.084 98.4666 117.701 100.606C116.084 102.745 114.321 104.77 112.425 106.665C110.529 108.562 108.505 110.325 106.365 111.941C104.226 110.325 102.201 108.562 100.306 106.665C98.4095 104.77 96.6466 102.746 95.0305 100.606C96.6467 98.4664 98.4096 96.4419 100.307 94.5469C102.202 92.6502 104.226 90.8876 106.365 89.2718V89.2707ZM89.6937 91.4261C88.2464 87.726 88.0537 84.5928 89.2028 83.4441C89.7017 82.9451 90.5748 82.6991 91.7064 82.6991C93.1803 82.6991 95.0918 83.1163 97.1848 83.935C98.0444 84.2712 98.9273 84.6727 99.8245 85.1282C98.2302 86.4452 96.6617 87.8658 95.1437 89.3846C93.6256 90.9034 92.2039 92.4711 90.8873 94.0655C90.4314 93.1697 90.0299 92.2864 89.6937 91.4272V91.4261ZM97.1848 117.278C93.4847 118.725 90.3515 118.918 89.2028 117.769C88.0541 116.621 88.2464 113.487 89.6937 109.787C90.0299 108.928 90.4314 108.045 90.8873 107.148C92.2042 108.742 93.6249 110.31 95.1437 111.829C96.6617 113.346 98.2302 114.768 99.8245 116.085C98.9273 116.542 98.0444 116.943 97.1848 117.279V117.278ZM123.528 117.769C122.379 118.919 119.246 118.726 115.546 117.278C114.687 116.942 113.804 116.54 112.906 116.085C114.501 114.768 116.069 113.347 117.587 111.829C119.105 110.311 120.527 108.742 121.844 107.148C122.299 108.045 122.701 108.928 123.037 109.787C124.485 113.488 124.677 116.622 123.528 117.771V117.769Z" fill="#C5FFF6"/>
<path d="M106.365 105.432C109.029 105.432 111.189 103.272 111.189 100.608C111.189 97.9436 109.029 95.7839 106.365 95.7839C103.701 95.7839 101.541 97.9436 101.541 100.608C101.541 103.272 103.701 105.432 106.365 105.432Z" fill="#00FFFF"/>
</svg>
