<svg width="213" height="214" viewBox="0 0 213 214" fill="none" xmlns="http://www.w3.org/2000/svg">
<rect x="0.40625" y="0.9375" width="212.235" height="212.235" rx="106.118" fill="#0E425E"/>
<path d="M142.001 101.825C140.7 100.085 139.811 98.073 139.4 95.9403L105.53 110.882L73.6963 97.4859C73.3216 99.6252 72.4665 101.652 71.1955 103.413L97.4334 114.454L77.1958 123.383C78.4961 125.122 79.3851 127.134 79.796 129.266L105.59 117.887L133.212 129.511C133.587 127.371 134.442 125.345 135.713 123.584L113.687 114.315L142.001 101.825Z" fill="#C5FFF6"/>
<path d="M92.1103 74.5154L106.323 99.4684L120.463 74.6305L106.379 81.4254L92.1103 74.5154Z" fill="#00FFFF"/>
<path d="M106.272 78.1737L121.456 71.137L106.265 44.7559L91.1504 71.1327L106.272 78.1737Z" fill="#00FFFF"/>
<path d="M66.4863 117.593L64.952 108.35C63.2146 109.065 61.3535 109.433 59.4744 109.432C59.1827 109.432 58.8934 109.421 58.6059 109.403L60.1402 118.647C61.8776 117.931 63.7388 117.563 65.618 117.565C65.9097 117.565 66.1988 117.576 66.4863 117.593Z" fill="#C5FFF6"/>
<path d="M79.4717 136.076C78.858 138.159 77.7821 140.077 76.3243 141.687L92.6725 150.841C93.2865 148.758 94.3623 146.84 95.8199 145.23L79.4717 136.076Z" fill="#C5FFF6"/>
<path d="M117.232 145.229C118.689 146.839 119.765 148.757 120.379 150.84L136.727 141.686C135.269 140.076 134.193 138.159 133.58 136.076L117.232 145.229Z" fill="#C5FFF6"/>
<path d="M153.576 107.642C151.733 107.643 149.907 107.289 148.198 106.599L146.457 117.6C146.778 117.578 147.104 117.563 147.433 117.563C149.275 117.562 151.101 117.916 152.81 118.606L154.552 107.605C154.229 107.628 153.904 107.642 153.576 107.642Z" fill="#C5FFF6"/>
<path d="M80.0591 132.005C80.0586 131.086 79.97 130.169 79.7949 129.266C79.384 127.134 78.495 125.122 77.1947 123.382C75.9392 121.696 74.3304 120.304 72.4808 119.304C70.6312 118.304 68.5851 117.72 66.4863 117.593C66.1988 117.576 65.9097 117.565 65.618 117.565C63.7388 117.563 61.8776 117.931 60.1402 118.647C57.4913 119.736 55.2257 121.586 53.6301 123.965C52.0344 126.343 51.181 129.141 51.1778 132.005C51.1816 135.834 52.7044 139.505 55.412 142.213C58.1196 144.921 61.7907 146.443 65.6198 146.447C67.6382 146.448 69.6341 146.025 71.4783 145.205C73.3226 144.385 74.9739 143.186 76.3252 141.687C77.783 140.077 78.8589 138.16 79.4726 136.076C79.862 134.754 80.0596 133.383 80.0591 132.005ZM65.6169 140.014C63.4933 140.012 61.4574 139.168 59.9558 137.666C58.4542 136.165 57.6098 134.129 57.6078 132.005C57.6098 129.882 58.4544 127.846 59.9559 126.344C61.4575 124.843 63.4933 123.998 65.6169 123.996C67.7404 123.998 69.7764 124.843 71.2779 126.344C72.7795 127.846 73.624 129.882 73.6261 132.005C73.6236 134.128 72.779 136.164 71.2778 137.665C69.7765 139.166 67.7413 140.01 65.6183 140.013L65.6169 140.014Z" fill="#0CC9AB"/>
<path d="M146.457 117.602C144.336 117.746 142.273 118.358 140.416 119.392C138.559 120.426 136.953 121.858 135.714 123.584C134.443 125.346 133.588 127.372 133.213 129.511C133.067 130.335 132.994 131.17 132.993 132.006C132.993 133.384 133.191 134.755 133.58 136.076C134.194 138.16 135.27 140.077 136.728 141.687C138.079 143.186 139.731 144.384 141.575 145.204C143.419 146.025 145.415 146.448 147.433 146.447C151.262 146.443 154.933 144.921 157.641 142.213C160.349 139.505 161.871 135.834 161.875 132.005C161.872 129.123 161.007 126.308 159.392 123.92C157.777 121.533 155.486 119.683 152.812 118.607C151.103 117.918 149.277 117.564 147.435 117.564C147.104 117.565 146.78 117.58 146.457 117.602ZM147.433 140.013C145.309 140.011 143.273 139.167 141.772 137.665C140.27 136.164 139.426 134.128 139.423 132.004C139.426 129.881 140.27 127.845 141.772 126.343C143.273 124.842 145.309 123.997 147.433 123.995C149.556 123.997 151.592 124.842 153.094 126.343C154.595 127.845 155.44 129.881 155.442 132.004C155.44 134.128 154.595 136.164 153.094 137.665C151.592 139.167 149.556 140.011 147.433 140.013Z" fill="#0CC9AB"/>
<path d="M64.952 108.35C67.452 107.318 69.6143 105.608 71.1944 103.413C72.4654 101.652 73.3205 99.6256 73.6952 97.4864C73.8406 96.6627 73.9144 95.8281 73.9155 94.9917C73.9115 91.1626 72.3887 87.4916 69.6811 84.784C66.9736 82.0765 63.3025 80.5535 59.4735 80.5495C55.6444 80.5534 51.9732 82.0763 49.2656 84.7839C46.5581 87.4914 45.0352 91.1626 45.0312 94.9917C45.0359 98.6699 46.4424 102.208 48.9642 104.886C51.4861 107.563 54.9336 109.179 58.6049 109.404C58.8925 109.421 59.1817 109.433 59.4735 109.433C61.353 109.434 63.2142 109.066 64.952 108.35ZM59.4747 86.9839C61.5982 86.9859 63.6341 87.8303 65.1356 89.3319C66.6372 90.8334 67.4817 92.8694 67.4838 94.993C67.4817 97.1164 66.6372 99.1523 65.1356 100.654C63.6341 102.155 61.5982 103 59.4747 103.002C57.3512 103 55.3153 102.155 53.8138 100.654C52.3123 99.1523 51.4678 97.1164 51.4657 94.993C51.4677 92.8694 52.3121 90.8334 53.8136 89.3319C55.3152 87.8303 57.3512 86.9859 59.4747 86.9839Z" fill="#0CC9AB"/>
<path d="M148.197 106.6C149.906 107.289 151.732 107.643 153.575 107.643C153.903 107.643 154.228 107.628 154.551 107.606C158.202 107.355 161.621 105.729 164.12 103.055C166.619 100.382 168.011 96.8609 168.016 93.2017C168.012 89.3727 166.489 85.7016 163.781 82.9941C161.074 80.2865 157.403 78.7636 153.574 78.7597C149.744 78.7636 146.073 80.2865 143.366 82.9941C140.658 85.7016 139.135 89.3727 139.132 93.2017C139.132 94.1209 139.22 95.038 139.395 95.9403C139.806 98.073 140.696 100.085 141.996 101.825C143.587 103.954 145.732 105.606 148.197 106.6ZM145.567 93.2017C145.569 91.0782 146.414 89.0424 147.915 87.5408C149.417 86.0393 151.453 85.1947 153.577 85.1927C155.7 85.1947 157.736 86.0393 159.237 87.5408C160.739 89.0424 161.584 91.0782 161.586 93.2017C161.584 95.3253 160.739 97.3613 159.237 98.8628C157.736 100.364 155.7 101.209 153.577 101.211C151.453 101.209 149.417 100.364 147.916 98.8628C146.414 97.3613 145.569 95.3252 145.567 93.2017Z" fill="#0CC9AB"/>
<path d="M106.526 140.469C104.508 140.469 102.512 140.892 100.667 141.712C98.8232 142.532 97.1714 143.731 95.8199 145.23C94.3623 146.84 93.2865 148.758 92.6725 150.841C92.2827 152.162 92.0853 153.533 92.0851 154.911C92.0892 158.74 93.612 162.411 96.3195 165.118C99.0271 167.826 102.698 169.349 106.527 169.353C110.356 169.349 114.027 167.826 116.735 165.118C119.443 162.411 120.966 158.74 120.969 154.911C120.969 153.533 120.771 152.162 120.381 150.84C119.768 148.757 118.692 146.84 117.234 145.23C115.882 143.731 114.231 142.532 112.386 141.712C110.541 140.892 108.545 140.468 106.526 140.469ZM114.535 154.911C114.533 157.035 113.689 159.071 112.187 160.573C110.685 162.074 108.649 162.919 106.526 162.921C104.402 162.919 102.366 162.074 100.865 160.573C99.3633 159.071 98.5189 157.035 98.5169 154.911C98.5189 152.788 99.3633 150.752 100.865 149.251C102.366 147.749 104.402 146.904 106.526 146.902C108.649 146.905 110.684 147.749 112.186 149.251C113.687 150.752 114.531 152.787 114.534 154.91L114.535 154.911Z" fill="#0CC9AB"/>
</svg>
