<svg width="213" height="214" viewBox="0 0 213 214" fill="none" xmlns="http://www.w3.org/2000/svg">
<rect x="0.46875" y="0.875" width="212.235" height="212.235" rx="106.118" fill="#0E425E"/>
<path d="M159.084 139.189L162.734 135.539V65.5388L159.084 61.8887H54.0846L50.4345 65.5388V135.539L54.0846 139.189H159.084ZM57.7347 69.1888H155.434V131.889H57.7347V69.1888Z" fill="#0CC9AB"/>
<path d="M171.586 144.795H41.5859V152.095H171.586V144.795Z" fill="#0CC9AB"/>
<path d="M66.1869 101.102L72.9484 107.556L99.072 81.1251H86.7775L66.1869 101.102Z" fill="#00FFFF"/>
<path d="M76.0218 110.629L86.7775 121.078H98.4577L88.3156 110.629L99.3797 99.8719H86.4712L76.0218 110.629Z" fill="#C5FFF6"/>
<path d="M130.93 82.8154L117.102 89.2687H137.637L130.93 82.8154Z" fill="#C5FFF6"/>
<path d="M117.098 89.2742L117.096 89.2782L117.098 89.28V89.2742Z" fill="#C5FFF6"/>
<path d="M147.219 113.242V98.4895L137.637 89.2687H117.102L117.1 89.2735V89.2793L140.767 113.248V113.241L147.219 113.242Z" fill="#00FFFF"/>
<path d="M117.098 110.748L125.398 119.387H140.765V113.248L117.098 89.2789V110.748Z" fill="#C5FFF6"/>
<path d="M117.096 89.2782L110.339 103.715L117.098 110.75V89.28L117.096 89.2782Z" fill="#00FFFF"/>
</svg>
