<svg width="213" height="214" viewBox="0 0 213 214" fill="none" xmlns="http://www.w3.org/2000/svg">
<rect x="0.703125" y="0.9375" width="212.235" height="212.235" rx="106.118" fill="#0E425E"/>
<path d="M149.081 86.3679C147.859 85.8331 146.595 85.3251 145.29 84.8439C145.524 83.4738 145.716 82.1251 145.866 80.7979C147.331 67.6558 144.305 58.2047 137.344 54.1859C130.383 50.1672 120.684 52.2712 110.036 60.1117C108.962 60.9025 107.89 61.7431 106.82 62.6334C105.751 61.746 104.679 60.9054 103.605 60.1117C92.9558 52.2712 83.2579 50.1663 76.2968 54.1859C69.3357 58.2056 66.3092 67.6558 67.7749 80.7979C67.9228 82.1231 68.1148 83.4718 68.3511 84.8439C67.0478 85.3261 65.7808 85.8331 64.5592 86.3679C52.4449 91.6695 45.7734 99.016 45.7734 107.054C45.7734 115.092 52.4449 122.438 64.5592 127.74C65.7808 128.275 67.0448 128.783 68.3511 129.264C68.1168 130.634 67.9247 131.983 67.7749 133.31C66.3092 146.452 69.3357 155.903 76.2968 159.922C78.6616 161.265 81.3415 161.952 84.0604 161.915C89.7948 161.915 96.4876 159.236 103.605 153.997C104.678 153.206 105.75 152.365 106.82 151.475C107.889 152.362 108.961 153.203 110.036 153.997C117.153 159.237 123.845 161.915 129.58 161.915C132.299 161.952 134.979 161.265 137.344 159.922C144.305 155.903 147.331 146.452 145.866 133.31C145.718 131.985 145.526 130.636 145.29 129.264C146.593 128.782 147.857 128.274 149.081 127.74C161.196 122.438 167.867 115.092 167.867 107.054C167.867 99.0157 161.196 91.6698 149.081 86.3679ZM113.544 64.8759C119.576 60.4342 125.147 58.1213 129.566 58.1213C131.25 58.0834 132.913 58.4933 134.387 59.3092C139.118 62.0409 141.161 69.6327 139.988 80.1422C139.883 81.0739 139.755 82.0191 139.603 82.9777C134.058 81.4011 128.395 80.2734 122.669 79.6056C119.227 74.9803 115.418 70.6396 111.28 66.6252C112.034 66.0174 112.789 65.4323 113.544 64.8759ZM138.44 125.31C134.79 126.381 131.078 127.231 127.325 127.857C128.729 125.717 130.087 123.513 131.399 121.244C132.707 118.978 133.937 116.7 135.089 114.411C136.423 117.974 137.542 121.613 138.44 125.31ZM99.0569 135.214C101.612 135.359 104.2 135.433 106.82 135.435C109.437 135.435 112.025 135.361 114.584 135.214C112.165 138.151 109.573 140.94 106.82 143.566C104.068 140.939 101.475 138.15 99.0569 135.214ZM106.82 129.519C102.517 129.519 98.292 129.312 94.2035 128.908C91.8095 125.568 89.5171 122.013 87.3654 118.286C85.2138 114.56 83.2813 110.797 81.5861 107.054C83.2813 103.311 85.2141 99.5482 87.3654 95.8217C89.5168 92.0952 91.8095 88.5399 94.2032 85.2006C98.292 84.7975 102.517 84.5895 106.82 84.5895C111.123 84.5895 115.349 84.7966 119.438 85.2006C121.831 88.5399 124.124 92.0952 126.275 95.8217C128.427 99.5482 130.359 103.311 132.054 107.054C130.359 110.797 128.427 114.56 126.275 118.286C124.124 122.013 121.831 125.568 119.437 128.907C115.349 129.311 111.123 129.519 106.82 129.519ZM75.1991 88.7982C78.8497 87.7275 82.5613 86.8769 86.3138 86.251C84.9099 88.3911 83.5523 90.5953 82.2409 92.8637C80.9325 95.1299 79.7023 97.4076 78.5503 99.6967C77.2168 96.1341 76.0981 92.4947 75.2003 88.7982H75.1991ZM78.5503 114.41C79.7021 116.696 80.9323 118.974 82.2409 121.243C83.5492 123.509 84.9068 125.714 86.3138 127.856C82.5613 127.23 78.8498 126.38 75.1991 125.309C76.0976 121.612 77.217 117.973 78.5514 114.41H78.5503ZM135.088 99.6976C133.936 97.4116 132.706 95.134 131.397 92.8646C130.089 90.5983 128.732 88.3941 127.325 86.2519C131.077 86.8778 134.789 87.7284 138.439 88.7991C137.541 92.4956 136.423 96.135 135.089 99.6976H135.088ZM106.819 70.5423C109.572 73.1685 112.164 75.9576 114.583 78.8945C112.027 78.7489 109.439 78.6753 106.819 78.6735C104.202 78.6735 101.614 78.7472 99.0554 78.8945C101.474 75.9577 104.067 73.1686 106.82 70.5423H106.819ZM79.2537 59.3092C80.7273 58.4931 82.3912 58.0832 84.0752 58.1213C88.4933 58.1213 94.065 60.4344 100.097 64.8759C100.852 65.4317 101.606 66.0174 102.36 66.6261C98.222 70.6404 94.4136 74.9812 90.9718 79.6065C85.2456 80.2744 79.5825 81.4021 74.0372 82.9786C73.887 82.0212 73.7588 81.076 73.6527 80.143C72.4825 69.6326 74.5238 62.0409 79.2548 59.3092H79.2537ZM69.5775 123.405C68.6735 123.057 67.7887 122.695 66.93 122.321C57.2437 118.081 51.6883 112.517 51.6883 107.054C51.6883 101.591 57.2437 96.0267 66.93 91.7876C67.7878 91.4116 68.6735 91.051 69.5775 90.7029C70.9852 96.2932 72.8405 101.761 75.1255 107.054C72.8409 112.347 70.986 117.815 69.5786 123.405H69.5775ZM100.096 149.232C91.5815 155.501 83.985 157.53 79.2537 154.799C74.5223 152.068 72.4798 144.474 73.6532 133.966C73.7574 133.034 73.8856 132.089 74.0378 131.131C79.5831 132.707 85.2462 133.834 90.9724 134.503C94.4144 139.128 98.2227 143.469 102.361 147.483C101.606 148.091 100.852 148.677 100.097 149.233L100.096 149.232ZM134.385 154.799C129.652 157.53 122.057 155.501 113.543 149.232C112.787 148.677 112.034 148.091 111.279 147.482C115.417 143.468 119.225 139.127 122.666 134.502C128.392 133.834 134.055 132.706 139.601 131.13C139.751 132.086 139.879 133.032 139.985 133.965C141.158 144.474 139.117 152.067 134.386 154.799H134.385ZM146.708 122.32C145.849 122.696 144.967 123.057 144.061 123.405C142.653 117.814 140.798 112.346 138.513 107.053C140.798 101.761 142.653 96.2926 144.061 90.7022C144.965 91.0505 145.847 91.4121 146.708 91.7869C156.395 96.0261 161.95 101.591 161.95 107.053C161.95 112.516 156.396 118.081 146.709 122.321L146.708 122.32Z" fill="#0CC9AB"/>
<path d="M106.729 103.273C100.902 103.273 96.1774 101.672 96.1774 99.696V104.284C96.1774 106.26 100.902 107.862 106.729 107.862C112.557 107.862 117.281 106.26 117.281 104.284H117.285V99.696H117.281C117.281 101.672 112.557 103.273 106.729 103.273Z" fill="#C5FFF6"/>
<path d="M106.729 109.864C100.902 109.864 96.1774 108.262 96.1774 106.287V110.875C96.1774 112.85 100.902 114.452 106.729 114.452C112.557 114.452 117.281 112.85 117.281 110.875H117.285V106.287H117.281C117.281 108.262 112.557 109.864 106.729 109.864Z" fill="#C5FFF6"/>
<path d="M106.729 116.34C100.902 116.34 96.1774 114.738 96.1774 112.762V117.35C96.1774 119.326 100.902 120.929 106.729 120.929C112.557 120.929 117.281 119.327 117.281 117.35H117.285V112.762H117.281C117.281 114.739 112.557 116.34 106.729 116.34Z" fill="#C5FFF6"/>
<path d="M106.729 101.141C112.557 101.141 117.281 99.5394 117.281 97.5636C117.281 95.5879 112.557 93.9862 106.729 93.9862C100.902 93.9862 96.1774 95.5879 96.1774 97.5636C96.1774 99.5394 100.902 101.141 106.729 101.141Z" fill="#C5FFF6"/>
</svg>
