<svg width="213" height="213" viewBox="0 0 213 213" fill="none" xmlns="http://www.w3.org/2000/svg">
<rect x="0.234375" y="0.34375" width="212.235" height="212.235" rx="106.118" fill="#0E425E"/>
<path d="M103.344 100.779H107.485V94.869C107.485 92.0049 108.472 89.9477 110.42 88.7548C111.551 88.0905 112.838 87.7388 114.15 87.7357C114.247 87.7357 114.31 87.7386 114.335 87.7396H127.065C128.908 87.7396 130.375 87.1938 131.428 86.1167C133.308 84.1946 133.263 81.1853 133.262 81.1555V70.1854C133.264 70.1153 133.285 68.7463 131.915 67.3349C129.512 64.8604 124.838 64.3314 121.34 64.3244H121.246C114.823 64.3244 112.025 65.8337 110.81 67.0995C109.751 68.2039 109.78 69.2132 109.781 69.2555V74.8116L121.496 74.7548H121.846V77.2819H104.786C103.304 77.344 101.874 77.8493 100.682 78.7325C98.1502 80.5923 96.8665 83.8991 96.8665 88.5614C96.8679 100.64 103.08 100.779 103.344 100.779ZM114.678 71.3134C114.325 71.3134 113.986 71.1731 113.736 70.9232C113.486 70.6733 113.345 70.3344 113.345 69.9809C113.345 69.6274 113.486 69.2883 113.736 69.0383C113.986 68.7883 114.325 68.6479 114.678 68.6479C115.032 68.648 115.371 68.7885 115.62 69.0385C115.87 69.2884 116.011 69.6275 116.011 69.9809C116.011 70.3343 115.87 70.6732 115.62 70.9231C115.37 71.173 115.032 71.3134 114.678 71.3134Z" fill="#C5FFF6"/>
<path d="M150.894 113.55C156.862 106.449 160.13 97.4687 160.122 88.1928C160.11 77.7107 155.941 67.6614 148.529 60.2494C141.117 52.8375 131.068 48.6681 120.586 48.6562C110.104 48.6685 100.055 52.8379 92.6434 60.2498C85.2318 67.6617 81.0627 77.7109 81.0509 88.1928C81.048 92.4441 81.7336 96.6679 83.0811 100.7H83.0048L79.5043 104.201V147.267H76.8261V89.7817L73.3256 86.2812H58.0634L54.5629 89.7817V147.267H46.7109V154.268H158.841V147.267H151.652V132.779L148.152 129.279H132.888L129.388 132.779V147.267H126.709V127.254C133.798 126.143 140.449 123.116 145.943 118.501L161.046 133.603L165.996 128.653L150.894 113.55ZM61.5611 93.2825H69.8223V147.266H61.5611V93.2825ZM136.39 136.28H144.653V147.266H136.39V136.28ZM94.7672 147.266H86.506V108.207C88.7036 111.935 91.4939 115.279 94.7672 118.109V147.266ZM101.768 122.956C102.641 123.431 103.534 123.873 104.446 124.281V147.267H101.768V122.956ZM119.71 147.266H111.449V126.661C114.158 127.304 116.927 127.658 119.71 127.718V147.266ZM120.588 120.728C111.962 120.719 103.692 117.288 97.592 111.188C91.4924 105.089 88.0615 96.8188 88.0519 88.1928C88.0617 79.5669 91.4926 71.2969 97.5921 65.1975C103.692 59.098 111.961 55.6671 120.587 55.6573C129.213 55.6671 137.483 59.0982 143.582 65.1977C149.682 71.2971 153.113 79.5669 153.122 88.1928C153.113 96.8189 149.681 105.089 143.582 111.188C137.482 117.288 129.212 120.719 120.586 120.728L120.588 120.728Z" fill="#0CC9AB"/>
<path d="M139.512 76.7977H135.373V81.6733C135.373 89.6082 128.367 89.8374 127.567 89.8374H127.497C127.345 89.8412 125.336 89.8885 122.019 89.8885C120.004 89.8885 117.907 89.8713 115.785 89.8374C115.727 89.8374 115.669 89.8374 115.61 89.8374C113.64 89.8374 112.117 90.3881 111.084 91.4729C109.492 93.1458 109.592 95.5626 109.593 95.5867V107.394C109.591 107.464 109.57 108.846 110.95 110.264C113.356 112.736 118.021 113.255 121.514 113.255C127.974 113.255 130.797 111.741 132.027 110.471C133.095 109.368 133.077 108.363 133.074 108.32V102.768L121.359 102.825H121.007V100.298H138.068C139.55 100.236 140.98 99.7304 142.172 98.8471C144.704 96.9873 145.988 93.6803 145.988 89.018C145.988 76.9367 139.776 76.7977 139.512 76.7977ZM128.178 106.263C128.532 106.263 128.871 106.403 129.121 106.653C129.371 106.903 129.511 107.242 129.511 107.595C129.511 107.949 129.371 108.288 129.121 108.538C128.871 108.788 128.532 108.928 128.178 108.928C127.825 108.928 127.486 108.788 127.236 108.538C126.986 108.288 126.846 107.949 126.846 107.595C126.846 107.242 126.986 106.903 127.236 106.653C127.486 106.403 127.825 106.263 128.178 106.263Z" fill="#0CC9AB"/>
</svg>
