<svg width="213" height="213" viewBox="0 0 213 213" fill="none" xmlns="http://www.w3.org/2000/svg">
<rect y="0.34375" width="212.235" height="212.235" rx="106.118" fill="#0E425E"/>
<path d="M102.895 144.087H64.0446V151.304H102.895V144.087Z" fill="#00FFFF"/>
<path d="M147.742 70.8872V60.5413C147.744 60.4753 147.764 59.1841 146.472 57.8529C144.206 55.5188 139.798 55.0203 136.498 55.0137H136.411C130.32 55.0137 127.684 56.4504 126.544 57.6548C125.554 58.7014 125.596 59.6519 125.596 59.6615V64.9037L136.645 64.8502H136.975V67.2336H120.887C119.489 67.292 118.14 67.7687 117.016 68.602C114.629 70.3558 113.418 73.4748 113.418 77.8717C113.418 89.2655 119.276 89.3966 119.525 89.3966H123.43V83.8232C123.43 81.122 124.361 79.1817 126.198 78.0562C127.265 77.4298 128.479 77.0982 129.716 77.0955C129.807 77.0955 129.868 77.0978 129.891 77.0992H141.897C143.635 77.0992 145.019 76.5841 146.012 75.5686C147.786 73.7538 147.743 70.9156 147.742 70.8872ZM130.215 61.6052C129.881 61.6051 129.562 61.4726 129.326 61.2369C129.09 61.0011 128.958 60.6815 128.958 60.3482C128.958 60.0149 129.091 59.6952 129.326 59.4595C129.562 59.2238 129.882 59.0914 130.215 59.0913C130.548 59.0913 130.868 59.2236 131.104 59.4593C131.339 59.695 131.472 60.0148 131.472 60.3482C131.472 60.6816 131.34 61.0013 131.104 61.237C130.868 61.4728 130.548 61.6052 130.215 61.6052Z" fill="#C5FFF6"/>
<path d="M164.057 125.502V111.837L160.755 108.536H146.359L143.058 111.837V125.502H140.092V111.837L136.79 108.536H122.396L119.095 111.837V125.502H116.569V99.3494L113.267 96.048H98.8699L95.5685 99.3494V125.502H93.0426V84.8846L89.7412 81.5832H75.347L72.0455 84.8846V125.502H69.52V97.0979L66.2185 93.7965H51.8244L48.5229 97.0979V125.502H41.1172V132.105H171.117V125.502L164.057 125.502ZM55.1225 100.399H62.9138V125.501H55.1225V100.399ZM78.6467 88.1857H86.4381V125.501H78.6467V88.1857ZM102.171 102.651H109.964V125.501H102.171V102.651ZM125.696 115.139H133.487V125.501H125.696V115.139ZM149.661 115.139H157.454V125.501H149.661V115.139Z" fill="#0CC9AB"/>
<path d="M60.7435 137.484L57.442 140.785V154.606L60.7435 157.907H151.97L155.271 154.606V140.785L151.97 137.484H60.7435ZM148.669 151.304L64.0446 151.304V144.087H148.669V151.304Z" fill="#0CC9AB"/>
<path d="M125.421 84.504V95.6297C125.42 95.6957 125.399 96.9995 126.702 98.3369C128.97 100.668 133.37 101.158 136.665 101.158C142.757 101.158 145.419 99.7297 146.579 98.5316C147.587 97.492 147.57 96.5438 147.567 96.5039V91.2669L136.518 91.3204H136.187V88.937H152.276C153.674 88.8788 155.023 88.4022 156.147 87.5689C158.535 85.8149 159.745 82.696 159.745 78.2988C159.745 66.905 153.887 66.774 153.638 66.774H149.734V71.3725C149.734 78.8561 143.126 79.0724 142.372 79.0724H142.306C142.163 79.0761 140.268 79.1206 137.14 79.1206C135.239 79.1206 133.261 79.1045 131.26 79.0724C131.205 79.0724 131.151 79.0724 131.095 79.0724C129.237 79.0724 127.801 79.5917 126.826 80.6148C125.325 82.1926 125.419 84.4719 125.42 84.4946L125.421 84.504ZM142.948 94.567C143.114 94.567 143.277 94.5995 143.43 94.6626C143.582 94.7258 143.721 94.8183 143.837 94.9351C143.954 95.0518 144.047 95.1902 144.11 95.3427C144.173 95.4952 144.206 95.6587 144.206 95.8238C144.206 95.9888 144.173 96.1524 144.11 96.305C144.047 96.4575 143.954 96.5959 143.837 96.7126C143.721 96.8293 143.582 96.9219 143.43 96.9851C143.277 97.0482 143.114 97.0807 142.948 97.0807C142.615 97.0807 142.295 96.9483 142.06 96.7126C141.824 96.4769 141.692 96.1571 141.692 95.8238C141.692 95.6587 141.724 95.4952 141.787 95.3427C141.85 95.1902 141.943 95.0518 142.06 94.9351C142.176 94.8183 142.315 94.7258 142.467 94.6626C142.62 94.5995 142.783 94.567 142.948 94.567Z" fill="#0CC9AB"/>
</svg>
