<svg width="213" height="213" viewBox="0 0 213 213" fill="none" xmlns="http://www.w3.org/2000/svg">
<rect x="0.703125" y="0.109375" width="212.235" height="212.235" rx="106.118" fill="#0E425E"/>
<path d="M159.905 65.5656C159.905 61.2041 156.963 55.0079 142.945 50.2554C133.24 46.9645 120.408 45.1523 106.814 45.1523C93.2193 45.1523 80.3879 46.9645 70.6821 50.2554C56.6651 55.0079 53.7227 61.2041 53.7227 65.5656C53.7227 65.5868 53.7227 65.6087 53.7227 65.6299V138.738C53.7227 143.099 56.6651 149.296 70.6821 154.049C71.814 154.433 72.9952 154.795 74.21 155.138C76.8047 161.671 81.2997 167.276 87.1136 171.227C92.9274 175.178 99.7928 177.294 106.822 177.302C113.853 177.294 120.719 175.177 126.534 171.225C132.348 167.272 136.843 161.666 139.437 155.132C140.645 154.79 141.818 154.429 142.945 154.048C156.945 149.301 159.898 143.114 159.905 138.753L159.922 138.737V65.6299H159.904C159.904 65.6087 159.905 65.5868 159.905 65.5656ZM73.0271 57.1713C81.9972 54.1298 93.9966 52.4549 106.814 52.4549C119.631 52.4549 131.631 54.1298 140.601 57.1713C146.575 59.1967 152.603 62.5777 152.603 65.5656C152.603 68.5534 146.575 71.9352 140.601 73.9606C131.631 77.0021 119.632 78.677 106.814 78.677C93.9959 78.677 81.9972 77.0021 73.0271 73.9606C67.0532 71.9352 61.0252 68.5538 61.0252 65.5656C61.0252 62.5774 67.0532 59.1967 73.0271 57.1713ZM70.6821 80.8765C80.3879 84.1674 93.2197 85.9795 106.814 85.9795C120.408 85.9795 133.24 84.1674 142.945 80.8765C147.056 79.4828 150.208 77.9646 152.619 76.4055V91.0107L152.603 91.0275C152.603 94.0157 146.575 97.3964 140.601 99.4218C131.631 102.463 119.632 104.138 106.814 104.138C93.9959 104.138 81.9972 102.463 73.0271 99.4218C67.0532 97.3964 61.0252 94.0157 61.0252 91.0275V76.4165C63.4344 77.9719 66.5813 79.4861 70.6803 80.8765H70.6821ZM61.0252 138.738V125.733C63.4351 127.288 66.5813 128.803 70.6821 130.193C71.611 130.508 72.5772 130.805 73.5612 131.092C72.3571 134.682 71.7448 138.443 71.748 142.229C71.7481 143.753 71.8468 145.275 72.044 146.787C66.4082 144.736 61.0252 141.562 61.0252 138.738ZM73.0271 123.277C67.0532 121.252 61.0252 117.87 61.0252 114.882V101.877C63.4351 103.433 66.5813 104.947 70.6821 106.338C76.6457 108.359 83.7921 109.82 91.5675 110.648C85.3554 113.668 80.1652 118.443 76.6393 124.382C75.3886 124.036 74.1845 123.668 73.0271 123.277ZM106.822 170C99.4592 169.992 92.4002 167.063 87.1938 161.857C81.9874 156.65 79.0589 149.591 79.0506 142.228C79.0588 134.865 81.9874 127.806 87.1938 122.6C92.4002 117.393 99.4591 114.465 106.822 114.456C114.185 114.465 121.244 117.393 126.451 122.6C131.657 127.806 134.586 134.865 134.594 142.228C134.586 149.591 131.657 156.65 126.451 161.857C121.244 167.063 114.185 169.992 106.822 170ZM122.074 110.647C129.844 109.819 136.986 108.358 142.945 106.338C147.056 104.945 150.208 103.427 152.619 101.867V114.866L152.603 114.882C152.603 117.87 146.575 121.252 140.601 123.277C139.451 123.667 138.251 124.034 137.003 124.378C133.477 118.439 128.286 113.665 122.074 110.646V110.647ZM152.619 138.721L152.603 138.738C152.603 141.559 147.23 144.73 141.602 146.78C141.798 145.271 141.896 143.75 141.896 142.228C141.899 138.441 141.287 134.679 140.083 131.088C141.061 130.802 142.022 130.506 142.945 130.193C147.056 128.799 150.208 127.281 152.619 125.722V138.721Z" fill="#0CC9AB"/>
<path d="M121.967 137.797C121.907 137.613 121.791 137.453 121.635 137.34C121.479 137.227 121.291 137.166 121.098 137.166H110.765L107.572 127.339C107.513 127.155 107.397 126.996 107.241 126.882C107.085 126.769 106.897 126.708 106.704 126.708C106.512 126.708 106.324 126.769 106.168 126.882C106.012 126.995 105.896 127.155 105.836 127.339L102.643 137.166H92.31C92.1172 137.166 91.9293 137.227 91.7733 137.34C91.6173 137.453 91.5013 137.613 91.4417 137.797C91.3817 137.98 91.3814 138.178 91.441 138.362C91.5006 138.545 91.6168 138.706 91.7732 138.819L100.135 144.893L96.9416 154.72C96.8821 154.903 96.8821 155.1 96.9416 155.284C97.0012 155.467 97.1171 155.627 97.2731 155.74C97.429 155.853 97.6169 155.914 97.8097 155.914C98.0025 155.914 98.1902 155.853 98.3462 155.74L106.708 149.667L115.069 155.74C115.225 155.854 115.413 155.915 115.605 155.915C115.798 155.915 115.986 155.854 116.142 155.74C116.298 155.627 116.414 155.467 116.474 155.284C116.533 155.1 116.533 154.903 116.474 154.72L113.281 144.893L121.642 138.819C121.797 138.705 121.912 138.544 121.97 138.36C122.029 138.177 122.027 137.979 121.967 137.797Z" fill="#C5FFF6"/>
</svg>
