<svg width="213" height="213" viewBox="0 0 213 213" fill="none" xmlns="http://www.w3.org/2000/svg">
<rect width="212.235" height="212.235" rx="106.118" fill="#0E425E"/>
<path d="M119.418 93.9461H145.971V91.9532L141.385 87.2908H122.748V68.3462L118.026 63.5459H116.092V90.6181L119.418 93.9461Z" fill="#00FFFF"/>
<path d="M121.791 57.885L119.418 56.8906H68.1199C65.8646 56.8911 63.7016 57.7863 62.1054 59.3795C60.5092 60.9728 59.6101 63.1342 59.6055 65.3895V132.854C59.6055 150.769 74.2192 165.343 92.1832 165.343H120.049C138.011 165.343 152.626 150.768 152.626 132.854V90.5898L151.671 88.2562L121.791 57.885ZM120.048 158.688H92.1819C77.889 158.688 66.2594 147.1 66.2594 132.855V65.3895C66.2621 64.8986 66.4593 64.4289 66.8078 64.0833C67.1564 63.7377 67.6278 63.5444 68.1186 63.5459H118.023L145.968 91.9529V132.854C145.971 147.1 134.341 158.688 120.048 158.688Z" fill="#0CC9AB"/>
<path d="M120.935 112.883H117.144V107.972C117.141 105.023 115.968 102.196 113.883 100.111C111.798 98.0254 108.971 96.8525 106.022 96.8492C103.074 96.8526 100.247 98.0256 98.1616 100.111C96.0766 102.196 94.9038 105.023 94.9005 107.972V112.883H91.2957C89.5555 112.885 87.8872 113.577 86.6567 114.808C85.4262 116.038 84.734 117.707 84.7319 119.447V141.379C84.7339 143.119 85.4261 144.787 86.6566 146.018C87.8872 147.248 89.5555 147.94 91.2957 147.942H120.935C122.675 147.94 124.343 147.248 125.574 146.018C126.804 144.787 127.496 143.119 127.498 141.379V119.447C127.496 117.707 126.804 116.038 125.574 114.808C124.343 113.577 122.675 112.885 120.935 112.883ZM101.556 107.972C101.557 106.787 102.028 105.652 102.865 104.814C103.703 103.977 104.838 103.506 106.022 103.504C107.207 103.506 108.342 103.977 109.179 104.814C110.017 105.652 110.488 106.787 110.489 107.972V112.892H101.556V107.972ZM120.843 141.287H91.3872V119.538H94.9005V119.547H117.144V119.538H120.843V141.287Z" fill="#C5FFF6"/>
</svg>
