<svg width="214" height="214" viewBox="0 0 214 214" fill="none" xmlns="http://www.w3.org/2000/svg">
<rect x="0.875" y="0.9375" width="212.235" height="212.235" rx="106.118" fill="#0E425E"/>
<path d="M75.3034 67.1665C85.1631 58.9688 97.7146 54.7223 110.526 55.2498C121.615 55.6913 132.269 59.6842 140.916 66.6396L137.06 66.2987L136.468 73.0034L153.003 74.4658L152.725 57.3661L145.995 57.4757L146.071 62.1669C136.149 53.8401 123.744 49.0425 110.802 48.5266C96.3256 47.9275 82.143 52.7255 71.004 61.9902C66.3402 65.8616 62.3053 70.4333 59.0432 75.5419H67.2517C69.6141 72.4579 72.3148 69.6486 75.3034 67.1665Z" fill="#C5FFF6"/>
<path d="M148.48 139.981C146.395 142.516 144.074 144.847 141.548 146.944C131.689 155.143 119.137 159.39 106.326 158.861C95.1312 158.415 84.3837 154.349 75.6969 147.274L79.8293 147.278L79.8351 140.548L63.2363 140.533L65.0035 157.543L71.6975 156.848L71.2264 152.311C81.0766 160.415 93.3056 165.076 106.05 165.585C106.854 165.618 107.657 165.634 108.458 165.634C122.117 165.638 135.346 160.857 145.848 152.122C150.076 148.612 153.79 144.525 156.88 139.981H148.48Z" fill="#C5FFF6"/>
<path d="M171.586 104.67C171.272 104.609 170.962 104.547 170.657 104.486C170.355 104.426 170.061 104.368 169.768 104.31C169.547 103.616 169.313 102.929 169.064 102.249C169.27 102.015 169.468 101.788 169.657 101.572C169.834 101.37 170.004 101.176 170.166 100.993L172.062 98.8513L166.436 91.9572L163.889 93.6787C163.647 93.8419 163.405 94.0021 163.164 94.1619C162.922 94.3218 162.673 94.487 162.423 94.6552C162.003 94.4416 161.589 94.2427 161.182 94.0472C160.934 93.9277 160.691 93.8116 160.456 93.6952C160.448 93.5899 160.442 93.4771 160.435 93.3695C160.422 93.1733 160.408 92.9795 160.396 92.7759C160.377 92.4546 160.358 92.1325 160.334 91.8098L160.118 88.8921L151.405 88.3186L150.779 91.1358C150.712 91.441 150.641 91.7415 150.572 92.0373C150.503 92.3331 150.432 92.643 150.363 92.9509C150.131 93.0226 149.907 93.0969 149.681 93.1706C149.205 93.3257 148.736 93.4836 148.282 93.6488C148.035 93.4361 147.792 93.2278 147.552 93.0239C147.336 92.8398 147.122 92.6581 146.915 92.4791L144.721 90.5823L137.999 96.3583L139.714 98.8484C139.874 99.0812 140.031 99.3164 140.189 99.5513C140.357 99.8027 140.527 100.056 140.704 100.314C140.339 100.976 140.01 101.632 139.719 102.284C139.393 102.307 139.072 102.332 138.755 102.357C138.468 102.38 138.183 102.403 137.898 102.425L134.973 102.634L134.4 111.353L137.22 111.977C137.523 112.045 137.822 112.114 138.119 112.182C138.421 112.251 138.727 112.322 139.038 112.391C139.257 113.102 139.49 113.798 139.735 114.474C139.525 114.717 139.323 114.954 139.132 115.178C138.964 115.376 138.802 115.567 138.647 115.745L136.76 117.925L142.523 124.719L145.032 122.983C145.26 122.824 145.494 122.666 145.729 122.506C145.957 122.351 146.187 122.194 146.419 122.035C147.087 122.393 147.732 122.715 148.365 123.007C148.388 123.335 148.415 123.658 148.441 123.977C148.465 124.276 148.489 124.575 148.511 124.873L148.726 127.792L157.425 128.364L158.054 125.552C158.123 125.245 158.193 124.942 158.262 124.641C158.334 124.328 158.407 124.011 158.479 123.69C159.205 123.458 159.894 123.224 160.552 122.984C160.785 123.19 161.016 123.394 161.245 123.595C161.481 123.803 161.719 124.012 161.959 124.224L164.239 126.251L170.752 120.229L169.133 117.836C168.961 117.581 168.793 117.329 168.626 117.077C168.46 116.826 168.295 116.578 168.124 116.325C168.48 115.692 168.824 115.03 169.134 114.34C169.488 114.316 169.834 114.287 170.174 114.259C170.446 114.236 170.718 114.212 170.989 114.193L173.917 113.986L174.492 105.244L171.586 104.67ZM153.718 119.028C152.312 118.94 150.937 118.574 149.673 117.953C148.409 117.331 147.28 116.466 146.351 115.407C145.422 114.348 144.712 113.116 144.26 111.782C143.809 110.447 143.626 109.037 143.721 107.631C143.809 106.225 144.174 104.85 144.795 103.586C145.417 102.321 146.282 101.192 147.341 100.263C148.4 99.3343 149.632 98.6238 150.967 98.1726C152.302 97.7215 153.712 97.5387 155.118 97.6346C156.524 97.7232 157.898 98.0887 159.162 98.71C160.427 99.3314 161.556 100.196 162.485 101.255C163.414 102.314 164.124 103.546 164.576 104.881C165.027 106.215 165.211 107.626 165.115 109.031C165.026 110.437 164.661 111.811 164.039 113.075C163.418 114.339 162.553 115.468 161.494 116.397C160.435 117.326 159.203 118.036 157.869 118.488C156.535 118.939 155.125 119.123 153.719 119.028H153.718Z" fill="#0CC9AB"/>
<path d="M76.514 108.173C76.7593 108.054 77.0039 107.934 77.2499 107.818L79.9039 106.567L79.0259 103.768L78.7904 103.02L77.2816 98.2088L74.3678 98.7267C74.0537 98.7825 73.7437 98.837 73.4377 98.8902C73.1348 98.943 72.8368 98.9952 72.5424 99.0474C72.0861 98.4805 71.619 97.9245 71.1412 97.3793C71.2489 97.0883 71.3518 96.8073 71.4494 96.5381C71.5413 96.2854 71.6301 96.0418 71.7153 95.8119L72.7098 93.1297L64.9728 88.7331L63.2197 91.2585C63.0535 91.4981 62.8855 91.7346 62.7182 91.9708C62.551 92.207 62.378 92.4513 62.2064 92.6983C61.7373 92.6509 61.2794 92.6149 60.8295 92.5796C60.5546 92.558 60.2867 92.5368 60.0246 92.5139C59.8964 92.2447 59.7682 91.9648 59.6367 91.6774C59.5051 91.39 59.3675 91.0919 59.2302 90.7998L57.9751 88.157L49.6413 90.7692L50.0754 93.6224C50.1222 93.9309 50.1656 94.2354 50.21 94.5366C50.2544 94.8378 50.2974 95.1517 50.3446 95.465C49.7533 95.9327 49.193 96.3984 48.6563 96.8675C48.3504 96.7582 48.0486 96.6528 47.7508 96.5489C47.4816 96.4553 47.2178 96.3631 46.9594 96.2706L44.2285 95.2948L40.047 103.109L42.5442 104.812C42.777 104.97 43.008 105.132 43.2392 105.294C43.4872 105.468 43.7392 105.644 43.9976 105.821C43.8967 106.569 43.8269 107.301 43.7906 108.013C43.4942 108.153 43.2026 108.292 42.9157 108.431C42.6569 108.556 42.3992 108.68 42.1418 108.801L39.6941 109.957L39.4922 110.054L39.6941 110.703L42.1032 118.388L44.9586 117.951C45.2662 117.904 45.57 117.86 45.8708 117.816C46.1774 117.772 46.4883 117.727 46.8023 117.679C47.264 118.262 47.7318 118.826 48.2058 119.369C48.0968 119.674 47.9938 119.968 47.8966 120.247C47.8114 120.492 47.7283 120.727 47.6503 120.948L46.6787 123.663L54.5067 127.916L56.2181 125.391C56.3743 125.161 56.5344 124.929 56.6959 124.695C56.8521 124.468 57.0106 124.239 57.1695 124.005C57.9209 124.098 58.6393 124.165 59.3345 124.207C59.4752 124.504 59.6165 124.796 59.7558 125.082C59.8868 125.352 60.0167 125.623 60.1457 125.893L61.4002 128.537L61.4647 128.516L69.7181 125.928L69.2895 123.079C69.2427 122.768 69.1981 122.46 69.1547 122.155C69.1086 121.837 69.0622 121.515 69.0131 121.189C69.6063 120.71 70.1637 120.243 70.6916 119.783C70.9833 119.891 71.2721 119.998 71.5583 120.102C71.8538 120.21 72.1514 120.319 72.4512 120.431L75.3093 121.497L79.2076 113.53L76.833 111.881C76.5816 111.707 76.3332 111.532 76.0882 111.358C75.8446 111.186 75.5981 111.012 75.348 110.837C75.4507 110.118 75.533 109.377 75.57 108.621C75.8947 108.475 76.2071 108.323 76.514 108.173ZM62.8957 118.571C61.5527 118.996 60.1388 119.152 58.7355 119.029C57.3321 118.907 55.9668 118.508 54.718 117.856C53.4693 117.204 52.3616 116.312 51.4587 115.23C50.5558 114.149 49.8756 112.9 49.457 111.555C49.0311 110.212 48.8748 108.798 48.9973 107.394C49.1197 105.991 49.5183 104.626 50.1702 103.377C50.8222 102.128 51.7146 101.02 52.7962 100.117C53.8777 99.2147 55.1269 98.5346 56.4722 98.1163C57.8151 97.691 59.2289 97.5352 60.6322 97.6578C62.0356 97.7805 63.401 98.1792 64.6498 98.8311C65.8986 99.483 67.0063 100.375 67.9093 101.456C68.8123 102.538 69.4926 103.787 69.9115 105.132C70.3361 106.475 70.4913 107.888 70.3683 109.291C70.2452 110.694 69.8463 112.059 69.1945 113.308C68.5426 114.556 67.6506 115.664 66.5697 116.567C65.4888 117.469 64.2403 118.15 62.8957 118.569V118.571Z" fill="#0CC9AB"/>
<path d="M123.538 111.149C123.841 111.068 124.148 110.986 124.457 110.905L127.409 110.134L126.015 101.374L123.126 101.392H121.721C121.589 101.392 121.452 101.392 121.31 101.392C120.98 100.744 120.621 100.091 120.217 99.4506C120.394 99.1424 120.562 98.8382 120.727 98.539C120.859 98.3001 120.99 98.0616 121.125 97.8253L122.576 95.2757L115.626 89.9449L113.539 92.0443C113.314 92.2713 113.091 92.4943 112.872 92.7133C112.654 92.9313 112.441 93.1447 112.23 93.3566C111.531 93.1548 110.829 92.9684 110.124 92.7977C110.045 92.4976 109.967 92.2075 109.893 91.9319C109.822 91.6718 109.755 91.4218 109.692 91.1846L108.964 88.4179L100.104 89.2706L100.122 92.3451C100.122 92.6372 100.122 92.9276 100.122 93.2174C100.122 93.5071 100.12 93.8052 100.122 94.1053C99.7105 94.3365 99.3142 94.5704 98.9268 94.8002C98.6895 94.9404 98.4576 95.0768 98.231 95.2094C97.9712 95.063 97.7051 94.9066 97.4322 94.7481C97.1593 94.5896 96.8765 94.423 96.5952 94.2639L94.0486 92.8233L88.7337 99.7521L90.7298 101.838C90.9465 102.064 91.1574 102.289 91.366 102.511C91.5746 102.734 91.7904 102.963 92.0088 103.191C91.7944 103.914 91.605 104.617 91.4344 105.31C91.1218 105.396 90.815 105.483 90.5124 105.569C90.2382 105.647 89.9679 105.724 89.7028 105.797L86.9068 106.569L87.9795 115.367L91.0024 115.323C91.2844 115.319 91.5669 115.319 91.8496 115.318C92.1524 115.318 92.4591 115.318 92.771 115.313C93.1189 115.984 93.4828 116.622 93.8626 117.225C93.7011 117.51 93.5431 117.791 93.3888 118.068C93.2486 118.32 93.1084 118.57 92.9682 118.817L91.5191 121.366L98.4504 126.681L100.537 124.682C100.761 124.467 100.985 124.257 101.206 124.048C101.427 123.84 101.659 123.62 101.889 123.4C102.602 123.612 103.311 123.804 104.009 123.976C104.095 124.287 104.18 124.587 104.261 124.87C104.332 125.12 104.4 125.36 104.463 125.587L105.228 128.367L114.077 127.345L114.025 124.295C114.02 124.017 114.018 123.735 114.016 123.451C114.013 123.176 114.011 122.896 114.006 122.613C114.674 122.257 115.301 121.899 115.895 121.537C116.181 121.699 116.465 121.857 116.745 122.012C117.007 122.158 117.269 122.304 117.529 122.45L120.075 123.891L122.933 120.167L123.628 119.259L125.382 116.972L123.393 114.886C123.176 114.659 122.963 114.433 122.753 114.209C122.533 113.975 122.308 113.738 122.08 113.499C122.29 112.766 122.477 112.063 122.644 111.383C122.946 111.306 123.244 111.228 123.538 111.149ZM98.5463 101.836C99.4004 100.716 100.467 99.7753 101.686 99.0686C102.904 98.3619 104.251 97.903 105.647 97.7181C107.044 97.5332 108.463 97.6261 109.824 97.9914C111.184 98.3567 112.459 98.9872 113.575 99.8467C114.695 100.701 115.635 101.768 116.342 102.987C117.048 104.206 117.507 105.552 117.692 106.948C117.876 108.345 117.784 109.764 117.418 111.125C117.053 112.485 116.423 113.76 115.564 114.876C114.71 115.997 113.643 116.937 112.424 117.644C111.205 118.35 109.859 118.809 108.463 118.994C107.066 119.178 105.647 119.085 104.286 118.72C102.926 118.355 101.651 117.724 100.535 116.864C99.4142 116.011 98.4733 114.944 97.7664 113.725C97.0594 112.507 96.6003 111.16 96.4154 109.764C96.2306 108.367 96.3237 106.948 96.6893 105.587C97.055 104.227 97.6863 102.952 98.5463 101.836Z" fill="#0CC9AB"/>
</svg>
