<svg width="213" height="213" viewBox="0 0 213 213" fill="none" xmlns="http://www.w3.org/2000/svg">
<rect width="212.235" height="212.235" rx="106.118" fill="#0E425E"/>
<path d="M129.996 62.4427C139.48 67.8732 146.941 76.2388 151.256 86.2788L147.877 84.1209L144.477 89.4441L157.871 97.9989L165.2 83.3501L159.551 80.5236L157.451 84.7207C153.592 75.2991 147.273 67.0872 139.154 60.943C131.036 54.7988 121.416 50.948 111.301 49.793L113.659 56.5132C119.407 57.5288 124.935 59.5352 129.996 62.4427Z" fill="#00FFFF"/>
<path d="M79.768 150.024C71.3914 145.226 64.5676 138.125 60.1065 129.564L63.9909 131.216L66.4627 125.404L51.8382 119.185L47.0352 134.846L53.0733 136.699L54.4183 132.314C58.5672 140.335 64.5677 147.252 71.9227 152.492C79.2777 157.731 87.7754 161.143 96.7117 162.444L95.1586 155.777C89.7483 154.714 84.549 152.771 79.768 150.024Z" fill="#00FFFF"/>
<path d="M159.14 124.27L161.541 122.92L157.683 113.135L154.99 113.815C154.448 113.953 153.914 114.086 153.389 114.217C152.33 114.481 151.32 114.734 150.304 114.999C148.769 113.287 147.162 111.63 145.514 110.063C145.839 109.006 146.135 107.966 146.403 107.024C146.533 106.57 146.656 106.133 146.777 105.72L147.528 103.142L137.848 98.524L136.377 101.006C136.114 101.448 135.85 101.887 135.584 102.323C135.055 103.197 134.51 104.095 133.993 105.023C132.653 104.933 131.336 104.924 130.058 104.915C129.039 104.908 128.072 104.902 127.117 104.857C126.57 103.998 126.062 103.071 125.53 102.097C125.274 101.628 125.008 101.144 124.734 100.659L124.732 100.656L123.382 98.2692L113.583 102.135L114.181 104.776C114.303 105.315 114.418 105.847 114.531 106.373C114.544 106.432 114.558 106.492 114.57 106.551C114.778 107.509 114.991 108.489 115.24 109.468C114.138 110.44 113.109 111.397 112.133 112.353C111.502 112.973 110.891 113.594 110.3 114.216C109.239 113.896 108.195 113.614 107.179 113.339C106.694 113.208 106.217 113.079 105.75 112.949L103.129 112.218L98.7799 121.961L101.232 123.387C101.667 123.64 102.098 123.898 102.529 124.156C103.436 124.699 104.37 125.258 105.35 125.779C105.243 126.87 105.179 127.936 105.148 128.98C105.111 130.252 105.124 131.489 105.201 132.675C104.486 133.054 103.792 133.447 103.108 133.836C102.844 133.987 102.577 134.138 102.316 134.287C101.874 134.54 101.437 134.793 101 135.037L98.6022 136.387L102.466 146.186L105.109 145.586C105.646 145.464 106.174 145.349 106.698 145.235C107.717 145.014 108.763 144.785 109.808 144.52C111.362 146.291 112.957 147.951 114.556 149.464C114.233 150.534 113.949 151.586 113.693 152.534C113.573 152.976 113.458 153.404 113.345 153.805L112.619 156.411L122.401 160.851L123.834 158.373C124.079 157.948 124.332 157.52 124.587 157.087C125.099 156.219 125.624 155.327 126.132 154.403C127.829 154.529 129.397 154.589 130.91 154.589C131.616 154.589 132.316 154.575 132.994 154.548C133.52 155.527 134.07 156.482 134.605 157.409C134.868 157.867 135.131 158.325 135.39 158.782L136.742 161.172L146.521 157.317L145.928 154.679C145.807 154.139 145.69 153.605 145.575 153.074C145.35 152.042 145.119 150.982 144.861 149.925C146.704 148.251 148.325 146.678 149.79 145.142C150.823 145.464 151.859 145.761 152.869 146.051C153.399 146.203 153.934 146.357 154.473 146.515L157.22 147.321L161.211 137.425L158.878 136.042C158.414 135.767 157.955 135.491 157.501 135.216C156.599 134.67 155.67 134.11 154.718 133.576C154.973 131.276 155.026 128.959 154.876 126.649C155.927 126.124 156.918 125.549 157.88 124.992C158.297 124.751 158.718 124.508 159.14 124.27ZM136.894 147.058C133.464 148.412 129.709 148.718 126.105 147.938C122.5 147.158 119.208 145.326 116.645 142.675C114.081 140.023 112.362 136.672 111.703 133.043C111.045 129.414 111.477 125.672 112.945 122.289C114.414 118.906 116.852 116.034 119.953 114.037C123.053 112.04 126.676 111.008 130.363 111.07C134.051 111.132 137.637 112.285 140.668 114.386C143.7 116.486 146.041 119.438 147.394 122.868C148.3 125.145 148.746 127.579 148.708 130.029C148.67 132.479 148.148 134.898 147.172 137.145C146.196 139.393 144.786 141.426 143.022 143.127C141.259 144.829 139.176 146.164 136.894 147.058Z" fill="#C5FFF6"/>
<path d="M104.481 84.0417C105.567 83.5923 106.597 83.0901 107.596 82.6029C108.033 82.3897 108.47 82.1765 108.909 81.9713L111.4 80.7971L108.251 70.7622L105.517 71.2482C104.966 71.3461 104.424 71.4408 103.891 71.5324C102.817 71.7219 101.79 71.8997 100.758 72.0924C99.3499 70.2743 97.865 68.507 96.333 66.8264C96.7331 65.7953 97.1033 64.7781 97.4383 63.8578C97.6 63.4157 97.7541 62.9871 97.9048 62.5836L98.838 60.0663L89.5136 54.769L87.8679 57.1376C87.5746 57.5604 87.2783 57.9785 86.9837 58.3951C86.3932 59.2288 85.7862 60.0859 85.2035 60.9742C83.8734 60.7889 82.5599 60.6856 81.2857 60.5852C80.2704 60.5056 79.3062 60.4298 78.3573 60.3164C77.8725 59.4211 77.4326 58.4595 76.9712 57.4502C76.7501 56.9645 76.5193 56.4621 76.2802 55.959L75.1026 53.4784L65.0506 56.632L65.458 59.3096C65.5411 59.856 65.6178 60.3947 65.6936 60.9275C65.8395 61.9542 65.9898 63.0093 66.179 64.065C64.2526 65.5347 62.5223 66.9742 60.912 68.4486C59.8762 68.0532 58.8552 67.697 57.8617 67.3506C57.388 67.1851 56.9206 67.0222 56.4643 66.8589L53.9012 65.9431L48.8661 75.3527L51.2103 76.9506C51.6253 77.2349 52.0374 77.5219 52.4492 77.8106C53.3148 78.4166 54.2057 79.0422 55.1461 79.6309C54.7472 81.8986 54.5325 84.1949 54.5041 86.4973C53.4774 86.9524 52.4801 87.4327 51.5113 87.8995C51.0537 88.1206 50.5986 88.3391 50.1451 88.5532L47.6569 89.728L50.8083 99.7778L53.4879 99.3672C54.0307 99.2845 54.567 99.2071 55.0984 99.1307C56.1302 98.9822 57.1906 98.8294 58.2511 98.6406C59.675 100.518 61.147 102.288 62.6341 103.912C62.2346 104.954 61.8762 105.985 61.5528 106.912C61.4015 107.346 61.2563 107.765 61.1161 108.155L60.2037 110.703L69.6443 115.832L71.2508 113.463C71.5258 113.057 71.8085 112.648 72.0936 112.235C72.6659 111.406 73.2539 110.554 73.8264 109.668C76.091 110.011 78.3734 110.223 80.6623 110.304C81.1177 111.319 81.5971 112.31 82.0635 113.273C82.2934 113.748 82.523 114.222 82.7485 114.697L83.9261 117.178L93.955 114.034L93.5527 111.36C93.4703 110.813 93.3923 110.271 93.3149 109.734C93.1643 108.688 93.0095 107.614 92.8282 106.542C94.7862 105.004 96.5156 103.551 98.0864 102.124C99.0934 102.518 100.107 102.889 101.092 103.25C101.611 103.44 102.133 103.632 102.659 103.828L105.343 104.828L110.032 95.2432L107.804 93.6957C107.362 93.3878 106.923 93.0793 106.49 92.7726C105.628 92.1641 104.743 91.5385 103.83 90.9385C103.856 90.7806 103.881 90.6227 103.907 90.4648C104.28 88.3439 104.472 86.1951 104.481 84.0417ZM85.0905 103.109C81.572 104.213 77.8049 104.25 74.2656 103.214C70.7263 102.178 67.5737 100.115 65.2065 97.2873C62.8393 94.4595 61.3638 90.9932 60.9666 87.3268C60.5693 83.6603 61.2682 79.9585 62.9749 76.6893C64.6815 73.4201 67.3192 70.7303 70.5545 68.9602C73.7898 67.1901 77.4773 66.419 81.1508 66.7446C84.8242 67.0702 88.3187 68.4777 91.1922 70.7893C94.0657 73.1008 96.1893 76.2126 97.2943 79.731C98.0343 82.0671 98.3055 84.5265 98.0921 86.9678C97.8787 89.4091 97.185 91.7841 96.0509 93.9565C94.9167 96.1288 93.3645 98.0557 91.4834 99.6263C89.6023 101.197 87.4294 102.38 85.0895 103.109H85.0905Z" fill="#0CC9AB"/>
</svg>
