<svg width="213" height="213" viewBox="0 0 213 213" fill="none" xmlns="http://www.w3.org/2000/svg">
<rect width="212.235" height="212.235" rx="106.118" fill="#0E425E"/>
<path d="M153.952 127.203L154.697 103.784L151.289 100.267H122.378C125.53 97.8281 128.099 94.718 129.898 91.1625C131.698 87.6069 132.683 83.695 132.781 79.7112L132.798 79.6907V70.2939L132.781 70.2731C132.612 63.265 129.709 56.6009 124.693 51.7042C119.676 46.8075 112.944 44.0664 105.934 44.0664C98.9235 44.0664 92.1912 46.8075 87.1748 51.7042C82.1583 56.6009 79.2553 63.265 79.086 70.2731L79.0693 70.2939V79.6907L79.086 79.7115C79.1845 83.6954 80.1694 87.6072 81.9689 91.1628C83.7685 94.7184 86.3375 97.8284 89.4894 100.267H60.5766L57.1695 103.784L57.9143 127.203H45.4141V134.021H58.1311L58.8739 157.367L62.281 160.667H149.586L152.994 157.367L153.736 134.021H166.822V127.203L153.952 127.203ZM105.934 50.8873C110.381 50.8931 114.701 52.3752 118.216 55.1012C121.73 57.8272 124.241 61.6428 125.353 65.9493L106.872 62.0268L105.469 62.024L86.5101 65.9701C87.6182 61.6589 90.1273 57.838 93.6432 55.1078C97.159 52.3777 101.482 50.8931 105.934 50.8873ZM85.887 79.0444V73.0632L106.157 68.8448L125.98 73.0523V79.0441C125.98 81.6767 125.462 84.2835 124.454 86.7156C123.447 89.1478 121.97 91.3577 120.109 93.2192C118.247 95.0808 116.037 96.5574 113.605 97.5649C111.173 98.5723 108.566 99.0908 105.934 99.0908C103.301 99.0908 100.694 98.5723 98.2621 97.5649C95.83 96.5574 93.62 95.0808 91.7585 93.2192C89.897 91.3577 88.4204 89.1478 87.4129 86.7156C86.4055 84.2835 85.887 81.677 85.887 79.0444ZM146.284 153.85H65.5832L64.0945 107.083H147.772L146.284 153.85Z" fill="#0CC9AB"/>
<path d="M103.774 137.561V132.913L101.105 130.442L103.774 128.103V123.569L96.0088 130.373L103.774 137.561Z" fill="#00FFFF"/>
<path d="M108.092 128.243L110.761 130.714L108.092 133.054V137.588L115.857 130.782L108.092 123.594V128.243Z" fill="#00FFFF"/>
<path d="M139.081 131.814C138.924 131.722 138.764 131.628 138.602 131.534C138.631 131.094 138.638 130.652 138.623 130.21C138.809 130.105 138.988 129.998 139.163 129.894C139.29 129.818 139.417 129.742 139.544 129.669L140.831 128.925L139.119 124.731L137.671 125.115L136.642 125.387C136.343 125.071 136.038 124.764 135.726 124.465C135.777 124.281 135.825 124.103 135.871 123.935C135.909 123.795 135.945 123.662 135.981 123.533L136.37 122.137L132.191 120.205L131.413 121.554C131.334 121.69 131.255 121.826 131.174 121.959C131.083 122.113 130.991 122.269 130.9 122.429C130.737 122.425 130.583 122.425 130.442 122.425C130.325 122.425 130.209 122.425 130.092 122.425H129.594C129.502 122.269 129.41 122.106 129.315 121.938C129.231 121.787 129.145 121.636 129.058 121.486L128.313 120.205L125.486 121.36L124.133 121.912L124.474 123.334C124.513 123.498 124.55 123.66 124.586 123.821C124.628 124.002 124.67 124.187 124.715 124.374C124.386 124.68 124.078 124.984 123.784 125.289C123.594 125.238 123.407 125.19 123.223 125.142C123.074 125.104 122.927 125.066 122.784 125.028L121.364 124.651L119.546 128.859L120.879 129.613C121.011 129.688 121.144 129.765 121.275 129.842C121.435 129.935 121.597 130.029 121.764 130.123C121.738 130.574 121.734 131.011 121.75 131.434C121.577 131.533 121.409 131.633 121.243 131.73C121.109 131.809 120.976 131.887 120.843 131.964L119.558 132.708L121.266 136.892L122.688 136.552C122.852 136.512 123.013 136.475 123.173 136.438C123.356 136.396 123.541 136.354 123.729 136.308C124.031 136.633 124.336 136.943 124.644 137.24C124.594 137.43 124.546 137.615 124.502 137.786C124.468 137.922 124.434 138.052 124.4 138.175L124.025 139.586L128.245 141.441L129.002 140.094C129.075 139.963 129.151 139.831 129.227 139.698C129.312 139.551 129.397 139.401 129.483 139.248C129.778 139.261 130.063 139.267 130.339 139.267C130.487 139.267 130.635 139.267 130.78 139.261C130.88 139.434 130.98 139.602 131.079 139.77C131.161 139.909 131.243 140.048 131.324 140.187L132.07 141.469L136.245 139.764L135.908 138.344C135.869 138.179 135.831 138.015 135.794 137.853C135.75 137.665 135.706 137.473 135.66 137.28C135.991 136.965 136.298 136.661 136.586 136.362C136.769 136.414 136.95 136.465 137.129 136.512C137.293 136.557 137.457 136.602 137.624 136.649L139.111 137.066L140.776 132.791L139.508 132.06C139.362 131.979 139.221 131.896 139.081 131.814ZM132.117 135.56C131.183 135.942 130.156 136.038 129.167 135.836C128.178 135.634 127.271 135.144 126.561 134.426C125.85 133.709 125.369 132.797 125.177 131.806C124.985 130.815 125.091 129.789 125.482 128.859C125.873 127.928 126.531 127.134 127.373 126.577C128.215 126.021 129.203 125.726 130.213 125.731C131.222 125.736 132.207 126.04 133.044 126.605C133.881 127.17 134.531 127.97 134.913 128.905C135.168 129.525 135.298 130.19 135.295 130.861C135.293 131.531 135.158 132.195 134.898 132.814C134.639 133.432 134.259 133.993 133.782 134.464C133.305 134.936 132.739 135.308 132.117 135.56Z" fill="#C5FFF6"/>
<path d="M91.024 129.669L92.3109 128.925L90.5989 124.731L89.1502 125.115L88.1214 125.387C87.8226 125.071 87.5171 124.764 87.2051 124.465C87.2566 124.281 87.305 124.103 87.3507 123.935C87.3885 123.795 87.425 123.662 87.4604 123.533L87.849 122.137L83.6708 120.205L82.8926 121.554C82.8137 121.69 82.7342 121.826 82.6539 121.959C82.5633 122.113 82.4712 122.269 82.3812 122.429C82.2186 122.425 82.0646 122.425 81.9231 122.425C81.8068 122.425 81.6903 122.425 81.574 122.425H81.0756C80.9836 122.269 80.8916 122.106 80.7968 121.938C80.7123 121.787 80.6264 121.636 80.5398 121.486L79.7946 120.205L75.6113 121.912L75.9522 123.333C75.9914 123.498 76.0282 123.66 76.065 123.82C76.1066 124.002 76.1488 124.186 76.1938 124.373C75.8649 124.68 75.556 124.983 75.2629 125.288C75.0727 125.237 74.8855 125.189 74.7014 125.142C74.5525 125.103 74.4056 125.066 74.2624 125.027L72.8423 124.65L72.2597 125.999L72.0552 126.476L71.0257 128.86L72.3585 129.614C72.4911 129.689 72.6234 129.766 72.7553 129.843C72.9149 129.935 73.0768 130.03 73.2435 130.123C73.2183 130.575 73.2137 131.012 73.2298 131.434C73.0574 131.533 72.889 131.633 72.7226 131.73C72.589 131.809 72.4558 131.887 72.3231 131.965L71.038 132.708L72.7454 136.893L74.1683 136.552C74.3316 136.513 74.4928 136.476 74.6527 136.439C74.8354 136.397 75.0209 136.354 75.2087 136.309C75.5107 136.633 75.8159 136.944 76.1243 137.241C76.0735 137.43 76.0261 137.616 75.9818 137.786C75.9477 137.922 75.9136 138.052 75.8795 138.175L75.5046 139.587L76.8415 140.174L77.6204 140.515L79.724 141.44L80.4811 140.093C80.5548 139.962 80.6305 139.83 80.7068 139.697C80.7913 139.55 80.8767 139.4 80.9628 139.247C81.2577 139.26 81.5423 139.266 81.8184 139.266C81.9667 139.266 82.1143 139.266 82.2595 139.26C82.3594 139.433 82.4596 139.601 82.5582 139.769C82.6406 139.908 82.7226 140.047 82.8039 140.186L83.5491 141.468L87.7246 139.763L87.3878 138.343C87.3486 138.178 87.3108 138.014 87.2733 137.851C87.2301 137.663 87.1856 137.473 87.1396 137.279C87.4703 136.964 87.7774 136.66 88.0655 136.361C88.2485 136.413 88.4299 136.464 88.6085 136.511C88.7721 136.556 88.9368 136.601 89.1031 136.648L90.5908 137.065L92.2556 132.79L90.9875 132.059C90.8444 131.976 90.7036 131.893 90.5635 131.811C90.4063 131.719 90.2465 131.625 90.0839 131.531C90.1136 131.091 90.1206 130.649 90.105 130.207C90.2911 130.102 90.4701 129.995 90.6456 129.891C90.769 129.818 90.8959 129.742 91.024 129.669ZM83.5968 135.56C82.6623 135.942 81.6356 136.038 80.6465 135.836C79.6574 135.634 78.7504 135.144 78.0401 134.426C77.3299 133.709 76.8483 132.797 76.6562 131.806C76.4642 130.815 76.5703 129.789 76.9612 128.859C77.3521 127.928 78.0102 127.134 78.8523 126.577C79.6944 126.021 80.6826 125.726 81.6921 125.731C82.7015 125.736 83.6869 126.04 84.5235 126.605C85.36 127.17 86.0103 127.97 86.3921 128.905C86.6473 129.525 86.7774 130.19 86.7749 130.861C86.7724 131.532 86.6373 132.195 86.3775 132.814C86.1177 133.432 85.7382 133.993 85.2609 134.465C84.7836 134.936 84.2185 135.308 83.5968 135.56Z" fill="#C5FFF6"/>
</svg>
