<svg width="213" height="213" viewBox="0 0 213 213" fill="none" xmlns="http://www.w3.org/2000/svg">
<rect x="0.703125" width="212.235" height="212.235" rx="106.118" fill="#0E425E"/>
<path d="M112.064 98.3993V96.9199C112.064 95.4376 111.476 94.016 110.427 92.9679C109.379 91.9197 107.958 91.3309 106.475 91.3309C104.993 91.3309 103.572 91.9197 102.523 92.9679C101.475 94.016 100.886 95.4376 100.886 96.9199V98.4117C99.6511 98.5913 98.5215 99.2092 97.704 100.152C96.8864 101.096 96.4353 102.302 96.4331 103.55V109.944C96.4347 111.322 96.9828 112.644 97.9572 113.618C98.9315 114.593 100.253 115.141 101.631 115.142H111.401C112.779 115.141 114.101 114.593 115.075 113.618C116.049 112.644 116.598 111.323 116.599 109.944V103.55C116.597 102.287 116.136 101.069 115.301 100.121C114.467 99.1733 113.317 98.5614 112.064 98.3993ZM105.239 96.9199C105.239 96.5916 105.369 96.2767 105.602 96.0445C105.834 95.8123 106.149 95.6819 106.477 95.6819C106.805 95.6819 107.12 95.8123 107.352 96.0445C107.585 96.2767 107.715 96.5916 107.715 96.9199V98.3533H105.239V96.9199ZM112.251 109.944C112.251 110.169 112.161 110.384 112.003 110.543C111.844 110.702 111.629 110.791 111.404 110.791H101.632C101.408 110.791 101.193 110.702 101.034 110.543C100.875 110.384 100.786 110.169 100.786 109.944V103.55C100.786 103.332 100.871 103.123 101.022 102.966C101.173 102.809 101.379 102.716 101.597 102.707H111.439C111.657 102.716 111.862 102.809 112.013 102.966C112.164 103.123 112.249 103.332 112.249 103.55L112.251 109.944Z" fill="#00FFFF"/>
<path d="M75.942 69.2759C84.439 62.2222 95.1121 58.3209 106.155 58.2322C117.198 58.1435 127.932 61.8729 136.542 68.7892L132.981 68.4743L132.433 74.6659L147.704 76.0165L147.448 60.2236L141.232 60.3246L141.302 64.6576C135.404 59.7137 128.518 56.0848 121.106 54.0131C113.693 51.9414 105.924 51.4745 98.3171 52.6436C90.71 53.8127 83.4396 56.5909 76.9913 60.7928C70.5431 64.9946 65.0651 70.5235 60.9232 77.0104H68.5045C70.6868 74.1624 73.1816 71.568 75.942 69.2759Z" fill="#0CC9AB"/>
<path d="M137.128 142.958C128.594 150.044 117.864 153.948 106.772 154.003C95.6797 154.059 84.9119 150.263 76.3068 143.263L80.1233 143.267L80.1289 137.051L64.7983 137.037L66.4306 152.747L72.6128 152.105L72.1776 147.915C81.2754 155.399 92.5705 159.705 104.342 160.175C105.085 160.205 105.826 160.22 106.565 160.22C115.386 160.214 124.071 158.051 131.866 153.922C139.66 149.793 146.328 143.821 151.287 136.527H143.529C141.603 138.868 139.46 141.021 137.128 142.958Z" fill="#0CC9AB"/>
<path d="M165.887 110.133C165.452 109.871 165.011 109.605 164.558 109.341C164.664 108.178 164.695 107.009 164.651 105.842C165.161 105.568 165.648 105.286 166.124 105.01C166.402 104.849 166.679 104.688 166.958 104.531L169.32 103.203L166.101 95.0378L163.45 95.7075C163.089 95.7989 162.733 95.8881 162.382 95.9751C161.874 96.1019 161.383 96.2237 160.895 96.3496C160.114 95.4968 159.31 94.6667 158.487 93.868C158.535 93.7067 158.58 93.5503 158.625 93.3924C158.725 93.0506 158.82 92.718 158.91 92.4038C158.996 92.1024 159.079 91.8133 159.158 91.5374L159.897 89.001L151.839 85.1563L150.39 87.5987C150.216 87.8921 150.04 88.1827 149.865 88.4721C149.61 88.8938 149.349 89.3236 149.092 89.7652C148.388 89.7342 147.7 89.7301 147.028 89.7255C146.544 89.722 146.078 89.7189 145.624 89.7065C145.371 89.281 145.123 88.8279 144.867 88.3586C144.689 88.0339 144.511 87.7081 144.327 87.3843L142.997 85.0326L134.842 88.247L135.43 90.8468C135.511 91.2039 135.587 91.5563 135.663 91.9035C135.77 92.4007 135.88 92.907 136 93.4182C135.107 94.2229 134.282 95.0148 133.507 95.8132C132.989 95.6643 132.479 95.5266 131.979 95.3914C131.658 95.3044 131.341 95.2186 131.031 95.1325L128.452 94.4134L124.829 102.531L127.242 103.934C127.529 104.101 127.814 104.272 128.099 104.442C128.536 104.704 128.983 104.97 129.447 105.233C129.353 106.389 129.327 107.549 129.37 108.708C128.892 108.971 128.428 109.236 127.973 109.498C127.68 109.666 127.389 109.832 127.099 109.995L124.739 111.324L127.955 119.479L130.556 118.889C130.912 118.808 131.263 118.732 131.611 118.656C132.108 118.547 132.618 118.436 133.132 118.314C133.92 119.192 134.722 120.027 135.527 120.81C135.377 121.331 135.241 121.836 135.114 122.304C135.035 122.597 134.959 122.88 134.885 123.145L134.17 125.71L142.311 129.406L143.721 126.967C143.884 126.685 144.051 126.401 144.22 126.113C144.463 125.701 144.711 125.281 144.956 124.85C145.877 124.907 146.746 124.934 147.59 124.934C147.864 124.934 148.135 124.931 148.405 124.925C148.669 125.401 148.937 125.866 149.199 126.322C149.374 126.626 149.548 126.929 149.72 127.233L151.051 129.585L159.19 126.377L158.606 123.781C158.526 123.421 158.447 123.065 158.371 122.712C158.26 122.203 158.147 121.683 158.025 121.159C158.927 120.327 159.749 119.531 160.51 118.751C161.012 118.901 161.511 119.045 162.002 119.186C162.355 119.288 162.71 119.39 163.069 119.495L165.773 120.288L169.099 112.039L166.803 110.679C166.493 110.499 166.188 110.317 165.887 110.133ZM151.592 118.903C149.298 119.808 146.787 120.013 144.377 119.491C141.966 118.969 139.765 117.744 138.05 115.971C136.336 114.198 135.186 111.957 134.746 109.53C134.305 107.103 134.594 104.601 135.576 102.338C136.558 100.076 138.189 98.1555 140.263 96.82C142.336 95.4844 144.759 94.7937 147.225 94.8352C149.691 94.8766 152.089 95.6484 154.116 97.0528C156.144 98.4573 157.709 100.431 158.615 102.725C159.22 104.248 159.519 105.876 159.493 107.514C159.468 109.153 159.118 110.771 158.466 112.274C157.813 113.777 156.87 115.137 155.691 116.274C154.511 117.412 153.118 118.305 151.592 118.903Z" fill="#C5FFF6"/>
<path d="M67.6415 126.431C67.7941 126.747 67.9467 127.062 68.0968 127.378L69.2554 129.819L77.6035 127.201L77.2076 124.57C77.1529 124.206 77.101 123.846 77.0497 123.489C76.9751 122.972 76.8993 122.445 76.8157 121.914C77.7741 121.15 78.6512 120.414 79.4664 119.69C79.9565 119.877 80.4438 120.055 80.9221 120.23C81.2675 120.356 81.615 120.484 81.9648 120.614L84.6046 121.599L88.5131 113.61L86.3202 112.087C86.0255 111.882 85.7359 111.677 85.4481 111.474C85.0344 111.182 84.6124 110.884 84.1795 110.589C84.3677 109.436 84.4819 108.272 84.5213 107.105C85.0497 106.869 85.5556 106.622 86.0501 106.381C86.3385 106.24 86.6266 106.101 86.9163 105.963L89.3674 104.808L86.741 96.4323L84.0499 96.9106C83.6825 96.9758 83.322 97.0389 82.9658 97.1011C82.4499 97.1912 81.9508 97.2785 81.4545 97.3683C80.7372 96.4621 79.9938 95.5763 79.2302 94.7207C79.4166 94.2235 79.5935 93.7396 79.7569 93.2911C79.8642 92.9965 79.9677 92.7127 80.0677 92.4448L80.9861 89.9676L73.2233 85.5565L71.6037 87.8875C71.4092 88.1676 71.2137 88.4454 71.0173 88.721C70.7326 89.1231 70.442 89.5334 70.1542 89.9557C69.4537 89.8749 68.7678 89.8209 68.0977 89.7693C67.6157 89.7314 67.1511 89.695 66.6992 89.6499C66.4776 89.2077 66.2641 88.7381 66.0403 88.2514C65.8849 87.9148 65.7317 87.5773 65.5723 87.241L64.4131 84.8001L56.0488 87.4222L56.4497 90.0577C56.5047 90.4198 56.5554 90.7769 56.6051 91.1299C56.6766 91.6331 56.7496 92.1459 56.8336 92.6646C55.8847 93.403 55.0061 94.1337 54.1751 94.8746C53.6688 94.6881 53.1703 94.5153 52.6833 94.3462C52.3685 94.2365 52.0586 94.1287 51.7559 94.0202L49.2335 93.1189L45.0388 100.957L47.3458 102.53C47.6199 102.716 47.8919 102.907 48.1638 103.098C48.5818 103.39 49.0082 103.688 49.452 103.983C49.276 105.129 49.1673 106.285 49.1266 107.444C48.6315 107.672 48.1489 107.904 47.6765 108.132C47.3725 108.278 47.0705 108.424 46.7693 108.567L44.3203 109.724L46.9437 118.088L49.5807 117.684C49.9406 117.629 50.2955 117.578 50.6486 117.527C51.1539 117.455 51.6695 117.38 52.1901 117.296C52.9136 118.228 53.6533 119.119 54.401 119.957C54.2145 120.466 54.0421 120.96 53.8826 121.418C53.808 121.632 53.7362 121.837 53.6651 122.037C53.6408 122.105 53.6163 122.175 53.5927 122.241L52.6948 124.748L60.5512 129.017L62.1322 126.686C62.3146 126.417 62.502 126.145 62.6916 125.871C62.7134 125.84 62.7357 125.807 62.7575 125.775C63.0083 125.412 63.2625 125.043 63.5167 124.663C64.7288 124.825 65.8647 124.931 66.9509 124.985C67.1791 125.476 67.4128 125.959 67.6415 126.431ZM54.9303 111.038C54.1915 108.685 54.167 106.166 54.86 103.799C55.553 101.432 56.9323 99.3236 58.8236 97.7405C60.7148 96.1574 63.033 95.1708 65.4851 94.9052C67.9371 94.6397 70.4128 95.1072 72.5991 96.2487C74.7854 97.3902 76.5841 99.1543 77.7678 101.318C78.9514 103.482 79.4669 105.948 79.2489 108.405C79.031 110.861 78.0894 113.198 76.5433 115.12C74.9972 117.042 72.916 118.461 70.5629 119.2C69.0007 119.696 67.3558 119.878 65.7231 119.735C64.0903 119.593 62.5018 119.129 61.049 118.37C59.5961 117.612 58.3075 116.574 57.2573 115.315C56.2072 114.057 55.4167 112.603 54.9303 111.038Z" fill="#C5FFF6"/>
</svg>
