<svg width="213" height="213" viewBox="0 0 213 213" fill="none" xmlns="http://www.w3.org/2000/svg">
<rect x="0.578125" y="0.0625" width="212.235" height="212.235" rx="106.118" fill="#0E425E"/>
<path d="M87.1445 94.348H73.749V107.743H87.1445V94.348Z" fill="#C5FFF6"/>
<path d="M71.1625 94.348H57.7671V107.743H71.1625V94.348Z" fill="#C5FFF6"/>
<path d="M119.108 94.348H105.713V107.743H119.108V94.348Z" fill="#C5FFF6"/>
<path d="M135.09 94.348H121.695V107.743H135.09V94.348Z" fill="#C5FFF6"/>
<path d="M103.126 94.348H89.7306V107.743H103.126V94.348Z" fill="#C5FFF6"/>
<path d="M87.1445 78.3631H73.749V91.7582H87.1445V78.3631Z" fill="#C5FFF6"/>
<path d="M119.108 78.3631H105.713V91.7582H119.108V78.3631Z" fill="#C5FFF6"/>
<path d="M103.126 78.3631H89.7306V91.7582H103.126V78.3631Z" fill="#C5FFF6"/>
<path d="M119.108 62.3594H105.713V75.7545H119.108V62.3594Z" fill="#C5FFF6"/>
<path d="M164.1 99.1168C162.386 99.1168 160.82 99.2138 159.59 99.2752C157.665 90.9365 156.168 90.7227 148.257 84.0944C137.567 95.6404 145.905 110.607 145.905 110.607H46.6953C47.1229 141.61 54.3926 159.999 96.5143 159.999C138.636 159.999 149.22 127.043 154.138 116.994C168.677 115.925 173.06 109.752 176.695 102.91C173.496 99.7108 168.345 99.1168 164.1 99.1168ZM146.55 117.504C143.868 123.49 139.815 132.538 132.173 140.031C128.124 144.018 123.346 147.19 118.099 149.373C111.801 151.99 104.539 153.317 96.5143 153.317C86.9886 153.317 79.1236 152.303 73.1368 150.304C67.9037 148.556 63.9598 146.044 61.08 142.625C56.6647 137.383 54.3395 129.621 53.6122 117.289H145.906L146.644 117.294L146.55 117.504ZM165.49 106.776C162.829 108.778 158.955 109.94 153.648 110.33L153.461 110.344L151.754 107.374C150.67 105.169 149.955 102.801 149.637 100.365C149.345 98.3204 149.462 96.2385 149.98 94.2396C150.47 94.6696 150.914 95.1489 151.305 95.6698C151.836 96.4188 152.341 97.5741 153.08 100.778L154.337 106.228L159.924 105.949L160.496 105.919C161.581 105.863 162.81 105.799 164.1 105.799C165.007 105.799 165.818 105.832 166.541 105.891C166.207 106.205 165.856 106.501 165.49 106.776H165.49Z" fill="#0CC9AB"/>
</svg>
