<svg width="213" height="213" viewBox="0 0 213 213" fill="none" xmlns="http://www.w3.org/2000/svg">
<rect x="0.109375" width="212.235" height="212.235" rx="106.118" fill="#0E425E"/>
<path d="M135.917 130.122L131.435 125.64L127.022 130.054L122.608 125.64L118.126 130.122L122.54 134.535L118.126 138.949L122.608 143.431L127.022 139.017L131.435 143.431L135.917 138.949L131.503 134.535L135.917 130.122Z" fill="#C5FFF6"/>
<path d="M83.6469 134.458L78.7755 129.587L74.2936 134.069L79.165 138.94L79.1561 138.949L83.638 143.431L96.9488 130.122L92.4669 125.64L83.6469 134.458Z" fill="#C5FFF6"/>
<path d="M150.5 137.718L151.392 109.664L148.223 106.394H134.992L144.178 95.3284L144.813 92.5347C142.549 84.0325 139.478 75.7657 135.644 67.8465C127.198 50.7172 117.343 42.0944 106.378 42.1863C95.4338 42.2883 85.6082 50.9748 77.1737 68.0043C73.3449 75.8688 70.2741 84.0802 68.0029 92.5271L68.6367 95.3275L77.8224 106.393H63.8854L60.7178 109.663L61.6103 137.717H49.7891V144.056H61.8125L62.303 159.48L65.4707 162.549H146.639L149.808 159.48L150.299 144.056H162.664V137.717L150.5 137.718ZM87.4185 81.1515L106.35 77.2112L124.694 81.1049V86.6647C124.688 91.606 122.723 96.3434 119.229 99.8374C115.735 103.332 110.997 105.297 106.056 105.303C101.115 105.297 96.3774 103.332 92.8834 99.8374C89.3894 96.3434 87.424 91.606 87.4185 86.6647V81.1515ZM126.757 106.392H121.346C124.36 104.062 126.8 101.073 128.479 97.6529C130.158 94.2332 131.031 90.4743 131.032 86.6647V82.4496L135.299 83.3551C136.748 87.3895 137.739 90.7156 138.253 92.5442L126.757 106.392ZM82.8976 70.7324C87.9012 60.6543 96.0467 48.6223 106.439 48.5253C116.802 48.4303 124.922 60.4571 129.918 70.5651C130.867 72.4853 131.74 74.4112 132.538 76.2903L128.532 75.4396L128.521 75.4266L106.929 70.8436L105.625 70.8411L83.6034 75.4241L83.5574 75.4809L80.4022 76.1375C81.1663 74.3615 81.9979 72.5449 82.8976 70.7324ZM74.5686 92.5484C75.0947 90.6931 76.1148 87.3011 77.6094 83.1928L81.0801 82.4706V86.6647C81.0807 90.4743 81.954 94.2332 83.633 97.6529C85.3119 101.073 87.752 104.062 90.7658 106.392H86.0608L74.5686 92.5484ZM143.57 156.211H68.542L67.1583 112.733H144.953L143.57 156.211Z" fill="#0CC9AB"/>
<path d="M109.38 119.748H103.042V149.322H109.38V119.748Z" fill="#00FFFF"/>
</svg>
