<svg width="213" height="213" viewBox="0 0 213 213" fill="none" xmlns="http://www.w3.org/2000/svg">
<rect x="0.40625" width="212.235" height="212.235" rx="106.118" fill="#0E425E"/>
<path d="M88.7435 128.19C83.6679 131.677 80.8727 136.429 80.8727 141.572C80.8727 146.715 83.6679 151.468 88.7435 154.954C93.4585 158.193 99.6704 159.976 106.234 159.976C112.798 159.976 119.01 158.193 123.725 154.954C128.801 151.468 131.596 146.715 131.596 141.572C131.596 136.429 128.801 131.677 123.725 128.19C119.01 124.952 112.798 123.168 106.234 123.168C99.6704 123.168 93.4585 124.952 88.7435 128.19ZM125.316 141.572C125.316 148.144 116.579 153.695 106.236 153.695C95.8932 153.695 87.1556 148.144 87.1556 141.572C87.1556 135.001 95.8932 129.449 106.236 129.449C116.579 129.449 125.316 135.001 125.316 141.572Z" fill="#C5FFF6"/>
<path d="M143.942 97.6969C138.825 93.6944 133.045 90.6194 126.867 88.6113C128.287 85.5923 129.022 82.2967 129.019 78.9604C129.012 72.9231 126.611 67.135 122.342 62.8659C118.073 58.5969 112.285 56.1956 106.248 56.1888C100.21 56.1956 94.4222 58.5969 90.1531 62.8659C85.8841 67.135 83.4828 72.9231 83.476 78.9604C83.4723 82.3575 84.2334 85.7118 85.7027 88.7746C79.7027 90.7811 74.09 93.7987 69.1071 97.6969C58.8639 105.798 53.2227 116.635 53.2227 128.211C53.2227 139.786 58.862 150.624 69.1062 158.724C79.1327 166.653 92.4212 171.02 106.524 171.02C120.626 171.02 133.915 166.654 143.941 158.724C154.185 150.624 159.826 139.786 159.826 128.211C159.826 116.635 154.185 105.798 143.942 97.6969ZM106.247 62.4701C110.619 62.475 114.81 64.2139 117.902 67.3054C120.993 70.3969 122.732 74.5884 122.737 78.9604C122.732 83.3323 120.993 87.5238 117.902 90.6152C114.81 93.7066 110.619 95.4455 106.247 95.4504C101.875 95.4455 97.6832 93.7066 94.5918 90.6152C91.5003 87.5238 89.7613 83.3323 89.7563 78.9604C89.7612 74.5884 91.5002 70.3969 94.5916 67.3054C97.6831 64.2139 101.875 62.475 106.247 62.4701ZM104.045 101.623C104.77 101.693 105.504 101.732 106.247 101.732C106.99 101.732 107.723 101.693 108.449 101.623V105.025H104.045V101.623ZM106.524 164.739C80.5966 164.739 59.503 148.352 59.503 128.211C59.503 112.775 71.8907 99.5458 89.348 94.2058C91.671 96.7787 94.5487 98.7896 97.7634 100.086V108.165L100.904 111.306H111.589L114.73 108.165V100.086C117.998 98.7668 120.917 96.7096 123.259 94.0754C140.947 99.3263 153.545 112.646 153.545 128.211C153.545 148.352 132.451 164.739 106.524 164.739Z" fill="#0CC9AB"/>
<path d="M111.655 113.468H101.007V119.146H111.655V113.468Z" fill="#0CC9AB"/>
<path d="M109.386 41.2148H103.105V52.1996H109.386V41.2148Z" fill="#00FFFF"/>
<path d="M79.5721 75.3836H68.5873V81.6649H79.5721V75.3836Z" fill="#00FFFF"/>
<path d="M144.081 75.3836H133.096V81.6649H144.081V75.3836Z" fill="#00FFFF"/>
<path d="M81.8622 49.6123L77.4204 54.0541L85.1878 61.8215L89.6296 57.3797L81.8622 49.6123Z" fill="#00FFFF"/>
<path d="M130.803 49.6126L123.036 57.38L127.478 61.8218L135.245 54.0544L130.803 49.6126Z" fill="#00FFFF"/>
</svg>
