<svg width="213" height="213" viewBox="0 0 213 213" fill="none" xmlns="http://www.w3.org/2000/svg">
<rect width="212.235" height="212.235" rx="106.118" fill="#0E425E"/>
<path d="M150.395 79.5309C147.498 79.535 144.682 80.4941 142.384 82.2598C140.086 84.0255 138.434 86.4994 137.684 89.2985H112.005V72.4957H105.226V89.2985H79.5479C78.7977 86.4994 77.1459 84.0255 74.8481 82.2598C72.5503 80.4941 69.7345 79.535 66.8366 79.5309C63.3484 79.5348 60.0041 80.9223 57.5375 83.3889C55.071 85.8556 53.6835 89.1999 53.6797 92.6882C53.6837 95.586 54.6428 98.4019 56.4084 100.7C58.1741 102.998 60.6479 104.649 63.447 105.399V155.31L66.8366 158.699H84.9523V164.957L88.342 168.347H128.891L132.28 164.957V145.627L128.891 142.238H88.341L84.9513 145.627V151.92H70.2253V105.4C72.4595 104.799 74.4966 103.621 76.1325 101.985C77.7685 100.349 78.9459 98.3123 79.5469 96.0781H137.682C138.287 98.3266 139.475 100.375 141.126 102.017C142.777 103.658 144.833 104.833 147.085 105.424V121.671H132.278V115.373L128.889 111.984H88.341L84.9513 115.373V134.703L88.341 138.093H128.89L132.279 134.703V128.45H150.476L153.866 125.061V105.378C156.646 104.614 159.099 102.959 160.849 100.667C162.599 98.3747 163.548 95.572 163.552 92.6885C163.549 89.2001 162.161 85.8558 159.695 83.3891C157.228 80.9224 153.884 79.5348 150.395 79.5309ZM91.7307 149.019H125.5V161.57H91.7307V149.019ZM66.8356 99.0673C65.1448 99.0654 63.5237 98.3928 62.328 97.1972C61.1324 96.0015 60.4599 94.3804 60.458 92.6895C60.4599 90.9986 61.1324 89.3775 62.328 88.1818C63.5236 86.9861 65.1447 86.3135 66.8356 86.3115C68.5265 86.3135 70.1476 86.9861 71.3433 88.1818C72.5389 89.3775 73.2114 90.9986 73.2133 92.6895C73.211 94.3801 72.5384 96.001 71.3428 97.1963C70.1472 98.3917 68.5263 99.0639 66.8356 99.0658V99.0673ZM125.5 131.314H91.7307V118.764H125.5V131.314ZM150.395 99.0673C148.705 99.0654 147.083 98.3928 145.888 97.1972C144.692 96.0015 144.019 94.3804 144.017 92.6895C144.019 90.9985 144.692 89.3775 145.888 88.1818C147.083 86.9861 148.705 86.3135 150.395 86.3115C152.086 86.3135 153.707 86.9861 154.903 88.1818C156.099 89.3775 156.771 90.9986 156.773 92.6895C156.771 94.3801 156.098 96.001 154.903 97.1963C153.707 98.3917 152.086 99.0639 150.395 99.0658V99.0673Z" fill="#0CC9AB"/>
<path d="M128.89 72.4959L132.28 69.1062V49.7764L128.89 46.3867H88.3416L84.9519 49.7764V69.1062L88.3416 72.4959H128.89ZM91.7313 53.166H125.501V65.7166H91.7313V53.166Z" fill="#C5FFF6"/>
</svg>
