<svg width="214" height="213" viewBox="0 0 214 213" fill="none" xmlns="http://www.w3.org/2000/svg">
<rect x="0.9375" y="0.109375" width="212.235" height="212.235" rx="106.118" fill="#0E425E"/>
<path d="M153.807 79.9457V94.8545L153.79 94.8716C153.79 97.9216 147.637 101.373 141.539 103.44C132.382 106.545 120.134 108.255 107.05 108.255C93.9652 108.255 81.7169 106.545 72.5603 103.44C66.4622 101.373 60.3089 97.9216 60.3089 94.8716V79.9568C54.4042 76.1435 52.8765 72.0868 52.8545 68.9459V143.574C52.8545 148.026 55.8582 154.352 70.1666 159.203C80.0743 162.562 93.1728 164.412 107.05 164.412C120.926 164.412 134.025 162.562 143.933 159.203C158.223 154.358 161.237 148.043 161.245 143.591L161.262 143.574V68.9459H161.243C161.224 72.0839 159.696 76.1357 153.807 79.9457ZM70.1666 110.5C80.0743 113.859 93.1728 115.709 107.05 115.709C120.926 115.709 134.025 113.859 143.933 110.5C148.129 109.078 151.346 107.528 153.807 105.936V119.205L153.79 119.222C153.79 122.272 147.637 125.724 141.539 127.791C132.382 130.896 120.134 132.606 107.05 132.606C93.9652 132.606 81.7169 130.896 72.5603 127.791C66.4622 125.724 60.3089 122.272 60.3089 119.222V105.947C62.7677 107.535 65.9802 109.081 70.1666 110.5ZM153.807 143.557L153.79 143.574C153.79 146.624 147.637 150.076 141.539 152.144C132.382 155.248 120.134 156.958 107.05 156.958C93.9652 156.958 81.7169 155.248 72.5603 152.144C66.4622 150.076 60.3089 146.624 60.3089 143.574V130.299C62.7689 131.887 65.9802 133.433 70.1666 134.852C80.0743 138.211 93.1728 140.061 107.05 140.061C120.926 140.061 134.025 138.211 143.933 134.852C148.129 133.429 151.346 131.879 153.807 130.288V143.557Z" fill="#0CC9AB"/>
<path d="M60.3074 79.9568C62.7674 81.5446 65.9788 83.0906 70.1652 84.5096C80.0728 87.8689 93.1714 89.7188 107.048 89.7188C120.925 89.7188 134.024 87.8689 143.931 84.5096C148.127 83.0873 151.345 81.5375 153.806 79.9457C159.695 76.1357 161.223 72.0839 161.242 68.9459C161.242 68.9247 161.242 68.9023 161.242 68.881C161.242 64.4285 158.238 58.1031 143.93 53.2521C134.022 49.8928 120.923 48.043 107.047 48.043C93.1699 48.043 80.0714 49.8928 70.1637 53.2521C55.8553 58.1031 52.8516 64.4285 52.8516 68.881C52.8516 68.9023 52.8516 68.9247 52.8516 68.9459C52.875 72.0868 54.4009 76.1435 60.3074 79.9568ZM153.789 68.881C153.789 71.931 147.636 75.3828 141.538 77.4499C132.381 80.5547 120.133 82.2643 107.048 82.2643C93.9638 82.2643 81.7155 80.5547 72.5588 77.4499C66.4607 75.3828 60.3074 71.931 60.3074 68.881C60.3074 65.8311 66.4607 62.3793 72.5588 60.3115C81.7155 57.2071 93.9642 55.4974 107.048 55.4974C120.132 55.4974 132.381 57.2071 141.538 60.3115C147.636 62.3793 153.789 65.8307 153.789 68.881Z" fill="#C5FFF6"/>
</svg>
