<svg width="213" height="213" viewBox="0 0 213 213" fill="none" xmlns="http://www.w3.org/2000/svg">
<rect x="0.46875" width="212.235" height="212.235" rx="106.118" fill="#0E425E"/>
<path d="M61.0455 57.252L57.7227 60.5748V151.659L61.0455 154.982H152.13L155.453 151.659V60.5748L152.13 57.252H61.0455ZM148.807 148.336H64.3683V63.8976H148.807V148.336Z" fill="#0CC9AB"/>
<path d="M86.4457 138.91C88.7601 140.744 91.6384 141.719 94.5909 141.67C98.1796 141.67 101.141 140.492 103.477 138.136C105.812 135.78 106.978 132.829 106.977 129.284V95.8954H100.447V128.679C100.447 130.743 99.8752 132.426 98.7308 133.727C98.1876 134.36 97.5097 134.864 96.7469 135.202C95.984 135.54 95.1554 135.703 94.3214 135.679C91.7635 135.679 89.9685 134.4 88.9365 131.842H82.2051C82.662 134.654 84.1797 137.184 86.4457 138.91Z" fill="#C5FFF6"/>
<path d="M125.826 135.679C121.293 135.679 118.757 132.964 118.219 127.534H111.758C111.846 131.663 113.192 135.052 115.796 137.698C118.4 140.345 121.721 141.669 125.759 141.67C129.708 141.67 133.006 140.302 135.654 137.564C138.303 134.826 139.626 131.416 139.626 127.332C139.679 124.546 138.855 121.815 137.27 119.523C136.355 118.154 135.148 117.005 133.736 116.158C132.411 115.395 130.325 114.61 127.475 113.801C124.626 112.993 122.685 112.129 121.653 111.21C120.62 110.291 120.104 108.955 120.105 107.204C120.099 106.395 120.257 105.594 120.57 104.848C120.882 104.102 121.342 103.426 121.922 102.862C122.463 102.278 123.119 101.811 123.849 101.493C124.579 101.174 125.367 101.01 126.163 101.011C126.945 100.995 127.722 101.146 128.442 101.454C129.162 101.761 129.807 102.219 130.336 102.795C131.458 103.985 132.086 105.567 132.221 107.541H138.885C138.706 103.817 137.471 100.799 135.183 98.4872C132.895 96.1757 130 95.0201 126.5 95.0205C122.774 95.0205 119.688 96.2658 117.244 98.7564C114.799 101.247 113.576 104.4 113.575 108.214C113.575 111.49 114.585 114.25 116.604 116.494C117.278 117.331 118.1 118.038 119.028 118.581C119.79 118.985 121.451 119.59 124.009 120.398L125.893 121.004L127.509 121.542C131.234 122.799 133.096 125.021 133.096 128.207C133.121 129.188 132.949 130.163 132.591 131.076C132.232 131.989 131.695 132.821 131.01 133.523C130.344 134.225 129.539 134.779 128.646 135.15C127.754 135.521 126.793 135.702 125.826 135.679Z" fill="#C5FFF6"/>
</svg>
