<svg width="213" height="213" viewBox="0 0 213 213" fill="none" xmlns="http://www.w3.org/2000/svg">
<rect width="212.235" height="212.235" rx="106.118" fill="#0E425E"/>
<path d="M150.886 115.402L151.584 93.4844L148.395 90.1924H121.336C124.285 87.9103 126.69 84.9996 128.374 81.672C130.058 78.3444 130.98 74.6834 131.072 70.955L131.088 70.9355V62.1415L131.072 62.122C130.904 55.567 128.184 49.3365 123.491 44.7568C118.798 40.1771 112.503 37.6099 105.946 37.6016C99.3887 37.6098 93.0937 40.177 88.4008 44.7567C83.7079 49.3365 80.9878 55.567 80.8196 62.122L80.804 62.1415V70.9355L80.8196 70.955C80.9118 74.6834 81.8335 78.3444 83.5177 81.672C85.2019 84.9996 87.6062 87.9103 90.556 90.1924H63.497L60.3067 93.4844L61.0037 115.402H49.3047V121.782H61.2066L61.9019 143.632L65.0922 146.72H85.0805C84.5168 148.68 84.2305 150.708 84.23 152.747C84.2365 158.55 86.5447 164.113 90.6482 168.217C94.7516 172.32 100.315 174.628 106.118 174.635C111.921 174.628 117.485 172.32 121.588 168.217C125.691 164.113 128 158.55 128.006 152.747C128.006 150.708 127.719 148.68 127.156 146.72H146.8L149.988 143.632L150.683 121.782H162.93V115.402H150.886ZM105.944 43.9796C110.107 43.9849 114.15 45.372 117.439 47.9231C120.728 50.4742 123.077 54.0451 124.118 58.0755L106.822 54.4048L105.51 54.4022L87.7658 58.0949C88.8029 54.0601 91.1513 50.4843 94.4417 47.9292C97.7322 45.3742 101.778 43.9849 105.944 43.9796ZM87.1829 70.3313V64.7336L106.154 60.7856L124.706 64.7231V70.3309C124.7 75.3051 122.722 80.0738 119.204 83.591C115.687 87.1082 110.918 89.0867 105.944 89.0924C100.97 89.086 96.2024 87.1072 92.6858 83.59C89.1692 80.0729 87.1911 75.3046 87.1855 70.3309L87.1829 70.3313ZM106.117 168.255C102.005 168.25 98.0635 166.615 95.1562 163.708C92.249 160.8 90.6136 156.859 90.609 152.747C90.6137 148.636 92.2491 144.694 95.1563 141.787C98.0635 138.88 102.005 137.244 106.117 137.24C110.228 137.244 114.17 138.88 117.077 141.787C119.984 144.694 121.619 148.636 121.624 152.747C121.619 156.858 119.984 160.8 117.077 163.707C114.171 166.614 110.229 168.249 106.118 168.255L106.117 168.255ZM143.708 140.34H124.135C122.125 137.417 119.435 135.027 116.296 133.376C113.157 131.724 109.663 130.86 106.117 130.859C102.57 130.86 99.0762 131.724 95.9373 133.376C92.7983 135.027 90.108 137.417 88.0982 140.34H68.1809L66.7887 96.5717H145.1L143.708 140.34Z" fill="#0CC9AB"/>
<path d="M115.069 150.431C114.829 150.399 114.596 150.368 114.364 150.339C114.172 149.838 113.964 149.342 113.746 148.855C113.896 148.664 114.039 148.475 114.173 148.3C114.266 148.178 114.356 148.061 114.442 147.949L115.272 146.877L112.203 143.585L111.051 144.478C110.92 144.58 110.787 144.681 110.656 144.781C110.475 144.918 110.291 145.059 110.106 145.204C109.804 145.071 109.504 144.949 109.213 144.832C109.007 144.75 108.808 144.67 108.616 144.589C108.58 144.363 108.552 144.127 108.52 143.883C108.497 143.702 108.475 143.521 108.449 143.341L108.258 141.969H103.84L103.631 143.321C103.604 143.498 103.576 143.672 103.547 143.844C103.509 144.076 103.471 144.312 103.435 144.552C102.913 144.748 102.421 144.95 101.947 145.162C101.749 145.011 101.553 144.865 101.361 144.722C101.231 144.626 101.102 144.53 100.978 144.435L99.8812 143.605L96.6813 146.743L97.5698 147.867C97.6703 147.995 97.7695 148.122 97.8687 148.252C98.012 148.438 98.1578 148.628 98.3112 148.818C98.0749 149.303 97.8659 149.801 97.685 150.309C97.4349 150.341 97.1898 150.377 96.9493 150.412C96.7869 150.436 96.6252 150.46 96.4644 150.482L95.0878 150.673V155.092L96.4407 155.299C96.6165 155.326 96.7895 155.354 96.9608 155.382C97.1943 155.42 97.432 155.458 97.6735 155.494C97.8649 156.008 98.07 156.506 98.2847 156.983C98.1322 157.182 97.9887 157.376 97.8547 157.555C97.766 157.675 97.6808 157.789 97.5995 157.897L96.7748 158.987L98.8836 161.165L98.9033 161.185L99.9089 162.224L101.041 161.325C101.166 161.227 101.293 161.128 101.42 161.028C101.594 160.892 101.771 160.754 101.949 160.613C102.462 160.852 102.952 161.057 103.427 161.234C103.459 161.483 103.497 161.729 103.532 161.97C103.557 162.14 103.582 162.309 103.606 162.476L103.797 163.85H108.207L108.417 162.5C108.445 162.322 108.473 162.146 108.502 161.971C108.54 161.733 108.579 161.491 108.616 161.245C109.147 161.039 109.639 160.834 110.102 160.627C110.294 160.776 110.482 160.922 110.669 161.066C110.811 161.175 110.955 161.285 111.099 161.397L112.241 162.285L115.326 159.031L114.485 157.949C114.378 157.811 114.272 157.672 114.168 157.535C114.027 157.349 113.881 157.161 113.734 156.972C113.976 156.485 114.189 155.984 114.372 155.472C114.64 155.44 114.896 155.401 115.147 155.363C115.302 155.34 115.457 155.317 115.612 155.295L116.99 155.106V150.68L115.599 150.501L115.069 150.431ZM106.026 158.462V157.665C104.764 157.664 103.554 157.162 102.661 156.27C101.769 155.377 101.266 154.168 101.264 152.906C101.266 151.643 101.767 150.433 102.66 149.54C103.552 148.648 104.762 148.145 106.024 148.143C107.286 148.144 108.496 148.646 109.389 149.538C110.282 150.43 110.785 151.64 110.787 152.902C110.79 153.528 110.668 154.148 110.43 154.727C110.191 155.305 109.84 155.831 109.397 156.273C108.956 156.716 108.43 157.068 107.852 157.307C107.273 157.546 106.653 157.667 106.027 157.665L106.026 158.462Z" fill="#00FFFF"/>
<path d="M116.74 104.653H95.4947C92.6805 104.653 89.9816 105.771 87.9916 107.761C86.0017 109.751 84.8838 112.45 84.8838 115.264C84.8838 118.078 86.0017 120.777 87.9916 122.767C89.9816 124.757 92.6805 125.875 95.4947 125.875C97.083 125.876 98.6512 125.52 100.083 124.833C101.515 124.146 102.774 123.145 103.767 121.906H108.465C109.458 123.145 110.717 124.146 112.149 124.833C113.581 125.52 115.15 125.876 116.738 125.875C119.552 125.875 122.251 124.757 124.241 122.767C126.231 120.777 127.349 118.078 127.349 115.264C127.349 112.45 126.231 109.751 124.242 107.762C122.252 105.772 119.554 104.653 116.74 104.653ZM100.175 117.024H96.9664V120.232H93.7761V117.024H90.567V113.833H93.7761V110.624H96.9664V113.833H100.175V117.024ZM118.048 114.229C117.573 113.753 117.307 113.108 117.307 112.436C117.307 111.763 117.573 111.119 118.048 110.643C118.283 110.407 118.563 110.22 118.87 110.093C119.178 109.966 119.508 109.901 119.841 109.901C120.174 109.901 120.504 109.966 120.811 110.093C121.119 110.22 121.399 110.407 121.634 110.643C122.109 111.119 122.375 111.763 122.375 112.436C122.375 113.108 122.109 113.753 121.634 114.229C121.158 114.703 120.513 114.97 119.841 114.97C119.169 114.97 118.524 114.703 118.048 114.229ZM114.838 119.974C114.505 119.975 114.175 119.91 113.867 119.782C113.559 119.655 113.28 119.468 113.045 119.231C112.809 118.996 112.622 118.717 112.494 118.409C112.367 118.101 112.302 117.772 112.302 117.438C112.302 117.105 112.367 116.775 112.494 116.468C112.622 116.16 112.809 115.88 113.045 115.645C113.28 115.41 113.56 115.223 113.868 115.096C114.175 114.969 114.505 114.903 114.838 114.904C115.171 114.903 115.501 114.969 115.808 115.096C116.116 115.223 116.396 115.41 116.631 115.645C116.867 115.88 117.054 116.16 117.182 116.468C117.309 116.775 117.374 117.105 117.374 117.438C117.374 117.772 117.309 118.101 117.182 118.409C117.054 118.717 116.867 118.996 116.631 119.231C116.396 119.468 116.117 119.655 115.809 119.782C115.501 119.91 115.171 119.975 114.838 119.974Z" fill="#C5FFF6"/>
</svg>
