<svg width="213" height="213" viewBox="0 0 213 213" fill="none" xmlns="http://www.w3.org/2000/svg">
<rect x="0.640625" width="212.235" height="212.235" rx="106.118" fill="#0E425E"/>
<path d="M104.114 76.4327C103.117 76.4336 102.132 76.6519 101.228 77.0724L93.9285 69.7727C94.373 68.8481 94.6044 67.8355 94.6055 66.8096C94.6038 64.9775 93.8752 63.2209 92.5798 61.9253C91.2843 60.6298 89.5277 59.9012 87.6955 59.8994C86.6696 59.9006 85.6571 60.132 84.7326 60.5766L81.8272 57.671L78.5032 60.9949L81.4273 63.919C81.0055 64.8244 80.7864 65.8109 80.7853 66.8096C80.7882 68.3356 81.2957 69.8178 82.2287 71.0253C83.1616 72.2328 84.4678 73.0979 85.9436 73.4858V93.041C84.5888 93.5121 83.414 94.3927 82.5818 95.561C81.7496 96.7293 81.3013 98.1274 81.2988 99.5617C81.3004 101.394 82.029 103.15 83.3245 104.446C84.6199 105.742 86.3765 106.47 88.2087 106.472C90.0409 106.47 91.7975 105.742 93.0931 104.446C94.3886 103.151 95.1171 101.394 95.1188 99.5617C95.1161 98.1584 94.6868 96.7891 93.8875 95.6356C93.0883 94.4821 91.9572 93.5989 90.6442 93.1035V73.1366L97.8832 80.3759C97.4372 81.3018 97.2049 82.316 97.2038 83.3436C97.2055 85.1758 97.9342 86.9324 99.2297 88.2279C100.525 89.5235 102.282 90.2521 104.114 90.2539C105.946 90.2526 107.703 89.5241 108.999 88.2285C110.295 86.9329 111.024 85.1761 111.025 83.3436C111.024 81.5111 110.295 79.7541 108.999 78.4584C107.703 77.1626 105.946 76.4341 104.114 76.4327ZM85.4859 66.8096C85.4866 66.2238 85.7197 65.6622 86.134 65.248C86.5482 64.8337 87.1097 64.6007 87.6955 64.6C88.2813 64.6008 88.8428 64.8338 89.2569 65.2481C89.6711 65.6623 89.9041 66.2239 89.9048 66.8096C89.9041 67.3954 89.6711 67.9569 89.2569 68.3711C88.8428 68.7853 88.2813 69.0185 87.6955 69.0193C87.1097 69.0186 86.5482 68.7855 86.134 68.3713C85.7197 67.957 85.4866 67.3954 85.4859 66.8096ZM88.2087 101.771C87.6229 101.771 87.0611 101.538 86.6469 101.123C86.2328 100.709 85.9999 100.148 85.9994 99.5617C86 98.976 86.2329 98.4144 86.6471 98.0002C87.0613 97.5861 87.6229 97.3531 88.2087 97.3525C88.7945 97.3531 89.356 97.5861 89.7702 98.0002C90.1845 98.4144 90.4174 98.976 90.4182 99.5617C90.4175 100.148 90.1847 100.709 89.7704 101.124C89.3562 101.538 88.7945 101.771 88.2087 101.771ZM104.114 85.5523C103.528 85.5516 102.966 85.3185 102.552 84.9043C102.138 84.4901 101.905 83.9284 101.904 83.3427C101.905 82.7569 102.138 82.1954 102.552 81.7813C102.966 81.3671 103.528 81.1341 104.114 81.1333C104.699 81.134 105.261 81.3669 105.675 81.7811C106.09 82.1953 106.323 82.7569 106.323 83.3427C106.323 83.9285 106.09 84.4901 105.675 84.9044C105.261 85.3186 104.7 85.5517 104.114 85.5523Z" fill="#C5FFF6"/>
<path d="M128.44 82.2352L90.476 44.2715H85.7277L47.7656 82.2352V86.9839L85.7287 124.947H90.477L128.44 86.9842V82.2352ZM88.1029 117.826L54.8883 84.6108L88.1029 51.3963L121.317 84.6108L88.1029 117.826Z" fill="#0CC9AB"/>
<path d="M163.234 122.815C163.52 121.638 163.73 120.444 163.864 119.24C164.263 114.765 162.069 112.479 160.726 111.515C159.431 110.594 157.878 110.104 156.288 110.116C153.868 110.116 151.711 111.18 149.624 112.209C149.379 112.33 149.082 112.477 148.795 112.614C146.276 111.898 143.669 111.538 141.051 111.543C138.523 111.538 136.005 111.874 133.566 112.542C133.264 112.405 132.947 112.255 132.688 112.134C130.65 111.177 128.543 110.188 126.174 110.186H126.172C124.587 110.174 123.037 110.654 121.736 111.56C120.395 112.504 118.195 114.747 118.53 119.163C118.643 120.333 118.833 121.495 119.097 122.64C119.121 122.755 119.147 122.882 119.174 123.014C117.332 126.034 116.354 129.501 116.349 133.038C116.349 140.513 120.7 147.241 127.636 151.116C127.623 151.402 127.617 151.688 127.617 151.974L127.614 156.053C127.092 156.022 126.492 156.043 126.103 155.823C125.843 155.683 125.604 155.508 125.394 155.301C125.355 155.267 125.231 155.032 125.185 154.961C123.544 152.294 120.543 151.196 117.633 150.934L117.402 151.565C118.601 152.61 119.712 153.755 120.372 154.932C120.731 155.494 120.935 156.141 120.962 156.807C121.036 157.146 121.131 157.48 121.246 157.808C121.97 159.449 123.091 160.885 124.508 161.986C125.396 162.677 126.487 163.055 127.612 163.062L127.608 167.962H154.584L154.536 151.959C154.536 151.668 154.529 151.377 154.516 151.086C161.422 147.204 165.754 140.489 165.754 133.037C165.748 129.629 164.84 126.283 163.121 123.339C163.16 123.156 163.201 122.974 163.234 122.815ZM146.811 147.042C147.487 148.598 147.83 150.279 147.819 151.975L147.847 161.246H134.326L134.334 151.975C134.322 150.283 134.663 148.607 135.335 147.054C128.206 145.091 123.066 139.56 123.066 133.04C123.087 130.142 124.085 127.335 125.898 125.074C126.853 123.85 124.265 117.994 125.603 117.053C125.773 116.945 125.972 116.893 126.174 116.903C127.917 116.903 131.76 119.528 133.514 119.528C133.65 119.531 133.786 119.51 133.915 119.467C136.207 118.661 138.621 118.252 141.051 118.259C143.592 118.251 146.114 118.699 148.497 119.581C148.618 119.623 148.745 119.643 148.872 119.64C150.598 119.64 154.576 116.832 156.288 116.832C156.472 116.822 156.655 116.871 156.81 116.97C158.177 117.952 155.429 124.034 156.384 125.311C158.087 127.529 159.018 130.244 159.036 133.04C159.037 139.547 153.919 145.068 146.812 147.042H146.811Z" fill="#0CC9AB"/>
</svg>
