<svg width="213" height="214" viewBox="0 0 213 214" fill="none" xmlns="http://www.w3.org/2000/svg">
<rect x="0.171875" y="0.9375" width="212.235" height="212.235" rx="106.118" fill="#0E425E"/>
<path d="M151.643 107.354C151.644 109.602 151.473 111.848 151.133 114.071C153.657 114.34 156.084 115.187 158.228 116.547C158.775 113.513 159.05 110.436 159.049 107.354C159.048 104.509 158.813 101.669 158.345 98.8623C156.179 100.18 153.738 100.981 151.212 101.203C151.498 103.241 151.642 105.296 151.643 107.354Z" fill="#C5FFF6"/>
<path d="M136.264 140.819C132.516 144.049 128.252 146.628 123.65 148.447C123.68 148.854 123.7 149.261 123.7 149.677C123.703 152.143 123.153 154.58 122.091 156.806C129.52 154.604 136.356 150.754 142.093 145.545C139.817 144.431 137.824 142.815 136.264 140.819Z" fill="#C5FFF6"/>
<path d="M63.3234 107.354C63.324 105.293 63.4683 103.235 63.7551 101.195C61.2278 100.954 58.79 100.134 56.6313 98.7979C56.1566 101.625 55.9179 104.486 55.9174 107.352C55.9167 110.456 56.1958 113.555 56.7513 116.609C58.887 115.233 61.3114 114.369 63.8358 114.084C63.4941 111.857 63.3228 109.607 63.3234 107.354Z" fill="#C5FFF6"/>
<path d="M90.7762 148.113C86.5031 146.327 82.537 143.881 79.0228 140.864C77.4535 142.857 75.4514 144.467 73.1681 145.572C78.6481 150.538 85.1319 154.268 92.1796 156.508C91.2038 154.36 90.6996 152.027 90.7009 149.668C90.7009 149.144 90.7284 148.625 90.7762 148.113Z" fill="#C5FFF6"/>
<path d="M123.6 66.2394C128.416 68.1373 132.862 70.8661 136.734 74.3015C138.312 72.3211 140.318 70.7247 142.602 69.6329C136.846 64.2618 129.936 60.2798 122.403 57.9922C123.261 60.0293 123.702 62.2176 123.699 64.4279C123.699 65.0331 123.665 65.6379 123.6 66.2394Z" fill="#C5FFF6"/>
<path d="M78.2987 74.2433C81.9451 71.0229 86.0977 68.4259 90.5892 66.5568C90.4969 65.851 90.4498 65.1401 90.4482 64.4283C90.4474 62.3243 90.8483 60.2395 91.6294 58.2858C84.4717 60.6096 77.9091 64.4709 72.4014 69.5991C74.6936 70.6804 76.7101 72.2685 78.2987 74.2433Z" fill="#C5FFF6"/>
<path d="M90.5905 66.5562C91.1119 70.561 93.0716 74.2396 96.1042 76.9066C99.1369 79.5737 103.036 81.0471 107.074 81.0526C111.168 81.0474 115.116 79.534 118.164 76.8016C121.213 74.0692 123.147 70.3094 123.598 66.2407C123.665 65.6391 123.698 65.0344 123.699 64.4292C123.702 62.2189 123.261 60.0305 122.403 57.9935C121.133 54.9765 119.001 52.401 116.275 50.5888C113.549 48.7766 110.349 47.8082 107.075 47.8047C103.749 47.8088 100.499 48.8096 97.7465 50.6779C94.9938 52.5463 92.864 55.1965 91.6317 58.2867C90.8507 60.2404 90.4498 62.3252 90.4505 64.4292C90.4518 65.1404 90.4986 65.8509 90.5905 66.5562ZM116.293 64.4277C116.291 66.8724 115.319 69.2164 113.59 70.945C111.861 72.6737 109.518 73.6458 107.073 73.6481C104.628 73.6458 102.284 72.6737 100.556 70.945C98.8269 69.2164 97.8548 66.8724 97.8525 64.4277C97.8548 61.9831 98.8269 59.6391 100.556 57.9105C102.284 56.1818 104.628 55.2097 107.073 55.2074C109.518 55.2097 111.861 56.1818 113.59 57.9105C115.319 59.6391 116.291 61.9831 116.293 64.4277Z" fill="#0CC9AB"/>
<path d="M123.649 148.449C123.334 144.267 121.452 140.357 118.379 137.503C115.306 134.648 111.269 133.059 107.074 133.054C102.936 133.059 98.9478 134.606 95.888 137.393C92.8282 140.179 90.9162 144.005 90.5247 148.125C90.4769 148.637 90.4505 149.155 90.4505 149.68C90.4492 152.04 90.9534 154.372 91.9292 156.52C93.247 159.434 95.3762 161.906 98.062 163.641C100.748 165.376 103.877 166.301 107.074 166.305C110.218 166.302 113.297 165.409 115.955 163.728C118.612 162.048 120.739 159.649 122.089 156.81C123.152 154.583 123.702 152.147 123.699 149.68C123.699 149.265 123.679 148.856 123.649 148.449ZM97.8554 149.679C97.8577 147.234 98.83 144.89 100.559 143.162C102.287 141.433 104.631 140.461 107.076 140.458C109.52 140.461 111.864 141.433 113.593 143.162C115.322 144.89 116.294 147.234 116.296 149.679C116.294 152.124 115.321 154.467 113.593 156.196C111.864 157.925 109.52 158.897 107.076 158.899C104.631 158.897 102.287 157.925 100.559 156.196C98.83 154.467 97.8578 152.124 97.8554 149.679Z" fill="#0CC9AB"/>
<path d="M166.355 84.6476C166.351 80.2395 164.598 76.0132 161.48 72.8961C158.363 69.7791 154.137 68.0259 149.729 68.0213C147.262 68.0188 144.825 68.5688 142.598 69.6313C140.314 70.7231 138.308 72.3196 136.73 74.3001C134.38 77.2362 133.101 80.8855 133.104 84.6462C133.109 89.0544 134.862 93.2807 137.979 96.3977C141.096 99.5148 145.322 101.268 149.731 101.273C150.23 101.273 150.723 101.246 151.212 101.203C153.738 100.981 156.179 100.18 158.345 98.8623C160.789 97.3809 162.81 95.2945 164.213 92.8047C165.616 90.3149 166.354 87.5056 166.355 84.6476ZM140.512 84.6476C140.514 82.203 141.486 79.859 143.215 78.1304C144.943 76.4017 147.287 75.4296 149.732 75.4273C152.177 75.4297 154.521 76.4019 156.249 78.1306C157.978 79.8592 158.95 82.203 158.952 84.6476C158.95 87.0923 157.978 89.4361 156.249 91.1647C154.521 92.8934 152.177 93.8656 149.732 93.868C147.287 93.8657 144.943 92.8936 143.215 91.1649C141.486 89.4363 140.514 87.0923 140.512 84.6476Z" fill="#0CC9AB"/>
<path d="M65.3472 101.272C69.7554 101.268 73.9818 99.5148 77.0988 96.3977C80.2159 93.2806 81.969 89.0544 81.9735 84.6462C81.9766 80.8598 80.6806 77.1868 78.302 74.2408C76.7134 72.266 74.6969 70.6779 72.4047 69.5965C70.1979 68.5569 67.7883 68.0188 65.349 68.0206C60.9408 68.0252 56.7145 69.7784 53.5975 72.8954C50.4804 76.0124 48.7273 80.2387 48.7227 84.6469C48.7243 87.4845 49.4521 90.2743 50.8367 92.7511C52.2213 95.228 54.2166 97.3093 56.6329 98.797C58.7916 100.133 61.2295 100.953 63.7568 101.194C64.2804 101.244 64.8106 101.272 65.3472 101.272ZM74.5675 84.6462C74.5652 87.0909 73.5931 89.4346 71.8644 91.1633C70.1358 92.8919 67.7918 93.8642 65.3472 93.8666C62.9025 93.8642 60.5585 92.8919 58.8299 91.1633C57.1012 89.4346 56.1291 87.0909 56.1268 84.6462C56.1291 82.2015 57.1012 79.8576 58.8299 78.1289C60.5585 76.4003 62.9025 75.428 65.3472 75.4256C67.7918 75.4285 70.1354 76.4013 71.8637 78.1302C73.592 79.8591 74.5637 82.203 74.5657 84.6476L74.5675 84.6462Z" fill="#0CC9AB"/>
<path d="M149.36 113.975C144.952 113.98 140.726 115.733 137.609 118.85C134.492 121.967 132.738 126.193 132.734 130.602C132.731 134.307 133.973 137.906 136.26 140.822C137.82 142.819 139.813 144.435 142.089 145.55C144.352 146.656 146.839 147.23 149.359 147.227C153.767 147.223 157.993 145.469 161.11 142.352C164.227 139.235 165.981 135.009 165.985 130.601C165.983 127.794 165.271 125.033 163.914 122.576C162.557 120.118 160.6 118.045 158.226 116.548C156.083 115.188 153.655 114.341 151.131 114.071C150.543 114.008 149.952 113.976 149.36 113.975ZM149.36 139.819C146.916 139.816 144.572 138.844 142.843 137.116C141.114 135.387 140.142 133.043 140.14 130.598C140.142 128.154 141.114 125.81 142.843 124.081C144.572 122.353 146.916 121.381 149.36 121.378C151.805 121.381 154.149 122.353 155.877 124.081C157.606 125.81 158.578 128.154 158.581 130.598C158.578 133.043 157.606 135.387 155.877 137.116C154.149 138.844 151.805 139.816 149.36 139.819Z" fill="#0CC9AB"/>
<path d="M78.7708 140.875C81.0857 137.95 82.344 134.329 82.3412 130.599C82.3367 126.191 80.5835 121.965 77.4664 118.848C74.3494 115.731 70.1231 113.977 65.7149 113.973C65.0865 113.974 64.4587 114.012 63.8345 114.084C61.3101 114.37 58.8858 115.234 56.75 116.61C54.4028 118.112 52.471 120.181 51.1325 122.626C49.794 125.07 49.0917 127.812 49.0901 130.599C49.0946 135.007 50.8476 139.234 53.9647 142.351C57.0817 145.468 61.3082 147.221 65.7164 147.226C68.2092 147.229 70.6703 146.667 72.9156 145.584C75.1993 144.479 77.2015 142.869 78.7708 140.875ZM65.7167 139.818C63.272 139.816 60.9281 138.844 59.1995 137.115C57.4708 135.386 56.4987 133.042 56.4964 130.598C56.4987 128.153 57.4708 125.809 59.1995 124.081C60.9281 122.352 63.272 121.38 65.7167 121.377C68.1614 121.38 70.5053 122.352 72.234 124.081C73.9626 125.809 74.9347 128.153 74.9371 130.598C74.9348 133.042 73.9627 135.386 72.234 137.115C70.5053 138.844 68.1615 139.816 65.7167 139.818Z" fill="#0CC9AB"/>
</svg>
