<svg width="214" height="213" viewBox="0 0 214 213" fill="none" xmlns="http://www.w3.org/2000/svg">
<rect x="0.9375" width="212.235" height="212.235" rx="106.118" fill="#0E425E"/>
<path d="M151.997 115.402L152.695 93.4844L149.506 90.1924H122.447C125.396 87.9103 127.801 84.9996 129.485 81.672C131.169 78.3444 132.091 74.6834 132.183 70.955L132.199 70.9355V62.1415L132.183 62.122C132.015 55.567 129.295 49.3365 124.602 44.7567C119.909 40.177 113.614 37.6098 107.057 37.6016C100.5 37.6099 94.2045 40.1771 89.5117 44.7568C84.8189 49.3365 82.0988 55.567 81.9306 62.122L81.9147 62.1415V70.9355L81.9306 70.955C82.0228 74.6834 82.9444 78.3443 84.6286 81.672C86.3127 84.9996 88.717 87.9102 91.6667 90.1924H64.6067L61.4164 93.4844L62.1135 115.402H50.2422V121.782H62.3167L63.0116 143.632L66.2019 146.72H86.0183C85.4544 148.68 85.1682 150.708 85.1679 152.747C85.1744 158.55 87.4824 164.113 91.5858 168.217C95.6892 172.32 101.253 174.628 107.056 174.635C112.859 174.628 118.422 172.32 122.526 168.217C126.629 164.113 128.937 158.55 128.944 152.747C128.943 150.708 128.657 148.68 128.093 146.72H147.91L151.099 143.632L151.793 121.782H163.868V115.402H151.997ZM107.057 43.9796C111.219 43.9849 115.262 45.372 118.551 47.9231C121.841 50.4742 124.19 54.0451 125.231 58.0755L107.935 54.4048L106.623 54.4022L88.8784 58.0949C89.9156 54.0602 92.2639 50.4844 95.5543 47.9294C98.8447 45.3744 102.891 43.985 107.057 43.9796ZM88.2953 70.3313V64.7336L107.266 60.7856L125.818 64.7231V70.3309C125.813 75.3051 123.834 80.0738 120.317 83.591C116.8 87.1082 112.031 89.0867 107.057 89.0924C102.083 89.0867 97.3138 87.1082 93.7966 83.591C90.2794 80.0738 88.3009 75.3054 88.2953 70.3313ZM107.057 168.255C102.945 168.25 99.0036 166.615 96.0964 163.708C93.1892 160.8 91.5539 156.859 91.5494 152.747C91.554 148.636 93.1893 144.694 96.0964 141.787C99.0036 138.88 102.945 137.244 107.057 137.24C111.168 137.244 115.11 138.88 118.017 141.787C120.924 144.694 122.56 148.636 122.564 152.747C122.56 156.859 120.924 160.8 118.017 163.707C115.11 166.615 111.168 168.25 107.057 168.255ZM144.82 140.34H125.075C123.065 137.417 120.375 135.027 117.236 133.375C114.097 131.724 110.604 130.86 107.057 130.859C103.51 130.86 100.016 131.724 96.8773 133.376C93.7384 135.027 91.0481 137.417 89.0383 140.34H69.2933L67.9014 96.5717H146.212L144.82 140.34Z" fill="#0CC9AB"/>
<path d="M116.008 150.43C115.768 150.398 115.535 150.368 115.303 150.338C115.111 149.837 114.903 149.341 114.685 148.855C114.835 148.663 114.979 148.475 115.112 148.299C115.206 148.178 115.296 148.06 115.381 147.949L116.211 146.877L113.142 143.584L111.99 144.477C111.859 144.58 111.726 144.68 111.595 144.78C111.414 144.918 111.23 145.058 111.045 145.203C110.743 145.07 110.444 144.948 110.152 144.832C109.946 144.749 109.748 144.669 109.556 144.588C109.52 144.362 109.49 144.126 109.46 143.882C109.437 143.702 109.414 143.521 109.389 143.34L109.198 141.968H104.78L104.572 143.32C104.544 143.497 104.516 143.671 104.487 143.843C104.449 144.075 104.411 144.311 104.375 144.551C103.853 144.747 103.361 144.949 102.887 145.162C102.689 145.01 102.493 144.864 102.301 144.721C102.171 144.626 102.042 144.53 101.918 144.434L100.821 143.605L97.6213 146.742L98.5098 147.867C98.6106 147.994 98.7095 148.122 98.8087 148.252C98.952 148.438 99.0978 148.627 99.2512 148.818C99.0152 149.303 98.8061 149.8 98.6249 150.308C98.3751 150.34 98.1298 150.377 97.8896 150.412C97.7269 150.435 97.5651 150.459 97.4043 150.481L96.0277 150.673V155.091L97.3811 155.299C97.5565 155.325 97.7295 155.354 97.9011 155.382C98.1343 155.419 98.3723 155.458 98.6138 155.493C98.8052 156.007 99.01 156.505 99.2247 156.983C99.0726 157.181 98.9287 157.375 98.795 157.555C98.706 157.674 98.6208 157.789 98.5398 157.896L97.7151 158.986L99.8238 161.164L99.8436 161.185L100.85 162.224L101.982 161.325C102.106 161.226 102.233 161.127 102.361 161.027C102.534 160.892 102.712 160.754 102.889 160.612C103.403 160.851 103.892 161.056 104.367 161.233C104.399 161.483 104.437 161.728 104.473 161.969C104.498 162.139 104.522 162.308 104.546 162.476L104.738 163.85H109.147L109.357 162.5C109.385 162.321 109.414 162.146 109.442 161.971C109.48 161.733 109.52 161.49 109.557 161.244C110.088 161.038 110.58 160.834 111.043 160.626C111.234 160.776 111.423 160.922 111.609 161.065C111.752 161.174 111.895 161.285 112.039 161.397L113.181 162.284L116.266 159.031L115.426 157.949C115.318 157.81 115.213 157.672 115.107 157.534C114.965 157.349 114.821 157.16 114.672 156.971C114.915 156.485 115.128 155.984 115.31 155.472C115.578 155.44 115.835 155.401 116.086 155.363C116.241 155.339 116.396 155.316 116.551 155.295L117.929 155.105V150.68L116.538 150.5L116.008 150.43ZM106.965 158.462V157.664C105.703 157.663 104.493 157.161 103.601 156.269C102.708 155.377 102.206 154.167 102.204 152.905C102.205 151.643 102.707 150.433 103.599 149.54C104.491 148.647 105.701 148.144 106.963 148.142C108.225 148.144 109.435 148.645 110.328 149.537C111.221 150.43 111.724 151.639 111.726 152.901C111.729 153.527 111.608 154.147 111.369 154.726C111.131 155.305 110.78 155.83 110.337 156.272C109.895 156.716 109.37 157.067 108.791 157.306C108.213 157.545 107.592 157.667 106.967 157.664L106.965 158.462Z" fill="#00FFFF"/>
<path d="M98.1782 119.1H100.402C103.102 119.1 105.081 118.511 106.341 117.334C107.762 116.014 108.472 114.257 108.473 112.064C108.473 109.79 107.681 107.993 106.097 106.673C104.879 105.658 102.797 105.151 99.8534 105.15H93.2138V125.465H98.1782V119.1ZM98.1782 109.75H100.067C102.361 109.75 103.508 110.547 103.508 112.14C103.508 113.714 102.432 114.501 100.28 114.501H98.1782V109.75Z" fill="#C5FFF6"/>
<path d="M121.295 118.43C120.927 117.874 120.431 117.415 119.848 117.09C118.828 116.638 117.767 116.281 116.681 116.024C115.107 115.597 114.32 115.039 114.32 114.349C114.32 113.699 114.797 113.374 115.752 113.374C116.543 113.374 116.979 113.75 117.06 114.501H121.506C121.468 113.834 121.298 113.18 121.005 112.579C120.712 111.977 120.303 111.44 119.801 110.999C118.806 110.146 117.506 109.719 115.902 109.719C114.318 109.671 112.768 110.19 111.531 111.181C110.978 111.596 110.529 112.134 110.22 112.753C109.911 113.371 109.75 114.053 109.75 114.745C109.745 115.706 110.067 116.64 110.663 117.395C111.235 118.161 112.052 118.709 112.978 118.948L115.658 119.648C116.835 119.953 117.424 120.461 117.424 121.171C117.421 121.337 117.376 121.499 117.294 121.643C117.211 121.787 117.094 121.907 116.952 121.994C116.627 122.22 116.237 122.338 115.841 122.329C114.805 122.329 114.226 121.862 114.104 120.927H109.567C109.615 121.64 109.808 122.335 110.132 122.971C110.457 123.607 110.907 124.171 111.455 124.628C112.552 125.531 113.952 125.983 115.658 125.983C117.466 125.983 118.973 125.491 120.181 124.506C120.751 124.074 121.211 123.514 121.526 122.871C121.841 122.228 122.001 121.521 121.993 120.806C122.014 119.96 121.77 119.13 121.295 118.43Z" fill="#C5FFF6"/>
</svg>
