<svg width="213" height="213" viewBox="0 0 213 213" fill="none" xmlns="http://www.w3.org/2000/svg">
<rect width="212.235" height="212.235" rx="106.118" fill="#0E425E"/>
<path d="M70.6221 87.7191H63.3589V94.9823H70.6221V87.7191Z" fill="#00FFFF"/>
<path d="M83.9405 87.7191H76.6773V94.9823H83.9405V87.7191Z" fill="#00FFFF"/>
<path d="M70.6221 113.598H63.3589V120.862H70.6221V113.598Z" fill="#00FFFF"/>
<path d="M83.9405 113.598H76.6773V120.862H83.9405V113.598Z" fill="#00FFFF"/>
<path d="M70.6221 139.068H63.3589V146.331H70.6221V139.068Z" fill="#00FFFF"/>
<path d="M83.9405 139.068H76.6773V146.331H83.9405V139.068Z" fill="#00FFFF"/>
<path d="M100.062 52.8594L96.4239 56.4973V74.9567H52.6184L48.9805 78.5947V155.737L52.6184 159.375H129.843L133.481 155.737V143.645H159.618L163.256 140.007V56.4973L159.618 52.8594H100.062ZM103.7 60.1353H155.981V67.7073H103.7V60.1353ZM56.2564 82.2326H96.4239V100.628H56.2564V82.2326ZM56.2564 107.904H96.4239V126.383H56.2564V107.904ZM126.205 152.099H56.2564V133.655H96.4239V140.004L100.062 143.642H126.205V152.099ZM155.981 136.368H103.7V74.9716H155.981V136.368Z" fill="#0CC9AB"/>
<path d="M119.596 81.3015H111.451V88.5647H119.596V81.3015Z" fill="#C5FFF6"/>
<path d="M148.141 81.3015H124.266V88.5647H148.141V81.3015Z" fill="#C5FFF6"/>
<path d="M119.596 117.955H111.451V125.218H119.596V117.955Z" fill="#C5FFF6"/>
<path d="M148.141 117.955H124.266V125.218H148.141V117.955Z" fill="#C5FFF6"/>
<path d="M148.14 93.1242H139.995V100.387H148.14V93.1242Z" fill="#C5FFF6"/>
<path d="M135.325 93.1242H111.451V100.387H135.325V93.1242Z" fill="#C5FFF6"/>
<path d="M148.142 105.345H131.673V112.608H148.142V105.345Z" fill="#C5FFF6"/>
<path d="M127.315 105.345H111.451V112.608H127.315V105.345Z" fill="#C5FFF6"/>
</svg>
