<svg width="213" height="213" viewBox="0 0 213 213" fill="none" xmlns="http://www.w3.org/2000/svg">
<rect width="212.235" height="212.235" rx="106.118" fill="#0E425E"/>
<path d="M137.272 79.8246L140.673 76.4232V57.0264L137.272 53.625H73.6578L70.2565 57.0264V76.4232L73.6578 79.8246H137.272ZM77.0592 60.4277H133.871V73.0219H77.0592V60.4277Z" fill="#C5FFF6"/>
<path d="M101.714 146.806H42.6523V153.608H101.714V146.806Z" fill="#0CC9AB"/>
<path d="M169.584 146.806H110.523V153.608H169.584V146.806Z" fill="#0CC9AB"/>
<path d="M136.357 96.0165V105.399H116.202L112.801 108.8V140.603L116.202 144.005H163.906L167.307 140.603V108.8L163.906 105.399H143.16V92.6151L139.758 89.2138H108.865V79.8261H102.062V89.2138H71.7944L68.393 92.6151V105.399H48.3284L44.927 108.8V140.603L48.3284 144.005H96.0321L99.4334 140.603V108.8L96.0321 105.399H75.1958V96.0165H136.357ZM160.504 112.202V137.202H119.603V112.202H160.504ZM92.6314 112.202V137.202H51.7304V112.202H92.6314Z" fill="#0CC9AB"/>
</svg>
