<svg width="213" height="214" viewBox="0 0 213 214" fill="none" xmlns="http://www.w3.org/2000/svg">
<rect y="0.875" width="212.235" height="212.235" rx="106.118" fill="#0E425E"/>
<path d="M72.882 82.6523H64.2891V91.2453H72.882V82.6523Z" fill="#00FFFF"/>
<path d="M88.6399 82.6523H80.0469V91.2453H88.6399V82.6523Z" fill="#0CC9AB"/>
<path d="M72.882 112.797H64.2891V121.39H72.882V112.797Z" fill="#0CC9AB"/>
<path d="M88.6399 112.797H80.0469V121.39H88.6399V112.797Z" fill="#00FFFF"/>
<path d="M72.882 143.42H64.2891V152.013H72.882V143.42Z" fill="#00FFFF"/>
<path d="M88.6399 143.42H80.0469V152.013H88.6399V143.42Z" fill="#0CC9AB"/>
<path d="M147.161 107.011C144.367 108.152 141.478 108.656 138.654 108.6V128.369H55.8797V106.542H129.971C126.169 104.73 122.897 101.785 120.693 97.9319H55.8797V76.161H120.99C123.272 72.4586 126.716 69.4149 131.077 67.6326C131.146 67.6024 131.219 67.5809 131.288 67.5508H51.5746L47.2695 71.8559V163.146L51.5746 167.451H142.959L147.264 163.146V106.964C147.23 106.977 147.195 106.994 147.161 107.007V107.011ZM138.654 158.845H55.8797V137.113H138.654V158.845V158.845Z" fill="#0CC9AB"/>
<path d="M174.764 93.8138C173.627 93.1465 172.461 92.462 171.264 91.8076C171.488 89.0179 171.63 86.0689 171.363 83.1199C172.667 82.4397 173.899 81.7078 175.091 80.9975C175.629 80.6746 176.167 80.356 176.71 80.0418L179.96 78.1647L178.544 74.6905L176.83 70.4844L176.112 68.728L174.682 65.2236L171.023 66.1966C170.325 66.3817 169.637 66.5625 168.961 66.739C167.643 67.0834 166.386 67.4149 165.125 67.7593C163.17 65.6369 161.134 63.5877 159.046 61.6461C159.434 60.3244 159.787 59.02 160.109 57.8404C160.269 57.2506 160.424 56.6823 160.574 56.1485L161.556 52.6226L158.232 51.0856L152.192 48.2916L148.623 46.6385L146.656 50.0438C146.325 50.6207 145.989 51.189 145.653 51.7572C145.007 52.855 144.34 53.983 143.707 55.1454C142.441 55.0808 141.236 55.0679 140.194 55.0679C139.716 55.0679 139.234 55.0679 138.756 55.0722C138.291 55.0722 137.826 55.0765 137.361 55.0765C136.457 55.0765 135.734 55.0679 135.084 55.0463C134.391 53.9787 133.745 52.8292 133.065 51.6195C132.725 51.0168 132.376 50.3925 132.014 49.7726L130.133 46.5352L126.667 47.9515L122.487 49.6564L120.593 50.427L117.175 51.8218L118.031 55.4123C118.195 56.1054 118.354 56.7899 118.509 57.4658C118.798 58.7315 119.095 60.0317 119.439 61.3275C117.192 63.3638 115.181 65.3442 113.317 67.3546C111.987 66.9715 110.678 66.6357 109.404 66.3085C108.775 66.1449 108.16 65.9856 107.553 65.8263L103.967 64.8749L102.494 68.2802L101.612 70.3252L99.8768 74.3418L98.3442 77.8935L101.711 79.7964C102.275 80.115 102.834 80.4421 103.394 80.7693C104.535 81.4323 105.706 82.1168 106.937 82.7583C106.683 85.7891 106.653 88.695 106.851 91.4029C105.624 92.0788 104.432 92.7806 103.273 93.4608C102.71 93.7923 102.146 94.1238 101.586 94.451L98.3398 96.3323L99.7562 99.8065L100.411 101.408L102.232 105.868L103.627 109.291L107.221 108.43C107.91 108.266 108.59 108.107 109.262 107.952C110.532 107.659 111.836 107.358 113.141 107.013C115.117 109.205 117.14 111.262 119.168 113.139C118.78 114.483 118.445 115.796 118.139 116.988C117.993 117.561 117.851 118.116 117.713 118.633L116.761 122.197L120.137 123.683L125.509 126.046L126.254 126.373L129.827 127.945L131.739 124.544C132.049 123.993 132.367 123.437 132.69 122.873C133.315 121.784 133.956 120.665 134.58 119.507C136.401 119.619 138.102 119.67 139.751 119.67C140.922 119.67 142.071 119.64 143.182 119.588C143.858 120.807 144.559 121.991 145.24 123.14C145.588 123.726 145.933 124.311 146.273 124.897L148.154 128.134L151.62 126.718L155.421 125.164L157.668 124.247L161.082 122.852L160.23 119.266C160.066 118.568 159.907 117.879 159.748 117.199C159.451 115.912 159.145 114.59 158.809 113.273C161.087 111.15 163.097 109.153 164.918 107.203C166.214 107.586 167.514 107.943 168.78 108.288C169.469 108.477 170.158 108.666 170.859 108.86L174.618 109.915L176.034 106.277L178.264 100.556L178.423 100.147L179.767 96.7025L176.564 94.8556C175.961 94.5069 175.367 94.1582 174.777 93.8095L174.764 93.8138ZM147.16 107.013C136.246 111.469 123.886 106.277 119.431 95.3679C114.97 84.4502 120.158 72.1032 131.076 67.6388C141.981 63.1787 154.345 68.3706 158.809 79.2798C163.265 90.1803 158.069 102.557 147.164 107.013H147.16Z" fill="#C5FFF6"/>
</svg>
