<svg width="214" height="213" viewBox="0 0 214 213" fill="none" xmlns="http://www.w3.org/2000/svg">
<rect x="0.9375" width="212.235" height="212.235" rx="106.118" fill="#0E425E"/>
<path d="M154.888 127.2L155.635 103.783L152.226 100.265H123.313C129.483 95.4721 133.512 88.0582 133.717 79.7068L133.734 79.6864V70.292L133.717 70.2716C133.362 55.7641 121.459 44.0723 106.87 44.0723C92.2804 44.0723 80.3772 55.7641 80.0227 70.2716L80.0057 70.292V79.6864L80.0227 79.7068C80.2273 88.0582 84.2563 95.4721 90.4261 100.265H61.5135L58.1048 103.783L58.8513 127.2H46.3516V134.018H59.0694L59.8125 157.364L63.2212 160.664H150.522L153.93 157.364L154.673 134.018H167.759V127.2H154.888ZM106.87 50.8897C116.203 50.8897 124.067 57.3014 126.289 65.9527L107.81 62.0293H106.41L87.4503 65.9732C89.666 57.3117 97.5332 50.8897 106.873 50.8897H106.87ZM86.8231 79.0456V73.0667L107.091 68.8467L126.913 73.0531V79.0456C126.913 90.1 117.921 99.0921 106.866 99.0921C95.8118 99.0921 86.8197 90.1 86.8197 79.0456H86.8231ZM66.5209 153.85L65.0347 107.086H148.708L147.222 153.85H66.5209Z" fill="#0CC9AB"/>
<path d="M97.8294 118.63C94.3184 118.63 91.3767 119.81 89.0076 122.165C86.6386 124.524 85.4558 127.445 85.4558 130.932C85.4558 134.42 86.6454 137.266 89.0281 139.611C91.4074 141.956 94.3423 143.129 97.8328 143.129C101.323 143.129 104.309 141.949 106.726 139.594C109.143 137.239 110.35 134.338 110.35 130.895C110.35 127.452 109.143 124.548 106.726 122.179C104.309 119.81 101.347 118.627 97.8328 118.627L97.8294 118.63ZM102.496 135.807C101.269 137.133 99.7621 137.794 97.9691 137.794C96.1761 137.794 94.557 137.133 93.3197 135.807C92.0823 134.481 91.4619 132.824 91.4619 130.83C91.4619 128.836 92.0755 127.254 93.2992 125.942C94.5229 124.63 96.0568 123.972 97.8941 123.972C99.7314 123.972 101.235 124.64 102.472 125.976C103.709 127.312 104.33 128.966 104.33 130.936C104.33 132.906 103.716 134.484 102.492 135.807H102.496Z" fill="#C5FFF6"/>
<path d="M123.176 129.129L120.276 127.82C118.933 127.207 118.261 126.43 118.261 125.485C118.261 124.991 118.466 124.565 118.882 124.214C119.294 123.859 119.781 123.682 120.347 123.682C121.571 123.682 122.29 124.435 122.505 125.945H128.48C128.409 124.79 128.269 123.9 128.058 123.276C127.846 122.653 127.458 121.998 126.892 121.313C125.406 119.523 123.286 118.627 120.528 118.627C118.217 118.627 116.26 119.299 114.658 120.642C113.056 121.985 112.255 123.634 112.255 125.591C112.255 127.548 113.046 129.197 114.631 130.469C115.388 131.082 116.332 131.635 117.47 132.132L120.201 133.264C121.881 133.949 122.72 134.798 122.72 135.81C122.72 136.448 122.495 136.983 122.041 137.419C121.591 137.855 121.032 138.074 120.368 138.074C119.608 138.074 119.008 137.784 118.568 137.208C118.128 136.632 117.91 135.858 117.91 134.893H111.863V135.671C111.863 137.958 112.63 139.771 114.16 141.114C115.691 142.457 117.777 143.129 120.419 143.129C123.061 143.129 125.034 142.491 126.483 141.22C127.932 139.948 128.658 138.179 128.658 135.916C128.658 134.362 128.238 133.063 127.403 132.027C126.565 130.99 125.157 130.022 123.18 129.126L123.176 129.129Z" fill="#C5FFF6"/>
</svg>
