<svg width="213" height="214" viewBox="0 0 213 214" fill="none" xmlns="http://www.w3.org/2000/svg">
<rect x="0.234375" y="0.875" width="212.235" height="212.235" rx="106.118" fill="#0E425E"/>
<path d="M158.852 139.19L162.502 135.54V65.5388L158.852 61.8887H53.8503L50.2002 65.5388V135.54L53.8503 139.19H158.852ZM57.5003 69.1888H155.201V131.89H57.5003V69.1888Z" fill="#0CC9AB"/>
<path d="M171.352 144.796H41.3516V152.096H171.352V144.796Z" fill="#0CC9AB"/>
<path d="M116.557 91.6259H115.869V88.9979C115.866 86.4558 114.854 84.0189 113.057 82.2214C111.259 80.424 108.822 79.4128 106.28 79.4098C103.738 79.413 101.301 80.4243 99.5041 82.2217C97.7068 84.0191 96.6957 86.456 96.6926 88.9979V91.6259H96.145C94.2362 91.628 92.4061 92.3873 91.0564 93.7371C89.7066 95.0869 88.9474 96.9169 88.9453 98.8257V113.365C88.9475 115.274 89.7068 117.104 91.0565 118.454C92.4063 119.804 94.2363 120.563 96.145 120.565H116.557C118.466 120.563 120.296 119.804 121.645 118.454C122.995 117.104 123.754 115.274 123.757 113.365V98.8257C123.754 96.917 122.995 95.0869 121.646 93.7372C120.296 92.3874 118.466 91.6281 116.557 91.6259ZM103.993 88.9979C103.993 88.3913 104.234 87.8098 104.663 87.3809C105.092 86.952 105.674 86.7106 106.28 86.71C106.887 86.7106 107.468 86.9519 107.897 87.3808C108.326 87.8097 108.568 88.3913 108.568 88.9979V91.6259H103.993V88.9979ZM116.457 113.264H96.2458V98.9254H96.6926V98.932H115.869V98.9254H116.457V113.264Z" fill="#C5FFF6"/>
</svg>
