<svg width="213" height="213" viewBox="0 0 213 213" fill="none" xmlns="http://www.w3.org/2000/svg">
<rect x="0.46875" width="212.235" height="212.235" rx="106.118" fill="#0E425E"/>
<path d="M152.053 93.4843L148.863 90.1926H121.804C124.754 87.9103 127.159 84.9994 128.843 81.6715C130.527 78.3436 131.449 74.6823 131.541 70.9536L131.556 70.9342V62.1415L131.541 62.122C131.372 55.567 128.652 49.3364 123.959 44.7567C119.266 40.177 112.971 37.6098 106.414 37.6016C99.8571 37.61 93.5621 40.1772 88.8693 44.7569C84.1764 49.3366 81.4564 55.567 81.288 62.122L81.2726 62.1415V70.9355L81.2886 70.9552C81.3809 74.6836 82.3025 78.3447 83.9867 81.6723C85.6708 84.9999 88.0752 87.9105 91.025 90.1926H63.966L60.7757 93.4843L61.4728 115.402H49.7734V121.782H61.6758L62.3708 143.632L65.5611 146.72H85.3769C84.8133 148.68 84.5271 150.708 84.5267 152.747C84.5332 158.55 86.8413 164.114 90.9447 168.217C95.048 172.32 100.612 174.629 106.415 174.635C112.218 174.629 117.781 172.32 121.885 168.217C125.988 164.114 128.296 158.55 128.303 152.747C128.302 150.708 128.016 148.68 127.452 146.72H147.268L150.459 143.632L151.154 121.782H163.4V115.402H151.357L152.053 93.4843ZM106.416 43.9808C110.578 43.9862 114.622 45.3732 117.911 47.9244C121.2 50.4756 123.549 54.0466 124.59 58.0771L107.294 54.406L105.982 54.4035L88.2376 58.0962C89.2748 54.0615 91.6231 50.4857 94.9135 47.9307C98.2039 45.3757 102.25 43.9863 106.416 43.9808ZM87.6548 70.3325V64.7352L106.625 60.7872L125.177 64.7249V70.3325C125.172 75.3066 123.193 80.0753 119.676 83.5925C116.159 87.1098 111.39 89.0882 106.416 89.0939C101.442 89.0881 96.673 87.1096 93.1559 83.5923C89.6387 80.075 87.6604 75.3066 87.6548 70.3325ZM106.416 168.256C102.304 168.251 98.3629 166.616 95.4558 163.709C92.5486 160.801 90.9132 156.86 90.9085 152.748C90.9131 148.637 92.5483 144.695 95.4554 141.788C98.3626 138.881 102.304 137.245 106.416 137.241C110.527 137.245 114.469 138.881 117.376 141.788C120.284 144.695 121.919 148.637 121.924 152.748C121.919 156.86 120.283 160.801 117.376 163.708C114.469 166.616 110.527 168.251 106.416 168.256ZM144.179 140.341H124.435C122.425 137.418 119.735 135.028 116.596 133.376C113.457 131.725 109.963 130.861 106.416 130.86C102.869 130.861 99.3761 131.725 96.2371 133.376C93.0982 135.028 90.4079 137.418 88.398 140.341H68.6532L67.2612 96.5732H145.572L144.179 140.341Z" fill="#0CC9AB"/>
<path d="M137.933 109.366L127.679 103.446H125.446L115.192 109.366L114.075 111.3V115.023H99.2339V111.3L98.1173 109.366L87.8631 103.446H85.6299L75.3754 109.366L74.2588 111.3V123.14L75.3754 125.074L85.6299 130.994H87.8631L98.1173 125.074L99.2339 123.14V119.488H114.075V123.14L115.192 125.074L125.446 130.994H127.679L137.933 125.074L139.05 123.14V111.299L137.933 109.366ZM86.7465 107.959L92.5362 111.301L86.7481 114.642L80.9596 111.301L86.7465 107.959ZM78.7252 115.168L84.5133 118.509V125.192L78.7252 121.85V115.168ZM94.7675 121.85L88.9797 125.192V118.509L94.7675 115.168V121.85ZM126.562 107.957L132.352 111.3L126.564 114.64L120.775 111.3L126.562 107.957ZM118.541 115.167L124.329 118.507V125.19L118.541 121.849V115.167ZM134.583 121.849L128.796 125.19V118.507L134.583 115.167V121.849Z" fill="#C5FFF6"/>
<path d="M115.525 148.966H109.145L107.173 142.898C107.121 142.738 107.02 142.598 106.883 142.499C106.747 142.4 106.583 142.347 106.415 142.347C106.246 142.347 106.082 142.4 105.946 142.499C105.809 142.598 105.708 142.738 105.656 142.898L103.684 148.966H97.3039C97.1355 148.966 96.9714 149.02 96.8351 149.119C96.6989 149.218 96.5974 149.357 96.5454 149.517C96.493 149.678 96.4929 149.851 96.5449 150.011C96.597 150.172 96.6986 150.312 96.8351 150.411L101.997 154.161L100.025 160.229C99.973 160.39 99.9727 160.563 100.025 160.723C100.077 160.884 100.179 161.024 100.315 161.123C100.451 161.222 100.615 161.275 100.784 161.275C100.952 161.275 101.117 161.222 101.253 161.123L106.415 157.372L111.577 161.123C111.713 161.222 111.877 161.275 112.045 161.275C112.214 161.275 112.378 161.222 112.514 161.123C112.651 161.024 112.752 160.884 112.804 160.723C112.857 160.563 112.857 160.39 112.804 160.229L110.832 154.161L115.994 150.411C116.131 150.312 116.233 150.172 116.285 150.011C116.337 149.851 116.336 149.678 116.284 149.517C116.232 149.357 116.131 149.218 115.994 149.119C115.858 149.019 115.694 148.966 115.525 148.966Z" fill="#00FFFF"/>
</svg>
