<svg width="213" height="213" viewBox="0 0 213 213" fill="none" xmlns="http://www.w3.org/2000/svg">
<rect x="0.40625" width="212.235" height="212.235" rx="106.118" fill="#0E425E"/>
<path d="M154.359 128.972L155.104 105.554L151.697 102.037H122.786C125.938 99.5982 128.507 96.4879 130.306 92.9321C132.106 89.3762 133.09 85.4641 133.189 81.4801L133.206 81.4593V75.4721H133.496C134.4 75.4721 135.267 75.113 135.907 74.4737C136.546 73.8344 136.905 72.9674 136.905 72.0633C136.905 71.1593 136.546 70.2922 135.907 69.6529C135.267 69.0137 134.4 68.6546 133.496 68.6546H132.9C132.01 62.8896 129.271 57.5699 125.096 53.4961C120.921 49.4223 115.536 46.8149 109.75 46.0666V45.7076C109.75 44.8035 109.391 43.9365 108.752 43.2972C108.113 42.658 107.246 42.2988 106.342 42.2988C105.438 42.2988 104.571 42.658 103.931 43.2972C103.292 43.9365 102.933 44.8035 102.933 45.7076V46.0666C97.1478 46.8148 91.7623 49.4221 87.5873 53.4959C83.4122 57.5697 80.6735 62.8896 79.7834 68.6546H79.1869C78.2828 68.6546 77.4158 69.0137 76.7765 69.6529C76.1373 70.2922 75.7781 71.1593 75.7781 72.0633C75.7781 72.9674 76.1373 73.8344 76.7765 74.4737C77.4158 75.113 78.2828 75.4721 79.1869 75.4721H79.4773V81.4597L79.4944 81.4805C79.5927 85.4645 80.5774 89.3766 82.3769 92.9324C84.1764 96.4883 86.7456 99.5985 89.8977 102.037H60.9843L57.5756 105.554L58.3207 128.973H45.8203V135.79H58.5375L59.2799 159.136L62.6887 162.437H149.993L153.4 159.136L154.142 135.79H167.228V128.973L154.359 128.972ZM109.749 52.9547C113.715 53.6457 117.382 55.5115 120.275 58.3105C123.168 61.1094 125.154 64.7126 125.975 68.6532H109.749V52.9547ZM102.932 52.9547V68.6546H86.706C87.5274 64.7137 89.5131 61.1102 92.4061 58.311C95.2991 55.5118 98.966 53.6458 102.932 52.9547ZM86.2939 80.8151V75.4721H126.387V80.8164C126.381 86.1312 124.267 91.2265 120.509 94.9846C116.751 98.7427 111.655 100.857 106.341 100.863C101.026 100.857 95.93 98.7426 92.1718 94.9842C88.4135 91.2258 86.2997 86.1301 86.2939 80.8151ZM146.69 155.619H65.9905L64.5032 108.853H148.178L146.69 155.619Z" fill="#0CC9AB"/>
<path d="M134.201 125.729C132.889 125.73 131.61 126.142 130.544 126.907C129.478 127.672 128.678 128.752 128.258 129.995H120.995C121.276 129.833 121.551 129.67 121.821 129.508C122.048 129.372 122.274 129.238 122.503 129.105L123.789 128.36L121.631 123.098L120.183 123.484C119.891 123.563 119.603 123.639 119.32 123.713C118.746 123.865 118.198 124.01 117.647 124.162C116.801 123.241 115.916 122.355 115.009 121.516C115.179 120.94 115.331 120.372 115.469 119.859C115.538 119.612 115.6 119.373 115.663 119.148L116.049 117.751L110.781 115.325L110.004 116.675C109.866 116.916 109.725 117.156 109.585 117.394C109.304 117.873 109.015 118.366 108.74 118.874C108.205 118.845 107.695 118.841 107.297 118.841C107.065 118.841 106.834 118.842 106.602 118.844C106.378 118.844 106.154 118.847 105.931 118.847C105.571 118.847 105.273 118.843 105.004 118.834C104.7 118.372 104.418 117.872 104.121 117.347C103.975 117.089 103.83 116.83 103.678 116.573L102.931 115.293L97.6593 117.455L98.0001 118.876C98.0704 119.167 98.1364 119.456 98.2019 119.739C98.3283 120.288 98.4586 120.852 98.611 121.415C97.6357 122.299 96.7665 123.159 95.9627 124.031C95.3832 123.865 94.8139 123.719 94.2583 123.578C93.9951 123.509 93.7354 123.444 93.4818 123.377L92.0617 123.002L89.7822 128.304L91.1164 129.055C91.355 129.189 91.5899 129.326 91.8258 129.464C92.1302 129.641 92.4428 129.819 92.7605 129.995H84.6135C84.1929 128.752 83.3933 127.672 82.3272 126.907C81.2611 126.142 79.9821 125.73 78.6699 125.73C77.8453 125.73 77.0287 125.892 76.2668 126.208C75.5049 126.523 74.8126 126.986 74.2295 127.569C73.6464 128.152 73.1838 128.844 72.8682 129.606C72.5527 130.368 72.3902 131.184 72.3902 132.009C72.3902 133.675 73.0518 135.272 74.2295 136.45C75.4072 137.627 77.0045 138.289 78.6699 138.289C79.8447 138.288 80.9956 137.958 81.9918 137.336C82.988 136.713 83.7894 135.823 84.3047 134.768H92.1257L91.7832 134.969C91.5446 135.109 91.3107 135.249 91.0755 135.385L89.7914 136.131L91.9515 141.401L93.3737 141.058C93.6631 140.99 93.9492 140.922 94.2324 140.856C94.784 140.728 95.3512 140.596 95.9163 140.445C96.774 141.395 97.6525 142.285 98.5326 143.095C98.3646 143.679 98.218 144.254 98.0857 144.77C98.024 145.011 97.9646 145.243 97.907 145.461L97.5321 146.873L102.855 149.202L103.61 147.854C103.741 147.622 103.874 147.388 104.009 147.151C104.282 146.676 104.56 146.188 104.828 145.682C105.595 145.728 106.311 145.75 107.006 145.75C107.536 145.75 108.057 145.736 108.557 145.709C108.852 146.241 109.157 146.754 109.453 147.253C109.599 147.499 109.745 147.744 109.889 147.99L110.636 149.27L115.896 147.113L115.555 145.694C115.486 145.403 115.418 145.115 115.35 144.828C115.22 144.268 115.087 143.694 114.939 143.121C115.928 142.198 116.797 141.332 117.581 140.487C118.144 140.654 118.71 140.808 119.261 140.958C119.55 141.037 119.841 141.116 120.133 141.197L121.622 141.612L123.707 136.232L122.438 135.503C122.184 135.358 121.933 135.211 121.685 135.065C121.517 134.967 121.344 134.867 121.173 134.768H128.559C129.074 135.824 129.876 136.713 130.872 137.336C131.868 137.959 133.019 138.289 134.194 138.289C135.019 138.289 135.835 138.127 136.597 137.811C137.359 137.496 138.051 137.033 138.634 136.45C139.217 135.867 139.68 135.174 139.995 134.413C140.311 133.651 140.473 132.834 140.473 132.009C140.474 130.345 139.813 128.749 138.637 127.571C137.461 126.394 135.866 125.731 134.201 125.729ZM110.17 140.535C109.085 140.983 107.923 141.213 106.75 141.21C105.577 141.208 104.416 140.974 103.334 140.521C102.252 140.069 101.27 139.407 100.444 138.574C99.6181 137.741 98.9651 136.752 98.5224 135.666C98.0738 134.582 97.844 133.42 97.8461 132.247C97.8482 131.074 98.0821 129.913 98.5345 128.83C98.9869 127.748 99.6488 126.766 100.482 125.94C101.316 125.114 102.304 124.462 103.39 124.019C104.475 123.571 105.636 123.342 106.809 123.344C107.983 123.346 109.144 123.58 110.226 124.033C111.308 124.485 112.29 125.147 113.116 125.98C113.942 126.813 114.595 127.801 115.038 128.887C115.486 129.971 115.715 131.133 115.712 132.306C115.71 133.479 115.476 134.64 115.023 135.723C114.571 136.805 113.909 137.787 113.076 138.613C112.243 139.439 111.255 140.092 110.169 140.535H110.17Z" fill="#C5FFF6"/>
</svg>
