<svg width="214" height="213" viewBox="0 0 214 213" fill="none" xmlns="http://www.w3.org/2000/svg">
<rect x="0.9375" width="212.235" height="212.235" rx="106.118" fill="#0E425E"/>
<path d="M112.447 86.0304L113.685 66.4609H45.0664L49.0996 130.224L79.3758 141.205L103.363 132.505L104.456 149.794L134.732 160.774L165.009 149.794L169.042 86.0307L112.447 86.0304ZM100.423 86.0304L102.93 125.659L79.3758 134.201L55.3979 125.505L52.0797 73.0443H106.672L105.849 86.03L100.423 86.0304ZM158.711 145.075L134.732 153.771L110.755 145.075L107.436 92.6141H162.029L158.711 145.075Z" fill="#0CC9AB"/>
<path d="M63.8366 102.758H70.4305V102.752H88.3273L87.8086 112.04L79.3788 115.097L70.949 112.04L70.7064 107.695H64.1125L64.6181 116.748L79.3788 122.101L94.1395 116.748L95.2886 96.1697H70.0608L69.6915 89.5547H89.0628L89.0611 89.5877H95.655L96.0247 82.971H62.7319L63.8366 102.758Z" fill="#C5FFF6"/>
<path d="M118.088 102.539L118.458 109.156H125.052L125.05 109.123H144.421L144.052 115.74H118.825L119.193 122.328H125.787V122.323H143.684L143.165 131.611L134.736 134.668L126.306 131.611L126.063 127.266H119.469L119.975 136.318L134.736 141.672L149.497 136.318L151.383 102.541L118.088 102.539Z" fill="#C5FFF6"/>
</svg>
