<svg width="213" height="214" viewBox="0 0 213 214" fill="none" xmlns="http://www.w3.org/2000/svg">
<rect x="0.640625" y="0.9375" width="212.235" height="212.235" rx="106.118" fill="#0E425E"/>
<path d="M76.0614 67.6626C69.0418 73.3698 63.7329 80.9031 60.7193 89.4333C61.2066 89.3685 61.6978 89.3354 62.1895 89.3343C64.1234 89.3328 66.0246 89.8329 67.7074 90.7858C70.203 84.2449 74.2895 78.4292 79.5974 73.8646L83.2779 80.3181L90.1273 63.6852L72.4458 61.3243L76.0614 67.6626Z" fill="#C5FFF6"/>
<path d="M73.3181 130.756L79.5001 127.043L62.7167 120.571L60.7561 138.301L67.2674 134.391C71.5224 140.273 77.0357 145.132 83.4059 148.615C83.3437 147.923 83.3068 147.224 83.3068 146.516C83.3061 144.587 83.5458 142.666 84.0203 140.797C79.8892 138.107 76.2661 134.708 73.3181 130.756Z" fill="#C5FFF6"/>
<path d="M153.42 120.909C153.053 120.935 152.685 120.953 152.312 120.953C150.276 120.954 148.259 120.559 146.374 119.789C144.57 124.841 141.808 129.497 138.238 133.502L133.496 127.9L129.808 145.506L147.623 144.589L142.819 138.914C147.614 133.75 151.231 127.607 153.42 120.909Z" fill="#C5FFF6"/>
<path d="M139.275 79.0339L132.509 83.3077L149.434 89.4003L150.995 71.6303L145.257 75.255C139.644 68.1482 132.159 62.7488 123.645 59.6638L123.148 67.0145C129.424 69.6437 134.962 73.7704 139.275 79.0339Z" fill="#C5FFF6"/>
<path d="M165.67 113.56C167.255 111.05 168.095 108.142 168.092 105.174C168.088 100.99 166.424 96.9787 163.466 94.0202C160.507 91.0616 156.496 89.3977 152.312 89.3933C148.128 89.3976 144.116 91.0615 141.158 94.02C138.199 96.9785 136.535 100.99 136.531 105.174C136.535 108.312 137.473 111.378 139.225 113.981C140.978 116.584 143.466 118.606 146.372 119.79C148.257 120.559 150.273 120.954 152.309 120.953C152.683 120.953 153.051 120.935 153.417 120.91C156.003 120.731 158.504 119.913 160.696 118.531L169.645 127.48L174.616 122.509L165.67 113.56ZM152.314 113.924C149.994 113.922 147.77 112.999 146.129 111.358C144.488 109.717 143.565 107.493 143.563 105.173C143.565 102.852 144.488 100.628 146.129 98.9868C147.77 97.3461 149.994 96.4234 152.314 96.4212C154.635 96.4234 156.86 97.3461 158.5 98.9868C160.141 100.628 161.064 102.852 161.066 105.173C161.064 107.493 160.141 109.718 158.5 111.359C156.859 113 154.634 113.923 152.313 113.925L152.314 113.924Z" fill="#0CC9AB"/>
<path d="M106.554 123.27C101.386 123.277 96.3671 125.003 92.2877 128.176C88.2083 131.349 85.3006 135.79 84.0225 140.797C83.5481 142.666 83.3084 144.587 83.309 146.516C83.309 147.224 83.3441 147.922 83.4081 148.615C83.938 154.39 86.6048 159.758 90.8862 163.67C95.1676 167.582 100.755 169.754 106.554 169.762C112.717 169.755 118.626 167.303 122.984 162.945C127.342 158.587 129.793 152.679 129.8 146.516C129.793 140.353 127.342 134.444 122.984 130.087C118.626 125.729 112.717 123.277 106.554 123.27ZM90.3383 146.516C90.3431 142.217 92.0532 138.095 95.0932 135.055C98.1333 132.015 102.255 130.304 106.554 130.3C110.854 130.305 114.975 132.015 118.015 135.055C121.056 138.095 122.766 142.217 122.771 146.516C122.766 150.815 121.056 154.937 118.016 157.977C114.976 161.017 110.854 162.727 106.554 162.732C102.255 162.728 98.1331 161.018 95.0931 157.977C92.053 154.937 90.343 150.815 90.3383 146.516Z" fill="#0CC9AB"/>
<path d="M110.068 143.002V137.912H103.038V143.002H97.9496V150.031H103.038V155.12H110.068V150.031H115.157V143.002H110.068Z" fill="#00FFFF"/>
<path d="M64.4626 122.78C68.0269 118.031 74.5505 108.522 74.5505 102.562C74.5485 99.8442 73.8242 97.1756 72.4516 94.8298C71.0791 92.4839 69.1077 90.5451 66.7393 89.2118C64.4476 87.9141 61.8585 87.2331 59.2249 87.2351C58.5554 87.2367 57.8867 87.2817 57.2229 87.3699C53.539 87.8597 50.1579 89.6696 47.7075 92.4635C45.257 95.2575 43.9036 98.8458 43.8984 102.562C43.8984 108.526 50.4317 118.044 53.9941 122.79C51.1463 123.443 49.2428 124.606 49.2428 125.936C49.2428 127.981 53.7237 129.638 59.2514 129.638C64.779 129.638 69.2593 127.981 69.2593 125.936C69.2565 124.599 67.3343 123.43 64.4626 122.78ZM53.47 102.562C53.4716 101.036 54.0784 99.5737 55.1571 98.4949C56.2358 97.4161 57.6984 96.8094 59.224 96.8076C60.7496 96.8094 62.2122 97.4161 63.2909 98.4949C64.3696 99.5737 64.9764 101.036 64.978 102.562C64.978 104.197 62.5437 108.772 59.224 113.646C55.9028 108.772 53.4681 104.197 53.4681 102.562H53.47Z" fill="#0CC9AB"/>
<path d="M106.782 81.9971L122.595 75.185L124.681 44.3477H88.883L90.9689 75.185L106.782 81.9971ZM96.4046 51.3769H117.16L115.872 70.4261L106.782 74.3418L97.6931 70.4261L96.4046 51.3769Z" fill="#0CC9AB"/>
</svg>
