<svg width="213" height="213" viewBox="0 0 213 213" fill="none" xmlns="http://www.w3.org/2000/svg">
<rect x="0.703125" width="212.235" height="212.235" rx="106.118" fill="#0E425E"/>
<path d="M154.656 127.2L155.401 103.782L151.993 100.264H123.08C126.232 97.8257 128.801 94.7155 130.601 91.1597C132.4 87.6038 133.385 83.6918 133.483 79.7077L133.5 79.6869V70.291L133.483 70.2702C133.303 63.2662 130.397 56.609 125.383 51.7156C120.369 46.8223 113.643 44.0792 106.636 44.0703C99.63 44.0791 92.9038 46.8221 87.8895 51.7155C82.8752 56.6089 79.9689 63.2662 79.7891 70.2702L79.7721 70.291V79.6873L79.7891 79.7081C79.8874 83.6921 80.8722 87.6042 82.6717 91.16C84.4712 94.7158 87.0403 97.8261 90.1924 100.265H61.2798L57.8731 103.782L58.6179 127.2H46.1172V134.018H58.8347L59.5775 157.364L62.9842 160.664H150.288L153.697 157.364L154.439 134.018H167.525V127.2L154.656 127.2ZM106.638 50.8865C111.086 50.8923 115.406 52.3744 118.92 55.1003C122.435 57.8262 124.945 61.6417 126.056 65.9482L107.576 62.0257L106.174 62.023L87.2144 65.9686C88.3227 61.6575 90.8319 57.8368 94.3477 55.1068C97.8636 52.3768 102.187 50.8923 106.638 50.8865ZM86.5914 79.043V73.0623L106.861 68.844L126.684 73.0514V79.043C126.678 84.3578 124.564 89.4532 120.806 93.2113C117.048 96.9694 111.953 99.0833 106.638 99.0893C101.323 99.0833 96.2275 96.9693 92.4693 93.2111C88.7112 89.4529 86.5973 84.3578 86.5914 79.043ZM146.988 153.847H66.288L64.8007 107.081H148.475L146.988 153.847Z" fill="#0CC9AB"/>
<path d="M119.93 117.113H93.3447L94.8988 139.23L106.638 144.097L118.376 139.23L119.93 117.113ZM106.638 136.717L101.404 134.547L100.658 123.93H112.617L111.871 134.547L106.638 136.717Z" fill="#C5FFF6"/>
</svg>
