<svg width="213" height="213" viewBox="0 0 213 213" fill="none" xmlns="http://www.w3.org/2000/svg">
<rect x="0.640625" width="212.235" height="212.235" rx="106.118" fill="#0E425E"/>
<path d="M102.233 132.526H96.3511V155.603H102.233V132.526Z" fill="#C5FFF6"/>
<path d="M104.412 137.751H108.978V155.604H114.86V137.751H119.426V132.527H104.412V137.751Z" fill="#C5FFF6"/>
<path d="M152.111 98.8769L149.501 91.2864C150.904 89.9142 151.796 88.1042 152.031 86.1558C152.265 84.2075 151.827 82.2375 150.789 80.5721C149.751 78.9066 148.175 77.6454 146.323 76.9971C144.471 76.3488 142.453 76.3524 140.603 77.0071C138.753 77.6618 137.182 78.9285 136.15 80.5976C135.118 82.2667 134.687 84.2381 134.928 86.1857C135.169 88.1332 136.067 89.9401 137.475 91.3074C138.883 92.6748 140.715 93.5205 142.669 93.7047L144.447 98.8769H121.258L118.371 90.4823C122.129 88.4373 125.282 85.4386 127.512 81.7881C129.743 78.1375 130.973 73.9638 131.078 69.6869L131.093 69.6688V61.3697L131.078 61.3516C130.927 55.0013 128.298 48.9618 123.753 44.5239C119.208 40.086 113.108 37.6016 106.756 37.6016C100.404 37.6016 94.3035 40.086 89.7587 44.5239C85.214 48.9618 82.5851 55.0013 82.434 61.3516L82.4191 61.3697V69.6688L82.434 69.6869C82.5393 73.9637 83.7691 78.1374 85.9998 81.788C88.2304 85.4385 91.3832 88.4372 95.1409 90.4823L92.2537 98.8769H58.5361L55.0117 103.344L60.4478 126.078L63.9721 128.86H76.2155L79.0336 167.827L81.6527 171.051L82.5511 171.307C98.3721 175.834 115.158 175.741 130.928 171.039L133.509 167.827L136.327 128.86H149.54L153.065 126.078L158.501 103.344L154.977 98.8769H152.111ZM101.952 92.9586C105.121 93.5962 108.386 93.5962 111.556 92.9586L113.591 98.8759H99.9167L101.952 92.9586ZM106.754 44.8489C110.374 44.8536 113.898 46.0054 116.822 48.1388C119.746 50.2722 121.918 53.2774 123.026 56.7226L107.711 53.4715L106.22 53.4686L90.4746 56.7455C91.58 53.2949 93.7518 50.2841 96.6773 48.1465C99.6028 46.0088 103.131 44.8546 106.754 44.85V44.8489ZM89.6665 69.1005V64.3168L106.953 60.7196L123.846 64.3052V69.0991C123.846 73.6313 122.045 77.9778 118.841 81.1826C115.636 84.3874 111.289 86.1878 106.757 86.1878C102.225 86.1878 97.8782 84.3874 94.6735 81.1826C91.4687 77.9778 89.6683 73.6313 89.6683 69.0991L89.6665 69.1005ZM126.462 164.765C113.227 168.262 99.3111 168.26 86.0772 164.76L82.9185 121.075H129.622L126.462 164.765ZM146.68 121.612H136.849L137.132 117.712L133.517 113.826H79.0224L75.4078 117.712L75.6897 121.612H66.83L63.127 106.125H150.382L146.68 121.612Z" fill="#0CC9AB"/>
</svg>
