<svg width="213" height="213" viewBox="0 0 213 213" fill="none" xmlns="http://www.w3.org/2000/svg">
<rect x="0.640625" width="212.235" height="212.235" rx="106.118" fill="#0E425E"/>
<path d="M114.321 123.145V121.366C114.319 119.176 113.448 117.078 111.9 115.53C110.352 113.982 108.253 113.111 106.064 113.108C103.875 113.111 101.776 113.982 100.228 115.53C98.6801 117.078 97.8093 119.177 97.8068 121.366V123.151C96.095 123.232 94.4802 123.969 93.2966 125.208C92.1129 126.447 91.4512 128.095 91.4483 129.808V140.989C91.4503 142.759 92.154 144.455 93.405 145.706C94.656 146.957 96.3523 147.661 98.1215 147.663H114.123C115.892 147.661 117.588 146.957 118.839 145.706C120.09 144.455 120.794 142.759 120.796 140.989V129.808C120.793 128.074 120.116 126.409 118.908 125.166C117.699 123.922 116.055 123.197 114.321 123.145ZM104.573 121.366C104.574 120.97 104.731 120.591 105.01 120.312C105.29 120.033 105.669 119.875 106.064 119.875C106.459 119.875 106.838 120.033 107.118 120.312C107.397 120.592 107.555 120.97 107.555 121.366V123.135H104.573V121.366ZM114.03 140.896H98.2148V129.907H114.03V140.896Z" fill="#C5FFF6"/>
<path d="M154.521 103.772L151.138 100.281H122.442C125.57 97.861 128.12 94.7741 129.907 91.2449C131.693 87.7157 132.67 83.8328 132.768 79.8786L132.784 79.858V70.5321L132.768 70.5114C132.589 63.5599 129.705 56.9526 124.728 52.0958C119.751 47.2391 113.075 44.5166 106.122 44.5078C99.1677 44.5165 92.4919 47.2389 87.5152 52.0957C82.5384 56.9524 79.6539 63.5599 79.4755 70.5114L79.4589 70.5321V79.858L79.4755 79.8786C79.5731 83.8328 80.5503 87.7157 82.3364 91.2449C84.1224 94.7741 86.6723 97.861 89.8007 100.281H61.1051L57.7219 103.772L58.4614 127.015H46.0547V133.781H58.6766L59.4135 156.953L62.7967 160.228H149.446L152.83 156.953L153.567 133.781H166.554V127.015H153.782L154.521 103.772ZM106.123 51.2743C110.538 51.28 114.825 52.7509 118.313 55.4564C121.801 58.162 124.293 61.949 125.396 66.2232L107.054 62.33L105.662 62.3273L86.8452 66.2434C87.9451 61.9645 90.4355 58.1724 93.925 55.4629C97.4145 52.7533 101.705 51.28 106.123 51.2743ZM86.227 79.2198V73.2839L106.345 69.0971L126.019 73.2732V79.2198C126.013 84.4948 123.915 89.5521 120.185 93.2821C116.455 97.012 111.398 99.1101 106.123 99.116C100.848 99.11 95.7907 97.012 92.0608 93.2819C88.3309 89.5519 86.2329 84.4948 86.227 79.2198ZM146.171 153.463H66.0757L64.5993 107.048H147.647L146.171 153.463Z" fill="#0CC9AB"/>
<path d="M146.157 92.5519C148.23 93.6222 150.53 94.18 152.864 94.1786C154.781 94.1812 156.68 93.8048 158.451 93.0711C160.223 92.3375 161.832 91.261 163.186 89.9035C164.541 88.5476 165.617 86.938 166.351 85.1664C167.085 83.3949 167.462 81.4961 167.462 79.5786C167.462 77.6611 167.085 75.7625 166.351 73.991C165.617 72.2194 164.541 70.6098 163.186 69.2539C161.831 67.8963 160.222 66.8195 158.45 66.0858C156.678 65.3521 154.779 64.9758 152.861 64.9785C150.943 64.976 149.044 65.3525 147.272 66.0864C145.5 66.8204 143.89 67.8974 142.536 69.2553C140.371 71.4211 138.941 74.2127 138.449 77.2355C137.958 80.2582 138.429 83.359 139.795 86.0995L137.466 94.9141L146.157 92.5519ZM152.88 71.7828C153.905 71.7827 154.92 71.9848 155.867 72.3772C156.815 72.7695 157.676 73.3446 158.401 74.0696C159.126 74.7946 159.701 75.6554 160.093 76.6027C160.486 77.5501 160.687 78.5653 160.687 79.5907C160.687 81.6614 159.865 83.6475 158.401 85.1117C156.936 86.576 154.95 87.3986 152.88 87.3986C150.809 87.3986 148.823 86.576 147.359 85.1117C145.894 83.6475 145.072 81.6614 145.072 79.5907C145.072 77.5202 145.895 75.5347 147.359 74.0708C148.823 72.6069 150.809 71.7846 152.88 71.7846V71.7828Z" fill="#00FFFF"/>
</svg>
