<svg width="213" height="214" viewBox="0 0 213 214" fill="none" xmlns="http://www.w3.org/2000/svg">
<rect x="0.640625" y="0.875" width="212.235" height="212.235" rx="106.118" fill="#0E425E"/>
<path d="M159.257 139.191L162.908 135.541V65.5407L159.257 61.8906H54.2565L50.6064 65.5407V135.541L54.2565 139.191H159.257ZM57.9066 69.1908H155.607V131.891H57.9066V69.1908Z" fill="#0CC9AB"/>
<path d="M171.758 144.796H41.7578V152.096H171.758V144.796Z" fill="#0CC9AB"/>
<path d="M116.964 90.1668H116.275V87.5387C116.272 84.9967 115.261 82.5596 113.463 80.7621C111.666 78.9646 109.229 77.9534 106.687 77.9503C104.145 77.9534 101.708 78.9646 99.9104 80.7621C98.1129 82.5596 97.1018 84.9967 97.0988 87.5387V90.1668H96.5513C94.6425 90.169 92.8125 90.9283 91.4627 92.278C90.113 93.6278 89.3537 95.4578 89.3515 97.3666V111.906C89.3537 113.815 90.113 115.645 91.4627 116.995C92.8125 118.345 94.6425 119.104 96.5513 119.106H116.963C118.872 119.104 120.702 118.345 122.052 116.995C123.402 115.645 124.161 113.815 124.163 111.906V97.3666C124.161 95.4578 123.402 93.6279 122.052 92.2781C120.702 90.9284 118.872 90.1691 116.964 90.1668ZM104.399 87.5387C104.4 86.9321 104.641 86.3506 105.07 85.9216C105.499 85.4926 106.08 85.2512 106.687 85.2505C107.293 85.2512 107.875 85.4926 108.304 85.9216C108.733 86.3506 108.974 86.9321 108.975 87.5387V90.1668H104.399V87.5387ZM116.863 111.805H96.6521V97.4659H97.0988V97.4725H116.275V97.4659H116.863V111.805Z" fill="#00FFFF"/>
<path d="M80.342 94.8391C78.9279 96.2551 77.8072 97.9362 77.044 99.7861C76.2809 101.636 75.8903 103.618 75.8947 105.62C75.8838 109.614 77.4453 113.453 80.2416 116.305L85.4518 111.192C83.994 109.705 83.18 107.704 83.1858 105.621C83.1833 104.578 83.3869 103.544 83.7848 102.58C84.1826 101.615 84.767 100.739 85.5043 100L80.342 94.8391Z" fill="#C5FFF6"/>
<path d="M78.2366 92.8959L73.0747 87.7335C70.7268 90.0806 68.8657 92.8684 67.5982 95.9368C66.3307 99.0051 65.6818 102.294 65.6887 105.614C65.675 112.286 68.3074 118.691 73.009 123.426L78.1896 118.283C74.8443 114.914 72.9719 110.355 72.9831 105.607C72.979 103.247 73.4409 100.909 74.3425 98.7277C75.244 96.5464 76.5674 94.5646 78.2366 92.8959Z" fill="#C5FFF6"/>
<path d="M133.276 94.8533L128.066 99.9667C129.524 101.454 130.338 103.455 130.332 105.537C130.335 106.581 130.131 107.614 129.733 108.579C129.336 109.543 128.751 110.42 128.014 111.158L133.176 116.321C134.59 114.905 135.711 113.223 136.474 111.373C137.237 109.523 137.628 107.541 137.623 105.54C137.635 101.545 136.073 97.7059 133.276 94.8533Z" fill="#C5FFF6"/>
<path d="M135.327 92.8762C138.672 96.2452 140.545 100.804 140.533 105.552C140.537 107.912 140.075 110.25 139.174 112.431C138.272 114.612 136.949 116.594 135.28 118.262L140.442 123.424C142.79 121.077 144.651 118.289 145.918 115.221C147.186 112.153 147.835 108.864 147.828 105.544C147.842 98.872 145.209 92.4665 140.507 87.7321L135.327 92.8762Z" fill="#C5FFF6"/>
</svg>
