<svg width="213" height="213" viewBox="0 0 213 213" fill="none" xmlns="http://www.w3.org/2000/svg">
<rect x="0.109375" width="212.235" height="212.235" rx="106.118" fill="#0E425E"/>
<path d="M102.388 110.434L107.467 106.346L105.423 103.807C97.4187 93.8613 94.4755 88.5622 94.9266 84.9057C95.3797 81.2241 99.3626 77.6451 108.119 71.0156C113.658 66.8212 120.436 59.8615 121.269 50.5228C121.781 44.7855 119.8 40.9138 119.574 40.4914L118.028 37.6211L112.288 40.7121L113.833 43.5807C113.891 43.6866 119.368 54.3192 104.184 65.8159C94.938 72.8167 89.2653 77.5414 88.4569 84.1073C87.6475 90.6791 92.0101 97.5378 100.346 107.893L102.388 110.434Z" fill="#C5FFF6"/>
<path d="M109.275 80.3769C108.684 81.8501 108.427 83.4362 108.523 85.0207C108.619 86.6052 109.066 88.1487 109.831 89.5396L109.973 89.7821C110.586 90.7294 111.336 91.6865 112.129 92.6996C113.855 94.902 116.217 97.9186 115.778 99.6756C115.511 100.742 114.042 101.912 111.642 102.971L108.66 104.288L111.292 110.253L114.274 108.937C118.74 106.966 121.302 104.455 122.102 101.261C123.316 96.4116 119.959 92.1259 117.262 88.6822C116.602 87.8396 115.976 87.0406 115.528 86.3652C115.226 85.8153 115.052 85.2039 115.022 84.5774C114.991 83.9508 115.103 83.3254 115.349 82.7484C117.403 77.4675 128.136 71.963 134.419 69.7336L137.492 68.6465L135.318 62.5001L132.245 63.5869C128.902 64.8227 125.653 66.2988 122.523 68.0036C115.417 71.8867 110.96 76.0505 109.275 80.3769Z" fill="#C5FFF6"/>
<path d="M70.9303 116.547C74.3766 119.131 89.9005 119.778 92.9777 119.882C94.6184 119.937 96.5877 119.979 98.7939 119.979C106.694 119.979 117.616 119.444 127.215 117.073L130.379 116.29L128.814 109.961L125.65 110.743C111.288 114.291 92.2006 113.752 81.823 112.567C83.8982 111.944 86.183 111.332 88.283 110.839L91.4564 110.094L89.9673 103.748L86.7939 104.492C86.6416 104.528 83.0209 105.38 79.2774 106.529C72.3969 108.641 69.9009 110.182 69.3865 112.638C69.2349 113.369 69.3002 114.128 69.5745 114.823C69.8488 115.517 70.32 116.116 70.9303 116.547Z" fill="#0CC9AB"/>
<path d="M124.102 124.291L120.985 125.245C108.066 129.2 95.4078 127.997 88.8634 126.761C88.75 126.74 88.6453 126.686 88.5623 126.606C88.4792 126.526 88.4216 126.424 88.3966 126.311C88.3715 126.199 88.3802 126.081 88.4215 125.974C88.4627 125.866 88.5349 125.773 88.6287 125.706L84.8118 120.421L82.1691 122.329C81.1201 123.087 78.7039 125.142 78.9246 127.862C78.9979 128.635 79.2736 129.375 79.7238 130.008C80.1741 130.641 80.783 131.144 81.4894 131.467C83.4716 132.458 91.5889 134.45 101.985 134.45C108.391 134.45 115.663 133.693 122.893 131.48L126.01 130.525L124.102 124.291Z" fill="#0CC9AB"/>
<path d="M132.182 104.489L133.106 110.944L136.333 110.473C137.566 110.341 138.813 110.415 140.022 110.691C142.542 111.312 143.174 112.698 143.444 113.836C144.106 116.632 137.362 122.623 130.897 126.251L128.052 127.842L131.236 133.532L134.08 131.94C136.96 130.281 139.699 128.388 142.27 126.282C148.271 121.301 150.8 116.608 149.788 112.333C147.902 104.373 139.557 103.414 135.408 104.021L132.182 104.489Z" fill="#0CC9AB"/>
<path d="M84.4095 135.854C83.2102 137.053 82.1045 139.276 82.9358 141.599C84.2025 145.136 88.7425 145.976 92.0476 146.3C95.1647 146.606 98.3162 146.754 101.38 146.754C108.839 146.754 115.772 145.874 120.386 144.247L123.461 143.161L121.291 137.013L118.217 138.098C112.624 140.072 102.363 140.761 92.6836 139.812C92.3693 139.781 92.0628 139.748 91.764 139.712C88.9249 139.363 86.3102 137.991 84.4095 135.854Z" fill="#0CC9AB"/>
<path d="M100.49 157.478C113.694 157.478 129.921 155.648 144.425 148.807L147.373 147.417L144.593 141.52L141.644 142.91C116.924 154.568 85.0451 150.921 71.8787 148.016C72.8211 147.697 73.8128 147.387 74.7865 147.114L77.9244 146.233L76.1621 139.956L73.0239 140.836C62.5814 143.768 61.5281 146.147 61.1314 147.043C60.8982 147.561 60.7828 148.125 60.7937 148.694C60.8045 149.262 60.9413 149.821 61.1941 150.331C61.7104 151.363 62.3529 152.648 71.5023 154.584C78.0284 155.917 84.6405 156.787 91.2893 157.188C94.1234 157.366 97.2123 157.478 100.49 157.478Z" fill="#0CC9AB"/>
<path d="M145.34 151.829C137.659 156.936 124.515 159.928 107.331 160.48C99.1972 160.732 91.0558 160.471 82.9553 159.697L79.716 159.339L78.997 165.818L82.2363 166.176C88.6305 166.815 95.0531 167.127 101.479 167.113C116.479 167.113 136.727 165.385 148.949 157.258L151.664 155.453L148.054 150.024L145.34 151.829Z" fill="#0CC9AB"/>
</svg>
