<svg width="213" height="213" viewBox="0 0 213 213" fill="none" xmlns="http://www.w3.org/2000/svg">
<rect x="0.234375" width="212.235" height="212.235" rx="106.118" fill="#0E425E"/>
<path d="M99.6576 87.0497L92.813 93.9032V103.514L109.257 87.0487L99.6576 87.0497Z" fill="#00FFFF"/>
<path d="M128.459 86.0529L126.056 80.2577H89.4168L86.0207 83.6538V120.354L89.4168 123.75H126.056L128.471 117.966L112.615 101.929L128.459 86.0529ZM92.813 87.05H117.868L92.8137 112.147L92.813 87.05ZM117.922 116.958H97.608L107.816 106.735L117.922 116.958Z" fill="#C5FFF6"/>
<path d="M65.6172 164.417H147.086V47.8164H65.6172V164.417ZM72.4095 54.6087H95.2046V60.4841H117.498V54.6087H140.294V157.625H72.4095V54.6087Z" fill="#0CC9AB"/>
<path d="M106.258 142.262C104.737 142.264 103.278 142.869 102.203 143.944C101.127 145.02 100.522 146.478 100.521 147.999C100.522 149.52 101.127 150.978 102.203 152.054C103.279 153.129 104.737 153.734 106.258 153.736C107.779 153.734 109.237 153.129 110.313 152.054C111.388 150.978 111.993 149.52 111.995 147.999C111.993 146.478 111.388 145.02 110.313 143.944C109.237 142.869 107.779 142.264 106.258 142.262Z" fill="#00FFFF"/>
</svg>
