<svg width="213" height="213" viewBox="0 0 213 213" fill="none" xmlns="http://www.w3.org/2000/svg">
<rect x="0.46875" width="212.235" height="212.235" rx="106.118" fill="#0E425E"/>
<path d="M55.6189 147.932V145.959C55.8367 145.959 56.0545 145.966 56.269 145.959C58.2261 145.907 60.1864 145.884 62.1434 145.784C62.7838 145.751 63.4275 145.566 64.0484 145.384C64.8546 145.143 65.248 144.535 65.3033 143.713C65.3293 143.323 65.326 142.929 65.326 142.539C65.326 130.881 65.326 119.224 65.326 107.569C65.326 107.251 65.326 106.935 65.313 106.617C65.2675 105.577 64.8709 105.053 63.8501 104.978C60.6805 104.744 57.5076 104.705 54.3705 105.336C51.4122 105.931 49.79 107.875 49.2179 110.706C48.8018 112.764 48.5905 114.864 48.2914 116.948C48.2524 117.225 48.2296 117.501 48.1971 117.813H46.5977C46.9975 112.839 47.3974 107.872 47.7972 102.869H88.7031C89.1225 107.79 89.5451 112.722 89.9677 117.706H120.936C121.563 122.719 122.184 127.686 122.818 132.741C122.304 132.741 121.843 132.77 121.391 132.721C121.277 132.708 121.127 132.465 121.098 132.305C120.75 130.478 120.435 128.642 120.084 126.815C120.003 126.399 119.834 125.995 119.691 125.592C118.582 122.484 116.316 120.752 113.134 120.189C111.778 119.949 110.396 119.783 109.021 119.76C105.604 119.702 102.188 119.734 98.7744 119.754C98.2575 119.754 97.7341 119.845 97.227 119.949C96.6288 120.072 96.3037 120.492 96.2387 121.09C96.1899 121.535 96.1607 121.984 96.1574 122.429C96.1509 127.575 96.1542 132.725 96.1574 137.871C96.1574 138.037 96.1737 138.199 96.1834 138.362C96.2582 138.394 96.307 138.433 96.3557 138.433C99.1157 138.394 101.879 138.365 104.639 138.3C105.097 138.29 105.562 138.167 106.011 138.04C107.968 137.487 108.979 136.229 109.216 134.002C109.32 133.04 109.333 132.068 109.392 131.103C109.398 130.976 109.424 130.849 109.441 130.712H111.043V148.335H109.441C109.379 147.334 109.356 146.326 109.245 145.332C108.904 142.312 107.633 140.927 104.632 140.699C101.846 140.488 99.041 140.54 96.1607 140.475C96.1607 140.767 96.1607 140.966 96.1607 141.164C96.1607 146.834 96.1607 152.503 96.1607 158.173C96.1607 158.638 96.1802 159.106 96.2289 159.567C96.3102 160.37 96.6418 160.744 97.422 160.9C97.7861 160.972 98.16 161.02 98.5306 161.02C102.376 161.024 106.222 161.046 110.068 161.001C111.882 160.978 113.67 160.682 115.393 160.074C118.406 159.008 120.243 156.807 121.206 153.856C121.813 151.986 122.246 150.055 122.779 148.066H119.71V146.005C120.494 145.94 121.274 145.901 122.047 145.81C125.198 145.442 127.704 144.057 129.502 141.349C132.954 136.145 136.488 130.992 140.002 125.83C140.243 125.479 140.233 125.251 140.002 124.906C136.072 118.99 132.128 113.083 128.257 107.127C127.116 105.375 125.584 104.546 123.559 104.504C122.555 104.484 121.55 104.501 120.516 104.501V102.537H138.897V104.387C138.224 104.501 137.541 104.54 136.914 104.744C136.29 104.949 135.672 105.251 135.136 105.632C134.56 106.041 134.55 106.425 134.882 107.046C134.96 107.192 135.048 107.339 135.139 107.478C137.925 111.649 140.708 115.82 143.494 119.991C143.555 120.082 143.62 120.167 143.711 120.293C143.832 120.137 143.939 120.017 144.03 119.884C146.442 116.337 148.851 112.79 151.26 109.24C152.508 107.397 151.962 105.648 149.862 104.845C149.365 104.657 148.822 104.562 148.289 104.491C147.947 104.445 147.788 104.358 147.811 103.987C147.84 103.49 147.817 102.992 147.817 102.459H163.753V104.384C162.726 104.494 161.702 104.566 160.694 104.722C157.837 105.157 155.613 106.542 153.981 108.99C151.12 113.288 148.159 117.52 145.226 121.773C145.008 122.088 144.976 122.306 145.204 122.647C149.781 129.542 154.361 136.441 158.896 143.362C159.989 145.026 161.471 145.845 163.415 145.901C164.455 145.93 165.499 145.907 166.578 145.907V147.932H148.155C148.155 147.412 148.129 146.837 148.175 146.265C148.185 146.141 148.445 145.982 148.617 145.943C149.374 145.764 150.148 145.647 150.902 145.455C151.201 145.38 151.481 145.198 151.744 145.026C152.596 144.454 152.707 144.015 152.147 143.17C148.679 137.933 145.197 132.702 141.719 127.471C141.689 127.426 141.65 127.387 141.582 127.302C141.478 127.436 141.384 127.536 141.306 127.65C138.247 132.175 135.191 136.704 132.132 141.229C131.641 141.957 131.205 142.685 131.563 143.615C131.976 144.691 132.792 145.335 133.855 145.667C134.417 145.842 135.015 145.907 135.636 146.027V148.03H124.375C123.549 153.072 122.727 158.085 121.901 163.117H83.3912V161.043C84.1519 161.043 84.8931 161.076 85.6343 161.037C86.5836 160.988 87.5393 160.946 88.4691 160.783C89.6622 160.578 90.1108 159.996 90.1823 158.787C90.205 158.397 90.1985 158.004 90.1985 157.614C90.1985 146.144 90.1985 134.672 90.1985 123.203C90.1985 122.683 90.179 122.159 90.1335 121.639C90.0588 120.787 89.5549 120.245 88.7486 120.092C87.8189 119.913 86.8696 119.819 85.9236 119.757C85.0914 119.702 84.2527 119.747 83.3879 119.747V117.745H88.3065C88.2253 116.909 88.1863 116.132 88.066 115.372C87.7961 113.662 87.5621 111.942 87.1752 110.258C86.4828 107.257 84.4737 105.645 81.4764 105.193C78.5636 104.754 75.6378 104.77 72.7088 104.959C71.8928 105.011 71.4897 105.388 71.3434 106.184C71.2784 106.529 71.2719 106.89 71.2719 107.241C71.2686 119.084 71.2686 130.927 71.2719 142.773C71.2719 144.873 71.7042 145.468 73.7946 145.686C75.7744 145.891 77.7769 145.884 79.7697 145.966C80.1566 145.982 80.5467 145.966 80.9725 145.966V147.939H55.6384L55.6189 147.932Z" fill="#0CC9AB"/>
<path d="M115.672 78.6707H117.336C116.731 84.4118 116.133 90.1138 115.529 95.8451H80.6953V93.8264C80.9001 93.8166 81.1147 93.8036 81.3292 93.7971C82.6133 93.7451 83.9007 93.7093 85.1848 93.6378C85.5326 93.6183 85.8837 93.5143 86.2186 93.4102C87.002 93.1697 87.4116 92.6105 87.4637 91.801C87.4962 91.2809 87.5092 90.7575 87.5092 90.2341C87.5092 78.765 87.5092 67.2926 87.5092 55.8235C87.5092 55.3749 87.4994 54.9295 87.4767 54.4809C87.4149 53.3561 86.9955 52.7676 85.874 52.5856C84.7004 52.397 83.5008 52.3613 82.3143 52.2833C81.7974 52.2508 81.274 52.2768 80.7051 52.2768V50.375H102.024C102.024 50.6286 102.024 50.9407 102.024 51.2527C102.024 51.5648 102.024 51.8802 102.024 52.2768C101.729 52.2768 101.475 52.267 101.225 52.2768C99.3619 52.3645 97.4926 52.371 95.6429 52.5791C93.9817 52.7644 93.5071 53.4211 93.5071 55.0823C93.5038 67.2438 93.5071 79.4054 93.5071 91.5637C93.5071 91.7685 93.5071 91.9733 93.5233 92.1781C93.6046 93.0916 93.9362 93.472 94.8367 93.6573C95.0902 93.7093 95.3536 93.7516 95.6104 93.7516C98.3736 93.7516 101.137 93.8166 103.897 93.7158C106.277 93.628 108.539 93.0104 110.519 91.5995C112.814 89.961 114.046 87.6237 114.657 84.9644C115.077 83.1374 115.281 81.2584 115.577 79.4022C115.616 79.1648 115.636 78.9243 115.668 78.6707H115.672Z" fill="#00FFFF"/>
<path d="M132.477 80.8166V82.4161H119.311V80.8264C120.01 80.7678 120.709 80.7223 121.408 80.6476C121.665 80.6216 121.922 80.5565 122.166 80.4688C123.06 80.1534 123.258 79.669 122.907 78.7848C122.042 76.6035 121.184 74.4221 120.329 72.2375C120.231 71.9872 120.16 71.7889 119.805 71.7922C115.55 71.8084 111.295 71.8019 107.039 71.8052C106.984 71.8052 106.929 71.8214 106.825 71.8409C106.051 73.8305 105.238 75.833 104.5 77.8616C104.123 78.9018 104.549 79.8478 105.583 80.3095C106.23 80.5988 106.958 80.7126 107.702 80.9206V82.4161H97.3516V80.8199C97.8002 80.7776 98.2586 80.7418 98.7137 80.6866C100.765 80.4493 102.082 79.3602 102.836 77.4162C105.667 70.1472 108.557 62.9042 111.421 55.6482C112.172 53.7432 112.933 51.8415 113.665 49.9299C113.895 49.3285 114.324 49.1237 114.923 49.1172C115.514 49.114 115.882 49.361 116.109 49.9299C119.932 59.6078 123.781 69.2792 127.585 78.9636C128.004 80.0332 128.641 80.6378 129.779 80.6963C130.667 80.7418 131.557 80.7776 132.474 80.8199L132.477 80.8166ZM113.508 54.9591C111.493 60.0727 109.526 65.0661 107.546 70.0887H119.474C117.491 65.0563 115.527 60.076 113.508 54.9591Z" fill="#00FFFF"/>
</svg>
