<svg width="213" height="213" viewBox="0 0 213 213" fill="none" xmlns="http://www.w3.org/2000/svg">
<rect x="0.46875" width="212.235" height="212.235" rx="106.118" fill="#0E425E"/>
<path d="M106.585 59.3802C80.8138 59.3802 59.8478 80.3468 59.8478 106.118C59.8478 131.139 79.613 151.63 104.35 152.801C104.433 152.817 104.515 152.839 104.597 152.853L104.605 152.811C105.262 152.838 105.921 152.856 106.586 152.856C132.357 152.856 153.323 131.889 153.323 106.118C153.323 80.3475 132.356 59.3802 106.585 59.3802ZM147.255 106.348L147.471 106.343C147.464 107.516 147.408 108.677 147.303 109.826L146.496 109.405C145.197 111.896 142.318 114.315 138.172 116.401L140.8 121.627C142.412 120.825 143.962 119.903 145.435 118.868C143.413 124.981 139.983 130.533 135.42 135.076C130.858 139.62 125.291 143.027 119.169 145.022C119.86 144.025 120.497 142.991 121.077 141.925L115.942 139.123C113.729 143.179 111.212 145.827 108.661 146.783L108.724 146.949C108.016 146.986 107.303 147.005 106.586 147.005C106.084 147.005 105.585 146.992 105.088 146.976C102.649 146.326 100.206 144.092 97.9894 140.475L92.9992 143.53C93.3154 144.046 93.64 144.535 93.9693 145.011C87.8548 143.012 82.2952 139.606 77.7383 135.065C73.1815 130.524 69.7548 124.977 67.7344 118.87C68.826 119.645 69.9632 120.354 71.1397 120.993L73.941 115.858C69.8858 113.646 67.2372 111.128 66.2811 108.578L65.7839 108.764C65.7274 107.889 65.6961 107.006 65.6961 106.117C65.6961 105.902 65.7011 105.687 65.7043 105.473L65.9757 105.52C66.4311 102.912 68.7189 100.279 72.5918 97.9059L69.5351 92.9183C68.7908 93.3745 68.0918 93.8466 67.4293 94.3301C69.3833 87.8916 72.8894 82.032 77.6393 77.2665C82.3892 72.501 88.2373 68.9757 94.6693 67.0006C94.3581 67.4133 94.0501 67.8368 93.7491 68.2843L98.6042 71.5483C100.332 68.9787 103.093 65.8971 106.429 65.8109L106.414 65.2306C106.472 65.2306 106.527 65.2283 106.585 65.2283C107.771 65.2283 108.944 65.2821 110.105 65.3815L109.485 66.5701C111.976 67.869 114.396 70.7475 116.481 74.8942L121.707 72.2655C120.793 70.4175 119.717 68.6546 118.49 66.9977C124.926 68.9721 130.778 72.4989 135.531 77.2673C140.283 82.0357 143.791 87.8995 145.744 94.3424C145.433 94.1152 145.112 93.891 144.783 93.6697L141.518 98.5247C144.087 100.251 147.169 103.011 147.255 106.347V106.348Z" fill="#0CC9AB"/>
<path d="M127.716 119.718C128.299 115.333 128.588 110.915 128.583 106.492C128.586 102.505 128.351 98.5219 127.881 94.5629L122.073 95.2613C122.516 98.9886 122.736 102.739 122.732 106.492C122.738 110.654 122.466 114.812 121.919 118.937L127.716 119.718Z" fill="#0CC9AB"/>
<path d="M88.781 125.757L89.6695 121.114C89.4183 121.066 89.1723 121.013 88.9243 120.963L91.465 120.57C90.8386 116.458 90.4924 112.309 90.4288 108.15L84.5793 108.248C84.6428 112.243 84.9496 116.23 85.4977 120.187C82.9038 119.544 80.3584 118.719 77.8804 117.718L75.662 123.13C79.2074 124.556 82.8704 125.669 86.6093 126.457C87.5114 130.792 88.867 135.019 90.6534 139.07L95.9815 136.655C94.3372 132.915 93.0959 129.011 92.2787 125.008L88.781 125.757Z" fill="#0CC9AB"/>
<path d="M85.4987 92.7974C85.0088 96.3237 84.7119 99.8742 84.6093 103.433L90.4564 103.605C90.5713 99.4497 90.9734 95.307 91.6597 91.2069L87.7022 90.5342L86.8338 86.4758C82.4213 87.3805 78.1178 88.7531 73.9963 90.5705L76.4109 95.8985C79.3429 94.599 82.384 93.5613 85.4987 92.7974Z" fill="#0CC9AB"/>
<path d="M122.278 121.334L122.69 123.683L121.195 123.397C120.456 127.429 119.318 131.377 117.799 135.184L123.212 137.403C124.637 133.858 125.75 130.195 126.538 126.456C129.839 125.755 133.082 124.807 136.241 123.621L134.157 118.155C130.307 119.587 126.329 120.652 122.278 121.334Z" fill="#0CC9AB"/>
<path d="M127.054 89.1131C126.312 84.9238 125.191 80.8107 123.705 76.8242L118.239 78.9078C119.041 81.0364 119.719 83.2098 120.27 85.4171C116.743 84.9272 113.192 84.6303 109.633 84.5277L109.461 90.3748C113.617 90.4895 117.759 90.8916 121.859 91.578L122.012 90.6825L126.889 89.8273L126.279 92.4613C130.257 93.3374 134.123 94.6594 137.805 96.4021L140.376 91.1481C136.295 89.2098 132.009 87.7387 127.598 86.7627L127.054 89.1131Z" fill="#0CC9AB"/>
<path d="M117.804 121.992C114.077 122.435 110.326 122.655 106.573 122.652C102.411 122.657 98.2536 122.385 94.1279 121.838L93.3476 127.635C97.732 128.217 102.15 128.506 106.573 128.501C110.56 128.504 114.543 128.27 118.502 127.799L117.804 121.992Z" fill="#0CC9AB"/>
<path d="M92.4961 91.3819C96.608 90.7555 100.758 90.4093 104.917 90.3457L104.818 84.4962C100.823 84.5598 96.8357 84.8666 92.8781 85.4148C93.7283 81.9154 94.9368 78.5128 96.4843 75.261L91.2302 72.6895C89.2918 76.7699 87.8207 81.0562 86.8446 85.4669L91.7582 86.6046L92.4961 91.3819Z" fill="#0CC9AB"/>
<path d="M106.585 46.1172C73.5014 46.1172 46.5859 73.0331 46.5859 106.117C46.5859 139.2 73.5014 166.116 106.585 166.116C139.669 166.116 166.586 139.2 166.586 106.118C166.586 73.0351 139.669 46.1172 106.585 46.1172ZM106.585 160.267C76.7269 160.267 52.4354 135.975 52.4354 106.117C52.4354 76.2582 76.7269 51.9667 106.585 51.9667C136.444 51.9667 160.736 76.2582 160.736 106.118C160.736 135.977 136.443 160.267 106.585 160.267Z" fill="#C5FFF6"/>
</svg>
