<svg width="214" height="213" viewBox="0 0 214 213" fill="none" xmlns="http://www.w3.org/2000/svg">
<rect x="0.875" width="212.235" height="212.235" rx="106.118" fill="#0E425E"/>
<path d="M121.413 79.3207C118.987 77.2561 114.203 73.5377 111.08 73.5377C106.553 73.5377 97.4416 79.1251 99.9686 81.5624C99.9686 81.5624 104.907 86.9124 107.582 87.7354C107.731 87.7775 107.886 87.7974 108.041 87.7945C110.553 87.7945 117.38 83.8516 120.8 81.7777C121.827 81.1545 122.328 80.0996 121.413 79.3207Z" fill="#C5FFF6"/>
<path d="M151.347 131.587C151.209 130.718 150.845 129.9 150.291 129.216C150.155 124.461 149.706 119.552 149.165 114.863C148.16 106.121 141.795 96.5199 137.149 89.5096C135.299 86.7186 133.386 83.8329 132.918 82.5453C131.502 78.6511 129.944 66.7523 129.453 62.4167C129.11 59.385 128.044 56.48 126.346 53.9455C123.764 50.1151 118.594 45.6464 108.615 46.089C103.278 46.3283 96.1764 48.6674 92.6549 58.4536C90.5543 64.2907 90.3687 71.0532 90.2462 75.5277C90.2157 76.6549 90.189 77.6282 90.1383 78.3843C89.9485 81.2341 88.865 83.7993 86.4911 89.4196C83.8795 95.6046 79.9327 104.948 74.2518 121.629C74.0288 122.283 73.8219 122.928 73.6267 123.567C70.8848 124.432 68.1066 126.32 65.3856 128.167C64.0025 129.108 61.912 130.529 61.2026 130.725C60.4767 130.903 59.7963 131.231 59.2058 131.689C58.6153 132.147 58.1281 132.725 57.7758 133.384C54.6674 138.953 59.3993 154.079 59.4492 154.229C60.2656 156.678 62.8049 157.912 66.9152 159.215C69.4747 160.027 72.9274 160.913 77.1769 161.849C84.3125 163.42 91.1944 164.588 91.484 164.637L91.6618 164.663C92.134 164.72 92.6093 164.75 93.0851 164.75C96.367 164.75 99.7286 163.325 100.582 159.244C100.639 158.969 100.681 158.691 100.709 158.412C104.778 158.594 111.028 158.817 117.463 158.827C117.318 162.905 119.713 165.12 122.243 165.853C123.053 166.076 123.89 166.185 124.731 166.175C128.867 166.175 134.763 163.988 142.316 159.646C145.431 157.866 148.441 155.906 151.329 153.777C155.421 150.719 156.385 149.257 156.818 148.133C158.347 144.157 155.691 139.535 153.347 135.456C152.606 134.167 151.485 132.219 151.347 131.587ZM92.6757 156.999C82.1875 155.221 69.7646 152.466 66.4923 150.845C65.3883 147.047 64.2027 140.37 64.4436 137.754C66.0621 137.058 67.7954 135.878 69.7306 134.563C71.4218 133.413 74.8255 131.099 76.2948 130.84C77.8306 132.084 82.1079 136.874 86.4409 143.408C91.5207 151.07 92.8543 155.382 93.0217 157.027C92.9208 157.022 92.8048 157.013 92.6757 156.999ZM121.255 143.944C120.493 146.478 119.792 148.978 119.218 151.091C112.496 151.121 105.175 150.904 99.1835 150.603C97.7844 147.071 95.4576 142.91 92.203 138.119C90.9629 136.295 85.5479 128.5 81.2888 124.989C81.3823 124.7 81.4697 124.415 81.5698 124.121C87.1622 107.702 91.0444 98.5099 93.6131 92.4278C96.1687 86.3781 97.5762 83.0451 97.8526 78.8981C97.9133 77.9908 97.9419 76.9471 97.9747 75.7387C98.3377 62.4893 100.302 54.1995 108.961 53.8118C113.983 53.5868 117.62 55.0128 119.785 58.0489C120.827 59.5436 121.5 61.2634 121.75 63.068L121.765 63.2249C121.953 64.896 123.659 79.7091 125.653 85.1867C126.435 87.3375 128.32 90.1807 130.705 93.7799C134.918 100.139 140.691 108.847 141.485 115.747C141.956 119.831 142.257 123.428 142.42 126.601C136.57 126.495 129.751 128.073 129.653 128.098C126.938 128.781 125.08 131.231 121.256 143.944H121.255ZM137.667 153.397C130.935 157.175 126.998 158.255 125.285 158.436C127.587 149.193 130.888 138.342 132.552 135.367C135.97 134.668 141.742 134.08 144.144 134.411C144.843 136.109 145.678 137.747 146.643 139.308C147.522 140.838 149.272 143.881 149.513 145.261C148.157 146.622 143.632 150.05 137.667 153.397Z" fill="#0CC9AB"/>
</svg>
