<svg width="213" height="213" viewBox="0 0 213 213" fill="none" xmlns="http://www.w3.org/2000/svg">
<rect x="0.171875" y="0.34375" width="212.235" height="212.235" rx="106.118" fill="#0E425E"/>
<path d="M153.519 89.1438C152.745 89.0182 151.958 88.8909 151.162 88.7684C150.486 87.0411 149.813 85.4193 149.131 83.8779C149.604 83.2703 150.069 82.6668 150.527 82.0699C150.947 81.5228 151.371 80.9722 151.801 80.4181L155.652 75.4653L142.135 62.6473L137.44 66.2925C136.911 66.7039 136.382 67.107 135.858 67.5073C135.27 67.9572 134.671 68.4128 134.07 68.8813C132.459 68.0934 130.809 67.3889 129.125 66.7707C129.014 65.9101 128.888 65.0731 128.764 64.2514C128.671 63.6337 128.583 63.0507 128.503 62.4736L127.682 56.4955H117.02C117.916 58.7006 118.439 61.0392 118.567 63.4157H121.646C121.929 65.4769 122.306 67.5392 122.47 69.618C122.608 71.3456 123.219 72.1806 125.046 72.7141C127.858 73.5352 130.559 74.8286 133.18 76.1698C133.652 76.4443 134.183 76.603 134.728 76.6327C135.336 76.6061 135.914 76.3561 136.35 75.9306C138.056 74.4933 139.861 73.174 141.684 71.7577L146.337 76.1694C144.845 78.0877 143.44 79.972 141.946 81.7827C141.206 82.6796 141.267 83.3592 141.768 84.4176C143.167 87.3732 144.408 90.4116 145.553 93.4765C145.952 94.5443 146.418 95.1076 147.568 95.2505C149.849 95.5332 152.115 95.9374 154.476 96.3052V102.674C152.231 102.988 149.978 103.362 147.713 103.601C146.323 103.747 145.806 104.412 145.355 105.741C144.346 108.652 143.152 111.496 141.781 114.255C141.202 115.436 141.094 116.232 141.969 117.251C143.427 118.95 144.771 120.744 146.104 122.42L141.425 126.949C139.923 125.813 138.063 124.48 136.292 123.039C136.034 122.819 135.737 122.648 135.417 122.535C133.829 120.694 132.045 119.03 130.098 117.574C133.148 115.633 135.657 112.952 137.393 109.781C139.128 106.61 140.033 103.051 140.023 99.4356C140.028 96.6181 139.477 93.8273 138.403 91.2226C137.328 88.618 135.752 86.2505 133.762 84.2555C131.772 82.2605 129.409 80.6771 126.808 79.5957C124.206 78.5143 121.417 77.9561 118.599 77.9531V84.8733C120.503 84.8737 122.388 85.2495 124.146 85.979C125.904 86.7086 127.502 87.7777 128.846 89.1251C130.202 90.4772 131.276 92.0847 132.007 93.8545C132.737 95.6244 133.11 97.5216 133.102 99.4363C133.111 101.352 132.741 103.251 132.011 105.023C131.282 106.794 130.208 108.404 128.853 109.758C127.148 111.469 125.04 112.725 122.724 113.41C121.38 112.863 120.002 112.405 118.599 112.039C116.335 111.452 114.015 111.106 111.679 111.008C111.202 110.987 110.723 110.975 110.241 110.975C101.643 110.969 93.379 114.306 87.1968 120.282C85.6328 121.789 84.2191 123.444 82.9755 125.224C79.7105 129.889 77.7067 135.318 77.1584 140.985C77.0546 142.048 77.0013 143.124 77.0013 144.213C77.0008 146.167 77.1723 148.118 77.5137 150.042C78.8927 157.721 82.9246 164.672 88.9058 169.681C94.8869 174.691 102.437 177.44 110.239 177.45C119.051 177.44 127.5 173.935 133.731 167.704C139.962 161.473 143.467 153.025 143.477 144.213C143.478 141.329 143.104 138.458 142.363 135.672L155.422 123.029L151.52 118.116C151.142 117.639 150.762 117.152 150.379 116.661C149.954 116.116 149.523 115.564 149.08 115.007C149.847 113.331 150.524 111.72 151.119 110.151C151.921 110.041 152.711 109.924 153.488 109.809C154.138 109.713 154.787 109.617 155.435 109.526L161.395 108.69V90.3787L155.539 89.4666C154.86 89.3612 154.186 89.2536 153.519 89.1438ZM110.243 170.53C103.265 170.522 96.5757 167.747 91.6419 162.813C86.7081 157.879 83.9329 151.19 83.925 144.213C83.9328 137.235 86.708 130.546 91.6418 125.612C96.5757 120.678 103.265 117.902 110.243 117.895C117.22 117.902 123.91 120.678 128.843 125.612C133.777 130.546 136.552 137.235 136.56 144.213C136.552 151.19 133.777 157.879 128.843 162.813C123.91 167.747 117.22 170.522 110.243 170.53Z" fill="#0CC9AB"/>
<path d="M74.8501 110.054L68.1081 110.049V90.2894H80.8285V83.3692H68.1081V78.7599C68.1172 71.8413 70.6072 65.1554 75.1259 59.9162C79.6445 54.677 85.8922 51.232 92.7345 50.2067V59.7089C92.5836 61.0269 91.5393 66.1928 84.4765 66.1928V73.1131C95.7361 73.1131 99.3225 64.6195 99.6456 60.1286L99.6529 50.141C103.028 50.7702 106.078 52.5592 108.274 55.1986C110.47 57.8381 111.674 61.162 111.679 64.5956V78.2008C101.274 78.7281 97.908 86.8137 97.5966 91.1572L97.5876 103.828H104.508V91.5766C104.651 90.3309 105.597 85.6404 111.68 85.1408V111.009C114.017 111.107 116.337 111.453 118.601 112.04V64.596C118.601 64.1998 118.588 63.8067 118.566 63.4161C118.438 61.0395 117.915 58.7009 117.019 56.4958C115.402 52.5039 112.631 49.085 109.061 46.6761C105.49 44.2672 101.283 42.9778 96.9755 42.9727C87.4872 42.9833 78.3906 46.7572 71.6814 53.4663C64.9721 60.1755 61.1982 69.272 61.1875 78.7603V120.021C61.1898 125.99 62.6849 131.863 65.5368 137.107C68.3887 142.35 72.5068 146.797 77.5161 150.042C77.1746 148.118 77.0032 146.167 77.0037 144.213C77.0037 143.124 77.058 142.048 77.1608 140.985C74.3015 138.293 72.0232 135.045 70.4663 131.439C68.9094 127.834 68.1067 123.948 68.1077 120.021V116.966H74.43C75.748 117.116 80.9136 118.161 80.9136 125.224H82.978C84.2215 123.444 85.6353 121.789 87.1993 120.282C85.1505 112.878 78.6047 110.324 74.8501 110.054Z" fill="#C5FFF6"/>
<path d="M124.596 140.013C124.54 139.84 124.43 139.688 124.282 139.581C124.134 139.473 123.956 139.415 123.774 139.415H113.982L110.956 130.103C110.899 129.929 110.789 129.778 110.641 129.67C110.494 129.563 110.316 129.505 110.133 129.505C109.95 129.505 109.772 129.563 109.625 129.67C109.477 129.778 109.367 129.929 109.31 130.103L106.284 139.415H96.4921C96.3094 139.415 96.1314 139.473 95.9835 139.581C95.8357 139.688 95.7257 139.84 95.6693 140.013C95.6124 140.187 95.6122 140.375 95.6686 140.549C95.7251 140.723 95.8353 140.875 95.9835 140.982L103.907 146.738L100.881 156.05C100.825 156.224 100.825 156.411 100.881 156.585C100.938 156.759 101.048 156.91 101.196 157.017C101.343 157.125 101.521 157.183 101.704 157.183C101.887 157.183 102.065 157.125 102.212 157.017L110.136 151.262L118.06 157.017C118.207 157.125 118.385 157.183 118.568 157.183C118.751 157.183 118.929 157.125 119.077 157.017C119.224 156.91 119.334 156.759 119.391 156.585C119.447 156.411 119.447 156.224 119.391 156.05L116.365 146.738L124.289 140.982C124.436 140.874 124.544 140.722 124.6 140.548C124.655 140.374 124.654 140.187 124.596 140.013Z" fill="#00FFFF"/>
</svg>
