<svg width="213" height="214" viewBox="0 0 213 214" fill="none" xmlns="http://www.w3.org/2000/svg">
<rect x="0.40625" y="0.875" width="212.235" height="212.235" rx="106.118" fill="#0E425E"/>
<path d="M159.023 139.189L162.673 135.539V65.5388L159.023 61.8887H54.0221L50.372 65.5388V135.539L54.0221 139.189H159.023ZM57.6722 69.1888H155.373V131.889H57.6722V69.1888Z" fill="#0CC9AB"/>
<path d="M171.523 144.795H41.5234V152.095H171.523V144.795Z" fill="#0CC9AB"/>
<path d="M76.0028 92.7992H80.8596V116.104H88.4346V86.3827H76.0025L76.0028 92.7992Z" fill="#C5FFF6"/>
<path d="M110.688 90.5946H103.248V97.4568H96.3859V104.495H103.248V111.357H110.688V104.495H117.55V97.4568H110.688V90.5946Z" fill="#00FFFF"/>
<path d="M122.787 92.7992H127.643V116.104H135.219V86.3827H122.786L122.787 92.7992Z" fill="#C5FFF6"/>
</svg>
