<svg width="213" height="214" viewBox="0 0 213 214" fill="none" xmlns="http://www.w3.org/2000/svg">
<rect y="0.875" width="212.235" height="212.235" rx="106.118" fill="#0E425E"/>
<path d="M164.058 83.3337H139.563L135.977 79.7477V54.8145H143.149V76.1618H164.058V83.3337Z" fill="#0CC9AB"/>
<path d="M164.067 139.619H97.3282L93.7422 136.033V54.8145L97.3282 51.2285H139.56L142.117 52.3007L166.624 77.2125L167.653 79.7263V136.033L164.067 139.619ZM100.914 132.447H160.481V81.1929L138.058 58.4005H100.914V132.447V132.447Z" fill="#0CC9AB"/>
<path d="M122.064 92.1582H114.035V99.3158H122.064V92.1582Z" fill="#0CC9AB"/>
<path d="M150.203 92.1582H126.668V99.3158H150.203V92.1582Z" fill="#0CC9AB"/>
<path d="M129.681 110.977H150.203V103.819H129.681V110.977Z" fill="#0CC9AB"/>
<path d="M114.036 110.977H137.57V103.819H114.036V110.977Z" fill="#0CC9AB"/>
<path d="M127.952 123.02H150.203V115.862H127.952V123.02Z" fill="#0CC9AB"/>
<path d="M114.033 123.02H129.672V115.862H114.033V123.02Z" fill="#0CC9AB"/>
<path d="M124.27 69.8594H48.168V145.961H124.27V69.8594Z" fill="#0E425E"/>
<path d="M124.27 149.551H48.168L44.582 145.965V69.8594L48.168 66.2734H124.27L127.856 69.8594V145.961L124.27 149.547V149.551ZM51.754 142.379H120.684V73.4454H51.754V142.375V142.379Z" fill="#0CC9AB"/>
<path d="M124.358 86.4082H47.3203V93.5802H124.358V86.4082Z" fill="#0CC9AB"/>
<path d="M58.5887 82.7517C60.2622 82.7517 61.6189 81.3951 61.6189 79.7216C61.6189 78.048 60.2622 76.6914 58.5887 76.6914C56.9152 76.6914 55.5586 78.048 55.5586 79.7216C55.5586 81.3951 56.9152 82.7517 58.5887 82.7517Z" fill="#00FFFF"/>
<path d="M70.6708 82.7517C72.3443 82.7517 73.7009 81.3951 73.7009 79.7216C73.7009 78.048 72.3443 76.6914 70.6708 76.6914C68.9973 76.6914 67.6406 78.048 67.6406 79.7216C67.6406 81.3951 68.9973 82.7517 70.6708 82.7517Z" fill="#00FFFF"/>
<path d="M82.7567 82.7517C84.4302 82.7517 85.7869 81.3951 85.7869 79.7216C85.7869 78.048 84.4302 76.6914 82.7567 76.6914C81.0832 76.6914 79.7266 78.048 79.7266 79.7216C79.7266 81.3951 81.0832 82.7517 82.7567 82.7517Z" fill="#00FFFF"/>
<path d="M80.3633 133.62C79.7429 133.62 79.1262 133.458 78.5703 133.139C77.4623 132.497 76.7773 131.314 76.7773 130.034V106.237C76.7773 104.957 77.4623 103.774 78.5703 103.132C79.6784 102.49 81.0482 102.49 82.1563 103.132L102.765 115.03C103.873 115.672 104.558 116.855 104.558 118.136C104.558 119.416 103.873 120.599 102.765 121.241L82.1563 133.139C81.6005 133.458 80.9837 133.62 80.3633 133.62ZM83.9493 112.448V123.823L93.8 118.136L83.9493 112.448V112.448Z" fill="#00FFFF"/>
<path d="M115.009 134.304L109.938 139.375L145.82 175.257L150.891 170.186L115.009 134.304Z" fill="#C5FFF6"/>
<path d="M112.469 160.893C125.754 160.893 136.524 150.123 136.524 136.838C136.524 123.553 125.754 112.783 112.469 112.783C99.1837 112.783 88.4141 123.553 88.4141 136.838C88.4141 150.123 99.1837 160.893 112.469 160.893Z" fill="#0E425E"/>
<path d="M112.469 164.479C97.2284 164.479 84.8281 152.078 84.8281 136.838C84.8281 121.598 97.2284 109.197 112.469 109.197C127.709 109.197 140.11 121.598 140.11 136.838C140.11 152.078 127.709 164.479 112.469 164.479ZM112.469 116.366C101.18 116.366 92.0001 125.549 92.0001 136.834C92.0001 148.119 101.184 157.303 112.469 157.303C123.754 157.303 132.938 148.119 132.938 136.834C132.938 125.549 123.754 116.366 112.469 116.366Z" fill="#C5FFF6"/>
</svg>
