<svg width="213" height="213" viewBox="0 0 213 213" fill="none" xmlns="http://www.w3.org/2000/svg">
<rect width="212.235" height="212.235" rx="106.118" fill="#0E425E"/>
<path d="M120.745 148.161C120.338 148.108 119.947 148.056 119.556 148.008C119.242 147.178 118.902 146.36 118.537 145.565C118.797 145.237 119.043 144.915 119.27 144.619C119.395 144.455 119.515 144.297 119.63 144.149L120.516 143.004L116.927 139.153L115.697 140.107C115.52 140.243 115.341 140.379 115.164 140.516C114.857 140.749 114.543 140.989 114.23 141.24C113.751 141.021 113.274 140.828 112.809 140.642C112.453 140.499 112.113 140.362 111.784 140.218C111.716 139.839 111.667 139.441 111.614 139.025C111.584 138.787 111.553 138.545 111.519 138.304L111.315 136.839H106.146L105.923 138.283C105.886 138.522 105.848 138.758 105.81 138.99C105.746 139.379 105.681 139.776 105.626 140.18C104.757 140.5 103.953 140.83 103.184 141.184C102.852 140.925 102.522 140.679 102.199 140.439C102.024 140.309 101.851 140.18 101.683 140.053L100.511 139.167L96.7698 142.835L97.7189 144.037C97.8552 144.207 97.9878 144.382 98.1214 144.555C98.3651 144.872 98.6148 145.196 98.883 145.519C98.4839 146.31 98.1404 147.128 97.8552 147.968C97.4306 148.019 97.0172 148.08 96.614 148.138C96.3949 148.17 96.1765 148.202 95.9594 148.232L94.489 148.436V153.605L95.9346 153.826C96.1732 153.863 96.4053 153.901 96.6366 153.938C97.0279 154.001 97.4285 154.067 97.8347 154.122C98.1455 154.972 98.4823 155.792 98.8378 156.565C98.5771 156.9 98.332 157.23 98.1084 157.531C97.9888 157.691 97.8739 157.846 97.7645 157.991L96.8836 159.155L100.551 162.943L101.76 161.982C101.928 161.849 102.101 161.715 102.274 161.579C102.571 161.347 102.876 161.109 103.182 160.859C104.038 161.266 104.841 161.603 105.616 161.882C105.669 162.302 105.73 162.715 105.79 163.118C105.824 163.346 105.858 163.574 105.889 163.8L106.094 165.265H111.252L111.476 163.824C111.513 163.585 111.552 163.347 111.59 163.114C111.655 162.716 111.721 162.308 111.78 161.897C112.666 161.558 113.47 161.223 114.221 160.881C114.541 161.135 114.864 161.383 115.179 161.625C115.371 161.773 115.564 161.922 115.758 162.072L116.978 163.021L120.583 159.217L119.686 158.062C119.541 157.875 119.398 157.69 119.258 157.505C119.017 157.189 118.77 156.865 118.512 156.544C118.921 155.751 119.268 154.929 119.553 154.085C119.999 154.038 120.43 153.973 120.848 153.91C121.057 153.878 121.266 153.846 121.475 153.818L122.947 153.615V148.446L121.461 148.255C121.221 148.224 120.981 148.192 120.745 148.161ZM113.522 155.86C112.891 156.494 112.14 156.997 111.313 157.338C110.486 157.68 109.6 157.854 108.705 157.851C106.901 157.849 105.172 157.131 103.896 155.856C102.62 154.581 101.902 152.852 101.899 151.048C101.901 149.243 102.619 147.514 103.894 146.237C105.169 144.961 106.898 144.243 108.702 144.239C110.506 144.241 112.236 144.959 113.512 146.234C114.789 147.509 115.507 149.238 115.51 151.042C115.514 151.937 115.341 152.824 114.999 153.651C114.658 154.478 114.156 155.229 113.522 155.86Z" fill="#C5FFF6"/>
<path d="M73.2734 101.812L80.1643 98.4127V94.0984L68.2434 100.141V103.431L80.1708 109.477L80.1368 105.209L73.2734 101.812Z" fill="#00FFFF"/>
<path d="M86.7773 93.8368L81.7469 109.91H85.7682L90.7984 93.8368H86.7773Z" fill="#00FFFF"/>
<path d="M99.4082 101.785L92.5171 105.185V109.473L104.438 103.457V100.142L92.5108 94.0951L92.5448 98.389L99.4082 101.785Z" fill="#00FFFF"/>
<path d="M137.082 53.6172C130.324 53.6131 123.815 56.1666 118.863 60.7645V58.565L115.456 55.1572H56.7047L53.2969 58.565V140.535L56.7047 143.943H82.0664C81.4498 146.256 81.1379 148.64 81.1382 151.034C81.1466 158.347 84.0554 165.358 89.2266 170.529C94.3978 175.7 101.409 178.609 108.722 178.617C116.035 178.609 123.046 175.7 128.218 170.529C133.389 165.358 136.298 158.347 136.306 151.034C136.306 148.619 135.988 146.215 135.361 143.883H157.772L161.068 139.61L153.29 109.978C156.507 107.544 159.134 104.416 160.975 100.826C162.816 97.2366 163.823 93.278 163.923 89.245L163.939 89.2245V79.8306L163.923 79.8098C163.743 72.8075 160.837 66.152 155.824 61.2599C150.811 56.3679 144.086 53.6257 137.082 53.6172ZM137.082 60.4328C141.528 60.4386 145.847 61.9203 149.36 64.6454C152.874 67.3706 155.383 71.185 156.495 75.4903L138.019 71.5689L136.618 71.5662L117.664 75.5108C118.772 71.201 121.28 67.3813 124.795 64.6521C128.31 61.9229 132.632 60.4387 137.082 60.4328ZM60.1109 137.127V61.9729H74.3964L74.4349 68.6283L97.7632 68.492L97.7254 61.9711H112.048V70.7657C110.926 73.6523 110.315 76.712 110.242 79.808L110.225 79.8288V89.2228L110.242 89.2436C110.315 92.3395 110.926 95.3992 112.048 98.2856V123.655C110.944 123.519 109.833 123.45 108.72 123.448C103.904 123.451 99.1714 124.715 94.9948 127.115C90.8182 129.515 87.3424 132.966 84.9133 137.125L60.1109 137.127ZM108.72 171.802C103.214 171.795 97.9355 169.605 94.042 165.712C90.1486 161.818 87.9583 156.54 87.952 151.034C87.9582 145.527 90.1484 140.248 94.0418 136.355C97.9353 132.461 103.214 130.271 108.72 130.265C114.227 130.271 119.506 132.461 123.399 136.355C127.293 140.248 129.483 145.527 129.489 151.034C129.482 156.54 127.292 161.818 123.399 165.712C119.505 169.605 114.227 171.795 108.72 171.802ZM118.863 117.642V108.29C119.506 108.885 120.176 109.448 120.874 109.978L118.863 117.642ZM153.351 137.067H132.492C130.226 133.227 127.069 129.99 123.288 127.627L127.003 113.47C130.202 114.772 133.624 115.44 137.079 115.438C140.534 115.44 143.956 114.772 147.155 113.47L153.351 137.067ZM157.121 88.5804C157.115 93.8937 155.002 98.9878 151.245 102.745C147.488 106.502 142.394 108.615 137.08 108.621C131.767 108.615 126.673 106.502 122.916 102.745C119.159 98.9878 117.045 93.8937 117.039 88.5804V82.6014L137.304 78.3842L157.121 82.5905V88.5804Z" fill="#0CC9AB"/>
</svg>
