<svg width="213" height="213" viewBox="0 0 213 213" fill="none" xmlns="http://www.w3.org/2000/svg">
<rect x="0.46875" y="0.109375" width="212.235" height="212.235" rx="106.118" fill="#0E425E"/>
<path d="M156.529 64.3579C156.529 60.2545 153.761 54.4245 140.573 49.9535C131.442 46.8573 119.369 45.1523 106.579 45.1523C93.7893 45.1523 81.7167 46.8573 72.5851 49.9535C59.3971 54.4245 56.6289 60.2545 56.6289 64.3579C56.6289 64.3778 56.6289 64.3981 56.6289 64.418V133.201C56.6289 137.304 59.3971 143.134 72.5851 147.606C72.9809 147.74 73.3893 147.868 73.7957 147.997C74.714 156.054 78.5626 163.492 84.609 168.895C90.6555 174.299 98.4776 177.291 106.587 177.302C114.697 177.291 122.52 174.298 128.567 168.894C134.613 163.489 138.462 156.05 139.379 147.991C139.78 147.864 140.183 147.738 140.573 147.606C153.744 143.14 156.522 137.319 156.529 133.216L156.545 133.201V64.418H156.528C156.528 64.3981 156.529 64.3778 156.529 64.3579ZM74.7912 56.4599C83.2306 53.5986 94.52 52.0229 106.579 52.0229C118.638 52.0229 129.928 53.5986 138.367 56.4599C143.988 58.3654 149.659 61.5468 149.659 64.3579C149.659 67.169 143.988 70.3503 138.367 72.2559C129.928 75.1171 118.638 76.6932 106.579 76.6932C94.52 76.6932 83.2306 75.1171 74.7912 72.2559C69.1708 70.3503 63.4994 67.1693 63.4994 64.3579C63.4994 61.5465 69.1708 58.3654 74.7912 56.4599ZM72.5851 78.7627C81.7167 81.8589 93.7893 83.5637 106.579 83.5637C119.369 83.5637 131.442 81.8589 140.573 78.7627C144.441 77.4514 147.406 76.0234 149.674 74.5562V88.2972L149.659 88.3126C149.659 91.1241 143.988 94.3051 138.367 96.2107C129.928 99.0719 118.638 100.648 106.579 100.648C94.52 100.648 83.2306 99.0719 74.7912 96.2107C69.1708 94.3051 63.4994 91.1241 63.4994 88.3126V74.5661C65.7657 76.0299 68.727 77.4545 72.5851 78.7627ZM149.672 110.741L149.657 110.757C149.657 113.568 143.986 116.749 138.365 118.655C135.575 119.585 132.73 120.34 129.846 120.917C123.674 114.756 115.307 111.298 106.586 111.303C97.8641 111.298 89.4968 114.757 83.3245 120.92C80.4358 120.342 77.5857 119.586 74.7909 118.655C69.1704 116.749 63.4991 113.568 63.4991 110.757V98.5209C65.7664 99.9847 68.7266 101.409 72.5848 102.717C81.7164 105.813 93.789 107.519 106.579 107.519C119.369 107.519 131.442 105.813 140.573 102.717C144.44 101.406 147.406 99.9781 149.674 98.5109L149.672 110.741ZM73.7786 140.742C68.5092 138.812 63.4978 135.843 63.4978 133.201V120.965C65.765 122.429 68.7253 123.853 72.5834 125.161C74.4587 125.797 76.4652 126.371 78.5683 126.887C75.9466 131.085 74.3096 135.821 73.7802 140.742H73.7786ZM106.585 170.431C99.6581 170.423 93.0167 167.668 88.1184 162.769C83.2201 157.871 80.4649 151.23 80.457 144.302C80.4649 137.375 83.2201 130.734 88.1184 125.835C93.0167 120.937 99.6581 118.182 106.585 118.174C113.513 118.182 120.154 120.937 125.053 125.835C129.951 130.734 132.706 137.375 132.714 144.302C132.706 151.229 129.951 157.871 125.053 162.769C120.155 167.667 113.514 170.423 106.587 170.431H106.585ZM149.673 133.185L149.657 133.201C149.657 135.841 144.656 138.807 139.392 140.737C138.861 135.817 137.223 131.08 134.6 126.883C136.7 126.368 138.701 125.796 140.572 125.161C144.439 123.85 147.405 122.422 149.673 120.955V133.185Z" fill="#0CC9AB"/>
<path d="M106.309 125.266C106.309 125.266 85.9123 143.73 105.664 161.765L106.001 165.458L107.451 165.452L107.753 161.717C107.753 161.717 127.514 147.312 106.309 125.266ZM103.92 144.674C103.91 141.591 105.015 138.696 106.352 136.326C108.495 139.804 109.456 143.112 109.217 146.212C108.994 148.584 108.147 150.855 106.763 152.794C104.865 150.154 103.929 147.47 103.92 144.674Z" fill="#00FFFF"/>
</svg>
