<svg width="214" height="213" viewBox="0 0 214 213" fill="none" xmlns="http://www.w3.org/2000/svg">
<rect x="0.9375" width="212.235" height="212.235" rx="106.118" fill="#0E425E"/>
<path d="M107.055 46.0098C81.347 46.0098 59.367 62.263 50.842 85.0316H50.8094V85.1176C48.3201 91.8015 47.0485 98.8773 47.0547 106.01C47.0547 138.114 72.4009 164.408 104.134 165.937C105.091 166.129 106.065 166.226 107.041 166.227C108.014 166.226 108.985 166.13 109.94 165.939C141.689 164.428 167.055 138.126 167.055 106.01C167.055 72.9255 140.139 46.0098 107.055 46.0098ZM159.545 106.009C159.548 110.448 158.987 114.87 157.874 119.167H134.677C135.081 115.047 135.296 110.805 135.296 106.491C135.298 101.831 135.05 97.174 134.551 92.5406H157.791C158.958 96.9351 159.548 101.463 159.545 106.01L159.545 106.009ZM155.166 85.0312H133.487C132.218 77.7848 130.305 71.1145 127.804 65.4007C126.355 61.994 124.516 58.7673 122.322 55.7854C129.578 58.0103 136.269 61.7749 141.937 66.8223C147.606 71.8696 152.118 78.0808 155.166 85.0316L155.166 85.0312ZM110.809 55.2595C114.448 57.1597 117.998 61.7238 120.924 68.4116C123.185 73.7499 124.841 79.3245 125.861 85.0312H110.809V55.2595ZM103.3 55.2639V85.0312H88.217C91.179 69.3815 97.1624 58.4966 103.3 55.2642L103.3 55.2639ZM91.7516 55.7964C89.5611 58.7753 87.7236 61.9982 86.2762 65.4007C83.776 71.1145 81.8625 77.7855 80.5931 85.0312H58.9431C61.9888 78.0862 66.4962 71.8796 72.1581 66.8345C77.82 61.7895 84.5031 58.0247 91.752 55.7968L91.7516 55.7964ZM54.5637 106.009C54.5615 101.463 55.1513 96.935 56.3182 92.5406H79.5294C79.031 97.174 78.7827 101.831 78.7856 106.491C78.7856 110.805 79 115.047 79.4036 119.167H56.234C55.1224 114.87 54.5613 110.449 54.564 106.01L54.5637 106.009ZM58.8063 126.676H80.3762C81.6393 134.416 83.6292 141.534 86.2755 147.581C87.5322 150.506 89.066 153.305 90.856 155.939C83.7445 153.613 77.2092 149.801 71.6836 144.756C66.1581 139.711 61.7689 133.548 58.8074 126.677L58.8063 126.676ZM110.808 157.702V135.216L106.835 136.864L103.299 135.4V157.74C99.6503 155.848 96.0901 151.277 93.155 144.572C90.8884 139.393 89.1477 133.315 87.9849 126.679H92.0175L91.4918 119.169H86.9454C86.5107 114.958 86.294 110.727 86.2962 106.493C86.2902 101.832 86.5522 97.174 87.0809 92.5428H103.301V103.406H110.81V92.5428H126.996C127.526 97.174 127.79 101.832 127.787 106.493C127.791 110.727 127.576 114.958 127.141 119.169H122.181L121.656 126.679H126.099C123.228 142.985 117.102 154.364 110.809 157.703L110.808 157.702ZM123.216 155.95C125.01 153.313 126.547 150.51 127.806 147.58C130.453 141.535 132.443 134.414 133.706 126.675H155.304C152.34 133.553 147.946 139.721 142.413 144.769C136.881 149.816 130.337 153.628 123.217 155.951L123.216 155.95Z" fill="#0CC9AB"/>
<path d="M121.582 132.143L123.507 104.706H90.6028L92.5286 132.143L107.053 138.165L121.582 132.143ZM99.6982 126.985L98.6607 112.216H115.455L114.417 126.985L107.058 130.037L99.6982 126.985Z" fill="#C5FFF6"/>
</svg>
