<svg width="213" height="213" viewBox="0 0 213 213" fill="none" xmlns="http://www.w3.org/2000/svg">
<rect x="0.171875" width="212.235" height="212.235" rx="106.118" fill="#0E425E"/>
<path d="M87.3106 148.698L82.0157 140.145H79.0426V153.728H82.362L82.2206 145.48L87.4747 153.728H90.4885V140.145H87.1692L87.3106 148.698Z" fill="#C5FFF6"/>
<path d="M107.165 144.217C106.817 143.882 106.405 143.619 105.954 143.444C105.503 143.269 105.021 143.186 104.538 143.199C103.884 143.177 103.237 143.335 102.666 143.654C102.095 143.974 101.623 144.443 101.3 145.012C100.634 143.804 99.65 143.199 98.3471 143.199C97.0978 143.199 96.1679 143.674 95.5572 144.625V143.546H92.6654V153.728H95.72V148.153C95.72 146.738 96.2902 146.03 97.4306 146.03C98.476 146.03 98.9988 146.738 98.9988 148.153V153.728H102.053V148.153C102.053 146.738 102.61 146.03 103.722 146.03C103.945 146.009 104.169 146.048 104.373 146.141C104.576 146.234 104.752 146.379 104.882 146.561C105.113 146.915 105.228 147.493 105.228 148.296V153.727H108.283V148.168C108.305 147.46 108.264 146.751 108.16 146.05C108.035 145.348 107.685 144.705 107.165 144.217Z" fill="#C5FFF6"/>
<path d="M118.142 144.625C117.585 143.661 116.553 143.179 115.046 143.179C114.346 143.155 113.649 143.279 113 143.542C112.351 143.805 111.765 144.202 111.279 144.706C110.301 145.725 109.813 147.035 109.813 148.638C109.813 150.254 110.291 151.564 111.248 152.569C111.73 153.07 112.312 153.463 112.956 153.722C113.6 153.982 114.291 154.103 114.985 154.076C116.614 154.076 117.666 153.594 118.142 152.63V153.73H121.013V143.548H118.142V144.625ZM117.246 150.508C117.008 150.752 116.723 150.943 116.407 151.07C116.091 151.196 115.753 151.255 115.413 151.243C115.076 151.251 114.74 151.189 114.428 151.061C114.116 150.932 113.834 150.74 113.6 150.497C113.36 150.254 113.171 149.965 113.045 149.647C112.919 149.329 112.858 148.989 112.867 148.647C112.858 148.306 112.917 147.967 113.042 147.649C113.166 147.331 113.352 147.041 113.59 146.797C113.822 146.554 114.102 146.362 114.412 146.233C114.723 146.105 115.057 146.042 115.393 146.051C115.734 146.039 116.074 146.099 116.391 146.226C116.708 146.352 116.996 146.543 117.235 146.786C117.474 147.028 117.661 147.316 117.785 147.632C117.909 147.948 117.968 148.287 117.958 148.626C117.971 148.971 117.914 149.316 117.792 149.639C117.67 149.962 117.484 150.258 117.246 150.508Z" fill="#C5FFF6"/>
<path d="M129.144 143.199C127.766 143.199 126.698 143.688 125.942 144.666V143.546H123.029V157.129H126.084V152.791C126.468 153.215 126.941 153.549 127.469 153.771C127.996 153.993 128.566 154.096 129.138 154.074C129.805 154.088 130.466 153.957 131.078 153.692C131.689 153.427 132.236 153.033 132.682 152.537C133.637 151.499 134.149 150.128 134.107 148.718C134.107 147.103 133.644 145.779 132.719 144.747C132.273 144.243 131.722 143.842 131.104 143.575C130.486 143.307 129.817 143.179 129.144 143.199ZM130.321 150.494C130.087 150.737 129.805 150.93 129.493 151.059C129.181 151.188 128.846 151.25 128.508 151.243C128.167 151.249 127.829 151.184 127.515 151.052C127.201 150.919 126.918 150.722 126.685 150.473C126.443 150.226 126.252 149.932 126.125 149.61C125.997 149.287 125.935 148.943 125.943 148.596C125.937 148.259 126 147.923 126.127 147.611C126.255 147.299 126.445 147.016 126.686 146.78C126.919 146.537 127.199 146.346 127.509 146.217C127.819 146.088 128.153 146.025 128.489 146.03C128.829 146.021 129.168 146.083 129.484 146.212C129.799 146.341 130.084 146.534 130.321 146.78C130.562 147.024 130.751 147.314 130.877 147.633C131.003 147.953 131.063 148.294 131.054 148.637C131.063 148.98 131.003 149.321 130.877 149.64C130.751 149.959 130.561 150.25 130.321 150.494Z" fill="#C5FFF6"/>
<path d="M164.328 99.403C164.063 99.1035 157.728 91.9832 147.452 84.7877C133.734 75.1825 119.5 70.1055 106.29 70.1055C93.0792 70.1055 78.8451 75.1825 65.1271 84.7877C54.8509 91.9832 48.5161 99.1035 48.2513 99.403L46.5977 101.276L48.2516 103.148C48.5161 103.448 54.8509 110.568 65.1271 117.763C78.8448 127.369 93.0792 132.446 106.29 132.446C119.5 132.446 133.734 127.369 147.452 117.763C157.728 110.568 164.063 103.448 164.328 103.148L165.982 101.276L164.328 99.403ZM68.4855 113.209C63.407 109.656 58.6515 105.663 54.2741 101.276C58.6514 96.888 63.407 92.8947 68.4855 89.342C72.837 86.2863 77.4569 83.6317 82.2882 81.4109C77.6497 86.9907 75.1133 94.0197 75.1201 101.276C75.1133 108.532 77.6498 115.561 82.2885 121.14C77.457 118.92 72.837 116.265 68.4855 113.209ZM106.29 126.789C106.047 126.789 105.806 126.782 105.565 126.778C98.9292 126.582 92.6305 123.81 88.0033 119.049C83.3762 114.289 80.7841 107.914 80.7764 101.276C80.7841 94.637 83.3762 88.2622 88.0033 83.5018C92.6305 78.7414 98.9291 75.9695 105.565 75.7733C105.806 75.7696 106.047 75.7623 106.29 75.7623C106.532 75.7623 106.773 75.7696 107.015 75.7733C113.65 75.9696 119.949 78.7415 124.576 83.5019C129.203 88.2623 131.795 94.6371 131.803 101.276C131.795 107.914 129.203 114.289 124.576 119.049C119.949 123.81 113.65 126.582 107.015 126.778C106.773 126.782 106.532 126.789 106.29 126.789ZM144.094 113.209C139.742 116.265 135.122 118.92 130.291 121.14C134.93 115.561 137.466 108.532 137.459 101.276C137.466 94.0197 134.93 86.9907 130.291 81.4109C135.123 83.6317 139.742 86.2863 144.094 89.342C149.172 92.8947 153.928 96.888 158.305 101.276C153.928 105.663 149.172 109.656 144.094 113.209Z" fill="#0CC9AB"/>
<path d="M109.951 115.032C117.548 113.009 122.067 105.211 120.045 97.614C118.022 90.0169 110.224 85.4978 102.627 87.5202C95.03 89.5426 90.5108 97.3407 92.5332 104.938C94.5557 112.535 102.354 117.054 109.951 115.032Z" fill="#C5FFF6"/>
</svg>
