<svg width="213" height="213" viewBox="0 0 213 213" fill="none" xmlns="http://www.w3.org/2000/svg">
<rect x="0.234375" width="212.235" height="212.235" rx="106.118" fill="#0E425E"/>
<path d="M151.817 93.4863L148.63 90.1939H121.57C127.344 85.7083 131.115 78.7694 131.307 70.9563L131.323 70.9371V62.1414L131.307 62.1223C130.975 48.5443 119.834 37.6016 106.18 37.6016C92.5253 37.6016 81.3848 48.5443 81.053 62.1223L81.037 62.1414V70.934L81.053 70.9531C81.2444 78.7694 85.0154 85.7083 90.7898 90.1907H63.7296L60.5393 93.4831L61.2379 115.401H49.5391V121.781H61.4421L62.1376 143.632L65.3279 146.72H85.143C84.5942 148.637 84.2911 150.657 84.2911 152.746C84.2911 164.815 94.1109 174.635 106.18 174.635C118.249 174.635 128.069 164.815 128.069 152.746C128.069 150.657 127.769 148.637 127.217 146.72H147.032L150.219 143.632L150.914 121.781H163.162V115.401H151.119L151.817 93.4831V93.4863ZM106.18 43.9822C114.915 43.9822 122.275 49.9832 124.355 58.077L107.06 54.4049H105.749L88.0047 58.0961C90.0784 49.9895 97.4416 43.979 106.183 43.979L106.18 43.9822ZM87.4177 70.3342V64.7384L106.387 60.7888L124.939 64.7256V70.3342C124.939 80.6804 116.523 89.0964 106.177 89.0964C95.8305 89.0964 87.4145 80.6804 87.4145 70.3342H87.4177ZM106.18 168.258C97.6298 168.258 90.6718 161.3 90.6718 152.75C90.6718 144.199 97.6298 137.241 106.18 137.241C114.73 137.241 121.688 144.199 121.688 152.75C121.688 161.3 114.73 168.258 106.18 168.258ZM124.199 140.342C120.246 134.619 113.645 130.861 106.18 130.861C98.7146 130.861 92.1138 134.619 88.161 140.342H68.4161L67.0252 96.5745H145.338L143.947 140.342H124.199Z" fill="#0CC9AB"/>
<path d="M115.292 148.969H108.911L106.939 142.901C106.831 142.573 106.525 142.349 106.18 142.349C105.835 142.349 105.529 142.573 105.421 142.901L103.449 148.969H97.0685C96.7239 148.969 96.4176 149.192 96.3092 149.521C96.2007 149.85 96.3187 150.21 96.5995 150.414L101.761 154.166L99.7898 160.234C99.6845 160.563 99.7994 160.923 100.08 161.124C100.361 161.328 100.737 161.328 101.018 161.124L106.18 157.372L111.342 161.124C111.482 161.226 111.645 161.277 111.811 161.277C111.977 161.277 112.139 161.226 112.28 161.124C112.561 160.92 112.675 160.563 112.57 160.234L110.599 154.166L115.76 150.414C116.041 150.21 116.156 149.853 116.051 149.521C115.946 149.192 115.639 148.969 115.292 148.969Z" fill="#C5FFF6"/>
<path d="M96.475 103.96C93.189 103.96 90.4358 105.064 88.2185 107.269C86.0013 109.476 84.8942 112.21 84.8942 115.474C84.8942 118.738 86.0076 121.402 88.2377 123.597C90.4645 125.791 93.2114 126.889 96.4782 126.889C99.7451 126.889 102.54 125.785 104.802 123.581C107.064 121.376 108.193 118.661 108.193 115.439C108.193 112.217 107.064 109.499 104.802 107.281C102.54 105.064 99.7675 103.957 96.4782 103.957L96.475 103.96ZM100.843 120.036C99.6941 121.277 98.284 121.896 96.6059 121.896C94.9277 121.896 93.4123 121.277 92.2543 120.036C91.0962 118.795 90.5155 117.245 90.5155 115.378C90.5155 113.512 91.0898 112.032 92.2351 110.803C93.3805 109.575 94.8161 108.959 96.5357 108.959C98.2552 108.959 99.6622 109.585 100.82 110.835C101.978 112.086 102.559 113.633 102.559 115.477C102.559 117.321 101.985 118.798 100.839 120.036H100.843Z" fill="#00FFFF"/>
<path d="M120.198 113.79L117.483 112.564C116.226 111.99 115.598 111.263 115.598 110.379C115.598 109.916 115.789 109.518 116.178 109.189C116.564 108.857 117.021 108.691 117.55 108.691C118.696 108.691 119.369 109.396 119.57 110.81H125.162C125.095 109.728 124.965 108.896 124.767 108.312C124.569 107.728 124.205 107.115 123.676 106.474C122.285 104.799 120.3 103.96 117.719 103.96C115.556 103.96 113.725 104.589 112.226 105.846C110.726 107.103 109.976 108.647 109.976 110.478C109.976 112.309 110.717 113.853 112.2 115.043C112.908 115.618 113.792 116.134 114.858 116.6L117.413 117.659C118.986 118.301 119.771 119.095 119.771 120.043C119.771 120.639 119.56 121.14 119.136 121.548C118.715 121.957 118.192 122.161 117.569 122.161C116.858 122.161 116.296 121.89 115.885 121.351C115.473 120.811 115.269 120.087 115.269 119.184H109.61V119.912C109.61 122.052 110.327 123.75 111.76 125.007C113.192 126.264 115.145 126.892 117.617 126.892C120.09 126.892 121.937 126.296 123.293 125.106C124.649 123.916 125.328 122.26 125.328 120.141C125.328 118.687 124.936 117.471 124.154 116.501C123.369 115.531 122.052 114.625 120.201 113.786L120.198 113.79Z" fill="#00FFFF"/>
</svg>
