<svg width="213" height="213" viewBox="0 0 213 213" fill="none" xmlns="http://www.w3.org/2000/svg">
<rect x="0.640625" y="0.0625" width="212.235" height="212.235" rx="106.118" fill="#0E425E"/>
<path d="M143.17 54.4922L138.59 60.3192C151.78 70.6893 159.346 86.4394 159.346 103.531C159.346 133.462 135.754 157.813 106.758 157.813C77.7614 157.813 54.1698 133.462 54.1698 103.531C54.1698 86.8911 61.4135 71.4002 74.0435 61.0289L69.3395 55.3009C54.9884 67.086 46.7578 84.6661 46.7578 103.531C46.7578 137.549 73.6744 165.225 106.758 165.225C139.841 165.225 166.758 137.549 166.758 103.531C166.759 84.1509 158.161 66.2769 143.17 54.4922Z" fill="#0CC9AB"/>
<path d="M106.458 78.9185C120.573 78.9185 132.056 90.0179 132.056 103.661C132.056 117.304 120.573 128.403 106.458 128.403C102.628 128.426 98.8413 127.597 95.3715 125.976C91.9018 124.355 88.8362 121.982 86.3971 119.03L80.6691 123.734C83.8023 127.535 87.7419 130.591 92.2024 132.68C96.6628 134.77 101.532 135.841 106.458 135.815C124.66 135.815 139.468 121.391 139.468 103.661C139.468 85.9317 124.66 71.5072 106.458 71.5072C101.415 71.4742 96.4305 72.594 91.886 74.7811C87.3415 76.9682 83.3568 80.1648 80.2362 84.1269L86.0628 88.7082C88.4919 85.6305 91.5922 83.1485 95.1269 81.4519C98.6616 79.7552 102.537 78.8887 106.458 78.9185Z" fill="#C5FFF6"/>
<path d="M129.429 55.3806C130.523 55.3806 131.571 54.9464 132.344 54.1733C133.117 53.4002 133.551 52.3518 133.551 51.2585C133.551 50.1653 133.117 49.1169 132.344 48.344C131.571 47.571 130.522 47.1367 129.429 47.1367C128.336 47.1368 127.288 47.5711 126.515 48.3441C125.742 49.117 125.308 50.1654 125.307 51.2585C125.307 52.3518 125.742 53.4002 126.515 54.1732C127.288 54.9463 128.336 55.3806 129.429 55.3806Z" fill="#00FFFF"/>
<path d="M77.2269 105.109C77.7682 105.109 78.3042 105.002 78.8043 104.795C79.3044 104.588 79.7588 104.285 80.1416 103.902C80.5243 103.519 80.8279 103.064 81.035 102.564C81.2422 102.064 81.3487 101.528 81.3487 100.987C81.3487 99.8937 80.9144 98.8453 80.1414 98.0723C79.3684 97.2993 78.3201 96.865 77.2269 96.865C76.1337 96.865 75.0853 97.2993 74.3123 98.0723C73.5393 98.8453 73.1051 99.8937 73.1051 100.987C73.105 101.528 73.2116 102.064 73.4187 102.564C73.6259 103.064 73.9295 103.519 74.3122 103.902C74.695 104.285 75.1494 104.588 75.6495 104.795C76.1496 105.002 76.6856 105.109 77.2269 105.109Z" fill="#00FFFF"/>
</svg>
