<svg width="213" height="213" viewBox="0 0 213 213" fill="none" xmlns="http://www.w3.org/2000/svg">
<rect x="0.46875" width="212.235" height="212.235" rx="106.118" fill="#0E425E"/>
<path d="M107.922 52.8418H48.1133V124.362H107.922V52.8418Z" fill="#0E425E" stroke="#0CC9AB" stroke-width="6" stroke-linejoin="bevel"/>
<path d="M73.3812 123.59L63.7305 159.827" stroke="#0CC9AB" stroke-width="6" stroke-linejoin="bevel"/>
<path d="M84.5469 123.59L94.1976 159.827" stroke="#0CC9AB" stroke-width="6" stroke-linejoin="bevel"/>
<path d="M102.977 158.309H55.7852V166.922H102.977V158.309Z" fill="#0E425E"/>
<path d="M62.3196 65.3217V79.8672H60.5582V65.3217H62.3196ZM77.3853 65.3217V79.8672H75.6808L67.7546 68.4467H67.6126V79.8672H65.8512V65.3217H67.5558L75.5103 76.7706H75.6523V65.3217H77.3853ZM80.9098 79.8672V65.3217H89.6314V66.8842H82.6712V71.799H88.978V73.3615H82.6712V79.8672H80.9098Z" fill="#00FFFF"/>
<path d="M93.6424 79.9808C93.292 79.9808 92.9914 79.8554 92.7404 79.6044C92.4895 79.3535 92.364 79.0528 92.364 78.7024C92.364 78.352 92.4895 78.0514 92.7404 77.8004C92.9914 77.5495 93.292 77.424 93.6424 77.424C93.9928 77.424 94.2934 77.5495 94.5444 77.8004C94.7953 78.0514 94.9208 78.352 94.9208 78.7024C94.9208 78.9344 94.8616 79.1475 94.7433 79.3416C94.6296 79.5357 94.4757 79.692 94.2816 79.8104C94.0922 79.924 93.8791 79.9808 93.6424 79.9808Z" fill="#C5FFF6"/>
<path d="M148.729 71.232V63.8326C148.729 52.8811 139.852 44.0039 128.903 44.0039C117.955 44.0039 109.078 52.8811 109.078 63.8326V71.232L128.709 75.3983L148.732 71.232H148.729Z" fill="#0E425E" stroke="#0CC9AB" stroke-width="6" stroke-linejoin="bevel"/>
<path d="M109.078 63.2874V70.6867C109.078 81.6383 117.955 90.5155 128.903 90.5155C139.851 90.5155 148.728 81.6383 148.728 70.6867V63.2874L129.097 59.1211L109.074 63.2874H109.078Z" fill="#0E425E" stroke="#0CC9AB" stroke-width="6" stroke-linejoin="bevel"/>
<path d="M169.859 124.423H87.9496L82.7461 102.662H175.063L169.859 124.423Z" fill="#0E425E" stroke="#0CC9AB" stroke-width="6" stroke-linejoin="bevel"/>
<path d="M151.054 164.939C136.591 169.244 121.199 169.328 106.689 165.186L105.828 164.939L102.359 116.967H154.523L151.054 164.939V164.939Z" fill="#0E425E" stroke="#0CC9AB" stroke-width="6" stroke-linejoin="bevel"/>
<path d="M164.05 94.2767C168.605 94.2767 172.296 90.585 172.296 86.0309C172.296 81.4769 168.605 77.7852 164.05 77.7852C159.496 77.7852 155.805 81.4769 155.805 86.0309C155.805 90.585 159.496 94.2767 164.05 94.2767Z" fill="#C5FFF6"/>
<path d="M166.145 91.9102L170.21 103.732" stroke="#0CC9AB" stroke-width="6" stroke-linejoin="bevel"/>
<path d="M136.234 90.8184L140.3 102.637" stroke="#0CC9AB" stroke-width="6" stroke-linejoin="bevel"/>
<path d="M121.57 90.8184L117.504 102.637" stroke="#0CC9AB" stroke-width="6" stroke-linejoin="bevel"/>
<path d="M112.85 145.561V135.379H116.29C117.089 135.379 117.742 135.523 118.249 135.811C118.76 136.096 119.138 136.482 119.383 136.97C119.628 137.457 119.751 138 119.751 138.6C119.751 139.2 119.628 139.745 119.383 140.236C119.141 140.727 118.766 141.118 118.259 141.409C117.752 141.698 117.103 141.842 116.31 141.842H113.844V140.748H116.271C116.817 140.748 117.257 140.654 117.588 140.465C117.92 140.276 118.16 140.021 118.309 139.699C118.461 139.374 118.538 139.008 118.538 138.6C118.538 138.193 118.461 137.828 118.309 137.507C118.16 137.185 117.918 136.933 117.583 136.751C117.248 136.565 116.804 136.472 116.251 136.472H114.083V145.561H112.85ZM121.115 145.561H119.823L123.561 135.379H124.834L128.573 145.561H127.28L124.238 136.99H124.158L121.115 145.561ZM121.593 141.583H126.803V142.677H121.593V141.583ZM122.766 134.106C122.557 134.106 122.372 134.026 122.209 133.867C122.05 133.705 121.971 133.519 121.971 133.311C121.971 133.082 122.05 132.893 122.209 132.744C122.372 132.591 122.557 132.515 122.766 132.515C122.995 132.515 123.184 132.591 123.333 132.744C123.485 132.893 123.561 133.082 123.561 133.311C123.561 133.519 123.485 133.705 123.333 133.867C123.184 134.026 122.995 134.106 122.766 134.106ZM125.63 134.106C125.421 134.106 125.235 134.026 125.073 133.867C124.914 133.705 124.834 133.519 124.834 133.311C124.834 133.082 124.914 132.893 125.073 132.744C125.235 132.591 125.421 132.515 125.63 132.515C125.858 132.515 126.047 132.591 126.196 132.744C126.349 132.893 126.425 133.082 126.425 133.311C126.425 133.519 126.349 133.705 126.196 133.867C126.047 134.026 125.858 134.106 125.63 134.106ZM133.301 145.561H130.159V135.379H133.44C134.428 135.379 135.273 135.583 135.975 135.99C136.678 136.395 137.217 136.976 137.591 137.735C137.966 138.491 138.153 139.396 138.153 140.45C138.153 141.51 137.964 142.423 137.586 143.189C137.208 143.951 136.658 144.538 135.936 144.949C135.213 145.357 134.335 145.561 133.301 145.561ZM131.392 144.467H133.221C134.063 144.467 134.761 144.304 135.314 143.98C135.868 143.655 136.28 143.192 136.552 142.593C136.824 141.993 136.96 141.278 136.96 140.45C136.96 139.628 136.826 138.92 136.557 138.327C136.289 137.73 135.888 137.273 135.354 136.955C134.82 136.633 134.156 136.472 133.36 136.472H131.392V144.467Z" fill="#00FFFF"/>
<path d="M140.917 145.64C140.672 145.64 140.462 145.552 140.286 145.377C140.11 145.201 140.022 144.99 140.022 144.745C140.022 144.5 140.11 144.289 140.286 144.114C140.462 143.938 140.672 143.85 140.917 143.85C141.163 143.85 141.373 143.938 141.549 144.114C141.724 144.289 141.812 144.5 141.812 144.745C141.812 144.908 141.771 145.057 141.688 145.193C141.608 145.329 141.501 145.438 141.365 145.521C141.232 145.6 141.083 145.64 140.917 145.64Z" fill="#C5FFF6"/>
</svg>
