<svg width="213" height="213" viewBox="0 0 213 213" fill="none" xmlns="http://www.w3.org/2000/svg">
<rect x="0.703125" width="212.235" height="212.235" rx="106.118" fill="#0E425E"/>
<path d="M60.1618 51.5469L56.8789 54.8298V148.151L60.1618 151.434H86.0786C86.8698 156.78 89.5547 161.665 93.6445 165.199C97.7342 168.733 102.957 170.681 108.362 170.688C113.767 170.681 118.99 168.733 123.08 165.199C127.169 161.665 129.854 156.78 130.646 151.434H153.483L156.766 148.151V54.8298L153.483 51.5469H60.1618ZM63.4447 58.1127H150.2V72.7928H63.4447V58.1127ZM108.362 164.122C104.131 164.117 100.075 162.435 97.0835 159.443C94.0919 156.451 92.4092 152.395 92.4044 148.164C92.4092 143.934 94.0919 139.878 97.0835 136.886C100.075 133.895 104.131 132.212 108.362 132.207C112.593 132.212 116.649 133.894 119.641 136.886C122.632 139.878 124.315 143.934 124.32 148.164C124.315 152.395 122.632 156.452 119.64 159.443C116.648 162.435 112.592 164.118 108.361 164.122H108.362ZM150.2 144.868H130.642C129.845 139.527 127.158 134.649 123.069 131.121C118.981 127.592 113.762 125.648 108.362 125.641C102.962 125.648 97.7431 127.593 93.6547 131.121C89.5663 134.649 86.8794 139.527 86.0823 144.868H63.4447V79.3586H150.2V144.868Z" fill="#0CC9AB"/>
<path d="M74.0685 68.4942C75.2027 67.3599 75.2027 65.521 74.0685 64.3867C72.9343 63.2525 71.0953 63.2525 69.9611 64.3867C68.8269 65.521 68.8269 67.3599 69.9611 68.4942C71.0953 69.6284 72.9343 69.6284 74.0685 68.4942Z" fill="#00FFFF"/>
<path d="M83.5997 69.3446C85.2037 69.3446 86.504 68.0443 86.504 66.4402C86.504 64.8362 85.2037 63.5359 83.5997 63.5359C81.9956 63.5359 80.6953 64.8362 80.6953 66.4402C80.6953 68.0443 81.9956 69.3446 83.5997 69.3446Z" fill="#00FFFF"/>
<path d="M97.2386 68.4942C98.3728 67.3599 98.3728 65.521 97.2386 64.3867C96.1043 63.2525 94.2654 63.2525 93.1312 64.3867C91.9969 65.521 91.9969 67.3599 93.1312 68.4942C94.2654 69.6284 96.1043 69.6284 97.2386 68.4942Z" fill="#00FFFF"/>
<path d="M138.049 118.449L141.332 115.166V91.234L138.049 87.9511H75.594L72.3111 91.234V115.166L75.594 118.449H138.049ZM78.8769 94.5169H134.766V111.883H78.8769V94.5169Z" fill="#0CC9AB"/>
<path d="M87.1043 98.8513C86.0127 98.8513 84.9657 99.285 84.1938 100.057C83.4219 100.829 82.9882 101.876 82.9882 102.967C82.9882 104.059 83.4219 105.106 84.1938 105.878C84.9657 106.65 86.0127 107.084 87.1043 107.084C88.196 107.084 89.2429 106.65 90.0148 105.878C90.7868 105.106 91.2204 104.059 91.2204 102.967C91.2205 102.427 91.114 101.892 90.9072 101.392C90.7004 100.893 90.3972 100.439 90.015 100.057C89.6328 99.6746 89.179 99.3714 88.6796 99.1646C88.1801 98.9577 87.6449 98.8513 87.1043 98.8513Z" fill="#C5FFF6"/>
<path d="M104.35 102.967C104.35 102.427 104.243 101.892 104.037 101.392C103.83 100.893 103.527 100.439 103.144 100.057C102.762 99.6746 102.308 99.3714 101.809 99.1646C101.309 98.9577 100.774 98.8513 100.234 98.8513C99.142 98.8513 98.095 99.285 97.3231 100.057C96.5512 100.829 96.1175 101.876 96.1175 102.967C96.1176 104.059 96.5514 105.106 97.3233 105.878C98.0952 106.65 99.142 107.083 100.234 107.084C101.325 107.084 102.372 106.65 103.144 105.878C103.916 105.106 104.35 104.059 104.35 102.967Z" fill="#C5FFF6"/>
<path d="M113.366 107.084C114.458 107.083 115.505 106.65 116.277 105.878C117.048 105.106 117.482 104.059 117.482 102.967C117.482 101.876 117.049 100.829 116.277 100.057C115.505 99.285 114.458 98.8513 113.366 98.8513C112.275 98.8513 111.228 99.285 110.456 100.057C109.684 100.829 109.25 101.876 109.25 102.967C109.25 104.059 109.684 105.106 110.456 105.878C111.228 106.65 112.275 107.083 113.366 107.084Z" fill="#C5FFF6"/>
<path d="M126.497 98.8513C125.405 98.8513 124.359 99.285 123.587 100.057C122.815 100.829 122.381 101.876 122.381 102.967C122.381 104.059 122.815 105.106 123.587 105.878C124.359 106.65 125.406 107.083 126.497 107.084C127.589 107.083 128.636 106.65 129.407 105.878C130.179 105.106 130.613 104.059 130.613 102.967C130.613 101.876 130.18 100.829 129.408 100.057C128.636 99.285 127.589 98.8513 126.497 98.8513Z" fill="#C5FFF6"/>
<path d="M114.222 142.143V140.579C114.221 139.014 113.598 137.513 112.491 136.406C111.384 135.299 109.884 134.677 108.318 134.675C106.753 134.677 105.252 135.299 104.145 136.406C103.038 137.513 102.416 139.014 102.414 140.579V142.155C101.11 142.345 99.9164 142.997 99.0527 143.994C98.1891 144.99 97.7127 146.264 97.7104 147.583V154.338C97.7119 155.793 98.2908 157.189 99.3201 158.218C100.349 159.248 101.745 159.827 103.201 159.829H113.521C114.977 159.827 116.372 159.248 117.402 158.219C118.431 157.189 119.01 155.794 119.012 154.338V147.583C119.01 146.25 118.522 144.962 117.641 143.961C116.76 142.96 115.545 142.314 114.222 142.143ZM107.011 140.579C107.011 140.233 107.149 139.9 107.394 139.655C107.639 139.41 107.971 139.272 108.318 139.271C108.665 139.272 108.997 139.41 109.243 139.655C109.488 139.9 109.626 140.232 109.626 140.579V142.093H107.011V140.579ZM114.416 154.338C114.416 154.575 114.321 154.803 114.154 154.97C113.986 155.138 113.759 155.232 113.522 155.232H103.201C102.964 155.232 102.736 155.138 102.569 154.97C102.401 154.803 102.306 154.575 102.306 154.338V147.583C102.307 147.353 102.396 147.132 102.556 146.966C102.715 146.8 102.933 146.702 103.163 146.693H113.559C113.789 146.702 114.007 146.8 114.166 146.966C114.326 147.132 114.415 147.353 114.416 147.583L114.416 154.338Z" fill="#C5FFF6"/>
</svg>
