<svg width="213" height="213" viewBox="0 0 213 213" fill="none" xmlns="http://www.w3.org/2000/svg">
<rect x="0.234375" width="212.235" height="212.235" rx="106.118" fill="#0E425E"/>
<path d="M93.4548 117.379C92.1498 116.292 89.9204 115.748 86.7666 115.747H79.6543V137.508H84.9721V130.692H87.3537C90.2471 130.692 92.3677 130.061 93.7155 128.799C95.2376 127.387 95.9989 125.505 95.9994 123.155C95.9994 120.718 95.1512 118.793 93.4548 117.379ZM87.2232 125.763H84.9721V120.674H86.9948C89.4524 120.674 90.6813 121.528 90.6816 123.235C90.6816 124.921 89.5288 125.763 87.2232 125.763Z" fill="#C5FFF6"/>
<path d="M111.17 123.904H104.057V115.747H98.5113V137.508H104.057V128.83H111.17V137.508H116.716V115.747H111.17V123.904Z" fill="#C5FFF6"/>
<path d="M134.202 117.379C132.897 116.292 130.667 115.748 127.514 115.747H120.401V137.508H125.719V130.692H128.101C130.994 130.692 133.115 130.061 134.463 128.799C135.985 127.387 136.746 125.505 136.746 123.155C136.746 120.718 135.898 118.793 134.202 117.379ZM127.97 125.763H125.719V120.674H127.742C130.199 120.674 131.428 121.528 131.429 123.235C131.429 124.921 130.276 125.763 127.97 125.763Z" fill="#C5FFF6"/>
<path d="M119.888 52.8727L117.452 51.8516H64.5697L61.1523 55.269V156.966L64.5697 160.384H148.137L151.554 156.966V86.4605L150.573 84.0639L119.888 52.8727ZM140.009 83.0715H120.869V63.6159L140.009 83.0715ZM144.719 153.549H67.9871V58.6874H114.034V86.4899L117.452 89.9073H144.719V153.549Z" fill="#0CC9AB"/>
</svg>
