<svg width="213" height="213" viewBox="0 0 213 213" fill="none" xmlns="http://www.w3.org/2000/svg">
<rect x="0.234375" y="0.109375" width="212.235" height="212.235" rx="106.118" fill="#0E425E"/>
<path d="M156.295 64.3579C156.295 60.2545 153.527 54.4245 140.339 49.9535C131.207 46.8573 119.134 45.1523 106.345 45.1523C93.5548 45.1523 81.4818 46.8573 72.3506 49.9535C59.1626 54.4245 56.3945 60.2545 56.3945 64.3579C56.3945 64.3778 56.3945 64.3981 56.3945 64.418V133.201C56.3945 137.304 59.1626 143.134 72.3506 147.606C72.7463 147.74 73.1544 147.868 73.5611 147.997C74.4794 156.054 78.3281 163.492 84.3745 168.895C90.4209 174.299 98.243 177.291 106.352 177.302C114.462 177.291 122.285 174.298 128.332 168.894C134.379 163.489 138.227 156.05 139.144 147.991C139.545 147.864 139.948 147.738 140.339 147.606C153.509 143.14 156.288 137.319 156.295 133.216L156.31 133.201V64.418H156.293C156.295 64.3981 156.295 64.3778 156.295 64.3579ZM74.5568 56.4599C82.9962 53.5986 94.2851 52.0229 106.345 52.0229C118.404 52.0229 129.693 53.5986 138.133 56.4599C143.753 58.3654 149.424 61.5468 149.424 64.3579C149.424 67.169 143.753 70.3503 138.133 72.2559C129.693 75.1171 118.404 76.6932 106.345 76.6932C94.2854 76.6932 82.9962 75.1171 74.5568 72.2559C68.9364 70.3503 63.2651 67.1693 63.2651 64.3579C63.2651 61.5465 68.936 58.3654 74.5568 56.4599ZM72.3506 78.7627C81.4818 81.8589 93.5548 83.5637 106.345 83.5637C119.134 83.5637 131.207 81.8589 140.339 78.7627C144.206 77.4514 147.172 76.0234 149.44 74.5562V88.2972L149.424 88.3126C149.424 91.1241 143.753 94.3051 138.133 96.2106C129.693 99.0719 118.404 100.648 106.345 100.648C94.2854 100.648 82.9962 99.0719 74.5568 96.2106C68.9364 94.3051 63.2651 91.1241 63.2651 88.3126V74.5661C65.5313 76.0299 68.4921 77.4545 72.3506 78.7627ZM149.44 110.741L149.424 110.757C149.424 113.568 143.753 116.749 138.133 118.655C135.342 119.585 132.497 120.34 129.613 120.917C123.441 114.756 115.075 111.298 106.353 111.303C97.6312 111.298 89.2639 114.757 83.0916 120.92C80.2028 120.342 77.3527 119.586 74.5578 118.655C68.9377 116.749 63.2664 113.568 63.2664 110.757V98.5209C65.5337 99.9847 68.4936 101.409 72.3521 102.717C81.4834 105.813 93.5561 107.519 106.346 107.519C119.136 107.519 131.208 105.813 140.34 102.717C144.207 101.406 147.173 99.9781 149.441 98.5109L149.44 110.741ZM73.5457 140.742C68.276 138.812 63.2651 135.843 63.2651 133.201V120.965C65.5323 122.429 68.4921 123.853 72.3506 125.161C74.2259 125.797 76.2325 126.371 78.3356 126.887C75.7133 131.084 74.0756 135.821 73.5457 140.742ZM106.352 170.431C99.4251 170.423 92.7838 167.668 87.8854 162.769C82.987 157.871 80.2317 151.23 80.2238 144.302C80.2317 137.375 82.987 130.734 87.8854 125.835C92.7838 120.937 99.4251 118.182 106.352 118.174C113.28 118.182 119.921 120.937 124.82 125.835C129.718 130.734 132.473 137.375 132.481 144.302C132.473 151.23 129.718 157.871 124.82 162.77C119.921 167.668 113.28 170.423 106.352 170.431ZM149.44 133.185L149.425 133.201C149.425 135.841 144.423 138.807 139.159 140.737C138.628 135.817 136.99 131.08 134.368 126.883C136.467 126.368 138.467 125.796 140.339 125.161C144.206 123.85 147.172 122.422 149.44 120.955V133.185Z" fill="#0CC9AB"/>
<path d="M122.014 150.009C119.524 150.701 118.021 149.463 117.447 148.836C117.485 148.561 117.522 148.291 117.558 148.026C119.281 145.803 126.163 136.364 122.93 131.349C119.529 126.075 111.719 128.467 110.546 128.863C108.308 128.122 105.903 128.046 103.622 128.644C103.064 128.788 102.532 129.02 102.047 129.331C100.681 128.816 95.6715 127.121 92.5794 128.796C88.9724 130.749 88.898 133.378 88.898 134.054C88.898 134.731 88.8982 143.069 92.5794 150.357C96.0916 157.31 99.7405 149.01 100.068 148.235C100.635 148.725 101.314 149.067 102.046 149.229C103.011 149.423 104.377 149.585 105.233 150.094C104.394 151.205 102.814 152.911 100.783 153.324C98.3076 153.828 102.922 154.546 105.947 153.857C105.84 163.334 108.303 163.682 109.483 164.029C110.76 164.405 113.285 163.48 114.43 161.427C115.001 160.404 116.273 156.776 116.912 152.564C118.809 152.839 121.405 152.311 122.817 151.431C124.297 150.502 124.186 149.405 122.014 150.009Z" fill="#C5FFF6"/>
</svg>
