<svg width="213" height="213" viewBox="0 0 213 213" fill="none" xmlns="http://www.w3.org/2000/svg">
<rect width="212.235" height="212.235" rx="106.118" fill="#0E425E"/>
<path d="M47.3711 106.479L73.6656 122.793V123.219L47.3711 139.533V150.732L81.6313 127.998V118.014L47.3711 95.2809V106.479Z" fill="#0CC9AB"/>
<path d="M90.7954 99.1392H116.342V70.5334L90.7954 75.5209V99.1392ZM98.1608 81.5875L108.977 79.4758V91.7738H98.1608V81.5875Z" fill="#C5FFF6"/>
<path d="M122.288 99.1397H164.866V61.0605L122.288 69.3732V99.1397ZM129.654 75.44L157.501 70.0036V91.7743H129.654V75.44Z" fill="#0CC9AB"/>
<path d="M122.288 134.116L164.866 142.521V104.442H122.288V134.116ZM129.654 111.807H157.501V133.559L129.654 128.063V111.807Z" fill="#0CC9AB"/>
<path d="M90.7954 127.899L116.342 132.942V104.442H90.7954V127.899ZM98.1608 111.806H108.977V123.98L98.1608 121.844V111.806Z" fill="#0CC9AB"/>
<path d="M103.418 143.81H74.7468V151.175H103.418V143.81Z" fill="#00FFFF"/>
</svg>
