<svg width="213" height="213" viewBox="0 0 213 213" fill="none" xmlns="http://www.w3.org/2000/svg">
<rect x="0.46875" width="212.235" height="212.235" rx="106.118" fill="#0E425E"/>
<path d="M105.974 102.54H111.385V94.8692C111.385 91.261 112.625 88.6717 115.071 87.1737C116.494 86.3379 118.114 85.8957 119.765 85.8921C119.89 85.8921 119.971 85.8957 119.998 85.8969H136.249C138.638 85.8969 140.543 85.1857 141.913 83.7829C144.351 81.2841 144.285 77.4028 144.284 77.3641V63.3658C144.284 63.3366 144.32 61.4893 142.536 59.6475C139.442 56.4509 133.435 55.7677 128.942 55.7578H128.822C120.566 55.7578 116.967 57.7106 115.402 59.3488C114.016 60.7989 114.061 62.1703 114.062 62.184V69.3966L129.462 69.3221V72.293H107.815C105.896 72.3726 104.045 73.0263 102.502 74.1694C99.2364 76.568 97.5807 80.8217 97.5807 86.8161C97.5813 102.36 105.631 102.54 105.974 102.54Z" fill="#C5FFF6"/>
<path d="M118.379 146.432C103.138 145.792 80.1062 144.825 81.1076 102.904L77.2214 99.704L75.1154 100.169C75.1649 100.036 75.2193 99.9032 75.2654 99.7721C74.3374 98.8278 73.3434 97.9508 72.291 97.1476C71.1141 97.4035 69.7359 97.7047 68.3012 98.0179C68.3012 97.8691 68.298 97.7255 68.2939 97.5931C68.006 96.9349 67.5522 96.0513 67.1659 95.2926C67.5959 94.8706 67.9374 94.3671 68.1703 93.8114C68.4032 93.2557 68.5228 92.6592 68.5222 92.0567C68.5218 90.8523 68.0432 89.6974 67.1916 88.8458C66.34 87.9942 65.1851 87.5156 63.9807 87.5152C62.7761 87.5151 61.6207 87.9935 60.7687 88.8452C59.9166 89.6968 59.4378 90.852 59.4373 92.0567C59.4376 92.9641 59.7096 93.8505 60.2184 94.6019C60.7272 95.3532 61.4493 95.9349 62.2918 96.2719C62.262 97.0571 62.2425 97.8874 62.2761 98.9517C62.3285 99.072 62.3797 99.1862 62.4309 99.2997C61.8677 99.4225 61.3265 99.5405 60.8238 99.6496C60.4537 99.7299 59.4588 99.9483 59.1038 100.025C59.0095 100.055 58.9107 100.069 58.8118 100.064C58.7066 100.04 58.5968 99.996 58.5239 100.116C57.8864 101.288 57.3496 102.512 56.9194 103.775C57.0259 103.889 57.1391 103.999 57.2485 104.11L55.1533 104.572L52.6449 107.619C52.62 108.673 52.2404 133.576 70.0366 147.539C77.6257 153.494 87.2578 156.477 98.819 156.477C106.113 156.477 114.165 155.288 122.976 152.912L122.368 146.634C121.13 146.547 119.794 146.491 118.379 146.432ZM98.8379 150.083C88.7507 150.083 80.4439 147.564 74.0168 142.535C61.7468 132.935 59.5199 116.472 59.121 110.246L74.6897 106.813C74.8087 116.007 76.1308 123.87 78.6318 130.23C81.1827 136.717 85.0308 141.847 90.0696 145.479C92.8564 147.466 95.9292 149.018 99.1827 150.081L98.8379 150.083Z" fill="#0CC9AB"/>
<path d="M152.137 71.6765H146.729V78.0259C146.729 88.03 137.902 88.3188 136.894 88.3188C136.849 88.3188 136.819 88.3188 136.804 88.3188C136.637 88.3229 134.068 88.3827 129.814 88.3827C127.242 88.3827 124.566 88.3607 121.86 88.3188C121.784 88.3188 121.71 88.3169 121.636 88.3169C119.081 88.3169 117.104 89.0345 115.761 90.4498C113.689 92.6322 113.828 95.7559 113.829 95.7873V110.851C113.829 110.88 113.794 112.745 115.59 114.595C118.688 117.789 124.685 118.459 129.171 118.459C137.473 118.459 141.105 116.5 142.689 114.857C144.085 113.41 144.052 112.044 144.051 112.03V104.819L128.652 104.894V101.923H150.299C152.218 101.843 154.069 101.19 155.612 100.047C158.878 97.648 160.534 93.3944 160.534 87.3999C160.528 71.8562 152.478 71.6765 152.137 71.6765Z" fill="#0CC9AB"/>
</svg>
