<svg width="213" height="213" viewBox="0 0 213 213" fill="none" xmlns="http://www.w3.org/2000/svg">
<rect x="0.171875" width="212.235" height="212.235" rx="106.118" fill="#0E425E"/>
<path d="M88.7576 104.427C89.0305 104.427 89.1822 104.436 89.1822 104.436H119.866C136.043 104.436 135.634 87.7141 135.634 87.7141V61.3114C135.634 61.3114 136.189 46.4176 106.078 46.3496H105.85C76.6758 46.3496 77.3922 59.1114 77.3922 59.1114V73.2997L106.456 73.1591V77.5553H66.2613C66.2613 77.5553 66.243 77.5553 66.2077 77.5553C65.0727 77.5553 46.2891 77.9731 46.2891 105.567C46.2891 135.604 62.2239 135.843 62.7317 135.843H73.5465V120.766C73.5471 105.193 86.2564 104.427 88.7576 104.427ZM67.398 120.765V129.693H62.8181C62.5226 129.669 60.3255 129.409 58.0943 127.053C55.5119 124.327 52.4375 118.386 52.4375 105.566C52.4375 96.3309 54.8272 89.6528 59.3481 86.2533C61.3355 84.7617 63.7117 83.8764 66.1906 83.7038H112.605V66.9799L83.5398 67.1213V59.172C83.5948 58.9159 83.9394 57.7686 85.8478 56.4639C90.6437 53.1864 99.3714 52.4981 105.849 52.4981H106.065C118.581 52.5264 124.391 55.2385 127.062 57.5091C129.204 59.3306 129.46 61.0611 129.486 61.3243V87.7145L129.483 87.7403L129.488 87.8457C129.492 89.3168 128.977 93.5617 126.547 96.0118C125.027 97.5434 122.842 98.2867 119.867 98.2867H89.3107C89.1718 98.2818 88.9851 98.2776 88.7573 98.2776C86.8106 98.2776 81.7683 98.5927 77.0023 101.512C72.6209 104.197 67.398 109.716 67.398 120.765Z" fill="#C5FFF6"/>
<path d="M93.236 60.9962C93.334 59.226 91.9785 57.7115 90.2083 57.6135C88.4381 57.5154 86.9236 58.871 86.8256 60.6412C86.7275 62.4113 88.0831 63.9258 89.8533 64.0239C91.6235 64.1219 93.138 62.7664 93.236 60.9962Z" fill="#C5FFF6"/>
<path d="M149.848 76.3949H139.033V88.9818C139.033 107.282 122.915 107.803 121.077 107.803C120.966 107.803 120.907 107.801 120.907 107.801C120.907 107.801 116.069 107.924 107.714 107.924C103.538 107.924 98.4815 107.893 92.712 107.801C92.5654 107.799 92.4227 107.798 92.2788 107.798C76.1738 107.798 76.9437 122.531 76.9437 122.531V150.926C76.9437 150.926 76.3886 165.887 106.5 165.887C135.787 165.887 135.186 153.126 135.186 153.126V138.938L106.122 139.078V134.682H146.37C147.505 134.682 166.289 134.264 166.289 106.671C166.29 76.6338 150.356 76.3949 149.848 76.3949ZM153.229 125.982C151.242 127.474 148.866 128.359 146.387 128.532H99.973V145.256L129.038 145.114V153.01C128.977 153.276 128.611 154.438 126.664 155.755C123.979 157.572 118.302 159.737 106.501 159.737C93.9823 159.737 88.1785 157.025 85.5128 154.75C83.3734 152.924 83.1216 151.231 83.093 150.917V122.529L83.1022 122.442L83.0872 122.244C83.085 121.855 83.129 118.385 85.265 116.188C86.7145 114.698 89.0745 113.944 92.2797 113.944C92.3907 113.944 92.5011 113.944 92.6139 113.946C97.7509 114.029 102.831 114.069 107.714 114.069C115.394 114.069 120.083 113.967 120.931 113.946H121.077C122.673 113.946 128.304 113.705 133.779 110.596C137.098 108.738 139.863 106.03 141.787 102.75C144.039 98.9146 145.181 94.2805 145.181 88.9753V82.5369H149.76C150.055 82.5615 152.252 82.8213 154.484 85.1777C157.066 87.9036 160.14 93.8443 160.14 106.665C160.142 115.906 157.751 122.584 153.232 125.984L153.229 125.982Z" fill="#0CC9AB"/>
<path d="M122.551 154.629C123.402 154.629 124.219 154.29 124.821 153.688C125.423 153.086 125.761 152.27 125.761 151.419C125.761 150.567 125.423 149.751 124.821 149.149C124.219 148.547 123.402 148.208 122.551 148.208C121.699 148.208 120.883 148.547 120.281 149.149C119.679 149.751 119.341 150.567 119.341 151.419C119.341 152.27 119.679 153.086 120.281 153.688C120.883 154.29 121.699 154.629 122.551 154.629Z" fill="#0CC9AB"/>
</svg>
