<svg width="213" height="214" viewBox="0 0 213 214" fill="none" xmlns="http://www.w3.org/2000/svg">
<rect x="0.109375" y="0.9375" width="212.235" height="212.235" rx="106.118" fill="#0E425E"/>
<path d="M74.5709 160.878C74.5034 160.878 72.8991 160.861 71.3219 159.375C69.8798 158.017 68.1641 155.106 68.1641 148.942C68.1641 144.396 69.4238 141.164 71.9062 139.34C73.7975 137.952 75.7429 137.912 75.959 137.912H92.221V135.814L80.5995 135.872V130.37C80.5995 130.35 80.559 129.292 81.6229 128.175C82.8117 126.925 85.544 125.436 91.809 125.436H91.9002C98.074 125.449 100.918 127.053 102.215 128.397C103.579 129.809 103.549 131.228 103.549 131.241V141.806C103.549 141.839 103.596 144.805 101.735 146.706C100.688 147.777 99.2324 148.321 97.412 148.321H85.1454C85.1454 148.321 85.0813 148.317 84.9732 148.317C83.9296 148.317 78.7217 148.641 78.7217 155.018V160.878H74.5675H74.5709Z" fill="#00FFFF"/>
<path d="M91.8138 125.601H91.905C95.2722 125.608 99.7742 126.118 102.088 128.503C103.408 129.86 103.388 131.181 103.385 131.248V141.813C103.385 141.843 103.429 144.741 101.618 146.592C100.605 147.629 99.1899 148.155 97.4168 148.155H85.157C85.1334 148.155 85.0726 148.152 84.978 148.152C84.3802 148.152 82.83 148.247 81.3845 149.132C79.5101 150.28 78.5576 152.262 78.5576 155.022V160.712H74.5723C74.319 160.712 68.3344 160.577 68.3344 148.946C68.3344 144.457 69.5705 141.272 72.0089 139.479C73.8563 138.121 75.7511 138.081 75.9604 138.081H75.9807H92.0536H92.3913V135.646H92.0536L80.7732 135.703V130.353C80.7732 130.313 80.7428 129.34 81.7628 128.276C82.9313 127.057 85.6265 125.605 91.8138 125.605M91.8138 125.267C80.1484 125.267 80.4355 130.37 80.4355 130.37V136.044L92.057 135.987V137.743H75.9841C75.9841 137.743 75.9773 137.743 75.9638 137.743C75.5113 137.743 68 137.909 68 148.942C68 160.952 74.3731 161.047 74.5757 161.047H78.8987V155.018C78.8987 148.79 83.9817 148.486 84.9814 148.486C85.0895 148.486 85.1502 148.49 85.1502 148.49H97.4202C103.888 148.49 103.726 141.803 103.726 141.803V131.245C103.726 131.245 103.949 125.291 91.9084 125.264C91.878 125.264 91.8476 125.264 91.8172 125.264L91.8138 125.267Z" fill="#0E425E"/>
<path d="M85.4865 132.332C86.1953 132.332 86.7699 131.758 86.7699 131.049C86.7699 130.34 86.1953 129.766 85.4865 129.766C84.7777 129.766 84.2031 130.34 84.2031 131.049C84.2031 131.758 84.7777 132.332 85.4865 132.332Z" fill="#0E425E"/>
<path d="M92.0757 172.89C85.912 172.89 83.0717 171.289 81.7714 169.949C80.3968 168.53 80.4272 167.098 80.4272 167.081V155.723C80.4272 155.689 80.3225 153.298 81.9065 151.63C82.9332 150.549 84.4429 149.998 86.3916 149.998H86.5605C88.6038 150.032 90.6201 150.049 92.5621 150.049C95.8651 150.049 97.8206 149.998 97.8409 149.998H97.9051C98.6582 149.998 105.254 149.782 105.254 142.305V137.441H109.405C109.672 137.441 115.815 137.577 115.815 149.377C115.815 153.923 114.555 157.155 112.073 158.979C110.182 160.367 108.236 160.407 108.02 160.407H91.7583V162.505L103.38 162.447V167.949C103.38 167.966 103.41 169.02 102.336 170.138C101.13 171.391 98.3745 172.883 92.0791 172.883L92.0757 172.89Z" fill="#0CC9AB"/>
<path d="M109.407 137.277V137.615C109.661 137.615 115.645 137.75 115.645 149.381C115.645 153.87 114.409 157.055 111.971 158.848C110.123 160.206 108.229 160.246 108.019 160.246H107.999H91.9262H91.5884V162.681H91.9262L103.207 162.624V167.97C103.207 168.011 103.227 168.98 102.2 170.041C101.015 171.263 98.2959 172.722 92.0748 172.722C88.7109 172.722 84.219 172.222 81.9021 169.841C80.5715 168.477 80.5951 167.143 80.5951 167.075V155.704C80.5951 155.68 80.4972 153.353 82.0305 151.742C83.0234 150.698 84.4926 150.168 86.3907 150.168C86.4481 150.168 86.5021 150.168 86.5595 150.168C88.6028 150.202 90.6225 150.219 92.5645 150.219C95.7595 150.219 97.6947 150.172 97.8399 150.168C97.8534 150.168 97.8737 150.168 97.9075 150.168C98.6775 150.168 105.425 149.949 105.425 142.306V137.611H109.411V137.273M109.411 137.273H105.088V142.306C105.088 149.624 98.6437 149.83 97.9075 149.83C97.8636 149.83 97.8399 149.83 97.8399 149.83C97.8399 149.83 95.9047 149.881 92.5645 149.881C90.8961 149.881 88.873 149.868 86.5663 149.83C86.5089 149.83 86.4515 149.83 86.394 149.83C79.9534 149.83 80.2641 155.721 80.2641 155.721V167.075C80.2641 167.075 80.0412 173.057 92.0815 173.057C104.122 173.057 103.551 167.953 103.551 167.953V162.279L91.9295 162.337V160.581H108.002C108.002 160.581 108.009 160.581 108.023 160.581C108.475 160.581 115.986 160.415 115.986 149.381C115.986 137.371 109.613 137.277 109.411 137.277V137.273Z" fill="#0E425E"/>
<path d="M98.4904 168.557C99.1992 168.557 99.7738 167.982 99.7738 167.274C99.7738 166.565 99.1992 165.99 98.4904 165.99C97.7816 165.99 97.207 166.565 97.207 167.274C97.207 167.982 97.7816 168.557 98.4904 168.557Z" fill="#0E425E"/>
<path d="M100.492 46.0542C105.385 47.2464 108.097 50.8939 110.509 54.9029C114.71 61.8906 118.969 68.848 123.133 75.8594C124.011 77.3353 124.896 77.8284 126.666 77.3454C137.437 74.4173 148.217 71.506 159.058 68.848C161.571 68.2299 164.408 68.1759 166.958 68.6251C171.116 69.3613 173.149 72.9076 171.815 76.903C171.041 79.2165 169.798 81.5266 168.245 83.4044C160.855 92.3443 153.286 101.142 145.779 109.984C143.843 112.264 143.83 112.257 145.194 114.841C149.541 123.078 153.874 131.326 158.251 139.546C159.855 142.556 160.899 145.666 160.058 149.087C158.629 154.903 152.841 158.493 146.613 156.984C140.179 155.423 133.87 153.35 127.507 151.489C125.72 150.965 123.957 150.367 122.164 149.871C121.154 149.591 120.641 149.101 120.462 147.983C119.749 143.508 118.912 139.05 118.135 134.585C118.088 134.318 118.159 134.031 118.182 133.592C126.068 135.757 133.833 137.888 142.084 140.151C141.621 139.101 141.378 138.435 141.05 137.817C136.879 129.88 132.735 121.93 128.483 114.037C127.622 112.436 127.791 111.345 128.956 109.998C135.44 102.503 141.851 94.9449 148.274 87.3965C148.889 86.6737 149.433 85.8902 150.01 85.1336C149.916 84.9985 149.818 84.8601 149.723 84.725C147.552 85.2789 145.377 85.8159 143.212 86.39C135.059 88.5448 126.899 90.6725 118.77 92.9083C117.351 93.3001 116.666 92.9455 115.956 91.7566C111.448 84.2049 106.882 76.6868 102.325 69.1655C101.883 68.4359 101.363 67.7537 100.576 66.6088C100.272 67.8787 100.039 68.6656 99.8971 69.466C98.1848 79.0172 96.459 88.5684 94.8108 98.1297C94.5778 99.4807 93.9361 100.116 92.6831 100.504C83.3548 103.412 74.0367 106.36 64.7219 109.312C63.7661 109.616 62.8407 110.028 61.9018 110.386C61.9018 110.558 61.9018 110.731 61.9018 110.903C69.9771 114.122 78.0557 117.337 86.3809 120.657C85.8743 121.065 85.5703 121.356 85.2191 121.582C80.5786 124.598 75.9111 127.58 71.2976 130.637C70.1425 131.4 69.1226 131.468 67.8763 130.904C62.0436 128.266 56.1839 125.686 50.3309 123.085C47.0211 121.616 44.1233 119.627 42.0935 116.55C38.9762 111.825 39.7767 106.529 44.4509 103.358C46.7746 101.784 49.4528 100.599 52.1311 99.7069C61.564 96.5626 71.0544 93.5872 80.5516 90.6387C82.1423 90.1456 82.7874 89.2236 83.0508 87.7038C84.672 78.3722 86.31 69.0405 87.9953 59.719C88.6269 56.2335 90.042 53.0723 92.2373 50.2522C94.007 47.9793 96.3745 46.7567 99.0798 46.0508H100.481L100.492 46.0542Z" fill="#0CC9AB"/>
</svg>
