<svg width="214" height="213" viewBox="0 0 214 213" fill="none" xmlns="http://www.w3.org/2000/svg">
<rect x="0.875" y="0.0625" width="212.235" height="212.235" rx="106.118" fill="#0E425E"/>
<path d="M136.363 86.7472C140.225 90.5996 143.289 95.1773 145.376 100.217C147.464 105.257 148.535 110.66 148.528 116.116C148.528 121.57 147.454 126.971 145.366 132.01C143.279 137.049 140.22 141.627 136.363 145.484C132.507 149.341 127.928 152.4 122.889 154.488C117.85 156.575 112.449 157.649 106.995 157.649C95.9792 157.649 85.4149 153.273 77.6259 145.484C69.8368 137.695 65.4609 127.131 65.4609 116.116C65.4609 81.1726 109.083 54.709 109.083 54.709" stroke="#0CC9AB" stroke-width="20" stroke-miterlimit="10"/>
<path d="M129.016 74.8129C129.612 71.134 127.113 67.6681 123.434 67.0718C119.755 66.4754 116.29 68.9743 115.693 72.6532C115.097 76.3321 117.596 79.7979 121.275 80.3943C124.953 80.9907 128.419 78.4918 129.016 74.8129Z" fill="#C5FFF6"/>
</svg>
