<svg width="213" height="214" viewBox="0 0 213 214" fill="none" xmlns="http://www.w3.org/2000/svg">
<rect x="0.46875" y="0.9375" width="212.235" height="212.235" rx="106.118" fill="#0E425E"/>
<path d="M148.701 86.0806C147.602 85.6001 146.47 85.1404 145.303 84.7015C145.506 83.4727 145.674 82.2616 145.808 81.0681C147.284 67.824 144.195 58.2778 137.109 54.1855C130.024 50.0932 120.211 52.1924 109.48 60.0935C108.513 60.8046 107.549 61.5561 106.586 62.3478C105.623 61.5577 104.658 60.8062 103.692 60.0935C92.9604 52.1924 83.1482 50.0939 76.0619 54.1855C68.9757 58.2771 65.8863 67.824 67.3632 81.0681C67.4961 82.2605 67.6646 83.4716 67.8687 84.7015C66.7031 85.1401 65.5705 85.5998 64.4708 86.0806C52.2625 91.4233 45.5391 98.8723 45.5391 107.055C45.5391 115.237 52.2625 122.686 64.4708 128.029C65.5691 128.51 66.7018 128.97 67.8687 129.409C67.6656 130.637 67.497 131.848 67.3632 133.042C65.8873 146.286 68.9763 155.832 76.0619 159.925C78.4817 161.3 81.2243 162.005 84.0073 161.967C89.8051 161.967 96.5454 159.278 103.692 154.017C104.658 153.305 105.623 152.553 106.586 151.762C107.549 152.552 108.513 153.304 109.48 154.017C116.627 159.279 123.367 161.967 129.165 161.967C131.948 162.005 134.69 161.3 137.11 159.925C144.197 155.833 147.286 146.286 145.809 133.042C145.676 131.85 145.508 130.638 145.303 129.409C146.47 128.97 147.603 128.51 148.701 128.029C160.909 122.686 167.633 115.238 167.633 107.055C167.633 98.872 160.909 91.4233 148.701 86.0806ZM113.548 65.6211C119.447 61.2776 124.867 59.0133 129.13 59.0133C130.718 58.9766 132.286 59.3621 133.676 60.1305C138.19 62.736 140.124 70.0903 138.985 80.3072C138.903 81.043 138.806 81.7875 138.693 82.5405C133.409 81.0715 128.02 80.0088 122.573 79.3616C119.29 74.9681 115.675 70.8323 111.76 66.9903C112.355 66.5173 112.951 66.0609 113.548 65.6211ZM131.393 121.379C132.501 119.46 133.553 117.532 134.548 115.595C135.641 118.619 136.576 121.698 137.351 124.819C134.261 125.708 131.127 126.437 127.962 127.002C129.139 125.173 130.283 123.298 131.393 121.379ZM125.449 117.946C123.362 121.561 121.141 125.012 118.824 128.257C114.856 128.641 110.756 128.838 106.583 128.838C102.41 128.838 98.3116 128.641 94.3422 128.257C92.0251 125.012 89.8048 121.561 87.7179 117.946C85.6311 114.332 83.753 110.684 82.101 107.055C83.753 103.426 85.6315 99.7784 87.7179 96.1632C89.8044 92.548 92.0247 89.0982 94.3422 85.853C98.311 85.4689 102.41 85.2716 106.583 85.2716C110.757 85.2716 114.855 85.4689 118.824 85.853C121.141 89.0979 123.362 92.549 125.449 96.1632C127.535 99.7774 129.414 103.426 131.066 107.055C129.414 110.684 127.535 114.333 125.449 117.946ZM106.583 142.582C104.268 140.351 102.07 138.001 99.9972 135.543C102.171 135.648 104.366 135.701 106.583 135.703C108.8 135.705 110.995 135.651 113.169 135.543C111.096 138.001 108.898 140.351 106.583 142.582ZM81.7732 121.379C82.8807 123.298 84.0248 125.172 85.2055 127.002C82.0401 126.437 78.9062 125.708 75.8162 124.819C76.5909 121.698 77.5266 118.619 78.6197 115.595C79.6155 117.53 80.6669 119.458 81.7739 121.379H81.7732ZM78.619 98.5143C77.5261 95.4905 76.5906 92.4121 75.8162 89.2915C78.9061 88.4023 82.04 87.6736 85.2052 87.1082C84.0279 88.9376 82.8838 90.812 81.7729 92.7313C80.662 94.6506 79.6109 96.5783 78.6197 98.5143H78.619ZM106.583 71.5274C108.898 73.7589 111.096 76.1087 113.169 78.5673C110.995 78.4623 108.8 78.4089 106.583 78.407C104.367 78.4052 102.171 78.4586 99.9972 78.5673C102.07 76.1086 104.268 73.7588 106.583 71.5274ZM131.393 92.731C130.285 90.8123 129.141 88.9379 127.96 87.1079C131.126 87.6733 134.261 88.4021 137.351 89.2915C136.576 92.4123 135.641 95.4909 134.548 98.515C133.552 96.5799 132.5 94.6519 131.393 92.731H131.393ZM74.1824 80.3072C73.0429 70.0903 74.978 62.736 79.4911 60.1305C84.0042 57.5251 91.3407 59.5261 99.619 65.6222C100.215 66.061 100.811 66.5174 101.407 66.9913C97.4926 70.8333 93.8776 74.9692 90.5938 79.3626C85.1473 80.0098 79.7583 81.0726 74.4738 82.5416C74.3628 81.7885 74.2657 81.0437 74.1824 80.3072ZM67.219 121.741C57.8012 117.619 52.3995 112.268 52.3995 107.055C52.3995 101.842 57.8012 96.491 67.219 92.3692C67.8975 92.0717 68.5908 91.7836 69.299 91.5049C70.669 96.8154 72.4432 102.013 74.606 107.053C72.4431 112.094 70.6689 117.292 69.299 122.603C68.5917 122.325 67.8984 122.038 67.219 121.741ZM99.6197 148.489C91.3414 154.584 84.0049 156.585 79.4918 153.98C74.9787 151.375 73.0436 144.02 74.1831 133.804C74.265 133.067 74.3622 132.323 74.4745 131.57C79.7591 133.039 85.1482 134.102 90.5949 134.749C93.8781 139.142 97.4925 143.278 101.407 147.12C100.812 147.593 100.216 148.049 99.6197 148.489ZM138.984 133.803C140.123 144.02 138.188 151.374 133.675 153.98C129.161 156.585 121.825 154.584 113.547 148.488C112.951 148.049 112.355 147.592 111.759 147.119C115.673 143.277 119.287 139.141 122.57 134.748C128.017 134.101 133.406 133.038 138.691 131.569C138.804 132.322 138.902 133.066 138.984 133.803ZM145.948 121.741C145.269 122.038 144.576 122.326 143.868 122.605C142.498 117.294 140.723 112.095 138.561 107.055C140.723 102.015 142.498 96.8171 143.868 91.5067C144.575 91.7861 145.269 92.0741 145.948 92.3709C155.366 96.4927 160.767 101.844 160.767 107.057C160.767 112.269 155.366 117.619 145.949 121.741H145.948Z" fill="#0CC9AB"/>
<path d="M115.804 110.012C117.438 104.762 114.506 99.1829 109.257 97.5498C104.007 95.9167 98.4277 98.8483 96.7946 104.098C95.1615 109.347 98.0931 114.927 103.343 116.56C108.592 118.193 114.171 115.261 115.804 110.012Z" fill="#C5FFF6"/>
</svg>
