<svg width="213" height="213" viewBox="0 0 213 213" fill="none" xmlns="http://www.w3.org/2000/svg">
<rect width="212.235" height="212.235" rx="106.118" fill="#0E425E"/>
<path d="M124.559 75.888L128.146 72.3019V47.5431L124.559 43.957H87.4212L83.8352 47.5431V72.3019L87.4212 75.888H124.559ZM91.0073 51.1291H120.973V68.7159H91.0073V51.1291Z" fill="#C5FFF6"/>
<path d="M133.621 79.377H78.3553V86.5491H133.621V79.377Z" fill="#C5FFF6"/>
<path d="M101.384 153.607H46.1172V160.779H101.384V153.607Z" fill="#0CC9AB"/>
<path d="M166.117 153.607H110.851V160.779H166.117V153.607Z" fill="#0CC9AB"/>
<path d="M134.898 118.187H119.915L116.329 121.773V146.532L119.915 150.118H157.054L160.64 146.532V121.773L157.054 118.187H142.07V102.147L138.484 98.5611H109.574V90.1471H102.402V98.5611H73.7497L70.1636 102.147V118.187H55.1804L51.5943 121.773V146.532L55.1804 150.118H92.319L95.905 146.532V121.773L92.319 118.187H77.3357V105.733H134.9L134.898 118.187ZM88.7315 125.359V142.946H58.765V125.359H88.7315ZM153.468 125.359V142.946H123.501V125.359H153.468Z" fill="#0CC9AB"/>
</svg>
