<svg width="213" height="213" viewBox="0 0 213 213" fill="none" xmlns="http://www.w3.org/2000/svg">
<rect x="0.234375" width="212.235" height="212.235" rx="106.118" fill="#0E425E"/>
<path d="M137.243 97.6395C136.589 97.5535 135.954 97.4699 135.322 97.389C134.772 95.9758 134.19 94.5792 133.576 93.1994C133.985 92.6721 134.378 92.1595 134.748 91.6759C135.054 91.2751 135.349 90.8888 135.631 90.5249L138.729 86.5249L127.77 74.7658L123.474 78.0984C123.041 78.4357 122.607 78.7681 122.173 79.0956C121.676 79.4735 121.173 79.857 120.666 80.2521C119.784 79.8707 118.913 79.5207 118.06 79.1774C117.507 78.9551 116.969 78.7388 116.447 78.5228C116.355 77.8979 116.273 77.2483 116.189 76.5797C116.116 75.9971 116.04 75.3948 115.954 74.7798L115.235 69.6556H99.4586L98.6811 74.7004C98.5918 75.283 98.4972 75.8558 98.4044 76.4226C98.2987 77.0651 98.1919 77.7176 98.0913 78.3802C96.6226 78.9387 95.2241 79.5128 93.8732 80.1114C93.3263 79.6949 92.785 79.2937 92.2524 78.8974C91.8213 78.5766 91.3964 78.2606 90.9828 77.9479L86.8905 74.8533L75.4599 86.061L78.7738 90.2566C79.0963 90.6648 79.4159 91.0799 79.7542 91.5194C80.1475 92.0306 80.5469 92.5495 80.9626 93.0726C80.2871 94.4949 79.6944 95.9057 79.1885 97.2932C78.5021 97.386 77.8278 97.4845 77.1652 97.5812C76.6272 97.6601 76.0916 97.738 75.5584 97.8115L70.4213 98.5212V114.301L75.4703 115.074C76.0493 115.163 76.6197 115.256 77.1845 115.347C77.8314 115.452 78.4884 115.559 79.1552 115.66C79.7042 117.108 80.2829 118.519 80.8864 119.882C80.4716 120.428 80.077 120.958 79.706 121.459C79.4132 121.852 79.1323 122.231 78.8642 122.585L75.7872 126.651L86.9815 138.215L91.2068 134.859C91.6174 134.533 92.0364 134.205 92.4592 133.877C92.927 133.512 93.4013 133.142 93.88 132.761C95.3205 133.421 96.7053 134.003 98.0556 134.517C98.1508 135.206 98.2511 135.886 98.3499 136.554C98.4326 137.113 98.515 137.671 98.5933 138.228L99.3119 143.353H115.059L115.843 138.318C115.935 137.732 116.029 137.152 116.122 136.578C116.23 135.912 116.34 135.236 116.445 134.551C117.93 133.97 119.325 133.391 120.651 132.804C121.173 133.211 121.694 133.611 122.206 134.005C122.677 134.366 123.15 134.731 123.626 135.1L127.885 138.412L138.908 126.789L135.773 122.752C135.419 122.296 135.072 121.841 134.728 121.39C134.341 120.884 133.949 120.37 133.547 119.854C134.225 118.468 134.83 117.049 135.362 115.601C136.103 115.506 136.823 115.397 137.531 115.29C138.061 115.21 138.562 115.134 139.058 115.066L144.198 114.36V98.5387L139.007 97.8701C138.409 97.793 137.822 97.7157 137.243 97.6395ZM138.246 109.167C136.474 109.411 134.7 109.734 132.913 109.875C131.427 109.994 130.709 110.52 130.251 112.091C129.544 114.509 128.432 116.832 127.279 119.086C126.721 120.176 126.713 120.896 127.484 121.812C128.72 123.278 129.855 124.831 131.073 126.399L127.279 130.4C125.629 129.117 124.009 127.909 122.452 126.624C122.146 126.333 121.744 126.163 121.321 126.146C120.924 126.17 120.537 126.28 120.187 126.471C117.645 127.674 115.032 128.741 112.397 129.726C111.478 130.069 110.994 130.47 110.871 131.459C110.628 133.42 110.28 135.369 109.964 137.4H104.488C104.217 135.469 103.895 133.532 103.69 131.583C103.565 130.388 102.993 129.943 101.85 129.555C99.347 128.688 96.9021 127.661 94.5302 126.482C94.1294 126.256 93.6825 126.123 93.2233 126.095C92.746 126.113 92.2928 126.309 91.9531 126.645C90.4927 127.898 88.9495 129.055 87.5079 130.201L83.6129 126.177C84.5901 124.886 85.7363 123.286 86.9768 121.764C87.7034 120.871 87.5846 120.17 87.1065 119.165C85.9751 116.772 84.9683 114.322 84.0899 111.825C83.7245 110.793 83.329 110.19 82.179 110.062C80.2675 109.85 78.3703 109.501 76.3766 109.195V103.708C78.2134 103.455 80.0883 103.147 81.9751 102.952C83.2707 102.818 83.8286 102.257 84.2392 100.941C85.0111 98.5231 85.9969 96.1786 87.185 93.9356C87.8206 92.7192 87.8177 91.9384 86.9271 90.9329C85.6952 89.5418 84.6002 88.0296 83.4456 86.5695L87.3963 82.6963C88.8543 83.799 90.4513 84.944 91.9739 86.1797C92.3283 86.5057 92.7879 86.6936 93.2692 86.7094C93.7267 86.684 94.1728 86.5574 94.5754 86.3387C96.969 85.2091 99.4175 84.2001 101.912 83.3155C102.928 82.9515 103.567 82.5918 103.693 81.4215C103.898 79.5097 104.256 77.6144 104.565 75.6076H110.063C110.349 77.6492 110.528 79.6841 110.973 81.662C111.117 82.3005 111.86 83.001 112.502 83.2958C114.957 84.4224 117.537 85.2871 119.959 86.475C120.373 86.7072 120.834 86.842 121.308 86.8692C121.825 86.848 122.315 86.6359 122.684 86.2741C124.109 85.0672 125.624 83.9656 127.125 82.801L130.928 86.8817C129.898 88.2124 128.69 89.8343 127.41 91.3977C126.785 92.163 126.808 92.7486 127.243 93.6645C128.449 96.205 129.534 98.8122 130.496 101.455C130.869 102.48 131.398 102.912 132.4 103.028C134.311 103.247 136.217 103.511 138.248 103.772L138.246 109.167Z" fill="#0CC9AB"/>
<path d="M107.27 88.007H107.257C104.828 88.0011 102.422 88.4754 100.178 89.4026C97.9326 90.3298 95.8932 91.6916 94.1764 93.4097C92.4596 95.1278 91.0994 97.1683 90.1739 99.414C89.2485 101.66 88.7761 104.066 88.7839 106.495C88.7788 108.923 89.2535 111.328 90.1807 113.573C91.1078 115.817 92.4692 117.856 94.1867 119.573C95.9041 121.29 97.9437 122.65 100.188 123.576C102.433 124.503 104.839 124.976 107.267 124.97V119.019C105.62 119.027 103.987 118.707 102.464 118.08C100.941 117.452 99.5572 116.529 98.3931 115.363C97.2272 114.2 96.3036 112.817 95.6757 111.295C95.0478 109.772 94.7281 108.14 94.735 106.493C94.7265 104.846 95.0447 103.213 95.6713 101.689C96.2979 100.166 97.2203 98.7814 98.3854 97.6166C99.5497 96.4505 100.934 95.5268 102.457 94.8988C103.98 94.2709 105.613 93.9511 107.261 93.9581C108.909 93.9501 110.541 94.269 112.065 94.8963C113.588 95.5236 114.972 96.4469 116.136 97.6127C117.302 98.7761 118.226 100.159 118.854 101.682C119.482 103.204 119.803 104.836 119.797 106.483C119.804 108.131 119.485 109.763 118.858 111.286C118.231 112.809 117.307 114.192 116.141 115.355C114.979 116.522 113.596 117.447 112.073 118.075C110.551 118.704 108.918 119.025 107.271 119.018L107.268 124.969H107.272C109.701 124.974 112.107 124.498 114.351 123.57C116.595 122.642 118.634 121.28 120.351 119.562C122.067 117.844 123.428 115.804 124.354 113.559C125.28 111.314 125.754 108.908 125.748 106.48C125.752 104.052 125.277 101.648 124.35 99.4039C123.423 97.1603 122.062 95.1218 120.345 93.4055C118.629 91.6891 116.59 90.3287 114.346 89.4023C112.102 88.4759 109.697 88.0017 107.27 88.007Z" fill="#00FFFF"/>
<path d="M71.4205 67.4466C80.977 58.818 93.3976 54.0461 106.273 54.0566C119.149 54.0461 131.569 58.818 141.126 67.4466C149.72 75.1809 155.489 85.5598 157.521 96.9414L154.184 93.6324L149.994 97.8576L161.175 108.945L171.352 96.2788L166.712 92.5519L163.493 96.5594C161.339 83.623 154.859 71.8006 145.111 63.0267C134.462 53.4116 120.621 48.0942 106.273 48.1055C91.9249 48.0941 78.084 53.4116 67.4345 63.0267C56.8695 72.533 50.1706 85.5934 48.6138 99.72L54.5295 100.37C55.9276 87.6939 61.9397 75.9755 71.4205 67.4466Z" fill="#C5FFF6"/>
<path d="M141.126 144.789C131.57 153.418 119.149 158.19 106.274 158.179C93.3982 158.19 80.9776 153.418 71.4211 144.789C62.7917 137.023 57.0111 126.591 55.0011 115.157L58.683 118.222L62.489 113.647L50.3839 103.576L41.3516 117.081L46.2981 120.39L49.1336 116.15C51.3665 128.906 57.8102 140.546 67.4353 149.209C78.0848 158.824 91.9258 164.142 106.274 164.13C120.622 164.142 134.463 158.824 145.112 149.209C155.677 139.703 162.376 126.642 163.933 112.515L158.017 111.866C156.619 124.542 150.607 136.26 141.126 144.789Z" fill="#C5FFF6"/>
</svg>
