<svg width="213" height="214" viewBox="0 0 213 214" fill="none" xmlns="http://www.w3.org/2000/svg">
<rect x="0.234375" y="0.9375" width="212.235" height="212.235" rx="106.118" fill="#0E425E"/>
<path d="M110.149 115.904H102.552V123.403H110.149V115.904Z" fill="#00FFFF"/>
<path d="M110.149 90.711H102.552V112.62H110.149V90.711Z" fill="#C5FFF6"/>
<path d="M106.282 74.8636H106.261C102.033 74.8534 97.846 75.6788 93.939 77.2925C90.0319 78.9062 86.4824 81.2764 83.4945 84.2666C80.5066 87.2568 78.1392 90.8082 76.5286 94.7165C74.9179 98.6248 74.0957 102.813 74.1092 107.04C74.1003 111.266 74.9264 115.453 76.54 119.359C78.1536 123.265 80.5229 126.814 83.5119 129.801C86.5008 132.789 90.0506 135.157 93.9573 136.769C97.864 138.381 102.051 139.206 106.277 139.195V133.389C102.812 133.404 99.3789 132.731 96.1757 131.411C92.9725 130.09 90.0629 128.147 87.6153 125.695C85.162 123.249 83.2183 120.341 81.8965 117.139C80.5747 113.937 79.9011 110.504 79.9148 107.04C79.8981 103.575 80.5687 100.14 81.8879 96.9362C83.2071 93.7319 85.1486 90.8211 87.6002 88.3721C90.0476 85.9185 92.9572 83.9745 96.1607 82.6526C99.3642 81.3306 102.798 80.6568 106.264 80.6704H106.282C109.744 80.6563 113.175 81.329 116.376 82.6496C119.577 83.9702 122.485 85.9124 124.93 88.3639C127.383 90.8104 129.327 93.7189 130.649 96.9212C131.971 100.123 132.646 103.556 132.633 107.02C132.649 110.485 131.977 113.918 130.657 117.121C129.336 120.325 127.393 123.234 124.94 125.681C122.495 128.136 119.586 130.081 116.384 131.404C113.181 132.728 109.748 133.402 106.283 133.39L106.277 139.196H106.285C110.511 139.203 114.698 138.376 118.604 136.761C122.51 135.146 126.059 132.775 129.047 129.786C132.034 126.796 134.402 123.245 136.014 119.338C137.626 115.43 138.45 111.243 138.44 107.016C138.448 102.791 137.622 98.6064 136.009 94.7013C134.396 90.7963 132.027 87.2482 129.039 84.2608C126.052 81.2734 122.503 78.9056 118.598 77.2929C114.693 75.6803 110.507 74.8547 106.282 74.8636Z" fill="#0CC9AB"/>
<path d="M160.936 96.5431C159.891 96.4084 158.863 96.2734 157.85 96.1398C155.783 95.8681 153.814 95.6088 151.824 95.3711C150.301 91.2581 148.607 87.1944 146.777 83.2646C148.097 81.6147 149.353 79.9721 150.487 78.4889C151.028 77.7822 151.548 77.1016 152.044 76.4606L155.067 72.5578L141.466 57.9633L137.275 61.215C136.516 61.8038 135.733 62.4001 134.975 62.9766C133.423 64.1588 131.826 65.3744 130.257 66.6617C127.949 65.5642 125.621 64.6294 123.364 63.7204C121.558 62.9946 119.846 62.3057 118.181 61.5547C117.805 59.6467 117.554 57.6437 117.289 55.5418C117.164 54.544 117.034 53.5119 116.889 52.4743L116.187 47.4746H96.5903L95.8323 52.3973C95.6749 53.4175 95.5065 54.4455 95.3434 55.4396C95.024 57.3929 94.6936 59.4004 94.4379 61.4306C90.0886 63.0045 86.1222 64.6361 82.3538 66.4018C80.6975 65.091 79.038 63.8566 77.4244 62.6567C76.6469 62.0784 75.9127 61.532 75.1913 60.9868L71.1985 57.9689L57.0261 71.8651L60.2597 75.9586C60.8386 76.6917 61.4036 77.4256 62.0016 78.2028C63.2332 79.8028 64.5007 81.4499 65.8803 83.0614C63.8557 86.9582 62.1546 91.0146 60.7942 95.1899C58.665 95.43 56.5729 95.7354 54.5421 96.0318C53.5663 96.1741 52.6446 96.3087 51.7152 96.4382L46.7031 97.1307V116.722L51.6296 117.477C52.644 117.632 53.6674 117.798 54.6568 117.959C56.6214 118.278 58.6409 118.605 60.6801 118.865C62.1979 123.095 63.8664 127.157 65.6466 130.956C64.3213 132.629 63.0796 134.299 61.9616 135.803C61.439 136.507 60.9431 137.173 60.4754 137.791L57.4717 141.758L71.3727 156.117L75.4952 152.843C76.2129 152.274 76.9378 151.708 77.7052 151.109C79.2221 149.925 80.7826 148.708 82.33 147.419C86.2544 149.338 90.287 151.026 94.4074 152.476C94.6547 154.585 94.9622 156.665 95.2609 158.686C95.4046 159.656 95.553 160.66 95.6894 161.634L96.3906 166.634H115.943L116.708 161.722C116.868 160.698 117.036 159.664 117.198 158.664C117.52 156.675 117.852 154.629 118.133 152.575C122.578 150.894 126.552 149.238 130.22 147.537C131.829 148.831 133.462 150.085 135.051 151.307C135.877 151.941 136.707 152.582 137.544 153.229L141.7 156.461L155.356 142.059L152.297 138.121C151.678 137.323 151.056 136.509 150.455 135.72C149.233 134.119 147.976 132.471 146.654 130.858C148.576 127.066 150.487 122.988 151.774 118.679C154.009 118.485 156.173 118.159 158.269 117.842C159.208 117.7 160.094 117.566 160.987 117.444L166.003 116.754V97.1951L160.936 96.5431ZM160.195 111.691C157.11 112.115 154.023 112.679 150.912 112.924C148.327 113.129 147.077 114.046 146.278 116.78C145.049 120.99 143.114 125.031 141.106 128.954C140.135 130.851 140.122 132.105 141.464 133.698C143.615 136.251 145.59 138.953 147.71 141.682L141.107 148.646C138.236 146.413 135.416 144.311 132.705 142.074C132.002 141.493 131.388 141.242 130.735 141.242C130.044 141.283 129.369 141.476 128.761 141.807C124.337 143.902 119.79 145.759 115.203 147.473C113.606 148.07 112.762 148.766 112.548 150.488C112.125 153.902 111.52 157.293 110.969 160.828H101.438C100.967 157.467 100.407 154.096 100.051 150.704C99.832 148.625 98.8362 147.851 96.8472 147.176C92.4901 145.666 88.234 143.879 84.105 141.826C83.2454 141.405 82.5222 141.151 81.8303 141.151C81.0996 141.151 80.404 141.435 79.6198 142.109C77.0781 144.291 74.394 146.305 71.8833 148.298C69.6719 146.013 67.5172 143.788 65.1043 141.295C66.805 139.047 68.7998 136.263 70.9589 133.613C72.2236 132.061 72.0169 130.84 71.1848 129.091C69.2157 124.926 67.4633 120.662 65.9346 116.317C65.2982 114.519 64.6102 113.472 62.6084 113.248C59.2816 112.878 55.9815 112.27 52.5081 111.739V102.19C55.7048 101.749 58.9684 101.214 62.2519 100.874C64.5068 100.641 65.478 99.6637 66.1921 97.374C67.5359 93.1651 69.2523 89.0844 71.321 85.1805C72.4271 83.0634 72.4216 81.7044 70.8718 79.9547C68.7278 77.534 66.8221 74.903 64.8146 72.3604L71.69 65.6194C74.2294 67.5385 77.0072 69.5315 79.6573 71.6822C80.4525 72.3276 81.1646 72.604 81.9113 72.604C82.7076 72.5598 83.484 72.3394 84.1849 71.9589C88.3507 69.9928 92.6123 68.2366 96.9538 66.6968C98.7227 66.0633 99.8341 65.4377 100.053 63.4008C100.411 60.0734 101.033 56.7745 101.571 53.2822H111.139C111.637 56.8351 111.949 60.3794 112.725 63.8191C112.975 64.9308 114.267 66.1501 115.385 66.6628C119.658 68.6239 124.147 70.1287 128.362 72.1961C129.255 72.6339 130.003 72.8819 130.71 72.8819C131.509 72.8819 132.257 72.5654 133.104 71.848C135.585 69.7476 138.222 67.8302 140.834 65.8032L147.453 72.9053C145.66 75.2209 143.558 78.0441 141.331 80.765C140.241 82.0967 140.284 83.1165 141.041 84.7104C143.139 89.132 145.03 93.668 146.702 98.2685C147.351 100.054 148.271 100.807 150.017 101.007C153.343 101.387 156.66 101.848 160.195 102.303V111.691Z" fill="#0CC9AB"/>
</svg>
