<svg width="213" height="213" viewBox="0 0 213 213" fill="none" xmlns="http://www.w3.org/2000/svg">
<rect x="0.40625" width="212.235" height="212.235" rx="106.118" fill="#0E425E"/>
<path d="M128.458 123.404C131.773 123.4 134.951 122.082 137.294 119.738C139.638 117.395 140.956 114.217 140.96 110.903C140.956 107.588 139.638 104.41 137.294 102.067C134.951 99.7231 131.773 98.4048 128.458 98.4011C125.144 98.405 121.966 99.7233 119.623 102.067C117.279 104.411 115.961 107.588 115.957 110.903C115.961 114.217 117.279 117.395 119.623 119.738C121.966 122.082 125.144 123.4 128.458 123.404ZM128.458 105.285C129.948 105.287 131.375 105.879 132.429 106.932C133.482 107.986 134.074 109.413 134.076 110.903C134.074 112.392 133.482 113.82 132.428 114.873C131.375 115.926 129.948 116.518 128.458 116.52C126.969 116.518 125.542 115.926 124.489 114.873C123.436 113.82 122.843 112.392 122.842 110.903C122.843 109.413 123.435 107.986 124.488 106.932C125.541 105.879 126.969 105.287 128.458 105.285Z" fill="#00FFFF"/>
<path d="M119.259 136.836H110.506V143.72H119.259V136.836Z" fill="#C5FFF6"/>
<path d="M157.302 96.1675C156.634 70.0983 136.228 48.8514 110.506 46.8481V53.7592C112.625 53.9498 114.727 54.2949 116.795 54.7919V69.1582L110.506 70.7957V77.9095L123.679 74.4801V57.0664C130.726 60.0695 136.867 64.8587 141.496 70.9609C146.125 77.0631 149.083 84.2674 150.076 91.8622L110.506 83.4634V90.5011L150.435 98.976V113.858C150.437 118.19 149.797 122.497 148.535 126.641L125.976 133.086L122.328 154.827C118.535 156.294 114.557 157.223 110.507 157.587V164.498C136.229 162.494 156.635 141.247 157.303 115.178C157.314 114.739 157.32 114.299 157.32 113.858V96.1872L157.302 96.1675ZM129.953 150.982L132.047 138.513L145.127 134.775C141.529 141.38 136.307 146.957 129.953 150.982Z" fill="#C5FFF6"/>
<path d="M110.506 38.8203H103.621V46.7775C77.3941 48.2631 56.4251 69.7364 55.7474 96.1678L55.7305 96.1885V115.158L55.7474 115.179C56.4251 141.612 77.3945 163.084 103.621 164.57V173.416H110.506V90.5024V38.8203ZM103.621 157.672C80.7578 156.172 62.6147 137.096 62.6147 113.86V98.9896L103.621 90.4556V157.672ZM103.621 83.4227L62.9699 91.8827C64.2833 81.796 69.0518 72.4763 76.4637 65.51C83.8756 58.5437 93.4728 54.3614 103.621 53.6751V83.4227Z" fill="#0CC9AB"/>
</svg>
