<svg width="214" height="213" viewBox="0 0 214 213" fill="none" xmlns="http://www.w3.org/2000/svg">
<rect x="0.8125" y="0.0625" width="212.235" height="212.235" rx="106.118" fill="#0E425E"/>
<path d="M87.1795 73.3701C90.3165 73.3701 92.6765 71.743 94.2597 68.4887H102.087C101.267 71.9482 99.4855 74.7334 96.7443 76.8442C94.0031 78.9551 90.8442 80.0105 87.2674 80.0105C82.9577 80.0105 79.3077 78.53 76.3173 75.5689C73.3269 72.6079 71.8317 68.9871 71.8317 64.7068C71.8317 60.4264 73.3123 56.8643 76.2733 53.9326C79.2344 51.0008 82.8698 49.5349 87.1795 49.5349C92.8671 49.5349 97.2061 51.895 100.196 56.6151C101.223 58.2276 101.853 59.7814 102.087 61.2766H94.2597C93.6733 59.7081 92.7425 58.4658 91.4672 57.5496C90.1919 56.6334 88.748 56.1753 87.1355 56.1753C84.9074 56.1753 83.0457 56.9926 81.5505 58.627C80.0553 60.2615 79.3077 62.2881 79.3077 64.7068C79.3077 67.1255 80.0626 69.2143 81.5725 70.8781C83.0823 72.5419 84.9513 73.3701 87.1795 73.3701Z" fill="#C5FFF6"/>
<path d="M122.273 52.8735C122.976 53.7237 123.46 54.5372 123.724 55.3141C123.988 56.0911 124.164 57.1978 124.252 58.6344H116.82C116.556 56.758 115.662 55.8199 114.137 55.8199C113.433 55.8199 112.825 56.0398 112.312 56.4795C111.799 56.9193 111.542 57.447 111.542 58.0627C111.542 59.2354 112.378 60.2028 114.049 60.9651L117.655 62.5922C120.118 63.7063 121.87 64.9083 122.91 66.1983C123.951 67.4883 124.471 69.1007 124.471 71.0357C124.471 73.8502 123.57 76.049 121.767 77.6322C119.964 79.2153 117.45 80.0069 114.225 80.0069C111 80.0069 108.347 79.1713 106.441 77.5002C104.535 75.8291 103.583 73.5717 103.583 70.7279V69.7604H111.103C111.103 70.9624 111.374 71.9226 111.924 72.6408C112.47 73.3591 113.217 73.7183 114.163 73.7183C114.991 73.7183 115.683 73.4471 116.244 72.9047C116.805 72.3623 117.087 71.6953 117.087 70.9038C117.087 69.6431 116.043 68.5877 113.954 67.7375L110.557 66.3302C109.146 65.7146 107.969 65.0256 107.027 64.2633C105.056 62.6802 104.07 60.6573 104.07 58.1946C104.07 55.7319 105.067 53.709 107.06 52.0379C109.054 50.3668 111.487 49.5312 114.361 49.5312C117.791 49.5312 120.429 50.6453 122.276 52.8735H122.273Z" fill="#C5FFF6"/>
<path d="M144.964 52.8735C145.668 53.7237 146.152 54.5372 146.416 55.3141C146.679 56.0911 146.855 57.1978 146.943 58.6344H139.511C139.247 56.758 138.353 55.8199 136.829 55.8199C136.125 55.8199 135.517 56.0398 135.004 56.4795C134.491 56.9193 134.234 57.447 134.234 58.0627C134.234 59.2354 135.07 60.2028 136.741 60.9651L140.347 62.5922C142.81 63.7063 144.561 64.9083 145.602 66.1983C146.643 67.4883 147.163 69.1007 147.163 71.0357C147.163 73.8502 146.262 76.049 144.459 77.6322C142.656 79.2153 140.142 80.0069 136.917 80.0069C133.692 80.0069 131.039 79.1713 129.133 77.5002C127.227 75.8291 126.274 73.5717 126.274 70.7279V69.7604H133.794C133.794 70.9624 134.066 71.9226 134.615 72.6408C135.161 73.3591 135.909 73.7183 136.854 73.7183C137.683 73.7183 138.375 73.4471 138.936 72.9047C139.497 72.3623 139.779 71.6953 139.779 70.9038C139.779 69.6431 138.734 68.5877 136.646 67.7375L133.248 66.3302C131.837 65.7146 130.661 65.0256 129.719 64.2633C127.748 62.6802 126.762 60.6573 126.762 58.1946C126.762 55.7319 127.759 53.709 129.752 52.0379C131.746 50.3668 134.179 49.5312 137.052 49.5312C140.482 49.5312 143.121 50.6453 144.968 52.8735H144.964Z" fill="#C5FFF6"/>
<path d="M71.238 89.623L75.7273 160.608L109.432 172.83L143.136 160.608L147.625 89.623H71.2344H71.238Z" fill="#0CC9AB"/>
<path d="M85.9408 101.742L86.4612 111.08H95.7695L95.7659 111.036H123.101L122.58 120.37H86.9816L87.502 129.667H96.8066V129.66H122.06L121.331 142.765L109.432 147.082L97.5359 142.765L97.1951 136.634H87.8904L88.605 149.409L109.432 156.962L130.262 149.409L132.926 101.742H85.9408Z" fill="#0E425E"/>
</svg>
