<svg width="213" height="213" viewBox="0 0 213 213" fill="none" xmlns="http://www.w3.org/2000/svg">
<rect x="0.171875" y="0.34375" width="212.235" height="212.235" rx="106.118" fill="#0E425E"/>
<path d="M118.994 75.4863H42.3672V126.589H118.994V75.4863Z" stroke="#0CC9AB" stroke-width="6" stroke-linejoin="bevel"/>
<path d="M118.994 126.479H42.3672V152.032H118.994V126.479Z" stroke="#0CC9AB" stroke-width="6" stroke-linejoin="bevel"/>
<path d="M42.3672 100.957L89.5329 100.957" stroke="#0CC9AB" stroke-width="6" stroke-linejoin="bevel"/>
<path d="M60.2323 84.5391H53.0273V91.744H60.2323V84.5391Z" fill="#00FFFF"/>
<path d="M73.4511 84.5391H66.2461V91.744H73.4511V84.5391Z" fill="#00FFFF"/>
<path d="M60.2323 109.811H53.0273V117.016H60.2323V109.811Z" fill="#00FFFF"/>
<path d="M73.4511 109.811H66.2461V117.016H73.4511V109.811Z" fill="#00FFFF"/>
<path d="M60.2323 135.488H53.0273V142.693H60.2323V135.488Z" fill="#00FFFF"/>
<path d="M73.4511 135.488H66.2461V142.693H73.4511V135.488Z" fill="#00FFFF"/>
<path d="M132.731 156.701L172.994 133.454V86.9613L132.731 63.7148L92.4683 86.9613V130.123H92.3672C93.4609 132.808 95.356 134.155 98.0525 134.155C99.9512 134.155 101.507 133.465 102.716 132.09C103.925 130.715 104.532 128.931 104.532 126.747V92.0655H111.441V127.386C111.441 131.137 110.206 134.259 107.737 136.75C105.734 138.775 103.29 139.977 100.41 140.356L106.362 145.633L108.167 142.507L132.734 156.697L132.731 156.701ZM133.157 119.2L131.449 118.629L129.457 117.987C126.75 117.131 124.995 116.492 124.187 116.063C123.378 115.637 122.523 114.9 121.624 113.854C119.487 111.478 118.418 108.562 118.418 105.093C118.418 101.057 119.711 97.7219 122.299 95.0868C124.887 92.4517 128.15 91.1342 132.092 91.1342C135.796 91.1342 138.857 92.3578 141.279 94.8016C143.701 97.249 145.004 100.44 145.195 104.378H138.145C138.005 102.288 137.337 100.617 136.153 99.3571C134.965 98.1009 133.493 97.4692 131.738 97.4692C129.984 97.4692 128.533 98.1225 127.251 99.4293C125.97 100.736 125.327 102.266 125.327 104.021C125.327 105.873 125.872 107.284 126.966 108.259C128.056 109.233 130.11 110.146 133.128 110.998C136.142 111.854 138.351 112.684 139.752 113.493C141.152 114.301 142.398 115.485 143.491 117.052C145.152 119.427 145.986 122.178 145.986 125.311C145.986 129.632 144.585 133.241 141.784 136.136C138.983 139.031 135.492 140.479 131.316 140.479C127.139 140.479 123.53 139.078 120.776 136.277C118.021 133.476 116.596 129.892 116.502 125.524H123.338C123.909 131.27 126.591 134.14 131.384 134.14C133.568 134.14 135.395 133.382 136.868 131.862C138.337 130.343 139.077 128.469 139.077 126.239C139.077 122.867 137.106 120.517 133.164 119.189L133.157 119.2Z" fill="#0E425E"/>
<path d="M132.732 55.3809L85.25 82.7966V130.098H92.3539C92.3539 130.098 92.3611 130.116 92.3647 130.127H92.4658V86.9658L132.728 63.7193L172.991 86.9658V133.459L132.728 156.705L108.161 142.515L106.356 145.641L104.551 148.767L132.728 165.04L180.214 137.624V82.7966L132.732 55.3809V55.3809Z" fill="#C5FFF6"/>
<path d="M111.437 127.389V92.0684H104.528V126.75C104.528 128.934 103.922 130.714 102.712 132.093C101.503 133.472 99.9472 134.157 98.0485 134.157C95.3521 134.157 93.457 132.815 92.3632 130.125C92.3596 130.115 92.356 130.107 92.3524 130.097H85.2305C85.7539 133.136 87.2483 135.627 89.7173 137.572C92.1864 139.518 95.0597 140.493 98.3337 140.493C99.0484 140.493 99.7379 140.449 100.406 140.359C103.286 139.98 105.73 138.778 107.733 136.753C110.202 134.262 111.437 131.14 111.437 127.389V127.389Z" fill="#00FFFF"/>
<path d="M131.379 134.156C126.582 134.156 123.903 131.283 123.333 125.54H116.496C116.59 129.908 118.016 133.492 120.77 136.293C123.524 139.094 127.036 140.495 131.31 140.495C135.584 140.495 138.977 139.048 141.778 136.153C144.58 133.258 145.98 129.648 145.98 125.327C145.98 122.194 145.15 119.44 143.486 117.068C142.392 115.501 141.147 114.314 139.746 113.509C138.346 112.7 136.136 111.87 133.122 111.015C130.108 110.159 128.054 109.246 126.961 108.275C125.867 107.304 125.322 105.889 125.322 104.037C125.322 102.283 125.964 100.749 127.246 99.4455C128.527 98.1388 130.022 97.4854 131.733 97.4854C133.444 97.4854 134.96 98.1171 136.147 99.3733C137.335 100.633 137.999 102.304 138.14 104.394H145.19C144.998 100.453 143.695 97.2616 141.273 94.8178C138.851 92.3741 135.79 91.1504 132.086 91.1504C128.145 91.1504 124.881 92.4679 122.293 95.103C119.705 97.7381 118.413 101.073 118.413 105.109C118.413 108.574 119.481 111.495 121.618 113.87C122.521 114.913 123.373 115.649 124.181 116.079C124.99 116.505 126.744 117.147 129.451 118.003L131.444 118.645L133.151 119.216C137.093 120.544 139.064 122.894 139.064 126.266C139.064 128.496 138.328 130.373 136.855 131.889C135.382 133.409 133.556 134.167 131.372 134.167L131.379 134.156Z" fill="#00FFFF"/>
</svg>
