<svg width="213" height="213" viewBox="0 0 213 213" fill="none" xmlns="http://www.w3.org/2000/svg">
<rect x="0.40625" width="212.235" height="212.235" rx="106.118" fill="#0E425E"/>
<path d="M151.877 98.881L149.268 91.2886C151.569 89.0344 152.504 85.5771 151.388 82.3299C149.84 77.8324 144.941 75.4405 140.443 76.988C135.946 78.5355 133.554 83.4352 135.101 87.9327C136.236 91.2342 139.175 93.3978 142.44 93.7059L144.22 98.8774H121.029L118.141 90.4841C125.552 86.4432 130.633 78.6587 130.847 69.6891L130.861 69.671V61.3719L130.847 61.3538C130.531 48.2056 119.746 37.6016 106.526 37.6016C93.3049 37.6016 82.516 48.202 82.2043 61.3538L82.1898 61.3719V69.671L82.2043 69.6891C82.4182 78.6587 87.4991 86.4432 94.9104 90.4841L92.022 98.8774H58.3036L54.7773 103.346L60.2135 126.08L63.7397 128.859H75.9818L78.8013 167.829L81.4215 171.051L82.3203 171.308C90.0903 173.526 98.0705 174.635 106.051 174.635C114.031 174.635 122.645 173.436 130.698 171.04L133.278 167.829L136.098 128.859H149.311L152.838 126.08L158.274 103.346L154.747 98.8774H151.884L151.877 98.881ZM101.716 92.9629C103.271 93.2746 104.877 93.4413 106.518 93.4413C108.16 93.4413 109.769 93.2746 111.32 92.9629L113.357 98.881H99.6796L101.716 92.9629ZM106.518 44.8533C114.122 44.8533 120.58 49.8473 122.79 56.7258L107.475 53.475H105.986L90.2389 56.7476C92.4424 49.8546 98.9077 44.8497 106.518 44.8497V44.8533ZM89.4307 69.1056V64.3219L106.718 60.7232L123.609 64.3074V69.102C123.609 78.5246 115.944 86.1932 106.522 86.1932C97.0993 86.1932 89.4344 78.5282 89.4344 69.102L89.4307 69.1056ZM126.226 164.77C112.98 168.264 99.0998 168.268 85.8393 164.767L82.6791 121.082H129.383L126.222 164.774L126.226 164.77ZM136.616 121.615L136.899 117.715L133.286 113.83H78.7905L75.1773 117.715L75.4599 121.615H66.5991L62.8953 106.129H150.152L146.448 121.615H136.616Z" fill="#0CC9AB"/>
<path d="M115.124 135.709V133.803C115.124 128.925 111.156 124.957 106.278 124.957C101.4 124.957 97.4314 128.925 97.4314 133.803V135.716C93.6478 135.894 90.6217 139.022 90.6217 142.849V154.826C90.6217 158.769 93.829 161.973 97.7684 161.973H114.91C118.853 161.973 122.057 158.766 122.057 154.826V142.849C122.057 138.978 118.966 135.825 115.12 135.713L115.124 135.709ZM104.683 133.803C104.683 132.922 105.401 132.205 106.281 132.205C107.162 132.205 107.88 132.922 107.88 133.803V135.698H104.687V133.803H104.683ZM114.812 154.725H97.8735V142.954H114.812V154.725Z" fill="#C5FFF6"/>
</svg>
