<svg width="213" height="213" viewBox="0 0 213 213" fill="none" xmlns="http://www.w3.org/2000/svg">
<rect x="0.34375" width="212.235" height="212.235" rx="106.118" fill="#0E425E"/>
<path d="M80.9638 152.077C83.9035 152.077 86.2866 149.694 86.2866 146.754C86.2866 143.814 83.9035 141.431 80.9638 141.431C78.0241 141.431 75.641 143.814 75.641 146.754C75.641 149.694 78.0241 152.077 80.9638 152.077Z" fill="#C5FFF6"/>
<path d="M99.2888 151.901C102.131 151.158 103.833 148.25 103.089 145.408C102.346 142.565 99.4381 140.863 96.5954 141.607C93.7527 142.351 92.0512 145.258 92.795 148.101C93.5387 150.944 96.4461 152.645 99.2888 151.901Z" fill="#C5FFF6"/>
<path d="M114.927 152.077C116.339 152.077 117.692 151.516 118.691 150.518C119.689 149.52 120.25 148.166 120.25 146.754C120.25 145.342 119.689 143.988 118.691 142.99C117.692 141.992 116.339 141.431 114.927 141.431C113.515 141.431 112.161 141.992 111.163 142.99C110.165 143.988 109.604 145.342 109.604 146.754C109.604 148.166 110.165 149.52 111.163 150.518C112.161 151.516 113.515 152.077 114.927 152.077Z" fill="#C5FFF6"/>
<path d="M131.908 152.077C134.848 152.077 137.231 149.694 137.231 146.754C137.231 143.814 134.848 141.431 131.908 141.431C128.968 141.431 126.585 143.814 126.585 146.754C126.585 149.694 128.968 152.077 131.908 152.077Z" fill="#C5FFF6"/>
<path d="M66.078 128.061L62.5586 131.581V162.53L66.078 166.049H146.846L150.366 162.53V131.581L146.846 128.061H66.078ZM143.325 159.01H69.5975V135.1H143.327L143.325 159.01Z" fill="#0CC9AB"/>
<path d="M82.9807 102.354L82.8937 117.458L86.4131 120.998H126.51L130.029 117.458L129.942 102.354H142.049L145.569 98.8348V77.7956C145.557 67.4272 141.433 57.4867 134.101 50.1551C126.77 42.8235 116.83 38.6993 106.461 38.6875C96.0929 38.6993 86.1524 42.8235 78.8209 50.1551C71.4894 57.4867 67.3655 67.4272 67.3538 77.7956V98.8338L70.8733 102.353L82.9807 102.354ZM74.3931 77.7966C74.4026 69.2944 77.7843 61.1431 83.7962 55.131C89.8082 49.119 97.9594 45.7371 106.462 45.7275C114.964 45.7371 123.115 49.119 129.127 55.131C135.139 61.1431 138.521 69.2944 138.53 77.7966V95.3154H126.403L122.883 98.8552L122.97 113.959H117.045V98.693H110.006V113.959H102.916V98.693H95.8775V113.959H89.9529L90.0398 98.8552L86.5204 95.3154H74.3927L74.3931 77.7966Z" fill="#0CC9AB"/>
<path d="M93.4348 80.2802C94.319 80.2802 95.1944 80.1061 96.0112 79.7678C96.828 79.4294 97.5702 78.9335 98.1954 78.3084C98.8205 77.6832 99.3164 76.9411 99.6547 76.1243C99.993 75.3075 100.167 74.432 100.167 73.5479C100.167 71.7624 99.4579 70.05 98.1954 68.7874C96.9328 67.5249 95.2204 66.8156 93.4348 66.8156C91.6493 66.8156 89.9369 67.5249 88.6743 68.7874C87.4118 70.05 86.7025 71.7624 86.7025 73.5479C86.7025 74.432 86.8767 75.3075 87.215 76.1243C87.5533 76.9411 88.0492 77.6832 88.6743 78.3084C89.2995 78.9335 90.0417 79.4294 90.8585 79.7678C91.6753 80.1061 92.5507 80.2802 93.4348 80.2802Z" fill="#00FFFF"/>
<path d="M119.489 80.2802C120.373 80.2803 121.249 80.1063 122.066 79.768C122.882 79.4297 123.625 78.9338 124.25 78.3087C124.875 77.6835 125.371 76.9413 125.71 76.1244C126.048 75.3076 126.222 74.4321 126.222 73.5479C126.222 71.7624 125.513 70.05 124.251 68.7874C122.988 67.5249 121.276 66.8156 119.49 66.8156C117.705 66.8156 115.992 67.5248 114.729 68.7874C113.467 70.0499 112.758 71.7623 112.757 73.5479C112.758 75.3333 113.467 77.0455 114.729 78.308C115.991 79.5706 117.704 80.28 119.489 80.2802Z" fill="#00FFFF"/>
</svg>
