<svg width="213" height="213" viewBox="0 0 213 213" fill="none" xmlns="http://www.w3.org/2000/svg">
<rect width="212.235" height="212.235" rx="106.118" fill="#0E425E"/>
<path d="M125.8 98.3567L122.982 95.5393H89.2789L86.4615 98.3567V114.424L89.2789 117.241H122.982L125.8 114.424V98.3567ZM92.0963 101.174H120.165V111.606H92.0963V101.174Z" fill="#C5FFF6"/>
<path d="M91.616 91.2055L94.4334 88.388V82.7383H102.921V95.539H108.561V82.7383H117.048V88.388L119.866 91.2055H145.4L148.218 88.388V72.3214L145.4 69.504H119.866L117.048 72.3214V77.1034H108.56V65.3187H118.682L121.499 62.5013V46.4346L118.682 43.6172H93.1458L90.3284 46.4346V62.5013L93.1458 65.3187H102.924V77.1034H94.4334V72.3214L91.616 69.504H66.0814L63.264 72.3214V88.388L66.0814 91.2055H91.616ZM122.683 75.1389H142.583V85.5706H122.683V75.1389ZM95.9633 59.6839V49.252H115.863V59.6839H95.9633ZM68.898 75.1389H88.7986V85.5706H68.8988L68.898 75.1389Z" fill="#0CC9AB"/>
<path d="M119.866 120.915L117.048 123.732V128.296H108.561V117.241H102.921V128.296H94.4334V123.732L91.616 120.915H66.0814L63.264 123.732V139.799L66.0814 142.616H91.616L94.4334 139.799V133.931H102.925V146.916H93.1458L90.3284 149.733V165.8L93.1458 168.617H118.681L121.498 165.8V149.732L118.681 146.915H108.56V133.93H117.048V139.798L119.866 142.616H145.4L148.218 139.798V123.731L145.4 120.914L119.866 120.915ZM88.7986 136.981H68.8988V126.549H88.7986V136.981ZM115.864 152.551V162.982H95.9633V152.55L115.864 152.551ZM142.583 136.981H122.683V126.549H142.583V136.981Z" fill="#0CC9AB"/>
<path d="M160.836 95.5393H135.301L132.484 98.3567V103.419H125.8V109.054H132.484V114.424L135.301 117.241H160.836L163.653 114.424V98.3567L160.836 95.5393ZM158.018 111.606H138.118V101.174H158.018V111.606Z" fill="#0CC9AB"/>
<path d="M79.7479 114.424V109.054H86.4609V103.419H79.7479V98.3567L76.9304 95.5393H51.3956L48.5781 98.3567V114.424L51.3956 117.241H76.9304L79.7479 114.424ZM74.113 111.606H54.213V101.174H74.113V111.606Z" fill="#0CC9AB"/>
</svg>
