<svg width="213" height="213" viewBox="0 0 213 213" fill="none" xmlns="http://www.w3.org/2000/svg">
<rect x="0.171875" width="212.235" height="212.235" rx="106.118" fill="#0E425E"/>
<path d="M151.049 115.395L151.746 93.4813L148.557 90.1901H121.502C124.451 87.9084 126.855 84.9981 128.539 81.671C130.223 78.3439 131.144 74.6834 131.237 70.9556L131.252 70.9365V62.1434L131.237 62.124C131.078 55.5663 128.362 49.3305 123.668 44.7485C118.974 40.1665 112.674 37.6016 106.114 37.6016C99.5546 37.6016 93.255 40.1665 88.5609 44.7485C83.8669 49.3305 81.1505 55.5663 80.992 62.124L80.976 62.1434V70.9365L80.992 70.9559C81.0842 74.6837 82.0057 78.3442 83.6895 81.6713C85.3734 84.9984 87.7773 87.9086 90.7266 90.1905H63.673L60.4847 93.4817L61.1817 115.396H49.4844V121.775H61.3859L62.0809 143.622L65.2691 146.71H85.2545C84.3188 149.968 84.1528 153.399 84.7695 156.732C85.3863 160.065 86.7689 163.21 88.8084 165.917C90.8479 168.625 93.4885 170.822 96.522 172.335C99.5556 173.848 102.899 174.635 106.289 174.635C109.679 174.635 113.022 173.848 116.056 172.335C119.089 170.822 121.73 168.625 123.769 165.917C125.809 163.21 127.192 160.065 127.808 156.732C128.425 153.399 128.259 149.968 127.323 146.71H146.964L150.154 143.622L150.849 121.775H163.094V115.396L151.049 115.395ZM106.116 43.9839C110.278 43.9893 114.32 45.3762 117.609 47.927C120.897 50.4778 123.246 54.0482 124.287 58.078L106.993 54.4075L105.681 54.405L87.94 58.0975C88.9769 54.0633 91.3248 50.4879 94.6148 47.9332C97.9047 45.3785 101.95 43.9893 106.116 43.9839ZM87.3569 70.3317V64.7348L106.324 60.7875L124.874 64.7246V70.3314C124.874 75.3064 122.897 80.0777 119.38 83.5956C115.862 87.1135 111.09 89.0898 106.115 89.0898C101.14 89.0898 96.369 87.1135 92.8512 83.5956C89.3333 80.0777 87.3569 75.3067 87.3569 70.3317ZM106.288 168.24C103.221 168.24 100.223 167.331 97.6737 165.627C95.1239 163.924 93.1366 161.502 91.963 158.669C90.7895 155.836 90.4824 152.718 91.0807 149.711C91.679 146.703 93.1557 143.94 95.3241 141.772C97.4925 139.603 100.255 138.127 103.263 137.528C106.271 136.93 109.388 137.237 112.221 138.411C115.054 139.584 117.476 141.572 119.18 144.121C120.883 146.671 121.793 149.669 121.793 152.735C121.788 156.846 120.153 160.787 117.246 163.694C114.339 166.6 110.398 168.236 106.288 168.24ZM143.873 140.33H124.303C122.295 137.407 119.605 135.016 116.467 133.365C113.328 131.713 109.834 130.85 106.288 130.85C102.741 130.85 99.2477 131.713 96.1091 133.365C92.9704 135.016 90.2807 137.407 88.2721 140.33H68.3578L66.9658 96.5684H145.265L143.873 140.33Z" fill="#0CC9AB"/>
<path d="M115.236 150.419C114.998 150.387 114.765 150.357 114.534 150.328C114.342 149.826 114.134 149.33 113.916 148.844C114.066 148.653 114.21 148.464 114.344 148.288C114.437 148.166 114.527 148.049 114.612 147.937L115.442 146.865L112.373 143.573L111.222 144.466C111.09 144.569 110.958 144.669 110.827 144.769C110.646 144.907 110.462 145.047 110.277 145.193C109.974 145.059 109.675 144.938 109.383 144.821C109.178 144.739 108.979 144.659 108.787 144.577C108.752 144.352 108.722 144.115 108.692 143.871C108.669 143.691 108.646 143.51 108.621 143.329L108.43 141.956H104.011L103.802 143.307C103.775 143.484 103.746 143.658 103.718 143.83C103.68 144.062 103.641 144.298 103.606 144.538C103.084 144.734 102.591 144.936 102.118 145.149C101.921 144.998 101.725 144.853 101.533 144.71C101.402 144.614 101.273 144.518 101.148 144.422L100.051 143.593L96.852 146.73L97.7404 147.854C97.8405 147.982 97.9394 148.11 98.0386 148.237C98.1818 148.423 98.3279 148.613 98.4817 148.804C98.2455 149.289 98.0364 149.786 97.8555 150.295C97.6064 150.326 97.3621 150.363 97.1219 150.398C96.9589 150.422 96.7962 150.445 96.6348 150.467L95.2581 150.659V155.077L96.6112 155.284C96.7873 155.311 96.9621 155.339 97.1321 155.367C97.3653 155.405 97.6026 155.444 97.8437 155.479C98.0351 155.992 98.2402 156.49 98.4546 156.968C98.3027 157.166 98.1592 157.359 98.0259 157.539C97.9369 157.659 97.8514 157.773 97.7707 157.881L96.9458 158.971L100.08 162.208L101.212 161.309C101.337 161.21 101.464 161.111 101.592 161.011C101.765 160.876 101.941 160.738 102.119 160.596C102.633 160.835 103.122 161.04 103.597 161.217C103.629 161.466 103.667 161.711 103.702 161.951C103.727 162.12 103.753 162.29 103.776 162.459L103.968 163.832H108.376L108.586 162.483C108.614 162.306 108.642 162.13 108.671 161.956C108.709 161.717 108.749 161.474 108.786 161.228C109.317 161.022 109.807 160.817 110.272 160.61C110.463 160.759 110.651 160.905 110.837 161.048C110.98 161.157 111.124 161.268 111.268 161.38L112.41 162.268L115.494 159.014L114.654 157.933C114.547 157.794 114.441 157.656 114.337 157.518C114.196 157.333 114.05 157.144 113.902 156.954C114.145 156.468 114.358 155.967 114.54 155.455C114.808 155.423 115.065 155.384 115.317 155.346C115.471 155.323 115.626 155.299 115.781 155.278L117.159 155.089V150.664L115.768 150.485L115.236 150.419ZM109.567 156.26C109.126 156.704 108.6 157.055 108.022 157.294C107.444 157.533 106.824 157.655 106.198 157.652C105.1 157.649 104.037 157.266 103.19 156.568C102.343 155.87 101.764 154.899 101.552 153.822C101.34 152.745 101.507 151.628 102.026 150.66C102.545 149.693 103.383 148.935 104.398 148.516C105.412 148.097 106.541 148.043 107.591 148.362C108.641 148.682 109.549 149.355 110.158 150.268C110.768 151.181 111.042 152.277 110.935 153.37C110.827 154.462 110.344 155.484 109.569 156.26H109.567Z" fill="#00FFFF"/>
<path d="M97.7476 120.855L89.1176 116.583L97.7808 112.308V107.341L83.4209 114.621V118.48L97.7868 125.763L97.7476 120.855Z" fill="#C5FFF6"/>
<path d="M110.736 106.975H106.211L100.15 126.342H104.675L110.736 106.975Z" fill="#00FFFF"/>
<path d="M121.935 116.551L113.272 120.825V125.76L127.632 118.514V114.623L113.266 107.34L113.305 112.281L121.935 116.551Z" fill="#C5FFF6"/>
</svg>
