<svg width="213" height="213" viewBox="0 0 213 213" fill="none" xmlns="http://www.w3.org/2000/svg">
<rect x="0.234375" width="212.235" height="212.235" rx="106.118" fill="#0E425E"/>
<path d="M154.188 127.202L154.932 103.784L151.525 100.266H122.612C125.764 97.8275 128.333 94.7175 130.133 91.1619C131.932 87.6063 132.917 83.6945 133.016 79.7107L133.033 79.6899V70.2907L133.016 70.2699C132.844 63.2631 129.941 56.6008 124.924 51.7056C119.908 46.8104 113.177 44.0703 106.168 44.0703C99.1591 44.0703 92.4279 46.8104 87.4117 51.7056C82.3955 56.6008 79.4918 63.2631 79.3206 70.2699L79.3039 70.2907V79.6868L79.3206 79.7076C79.4191 83.6915 80.404 87.6033 82.2035 91.1589C84.0031 94.7144 86.5721 97.8244 89.724 100.263H60.8113L57.4024 103.78L58.1476 127.199H45.6484V134.017H58.3658L59.1082 157.363L62.5171 160.664H149.821L153.228 157.363L153.97 134.017H167.056V127.199L154.188 127.202ZM106.168 50.8873C110.616 50.893 114.936 52.3752 118.451 55.1012C121.965 57.8273 124.475 61.6429 125.587 65.9495L107.106 62.027L105.704 62.0243L86.7444 65.97C87.8526 61.6588 90.3618 57.8379 93.8777 55.1078C97.3935 52.3777 101.717 50.8931 106.168 50.8873ZM86.1216 79.0443V73.0638L106.392 68.8454L126.215 73.0525V79.0443C126.215 81.6768 125.696 84.2836 124.689 86.7158C123.682 89.148 122.205 91.3579 120.343 93.2194C118.482 95.0809 116.272 96.5576 113.84 97.565C111.408 98.5724 108.801 99.0909 106.168 99.0909C103.536 99.0909 100.929 98.5724 98.4967 97.565C96.0645 96.5576 93.8546 95.0809 91.9931 93.2194C90.1316 91.3579 88.655 89.148 87.6475 86.7158C86.6401 84.2836 86.1216 81.6768 86.1216 79.0443ZM146.519 153.849H65.8178L64.3302 107.083H148.005L146.519 153.849Z" fill="#0CC9AB"/>
<path d="M133.345 123.959C132.223 123.959 131.121 124.26 130.155 124.83C129.188 125.4 128.392 126.22 127.85 127.202H118.824V121.355L115.415 117.946H96.9183L93.5095 121.355V127.203H84.6741C84.0203 126.015 82.9998 125.07 81.7649 124.51C80.53 123.95 79.147 123.804 77.8223 124.094C76.4977 124.384 75.3024 125.095 74.4149 126.12C73.5274 127.146 72.9953 128.43 72.898 129.783C72.8008 131.136 73.1436 132.483 73.8753 133.625C74.6069 134.767 75.6883 135.641 76.9578 136.118C78.2273 136.595 79.617 136.648 80.9194 136.27C82.2217 135.892 83.3669 135.103 84.184 134.021H93.5095V139.85L96.9183 143.259H115.415L118.824 139.85V134.021H128.341C128.985 134.874 129.837 135.548 130.815 135.98C131.794 136.412 132.866 136.586 133.93 136.487C134.995 136.388 136.017 136.019 136.898 135.414C137.78 134.81 138.493 133.99 138.969 133.033C139.446 132.076 139.669 131.013 139.62 129.945C139.57 128.877 139.248 127.839 138.685 126.93C138.122 126.022 137.336 125.272 136.401 124.752C135.467 124.232 134.415 123.96 133.346 123.96L133.345 123.959ZM112.006 136.441H100.327V124.764H112.006V136.441Z" fill="#C5FFF6"/>
</svg>
