<svg width="213" height="213" viewBox="0 0 213 213" fill="none" xmlns="http://www.w3.org/2000/svg">
<rect width="212.235" height="212.235" rx="106.118" fill="#0E425E"/>
<path d="M125.838 70.7483L129.163 67.4235V48.4635L125.838 45.1387H86.0656L82.7408 48.4635V67.4235L86.0656 70.7483H125.838ZM89.3904 51.7883H122.513V64.0987H89.3904V51.7883Z" fill="#C5FFF6"/>
<path d="M165.294 109.481H153.474V90.5546L150.149 87.2298H118.421C117.831 85.0383 116.677 83.0402 115.072 81.4355C113.467 79.8309 111.469 78.676 109.278 78.0866V70.7494H102.628V78.0866C100.433 78.6767 98.4328 79.8339 96.8269 81.442C95.221 83.05 94.0665 85.0523 93.4794 87.2477H62.1194L58.7946 90.5725V109.482H46.942L43.6172 112.807V131.766L46.942 135.091H77.0753L80.4001 131.766V112.807L77.0753 109.482H65.4442V93.8973H93.4889C94.0804 96.0854 95.2358 98.0799 96.8396 99.6816C98.4433 101.283 100.439 102.436 102.628 103.025V109.482H90.8862L87.5614 112.807V131.766L90.8862 135.091H102.628V141.486H90.8862L87.5614 144.81V163.77L90.8862 167.095H121.02L124.345 163.77V144.81L121.02 141.486H109.278V135.091H121.02L124.345 131.767V112.807L121.02 109.482H109.278V103.025C111.469 102.436 113.467 101.281 115.072 99.676C116.677 98.0713 117.831 96.0732 118.421 93.8817H146.824V109.483H135.159L131.835 112.808V131.768L135.159 135.092H165.292L168.617 131.768V112.808L165.294 109.481ZM73.7495 116.13V128.44H50.2658V116.13H73.7495ZM117.694 148.134V160.444H94.2101V148.135L117.694 148.134ZM117.694 116.13V128.44H94.2101V116.13H117.694ZM105.952 96.8106C104.293 96.8086 102.703 96.1489 101.531 94.9761C100.358 93.8033 99.6982 92.2132 99.6963 90.5546C99.6982 88.8961 100.358 87.306 101.531 86.1332C102.703 84.9605 104.293 84.3008 105.952 84.299C107.61 84.3008 109.201 84.9605 110.373 86.1332C111.546 87.306 112.206 88.8961 112.208 90.5546C112.206 92.2132 111.546 93.8033 110.373 94.9761C109.201 96.1489 107.61 96.8086 105.952 96.8106ZM161.969 128.44H138.484V116.13H161.968L161.969 128.44Z" fill="#0CC9AB"/>
</svg>
