<svg width="213" height="213" viewBox="0 0 213 213" fill="none" xmlns="http://www.w3.org/2000/svg">
<rect y="0.109375" width="212.235" height="212.235" rx="106.118" fill="#0E425E"/>
<path d="M156.06 64.3583C156.06 60.2548 153.292 54.4248 140.104 49.9535C130.973 46.8576 118.9 45.1523 106.11 45.1523C93.3197 45.1523 81.2475 46.8576 72.1159 49.9535C58.9282 54.4248 56.1602 60.2548 56.1602 64.3583C56.1602 64.3782 56.1602 64.3984 56.1602 64.4183V133.201C56.1602 137.304 58.9282 143.134 72.1159 147.606C72.5116 147.74 72.92 147.868 73.3264 147.997C74.2448 156.054 78.0935 163.492 84.14 168.896C90.1864 174.299 98.0086 177.291 106.118 177.302C114.228 177.291 122.051 174.299 128.098 168.894C134.145 163.489 137.993 156.05 138.91 147.991C139.311 147.864 139.714 147.738 140.104 147.606C153.275 143.14 156.053 137.319 156.06 133.216L156.076 133.201V64.4183H156.059C156.059 64.3984 156.06 64.3782 156.06 64.3583ZM74.3221 56.4602C82.7615 53.5987 94.0507 52.0229 106.11 52.0229C118.169 52.0229 129.459 53.5987 137.898 56.4602C143.518 58.3658 149.19 61.5468 149.19 64.3583C149.19 67.1697 143.518 70.3507 137.898 72.2563C129.459 75.1175 118.169 76.6933 106.11 76.6933C94.0504 76.6933 82.7615 75.1175 74.3221 72.2563C68.7017 70.3507 63.0307 67.1697 63.0307 64.3583C63.0307 61.5468 68.7017 58.3658 74.3221 56.4602ZM72.1159 78.763C81.2475 81.8589 93.3201 83.5638 106.11 83.5638C118.9 83.5638 130.973 81.8589 140.104 78.763C143.971 77.4518 146.937 76.0234 149.205 74.5562V88.2973L149.19 88.3127C149.19 91.1241 143.518 94.3052 137.898 96.2111C129.459 99.0723 118.169 100.648 106.11 100.648C94.0507 100.648 82.7619 99.0723 74.3221 96.2111C68.7017 94.3052 63.0307 91.1241 63.0307 88.3127V74.5665C65.2966 76.0302 68.2574 77.4549 72.1159 78.763ZM149.205 110.742L149.19 110.757C149.19 113.568 143.518 116.749 137.898 118.655C135.107 119.585 132.261 120.34 129.377 120.917C123.205 114.756 114.839 111.298 106.118 111.303C97.3954 111.298 89.028 114.757 82.8556 120.92C79.9669 120.343 77.1169 119.586 74.3221 118.655C68.7017 116.749 63.0307 113.568 63.0307 110.757V98.5223C65.298 99.9857 68.2574 101.41 72.1159 102.719C81.2475 105.815 93.3201 107.52 106.11 107.52C118.9 107.52 130.973 105.815 140.104 102.719C143.971 101.408 146.937 99.9792 149.205 98.512V110.742ZM73.3113 140.742C68.0416 138.813 63.0307 135.844 63.0307 133.201V120.965C65.298 122.429 68.2574 123.854 72.1159 125.162C73.9915 125.797 75.9978 126.371 78.1012 126.887C75.4789 131.084 73.8412 135.821 73.3113 140.742V140.742ZM106.118 170.431C99.1908 170.423 92.5494 167.668 87.651 162.769C82.7527 157.871 79.9973 151.23 79.9895 144.302C79.9973 137.375 82.7527 130.734 87.651 125.835C92.5494 120.937 99.1908 118.182 106.118 118.174C113.045 118.182 119.687 120.937 124.585 125.835C129.484 130.734 132.239 137.375 132.247 144.302C132.239 151.23 129.484 157.871 124.585 162.77C119.687 167.668 113.046 170.423 106.118 170.431ZM149.206 133.185L149.19 133.201C149.19 135.841 144.188 138.807 138.924 140.737C138.393 135.817 136.756 131.08 134.133 126.884C136.232 126.368 138.233 125.796 140.104 125.162C143.972 123.85 146.937 122.422 149.206 120.955V133.185Z" fill="#0CC9AB"/>
<path d="M95.471 150.83C96.4846 149.94 96.9916 148.703 96.992 147.12C97.0269 146.138 96.716 145.175 96.1136 144.399C95.5284 143.674 94.5438 142.999 93.1594 142.373L91.1324 141.457C90.1935 141.029 89.7241 140.485 89.7241 139.825C89.7242 139.654 89.7632 139.484 89.8382 139.33C89.9131 139.176 90.0221 139.041 90.1569 138.935C90.4415 138.689 90.8068 138.556 91.1829 138.564C92.0404 138.564 92.5434 139.091 92.6921 140.147H96.8721C96.8521 139.514 96.7524 138.887 96.575 138.279C96.3882 137.776 96.1117 137.311 95.7588 136.907C94.7204 135.654 93.2364 135.027 91.3067 135.027C89.8128 134.984 88.354 135.484 87.2008 136.435C86.6738 136.845 86.248 137.37 85.9564 137.971C85.6648 138.571 85.5153 139.231 85.5193 139.898C85.5079 140.558 85.6526 141.211 85.9416 141.804C86.2306 142.397 86.6557 142.913 87.1822 143.311C87.7888 143.786 88.4566 144.177 89.1676 144.474L91.0786 145.264C92.2528 145.742 92.8399 146.335 92.8402 147.044C92.8443 147.254 92.8043 147.463 92.7228 147.657C92.6412 147.851 92.52 148.026 92.3668 148.17C92.212 148.32 92.0288 148.438 91.8277 148.517C91.6267 148.596 91.4118 148.633 91.196 148.628C90.9527 148.637 90.711 148.586 90.4917 148.48C90.2724 148.375 90.0822 148.217 89.9376 148.021C89.6087 147.547 89.4466 146.977 89.4764 146.401H85.2472V146.945C85.2472 148.545 85.783 149.814 86.8546 150.754C87.9262 151.694 89.3855 152.164 91.2327 152.163C93.0436 152.165 94.4564 151.721 95.471 150.83Z" fill="#00FFFF"/>
<path d="M116.606 148.827H116.26C115.604 148.868 114.958 148.655 114.454 148.233C115.37 146.892 115.861 145.306 115.863 143.682C115.887 142.534 115.672 141.393 115.232 140.333C114.791 139.273 114.134 138.316 113.303 137.523C112.475 136.706 111.491 136.063 110.41 135.634C109.328 135.205 108.171 134.998 107.008 135.025C105.866 135.002 104.731 135.213 103.674 135.645C102.617 136.078 101.66 136.722 100.862 137.539C100.045 138.34 99.4015 139.299 98.9698 140.357C98.538 141.416 98.3276 142.551 98.3513 143.694C98.3288 144.825 98.5452 145.948 98.9864 146.99C99.4275 148.031 100.083 148.968 100.911 149.738C101.75 150.546 102.74 151.178 103.826 151.599C104.911 152.02 106.069 152.221 107.232 152.191C108.818 152.185 110.37 151.731 111.709 150.88C112.533 151.754 113.82 152.191 115.568 152.191L116.606 152.141V148.827ZM104.091 139.866C104.882 139.129 105.93 138.732 107.011 138.76C107.628 138.739 108.243 138.846 108.817 139.073C109.392 139.3 109.913 139.642 110.35 140.079C110.785 140.521 111.126 141.048 111.352 141.626C111.577 142.205 111.682 142.823 111.661 143.443C111.63 144.285 111.437 145.114 111.092 145.882C110.439 145.061 109.673 144.337 108.816 143.73C107.497 142.807 106.203 142.345 104.935 142.346C104.123 142.369 103.324 142.554 102.585 142.89C102.733 141.741 103.264 140.676 104.091 139.866ZM104.487 145.413C105.128 145.417 105.761 145.56 106.342 145.834C107.283 146.3 108.098 146.987 108.716 147.837C108.209 148.22 107.595 148.436 106.96 148.456C106.12 148.45 105.303 148.182 104.624 147.689C103.901 147.192 103.339 146.496 103.004 145.685C103.481 145.516 103.981 145.425 104.487 145.414V145.413Z" fill="#00FFFF"/>
<path d="M117.965 135.347V151.844H127.043V148.109H122.17V135.347H117.965Z" fill="#00FFFF"/>
</svg>
