<svg width="213" height="213" viewBox="0 0 213 213" fill="none" xmlns="http://www.w3.org/2000/svg">
<rect width="212.235" height="212.235" rx="106.118" fill="#0E425E"/>
<path d="M59.8915 98.8565H55.4144C55.3825 97.6772 54.9335 96.5473 54.1473 95.6677C53.7917 95.2804 53.3577 94.9732 52.8742 94.7667C52.3906 94.5601 51.8685 94.459 51.3428 94.4699C50.8077 94.4691 50.2784 94.5792 49.788 94.7933C49.2976 95.0073 48.8567 95.3206 48.4934 95.7134C48.1043 96.0927 47.7959 96.5467 47.5866 97.0481C47.3774 97.5494 47.2716 98.0879 47.2756 98.6312C47.2421 99.1285 47.3181 99.6271 47.4978 100.092C47.6776 100.557 47.9568 100.977 48.3161 101.322C49.4873 102.164 50.8191 102.757 52.2287 103.064C53.6866 103.43 55.098 103.961 56.4356 104.647C57.3844 105.216 58.1955 105.989 58.8101 106.909C59.8753 108.448 60.4292 110.284 60.3931 112.156C60.4291 113.422 60.2115 114.682 59.7532 115.863C59.295 117.043 58.6052 118.121 57.7247 119.031C56.8706 119.93 55.8376 120.64 54.6924 121.115C53.5472 121.59 52.3151 121.82 51.0756 121.79C49.8356 121.831 48.6003 121.616 47.4477 121.157C46.295 120.697 45.2502 120.004 44.3786 119.121C42.6084 117.292 41.633 114.837 41.6648 112.291H46.007C46.3687 115.94 48.0727 117.764 51.1183 117.764C51.7677 117.779 52.4132 117.659 53.0131 117.41C53.6131 117.161 54.1539 116.789 54.6014 116.318C55.062 115.845 55.4237 115.286 55.6645 114.671C55.9053 114.057 56.0204 113.401 56.0034 112.741C56.0034 110.599 54.7519 109.107 52.2491 108.263L51.1641 107.901L49.8969 107.494C48.7532 107.168 47.6343 106.761 46.5484 106.276C45.9251 105.911 45.3733 105.436 44.9204 104.873C43.5558 103.347 42.8271 101.356 42.8844 99.3093C42.8461 98.1387 43.045 96.9724 43.4686 95.8804C43.8922 94.7884 44.5319 93.7932 45.3496 92.9546C46.1562 92.1287 47.1252 91.4791 48.1957 91.0468C49.2662 90.6146 50.4148 90.409 51.5687 90.4432C52.6492 90.4098 53.7252 90.5993 54.7292 91C55.7332 91.4006 56.6437 92.0038 57.4043 92.772C58.9777 94.4096 59.8673 96.5857 59.8915 98.8565V98.8565Z" fill="white"/>
<path d="M78.6215 95.1028V121.202H74.1884V95.1028H68.3984V91.0312H84.3658V95.1028H78.6215Z" fill="white"/>
<path d="M107.791 91.0312L119.235 121.201H114.576L111.227 112.29H100.371L97.0224 121.201H92.3633L103.807 91.0312H107.791ZM101.955 108.265H109.691L105.846 96.7732L101.955 108.265Z" fill="white"/>
<path d="M135.964 109.308L146.009 121.205H141.486L131.485 109.758L131.622 121.205H127.234V91.0344H137.728C138.909 90.9937 140.084 91.1977 141.182 91.6335C142.28 92.0694 143.275 92.7278 144.106 93.5671C144.934 94.4225 145.582 95.4363 146.009 96.5478C146.437 97.6594 146.636 98.8458 146.594 100.036C146.661 102.358 145.817 104.615 144.242 106.323C143.321 107.368 142.155 108.169 140.849 108.653C139.268 109.139 137.618 109.361 135.964 109.308ZM131.622 95.1059V105.283H136.145C137.737 105.375 139.308 104.876 140.555 103.881C141.092 103.4 141.515 102.805 141.793 102.14C142.071 101.475 142.196 100.756 142.161 100.036C142.161 96.7498 140.14 95.1064 136.1 95.1059H131.622Z" fill="white"/>
<path d="M164.825 95.1028V121.202H160.391V95.1028H154.602V91.0312H170.569V95.1028H164.825Z" fill="white"/>
</svg>
