<svg width="213" height="214" viewBox="0 0 213 214" fill="none" xmlns="http://www.w3.org/2000/svg">
<rect x="0.703125" y="0.875" width="212.235" height="212.235" rx="106.118" fill="#0E425E"/>
<path d="M159.32 139.189L162.97 135.539V65.5388L159.32 61.8887H54.319L50.6689 65.5388V135.539L54.319 139.189H159.32ZM57.9691 69.1888H155.67V131.889H57.9691V69.1888Z" fill="#0CC9AB"/>
<path d="M171.82 144.795H41.8203V152.095H171.82V144.795Z" fill="#0CC9AB"/>
<path d="M92.5899 98.299L81.6148 104.694C83.7069 106.098 85.271 108.16 86.0595 110.553L96.2725 104.603C94.3799 102.968 93.0845 100.751 92.5899 98.299Z" fill="#00FFFF"/>
<path d="M119.346 104.868L114.095 100.313C113.151 102.627 111.469 104.565 109.31 105.825L114.583 110.399C115.518 108.08 117.193 106.136 119.346 104.868Z" fill="#00FFFF"/>
<path d="M131.208 93.9267L126.499 103.411C128.98 103.732 131.282 104.871 133.043 106.648L137.744 97.1757C135.265 96.8493 132.965 95.7061 131.208 93.9267Z" fill="#00FFFF"/>
<path d="M114.095 100.313C114.642 98.9696 114.922 97.5327 114.921 96.0823C114.918 93.093 113.729 90.2271 111.615 88.1133C109.501 85.9996 106.636 84.8106 103.646 84.8072C100.657 84.8106 97.791 85.9996 95.6773 88.1133C93.5635 90.2271 92.3745 93.093 92.3712 96.0823C92.3707 96.8265 92.4438 97.5693 92.5899 98.299C93.0846 100.75 94.3803 102.967 96.2727 104.602C98.3173 106.381 100.936 107.359 103.646 107.357C105.636 107.358 107.592 106.829 109.31 105.825C111.469 104.565 113.151 102.627 114.095 100.313ZM103.646 100.057C102.592 100.056 101.582 99.6372 100.837 98.892C100.091 98.1467 99.6723 97.1363 99.6713 96.0823C99.6723 95.0284 100.091 94.0179 100.837 93.2727C101.582 92.5274 102.592 92.1084 103.646 92.1074C104.7 92.1084 105.711 92.5274 106.456 93.2727C107.201 94.0179 107.62 95.0284 107.621 96.0823C107.62 97.1363 107.201 98.1467 106.456 98.892C105.711 99.6372 104.7 100.056 103.646 100.057Z" fill="#C5FFF6"/>
<path d="M81.6132 104.694C79.7604 103.447 77.5772 102.782 75.3438 102.785C72.3545 102.788 69.4886 103.977 67.3749 106.091C65.2611 108.205 64.0721 111.07 64.0687 114.06C64.0721 117.049 65.2611 119.915 67.3749 122.029C69.4886 124.142 72.3545 125.331 75.3438 125.335C78.3331 125.331 81.199 124.142 83.3127 122.029C85.4264 119.915 86.6155 117.049 86.619 114.06C86.619 112.869 86.4296 111.685 86.0579 110.553C85.2694 108.16 83.7053 106.098 81.6132 104.694ZM75.3438 118.035C74.2899 118.034 73.2794 117.615 72.5342 116.869C71.789 116.124 71.3699 115.114 71.3689 114.06C71.3699 113.006 71.789 111.995 72.5342 111.25C73.2794 110.505 74.2899 110.086 75.3438 110.085C76.3978 110.086 77.4082 110.505 78.1535 111.25C78.8987 111.995 79.3178 113.006 79.3188 114.06C79.3178 115.113 78.899 116.124 78.1541 116.869C77.4093 117.614 76.3993 118.033 75.3457 118.035H75.3438Z" fill="#C5FFF6"/>
<path d="M126.499 103.411C126.018 103.347 125.533 103.315 125.048 103.314C123.042 103.313 121.074 103.849 119.346 104.868C117.192 106.136 115.517 108.082 114.583 110.4C114.047 111.732 113.772 113.154 113.773 114.589C113.776 117.579 114.965 120.445 117.079 122.558C119.193 124.672 122.058 125.861 125.048 125.865C128.037 125.861 130.903 124.672 133.017 122.558C135.13 120.445 136.319 117.579 136.322 114.589C136.324 111.613 135.145 108.756 133.043 106.648C131.282 104.871 128.98 103.732 126.499 103.411ZM125.048 118.564C123.994 118.563 122.983 118.144 122.238 117.399C121.493 116.654 121.074 115.643 121.073 114.589C121.074 113.535 121.493 112.525 122.238 111.78C122.983 111.035 123.994 110.615 125.048 110.614C126.102 110.616 127.112 111.035 127.857 111.78C128.602 112.525 129.021 113.536 129.022 114.589C129.021 115.643 128.602 116.654 127.857 117.399C127.112 118.144 126.102 118.563 125.048 118.564Z" fill="#C5FFF6"/>
<path d="M139.215 74.7246C136.225 74.728 133.359 75.9171 131.246 78.0309C129.132 80.1448 127.943 83.0107 127.94 86C127.938 88.9701 129.112 91.8201 131.206 93.927C132.963 95.7065 135.263 96.8495 137.743 97.1755C138.231 97.2406 138.722 97.2738 139.215 97.2748C142.204 97.2713 145.07 96.0823 147.184 93.9686C149.297 91.8548 150.486 88.989 150.49 85.9997C150.486 83.0104 149.297 80.1446 147.184 78.0308C145.07 75.9171 142.204 74.728 139.215 74.7246ZM139.215 89.975C138.161 89.974 137.15 89.5549 136.405 88.8097C135.66 88.0645 135.241 87.054 135.24 86C135.241 84.9461 135.66 83.9355 136.405 83.1902C137.15 82.4449 138.161 82.0257 139.215 82.0247C140.269 82.0256 141.279 82.4448 142.025 83.1902C142.77 83.9356 143.189 84.9463 143.19 86.0004C143.189 87.0543 142.77 88.0648 142.024 88.8099C141.279 89.5551 140.269 89.9741 139.215 89.975Z" fill="#C5FFF6"/>
</svg>
