<svg width="213" height="213" viewBox="0 0 213 213" fill="none" xmlns="http://www.w3.org/2000/svg">
<rect x="0.46875" width="212.235" height="212.235" rx="106.118" fill="#0E425E"/>
<path d="M155.084 127.542L155.839 103.8L152.385 100.235H123.073C126.268 97.7626 128.873 94.6096 130.697 91.005C132.522 87.4004 133.52 83.4345 133.62 79.3958L133.637 79.375V69.8486L133.62 69.8275C133.437 62.7268 130.491 55.9777 125.407 51.0167C120.324 46.0557 113.505 43.2747 106.402 43.2656C99.2987 43.2746 92.4796 46.0556 87.3961 51.0166C82.3126 55.9776 79.366 62.7268 79.1837 69.8275L79.1668 69.8486V79.375L79.1837 79.3961C79.2836 83.4349 80.282 87.4007 82.1064 91.0054C83.9308 94.61 86.5353 97.763 89.7307 100.235H60.419L56.9648 103.801L57.7199 127.543H45.0469V134.454H57.939L58.6921 158.123L62.1462 161.469H150.656L154.11 158.123L154.863 134.454H168.129V127.543L155.084 127.542ZM106.402 50.1743C110.911 50.1802 115.29 51.6828 118.853 54.4464C122.416 57.21 124.961 61.0781 126.089 65.4441L107.353 61.4674L105.931 61.4646L86.7102 65.4651C87.8336 61.0946 90.3772 57.2211 93.9413 54.4534C97.5055 51.6856 101.888 50.1804 106.401 50.1743H106.402ZM86.0785 78.7198V72.6561L106.629 68.3795L126.725 72.6451V78.7195C126.719 84.1078 124.576 89.2736 120.766 93.0837C116.956 96.8938 111.79 99.037 106.401 99.0431C101.013 99.0372 95.8471 96.894 92.0369 93.0839C88.2267 89.2738 86.0835 84.1078 86.0774 78.7195L86.0785 78.7198ZM147.309 154.557H65.4946L63.9865 107.145H148.817L147.309 154.557Z" fill="#0CC9AB"/>
<path d="M121.927 133.925C121.429 133.624 120.917 133.315 120.393 133.021C120.533 131.755 120.562 130.478 120.479 129.206C121.058 128.917 121.604 128.6 122.133 128.294C122.364 128.159 122.596 128.025 122.829 127.895L124.142 127.157L122.027 121.792L120.553 122.164C120.256 122.24 119.963 122.313 119.675 122.384C119.091 122.53 118.534 122.669 117.974 122.816C117.129 121.872 116.243 120.96 115.336 120.098C115.515 119.515 115.678 118.941 115.826 118.423C115.897 118.173 115.964 117.933 116.031 117.706L116.442 116.296L112.56 114.443L111.135 113.763L110.329 115.121C110.185 115.363 110.039 115.605 109.894 115.847C109.602 116.328 109.303 116.823 109.018 117.333C108.28 117.283 107.555 117.279 106.851 117.274C106.29 117.27 105.757 117.266 105.231 117.241C104.929 116.769 104.649 116.257 104.356 115.721C104.212 115.457 104.068 115.193 103.919 114.931L103.179 113.623L97.8053 115.741L98.1326 117.187C98.1993 117.483 98.2625 117.774 98.3251 118.064C98.4457 118.623 98.5697 119.196 98.7156 119.769C97.7134 120.652 96.8214 121.511 95.9951 122.385C95.4103 122.208 94.8353 122.053 94.2758 121.901C94.0093 121.829 93.747 121.758 93.4906 121.686L92.0558 121.287L90.7515 124.209L90.3022 125.211L89.6695 126.628L91.0114 127.408C91.2502 127.547 91.4873 127.689 91.7243 127.831C92.2237 128.13 92.7379 128.438 93.2795 128.725C93.1495 129.987 93.1221 131.257 93.1976 132.523C92.6515 132.813 92.1224 133.116 91.6079 133.411C91.366 133.549 91.124 133.687 90.8842 133.823L89.571 134.561L91.6894 139.934L93.1357 139.606C93.4302 139.539 93.7208 139.476 94.009 139.413C94.5699 139.291 95.1467 139.165 95.7218 139.019C96.5778 139.994 97.4563 140.909 98.3372 141.742C98.1588 142.331 98.0023 142.911 97.8613 143.433C97.7952 143.677 97.732 143.911 97.6705 144.131L97.2724 145.558L102.636 147.992L103.42 146.636C103.555 146.403 103.693 146.167 103.835 145.93C104.116 145.451 104.406 144.96 104.686 144.451C105.619 144.52 106.483 144.555 107.315 144.555C107.705 144.555 108.091 144.547 108.466 144.532C108.758 145.075 109.059 145.599 109.352 146.109C109.497 146.36 109.641 146.611 109.784 146.863L110.524 148.17L115.885 146.057L115.56 144.613C115.494 144.317 115.43 144.023 115.366 143.732C115.242 143.164 115.115 142.579 114.973 141.997C115.988 141.075 116.881 140.209 117.687 139.363C118.256 139.54 118.828 139.703 119.383 139.863C119.675 139.947 119.969 140.032 120.265 140.118L121.768 140.559L122.355 139.108L123.958 135.135L122.681 134.379C122.427 134.227 122.176 134.076 121.927 133.925ZM110.169 139.311C109.063 139.75 107.882 139.966 106.693 139.948C105.504 139.929 104.33 139.676 103.24 139.202C102.149 138.729 101.162 138.044 100.336 137.188C99.5109 136.332 98.8626 135.321 98.4287 134.214C97.989 133.109 97.7721 131.928 97.7904 130.739C97.8087 129.55 98.062 128.376 98.5355 127.285C99.0091 126.194 99.6936 125.207 100.55 124.382C101.406 123.556 102.417 122.908 103.524 122.475C104.63 122.035 105.811 121.819 107 121.837C108.189 121.856 109.363 122.109 110.453 122.582C111.544 123.056 112.531 123.74 113.357 124.596C114.182 125.452 114.831 126.463 115.265 127.57C115.704 128.675 115.92 129.856 115.901 131.045C115.882 132.234 115.629 133.408 115.155 134.499C114.682 135.59 113.998 136.576 113.142 137.402C112.286 138.228 111.276 138.876 110.169 139.311Z" fill="#C5FFF6"/>
</svg>
