<svg width="213" height="213" viewBox="0 0 213 213" fill="none" xmlns="http://www.w3.org/2000/svg">
<rect x="0.703125" width="212.235" height="212.235" rx="106.118" fill="#0E425E"/>
<path d="M52.875 90.5657L69.8653 80.6963V119.299L81.3585 126.169V59.084L52.875 75.9491V90.5657Z" fill="#0CC9AB"/>
<path d="M112.84 90.5657V75.9491L84.357 59.084V126.17L95.8505 119.299V101.372L104.394 106.335V91.7187L95.8505 86.6599V80.6963L112.84 90.5657Z" fill="#0CC9AB"/>
<path d="M126.674 125.888C126.778 125.888 126.846 125.89 126.87 125.892H140.473C142.465 125.892 144.053 125.299 145.193 124.131C147.226 122.048 147.171 118.812 147.17 118.779V107.06C147.17 107.035 147.198 105.499 145.713 103.967C143.13 101.3 138.111 100.73 134.357 100.721H134.257C127.358 100.721 124.352 102.349 123.045 103.716C121.893 104.92 121.928 106.023 121.93 106.069V112.078L134.821 112.017V114.565H116.669C115.069 114.631 113.526 115.176 112.239 116.13C109.514 118.132 108.132 121.685 108.132 126.692C108.132 139.675 114.842 139.824 115.128 139.824H119.627V133.434C119.627 130.402 120.669 128.226 122.725 126.966C123.922 126.263 125.285 125.89 126.674 125.888Z" fill="#C5FFF6"/>
<path d="M153.772 114.048H149.274V119.334C149.274 127.738 141.857 127.981 141.011 127.981C140.974 127.981 140.948 127.981 140.935 127.981C140.789 127.984 138.641 128.035 135.084 128.035C132.931 128.035 130.69 128.017 128.424 127.981C128.361 127.981 128.299 127.979 128.237 127.979C126.107 127.979 124.46 128.576 123.341 129.755C121.616 131.573 121.732 134.175 121.732 134.201V146.812C121.732 146.837 121.704 148.388 123.199 149.927C125.786 152.592 130.797 153.151 134.545 153.151C141.481 153.151 144.514 151.517 145.837 150.147C146.999 148.945 146.973 147.846 146.971 147.8V141.793L134.079 141.856V139.308H152.231C153.83 139.241 155.374 138.696 156.66 137.743C159.386 135.741 160.768 132.187 160.768 127.18C160.767 114.198 154.057 114.048 153.772 114.048Z" fill="#0CC9AB"/>
</svg>
