<svg width="213" height="214" viewBox="0 0 213 214" fill="none" xmlns="http://www.w3.org/2000/svg">
<rect y="0.875" width="212.235" height="212.235" rx="106.118" fill="#0E425E"/>
<path d="M158.617 139.189L162.267 135.539V65.5388L158.617 61.8887H53.6159L49.9658 65.5388V135.539L53.6159 139.189H158.617ZM57.266 69.1888H154.967V131.889H57.266V69.1888Z" fill="#0CC9AB"/>
<path d="M171.117 144.795H41.1172V152.095H171.117V144.795Z" fill="#0CC9AB"/>
<path d="M130.227 103.822C128.315 103.825 126.446 104.394 124.857 105.458C123.268 106.522 122.03 108.033 121.3 109.8H109.542V101.989H122.191L125.841 98.3388V82.7975L122.191 79.1474H89.5944L85.9443 82.7975V98.3374L89.5944 101.987H102.243V109.799H90.4857C89.7552 108.031 88.5172 106.52 86.9283 105.456C85.3393 104.392 83.4706 103.823 81.5583 103.821C78.9977 103.824 76.5429 104.842 74.7323 106.653C72.9217 108.463 71.9033 110.918 71.9005 113.479C71.9033 116.039 72.9217 118.494 74.7323 120.305C76.5429 122.115 78.9977 123.134 81.5583 123.136C83.4814 123.134 85.3601 122.558 86.9545 121.483C88.5488 120.407 89.7863 118.881 90.509 117.099H121.277C122 118.881 123.237 120.407 124.832 121.483C126.426 122.558 128.305 123.134 130.228 123.136C132.789 123.134 135.243 122.115 137.054 120.305C138.865 118.494 139.883 116.039 139.886 113.479C139.883 110.918 138.864 108.464 137.053 106.653C135.242 104.843 132.787 103.825 130.227 103.822ZM93.2433 94.6873V86.4476H118.541V94.6873H93.2433ZM81.5572 115.838C80.9322 115.837 80.3329 115.588 79.8909 115.146C79.4489 114.704 79.2003 114.105 79.1996 113.48C79.2003 112.855 79.4489 112.256 79.8909 111.814C80.3329 111.372 80.9322 111.123 81.5572 111.123C82.1823 111.123 82.7816 111.372 83.2235 111.814C83.6655 112.256 83.9141 112.855 83.9148 113.48C83.914 114.105 83.6653 114.704 83.2234 115.146C82.7814 115.588 82.1823 115.837 81.5572 115.838ZM130.227 115.838C129.602 115.837 129.003 115.588 128.561 115.146C128.119 114.704 127.87 114.105 127.869 113.48C127.87 112.855 128.119 112.256 128.561 111.814C129.003 111.372 129.602 111.123 130.227 111.123C130.852 111.123 131.451 111.372 131.893 111.814C132.335 112.256 132.584 112.855 132.585 113.48C132.584 114.105 132.335 114.704 131.893 115.146C131.451 115.588 130.852 115.837 130.227 115.838Z" fill="#C5FFF6"/>
</svg>
