<svg width="214" height="214" viewBox="0 0 214 214" fill="none" xmlns="http://www.w3.org/2000/svg">
<rect x="0.9375" y="0.9375" width="212.235" height="212.235" rx="106.118" fill="#0E425E"/>
<path d="M115.284 99.2287H115.015V97.2484C115.013 95.1517 114.179 93.1416 112.697 91.659C111.214 90.1764 109.204 89.3424 107.107 89.3401C105.01 89.3424 103 90.1764 101.518 91.659C100.035 93.1416 99.201 95.1517 99.1987 97.2484V99.2287H99.0437C97.4219 99.2306 95.867 99.8756 94.7202 101.022C93.5735 102.169 92.9284 103.724 92.9266 105.346V116.831C92.9283 118.453 93.5734 120.007 94.7202 121.154C95.8669 122.301 97.4218 122.946 99.0437 122.948H115.282C116.904 122.946 118.459 122.301 119.606 121.154C120.753 120.008 121.398 118.453 121.399 116.831V105.346C121.398 103.724 120.753 102.17 119.606 101.023C118.46 99.8762 116.905 99.231 115.284 99.2287ZM105.402 97.2484C105.402 96.7962 105.582 96.3627 105.902 96.0429C106.222 95.7231 106.655 95.5432 107.107 95.5427C107.56 95.5432 107.993 95.7231 108.313 96.0429C108.633 96.3627 108.813 96.7962 108.813 97.2484V99.2287H105.402V97.2484ZM115.198 116.745H99.1308V105.431H99.199V105.436H115.016V105.431H115.199L115.198 116.745Z" fill="#C5FFF6"/>
<path d="M162.502 100.111C160.505 100.114 158.559 100.74 156.934 101.901C155.31 103.062 154.088 104.702 153.44 106.59H146.863V86.3056L145.312 83.6198L138.231 79.531V70.2097C140.119 69.5613 141.759 68.3398 142.92 66.7154C144.082 65.091 144.707 63.1447 144.71 61.1477C144.707 58.6078 143.697 56.1728 141.901 54.3768C140.105 52.5808 137.67 51.5704 135.13 51.5675C132.59 51.5704 130.155 52.5808 128.359 54.3768C126.563 56.1728 125.553 58.6078 125.55 61.1477C125.553 63.1444 126.178 65.0905 127.339 66.7148C128.501 68.3391 130.14 69.5605 132.028 70.2091V75.95L110.158 63.3232V58.0947H109.986C111.916 57.4726 113.599 56.2548 114.794 54.6162C115.989 52.9776 116.635 51.0026 116.637 48.9745C116.634 46.4346 115.624 43.9995 113.828 42.2036C112.032 40.4076 109.597 39.3974 107.057 39.3945C104.517 39.3974 102.082 40.4076 100.286 42.2036C98.4905 43.9995 97.4802 46.4346 97.4773 48.9745C97.48 51.0026 98.1251 52.9776 99.3202 54.6162C100.515 56.2548 102.199 57.4726 104.129 58.0947H103.956V63.4474L82.2962 75.9521V70.2097C84.1848 69.5612 85.8242 68.3397 86.9856 66.7153C88.147 65.0909 88.7727 63.1446 88.7754 61.1477C88.7725 58.6078 87.7622 56.1727 85.9662 54.3767C84.1702 52.5807 81.7351 51.5704 79.1951 51.5675C76.6552 51.5704 74.2202 52.5808 72.4243 54.3768C70.6283 56.1728 69.6181 58.6078 69.6152 61.1477C69.618 63.1445 70.2436 65.0905 71.4049 66.7148C72.5661 68.3391 74.2051 69.5607 76.0935 70.2094V79.5334L69.016 83.6198L67.4654 86.3056V106.59H60.6735C60.025 104.702 58.8033 103.062 57.1789 101.901C55.5544 100.74 53.6081 100.114 51.6112 100.111C49.0714 100.114 46.6363 101.124 44.8403 102.92C43.0443 104.716 42.0341 107.151 42.0312 109.691C42.0341 112.231 43.0443 114.666 44.8403 116.462C46.6363 118.258 49.0714 119.268 51.6112 119.271C53.608 119.269 55.5542 118.643 57.1786 117.482C58.803 116.32 60.0246 114.681 60.6732 112.793H67.4651V128.565L69.0157 131.25L76.0932 135.337V144.676C74.2048 145.325 72.5657 146.547 71.4045 148.171C70.2432 149.795 69.6177 151.741 69.6149 153.738C69.6178 156.278 70.628 158.713 72.424 160.509C74.2199 162.305 76.655 163.315 79.1948 163.318C81.7347 163.315 84.1698 162.305 85.9659 160.509C87.7619 158.713 88.7722 156.278 88.7751 153.738C88.7724 151.741 88.1467 149.795 86.9853 148.171C85.8239 146.546 84.1845 145.325 82.2958 144.676V138.918L103.955 151.423V156.075C102.067 156.723 100.428 157.945 99.2664 159.569C98.1052 161.193 97.4796 163.14 97.477 165.136C97.4799 167.676 98.4902 170.111 100.286 171.907C102.082 173.703 104.517 174.713 107.057 174.716C109.597 174.713 112.032 173.703 113.828 171.907C115.624 170.111 116.634 167.676 116.637 165.136C116.634 163.14 116.009 161.193 114.847 159.569C113.686 157.944 112.047 156.723 110.158 156.074V151.546L132.028 138.92V144.676C130.139 145.325 128.5 146.547 127.339 148.171C126.178 149.795 125.552 151.741 125.55 153.738C125.553 156.278 126.563 158.713 128.359 160.509C130.155 162.305 132.59 163.315 135.13 163.318C137.67 163.315 140.105 162.305 141.901 160.509C143.697 158.713 144.707 156.278 144.71 153.738C144.707 151.741 144.081 149.795 142.92 148.17C141.758 146.546 140.119 145.325 138.23 144.676V135.339L145.312 131.25L146.863 128.565V112.793H153.44C154.089 114.681 155.31 116.32 156.935 117.482C158.559 118.643 160.505 119.269 162.502 119.271C165.042 119.268 167.477 118.258 169.273 116.462C171.068 114.666 172.079 112.231 172.081 109.691C172.079 107.151 171.068 104.717 169.273 102.921C167.477 101.125 165.042 100.114 162.502 100.111ZM131.753 61.1477C131.753 60.2522 132.11 59.3935 132.743 58.7603C133.376 58.127 134.234 57.7709 135.13 57.7701C136.026 57.7709 136.884 58.127 137.517 58.7603C138.151 59.3935 138.507 60.2522 138.507 61.1477C138.507 62.0432 138.15 62.9017 137.517 63.5349C136.884 64.1681 136.025 64.5241 135.13 64.525C134.235 64.5241 133.376 64.1681 132.743 63.5349C132.11 62.9017 131.754 62.0432 131.753 61.1477ZM75.8179 61.1477C75.8186 60.2522 76.1746 59.3935 76.8078 58.7603C77.441 58.127 78.2996 57.7709 79.1951 57.7701C80.0907 57.7708 80.9494 58.1269 81.5827 58.7601C82.216 59.3934 82.5721 60.2522 82.5728 61.1477C82.572 62.0433 82.2159 62.9019 81.5826 63.5351C80.9493 64.1683 80.0907 64.5242 79.1951 64.525C78.2997 64.5241 77.4411 64.1681 76.8079 63.5349C76.1747 62.9017 75.8187 62.0432 75.8179 61.1477ZM51.6127 113.069C50.7173 113.068 49.8587 112.712 49.2255 112.078C48.5923 111.445 48.2363 110.587 48.2355 109.691C48.2363 108.796 48.5923 107.937 49.2255 107.304C49.8587 106.671 50.7173 106.315 51.6127 106.314C52.5083 106.315 53.3669 106.671 54.0002 107.304C54.6335 107.937 54.9896 108.796 54.9904 109.691C54.9896 110.587 54.6335 111.445 54.0002 112.079C53.3669 112.712 52.5083 113.068 51.6127 113.069ZM82.5728 153.738C82.572 154.634 82.2159 155.492 81.5826 156.125C80.9493 156.759 80.0907 157.115 79.1951 157.115C78.2997 157.115 77.4411 156.759 76.8079 156.125C76.1747 155.492 75.8187 154.634 75.8179 153.738C75.8187 152.843 76.1747 151.984 76.8079 151.351C77.4411 150.718 78.2997 150.362 79.1951 150.361C80.0907 150.362 80.9493 150.718 81.5826 151.351C82.2159 151.984 82.572 152.843 82.5728 153.738ZM138.507 153.738C138.507 154.634 138.15 155.492 137.517 156.125C136.884 156.759 136.025 157.115 135.13 157.115C134.235 157.115 133.376 156.759 132.743 156.125C132.11 155.492 131.754 154.634 131.753 153.738C131.754 152.843 132.11 151.984 132.743 151.351C133.376 150.718 134.235 150.362 135.13 150.361C136.025 150.362 136.884 150.718 137.516 151.351C138.149 151.985 138.505 152.843 138.506 153.738H138.507ZM103.68 48.976C103.68 48.0806 104.037 47.2221 104.67 46.5889C105.303 45.9557 106.162 45.5995 107.057 45.5987C107.952 45.5995 108.811 45.9557 109.444 46.5889C110.077 47.2221 110.433 48.0806 110.434 48.976C110.433 49.8715 110.077 50.73 109.444 51.3632C108.811 51.9964 107.952 52.3526 107.057 52.3534C106.161 52.3529 105.302 51.9967 104.668 51.3632C104.035 50.7296 103.679 49.8705 103.678 48.9745L103.68 48.976ZM107.164 68.7584L137.566 86.3116L137.562 86.3139L130.398 90.4486C129.309 88.9565 128.08 87.5719 126.727 86.3139C121.418 81.3595 114.426 78.6064 107.164 78.6115C99.9028 78.6064 92.9104 81.3595 87.6015 86.3139C86.2487 87.5719 85.0192 88.9565 83.9299 90.4486L76.7659 86.3139L76.7622 86.3116L107.164 68.7584ZM84.6153 107.362C84.622 101.384 86.9999 95.6526 91.2271 91.4253C95.4543 87.1981 101.186 84.8203 107.164 84.8135C113.142 84.8204 118.874 87.1981 123.101 91.4253C127.328 95.6525 129.706 101.384 129.712 107.362C129.706 113.34 127.328 119.072 123.101 123.299C118.873 127.526 113.142 129.904 107.164 129.91C101.186 129.904 95.4541 127.526 91.2269 123.298C86.9997 119.071 84.622 113.339 84.6156 107.361L84.6153 107.362ZM73.6677 126.776V91.6879L80.8317 95.8232C79.2322 99.4599 78.4083 103.39 78.4127 107.363C78.4216 114.449 81.0432 121.283 85.7757 126.556C90.5082 131.83 97.0192 135.173 104.063 135.946V144.325L73.6677 126.776ZM110.434 165.14C110.433 166.035 110.077 166.894 109.444 167.527C108.811 168.16 107.952 168.516 107.057 168.517C106.162 168.516 105.303 168.16 104.67 167.527C104.037 166.894 103.68 166.035 103.68 165.14C103.68 164.244 104.037 163.385 104.67 162.752C105.303 162.119 106.162 161.763 107.057 161.762C107.952 161.763 108.81 162.118 109.443 162.751C110.076 163.383 110.433 164.241 110.435 165.136L110.434 165.14ZM140.66 126.776L110.265 144.325V135.946C117.309 135.173 123.82 131.83 128.552 126.556C133.285 121.282 135.906 114.449 135.915 107.363C135.919 103.39 135.095 99.4599 133.496 95.8232L140.66 91.6879V126.776ZM162.502 113.071C161.606 113.07 160.748 112.714 160.114 112.081C159.481 111.448 159.125 110.589 159.124 109.694C159.125 108.798 159.481 107.94 160.114 107.306C160.748 106.673 161.606 106.317 162.502 106.316C163.397 106.317 164.256 106.673 164.889 107.307C165.522 107.94 165.878 108.798 165.879 109.694C165.877 110.589 165.521 111.447 164.888 112.079C164.255 112.712 163.397 113.068 162.502 113.069L162.502 113.071Z" fill="#0CC9AB"/>
</svg>
