<svg width="213" height="213" viewBox="0 0 213 213" fill="none" xmlns="http://www.w3.org/2000/svg">
<rect x="0.46875" width="212.235" height="212.235" rx="106.118" fill="#0E425E"/>
<path d="M78.3112 88.8698C77.8338 87.6829 77.5124 86.2222 77.3438 84.491H86.1014C86.6106 86.5277 87.8994 87.546 89.9711 87.546C91.0912 87.546 91.9982 87.2437 92.6951 86.6359C93.392 86.0281 93.7389 85.2198 93.7389 84.211C93.7389 81.9547 92.2114 80.825 89.1564 80.825H86.1014V74.4604H87.5271C90.3784 74.4604 91.8041 73.1621 91.8041 70.5685C91.8041 68.6146 91.0053 67.6376 89.411 67.6376C87.8167 67.6376 86.8652 68.5891 86.7633 70.489H78.2093C78.2762 67.3321 79.3709 64.7863 81.4935 62.8515C83.616 60.9166 86.391 59.9492 89.8183 59.9492C92.8383 59.9492 95.3682 60.8307 97.4049 62.5969C99.4416 64.3631 100.46 66.5684 100.46 69.216C100.46 72.3729 98.9674 74.7659 95.9792 76.3953C100.256 77.7891 102.395 80.5195 102.395 84.5928C102.395 87.5142 101.163 90.0155 98.7033 92.103C96.2434 94.1906 93.2806 95.2344 89.8183 95.2344C87.1006 95.2344 84.7012 94.6552 82.6136 93.5033C80.526 92.3513 79.0908 90.8047 78.3112 88.8698V88.8698Z" fill="#00FFFF"/>
<path d="M120.215 94.5727H106.875V60.6113H118.28C122.796 60.6113 126.36 61.426 128.973 63.0553C130.567 64.0387 131.942 65.3466 133.097 66.9759C135.166 69.8622 136.203 73.3564 136.203 77.4647C136.203 82.6232 134.742 86.7665 131.824 89.8884C128.906 93.0102 125.036 94.5727 120.215 94.5727V94.5727ZM115.531 68.2997V86.8843H119.248C124.779 86.8843 127.547 83.8293 127.547 77.7193C127.547 74.7152 126.834 72.3953 125.409 70.7565C123.983 69.1208 121.946 68.2997 119.299 68.2997H115.531V68.2997Z" fill="#0CC9AB"/>
<path d="M102.621 104.023H104.492L99.5089 113.666H97.7714L97.4468 106.62L94.1436 113.666H92.4443L91.375 104.023H93.1316L93.7808 110.878L97.0077 104.023H98.7452L99.1652 111.012L102.621 104.023Z" fill="#0CC9AB"/>
<path d="M103.922 113.667L105.793 104.025H107.569L105.698 113.667H103.922ZM106.404 100.932H108.18L107.779 102.975H106.003L106.404 100.932Z" fill="#0CC9AB"/>
<path d="M113.622 105.686H111.712L110.147 113.667H108.371L109.937 105.686H108.371L108.696 104.025H110.242L110.853 100.932H112.629L112.018 104.025H113.927L113.622 105.686Z" fill="#0CC9AB"/>
<path d="M113.222 113.667L115.704 100.932H117.48L116.697 104.999C117.512 104.197 118.403 103.796 119.37 103.796C120.388 103.796 121.197 104.092 121.795 104.684C122.393 105.275 122.692 106.074 122.692 107.08C122.692 107.5 122.603 108.175 122.425 109.104L121.547 113.667H119.771L120.729 108.658C120.84 108.073 120.898 107.637 120.898 107.344C120.898 106.758 120.726 106.3 120.382 105.963C120.038 105.626 119.571 105.457 118.972 105.457C117.384 105.457 116.369 106.599 115.924 108.884L114.991 113.667H113.219H113.222Z" fill="#0CC9AB"/>
<path d="M61.1171 123.456H55.7327L51.4557 145.491H47.7515L52.0285 123.456H46.4531L47.1023 120.02H61.7663L61.1171 123.456V123.456Z" fill="#0CC9AB"/>
<path d="M75.82 134.416H65.6621L63.4854 145.491H59.7812L64.7074 120.02H68.4498L66.3113 131.018H76.4692L78.6077 120.02H82.3118L77.3857 145.491H73.6433L75.82 134.416V134.416Z" fill="#0CC9AB"/>
<path d="M100.871 133.423C99.4455 134.9 97.307 135.74 94.4557 135.944L99.8783 145.491H95.7541L88.9185 133.003H91.5535C95.2704 133.003 97.6889 132.074 98.8091 130.216C99.2673 129.452 99.4964 128.624 99.4964 127.733C99.4964 126.053 98.7836 124.844 97.358 124.106C96.5178 123.673 95.1685 123.456 93.3101 123.456H90.446L86.169 145.491H82.4648L87.391 120.02H93.3101C96.5687 120.02 98.9746 120.605 100.528 121.776C102.31 123.125 103.201 124.997 103.201 127.39C103.201 129.783 102.424 131.819 100.871 133.423V133.423Z" fill="#0CC9AB"/>
<path d="M119.194 134.416H109.686L108.196 142.092H117.705L117.018 145.491H103.805L108.731 120.02H121.791L121.142 123.456H111.824L110.335 131.018H119.843L119.194 134.416V134.416Z" fill="#0CC9AB"/>
<path d="M136.608 134.416H127.1L125.61 142.092H135.119L134.432 145.491H121.219L126.145 120.02H139.205L138.556 123.456H129.238L127.749 131.018H137.257L136.608 134.416V134.416Z" fill="#0CC9AB"/>
<path d="M138.402 145.49L139.204 141.404H142.908L142.107 145.49H138.402Z" fill="#0CC9AB"/>
<path d="M146.768 145.039L150.434 126.206H153.986L150.014 146.751C149.607 148.889 148.837 150.347 147.704 151.123C146.571 151.9 145.19 152.288 143.56 152.288C143.128 152.288 142.644 152.237 142.109 152.135L142.72 148.966H143.408C144.452 148.966 145.196 148.705 145.642 148.183C146.087 147.661 146.463 146.614 146.768 145.039V145.039ZM151.656 120.02H155.208L154.406 124.106H150.854L151.656 120.02Z" fill="#0CC9AB"/>
<path d="M154.52 140.066C154.52 139.812 154.57 139.519 154.669 139.188H158.376V139.914C158.376 140.728 158.676 141.397 159.274 141.918C159.872 142.44 160.642 142.701 161.584 142.701C162.399 142.701 163.099 142.459 163.685 141.976C164.27 141.492 164.563 140.894 164.563 140.181C164.563 139.544 164.372 139.035 163.99 138.653C163.608 138.272 162.755 137.75 161.431 137.088C159.624 136.171 158.376 135.318 157.689 134.529C157.002 133.74 156.658 132.747 156.658 131.551C156.658 129.87 157.256 128.483 158.453 127.388C159.649 126.293 161.177 125.746 163.035 125.746C164.894 125.746 166.294 126.204 167.465 127.121C168.636 128.037 169.222 129.196 169.222 130.596C169.222 130.749 169.183 131.041 169.107 131.474H165.365V131.022C165.365 130.446 165.123 129.975 164.639 129.613C164.155 129.25 163.544 129.068 162.806 129.068C162.068 129.068 161.489 129.278 160.992 129.698C160.496 130.119 160.248 130.631 160.248 131.242C160.248 131.802 160.426 132.257 160.782 132.613C161.139 132.97 161.852 133.403 162.921 133.909C164.856 134.822 166.211 135.707 166.988 136.556C167.764 137.406 168.152 138.443 168.152 139.662C168.152 141.467 167.497 142.965 166.186 144.159C164.875 145.352 163.252 145.95 161.317 145.95C159.382 145.95 157.797 145.384 156.486 144.251C155.175 143.118 154.52 141.724 154.52 140.07V140.066Z" fill="#0CC9AB"/>
</svg>
