<svg width="213" height="213" viewBox="0 0 213 213" fill="none" xmlns="http://www.w3.org/2000/svg">
<rect x="0.703125" width="212.235" height="212.235" rx="106.118" fill="#0E425E"/>
<path d="M61.2799 57.252L57.957 60.5748V151.659L61.2799 154.982H152.364L155.687 151.659V60.5748L152.364 57.252H61.2799ZM149.041 148.336H64.6027V63.8976H149.041V148.336Z" fill="#0CC9AB"/>
<path d="M97.0473 140.795H103.644V101.954H112.193V95.8956H88.4311V101.954H97.0476L97.0473 140.795Z" fill="#C5FFF6"/>
<path d="M127.808 135.679C123.275 135.679 120.739 132.964 120.202 127.534H113.739C113.828 131.664 115.174 135.052 117.778 137.699C120.382 140.345 123.703 141.669 127.741 141.671C131.689 141.671 134.988 140.302 137.636 137.564C140.285 134.827 141.609 131.416 141.608 127.332C141.661 124.547 140.837 121.815 139.252 119.524C138.337 118.154 137.13 117.005 135.718 116.158C134.394 115.395 132.307 114.61 129.458 113.802C126.608 112.993 124.667 112.129 123.635 111.21C122.602 110.291 122.086 108.956 122.086 107.205C122.081 106.396 122.239 105.594 122.552 104.848C122.864 104.102 123.324 103.427 123.904 102.863C124.445 102.278 125.101 101.811 125.83 101.493C126.56 101.174 127.348 101.01 128.145 101.011C128.927 100.995 129.704 101.146 130.424 101.454C131.143 101.761 131.789 102.219 132.318 102.796C133.439 103.985 134.068 105.567 134.203 107.542H140.867C140.687 103.817 139.453 100.799 137.165 98.4874C134.877 96.1758 131.982 95.0203 128.481 95.0207C124.756 95.0207 121.671 96.266 119.226 98.7566C116.781 101.247 115.558 104.4 115.557 108.214C115.557 111.491 116.566 114.251 118.586 116.494C119.26 117.331 120.081 118.039 121.009 118.581C121.772 118.985 123.432 119.591 125.991 120.399L127.876 121.004L129.491 121.543C133.215 122.8 135.078 125.021 135.078 128.207C135.103 129.188 134.931 130.163 134.573 131.077C134.214 131.99 133.677 132.822 132.991 133.524C132.326 134.225 131.521 134.779 130.628 135.15C129.735 135.522 128.775 135.702 127.808 135.679Z" fill="#C5FFF6"/>
</svg>
