<svg width="213" height="213" viewBox="0 0 213 213" fill="none" xmlns="http://www.w3.org/2000/svg">
<rect width="212.235" height="212.235" rx="106.118" fill="#0E425E"/>
<path d="M79.9943 69.1062L83.3839 72.4958H123.933L127.322 69.1062V49.7764L123.933 46.3867H83.3839L79.9943 49.7764V69.1062ZM86.7736 53.166H120.543V65.7165H86.7736V53.166Z" fill="#C5FFF6"/>
<path d="M164.158 111.983H152.107V92.6869L148.718 89.2973H116.37C115.769 87.0631 114.592 85.026 112.956 83.39C111.32 81.7541 109.283 80.5767 107.049 79.9757V72.4954H100.269V79.9757C97.4702 80.7259 94.9964 82.3777 93.2307 84.6756C91.4651 86.9734 90.506 89.7891 90.5019 92.6869C90.506 95.5848 91.4651 98.4005 93.2307 100.698C94.9964 102.996 97.4702 104.648 100.269 105.398V111.981H88.298L84.9083 115.37V134.702L88.298 138.091H100.269V142.237H88.298L84.9083 145.627V151.92H68.4668V63.2807H79.9943V56.5014H65.0772L61.6875 59.891V155.31L65.0772 158.699H84.9083V164.957L88.298 168.347H119.019L122.408 164.957V145.627L119.019 142.237H107.048V138.091H119.019L122.408 134.702V115.372L119.019 111.982H107.048V105.399C109.282 104.798 111.32 103.621 112.956 101.984C114.592 100.348 115.769 98.3102 116.369 96.0756H145.327V111.982H133.437L130.047 115.372V134.702L133.437 138.091H164.158L167.547 134.702V115.372L164.158 111.983ZM115.629 149.018V161.568H91.6876V149.018H115.629ZM115.629 118.763V131.312H91.6876V118.762L115.629 118.763ZM103.658 99.0663C101.967 99.0643 100.346 98.3917 99.1506 97.196C97.955 96.0003 97.2824 94.3792 97.2806 92.6883C97.2824 90.9974 97.955 89.3763 99.1506 88.1807C100.346 86.985 101.967 86.3125 103.658 86.3106C105.349 86.3125 106.97 86.985 108.166 88.1807C109.362 89.3763 110.034 90.9974 110.036 92.6883C110.034 94.3792 109.362 96.0003 108.166 97.196C106.97 98.3917 105.349 99.0643 103.658 99.0663ZM160.768 131.312H136.826V118.762H160.768V131.312Z" fill="#0CC9AB"/>
</svg>
