<svg width="213" height="213" viewBox="0 0 213 213" fill="none" xmlns="http://www.w3.org/2000/svg">
<rect x="0.46875" width="212.235" height="212.235" rx="106.118" fill="#0E425E"/>
<path d="M105.52 172.624C105.52 172.72 105.52 172.813 105.52 172.909H104.914C104.762 172.329 104.186 172.266 103.779 172.029C86.837 162.189 69.8838 152.367 52.9343 142.531C52.3948 142.221 51.7038 142.065 51.4673 141.319C57.8746 137.602 64.282 133.914 70.645 130.156C71.5614 129.613 72.2117 129.661 73.0837 130.171C79.3691 133.855 85.6804 137.491 91.988 141.142C93.8947 142.243 94.6263 141.825 94.63 139.627C94.63 130.67 94.6004 121.713 94.6595 112.759C94.6706 111.086 94.0499 110.073 92.6198 109.26C84.8933 104.859 77.2075 100.399 69.5032 95.9578C67.5374 94.8234 66.8242 95.252 66.8242 97.5799C66.8242 104.978 66.8094 112.372 66.8427 119.769C66.8464 120.626 66.6025 121.129 65.8339 121.55C63.7646 122.681 61.7582 123.93 59.7037 125.086C55.2031 127.614 50.8502 130.404 46.2461 132.757V70.8605C46.9038 70.7718 47.3879 71.1598 47.9089 71.4591C52.6017 74.1824 57.2982 76.9057 61.9947 79.6217C70.741 84.6766 79.48 89.7389 88.2337 94.7827C93.9833 98.0936 99.7477 101.375 105.508 104.667C105.512 127.318 105.516 149.969 105.52 172.624V172.624Z" fill="#0CC9AB"/>
<path d="M105.508 104.671C99.7514 101.378 93.9833 98.0971 88.2337 94.7862C79.48 89.7461 70.7373 84.6838 61.9947 79.6251C57.2982 76.9092 52.6017 74.1859 47.9089 71.4626C47.3879 71.1596 46.9075 70.7716 46.2461 70.864V70.2617C46.9703 70.3356 47.447 69.8146 47.9939 69.5005C65.0358 59.738 82.0666 49.9607 99.1011 40.1871C99.5186 39.947 99.9584 39.7437 100.38 39.5257C100.723 40.0356 100.59 40.4975 100.59 40.9299C100.601 47.921 100.568 54.9122 100.627 61.9034C100.635 63.023 100.239 63.6179 99.3117 64.15C92.8637 67.8414 86.4379 71.5698 80.0084 75.2945C78.401 76.2256 78.3862 76.8945 79.9677 77.8108C87.9196 82.415 95.8826 86.9932 103.823 91.6158C104.995 92.2957 105.97 92.2994 107.16 91.6084C115.097 86.9747 123.071 82.4002 131.031 77.7998C132.579 76.9055 132.56 76.2146 130.942 75.276C124.553 71.5735 118.172 67.8636 111.753 64.2165C110.704 63.6179 110.323 62.9491 110.334 61.7334C110.397 54.842 110.364 47.9543 110.364 41.0629V39.3262C113.021 40.8596 115.437 42.2601 117.854 43.6532C132.904 52.333 147.958 61.0091 163.004 69.7037C163.418 69.9439 163.954 70.0548 164.176 70.5721C153.789 76.6099 143.402 82.6441 133.015 88.6819C123.844 94.0102 114.676 99.3423 105.508 104.674V104.671Z" fill="#C5FFF6"/>
<path d="M105.508 104.671C114.675 99.3386 123.847 94.0102 133.014 88.6781C143.401 82.6403 153.788 76.6062 164.175 70.5684C164.563 71.0044 164.36 71.5291 164.36 72.0095C164.371 91.7783 164.371 111.544 164.36 131.312C164.36 131.845 164.622 132.595 164.09 132.853C163.617 133.086 163.122 132.487 162.657 132.221C156.696 128.785 150.755 125.319 144.776 121.919C143.878 121.41 143.531 120.877 143.538 119.828C143.586 112.434 143.568 105.04 143.564 97.6462C143.564 95.3146 143.039 95.0042 141.066 96.1386C133.243 100.647 125.436 105.173 117.598 109.648C116.32 110.38 115.762 111.296 115.769 112.785C115.813 121.89 115.791 130.995 115.795 140.096C115.795 142.298 116.331 142.594 118.278 141.47C124.708 137.753 131.137 134.032 137.567 130.315C138.066 130.027 138.487 129.635 139.178 130.041C145.788 133.917 152.417 137.764 159.205 141.714C156.996 142.996 154.926 144.205 152.85 145.406C137.345 154.352 121.84 163.297 106.332 172.24C106.073 172.387 105.792 172.495 105.523 172.624C105.519 149.973 105.515 127.322 105.511 104.667L105.508 104.671Z" fill="#0CC9AB"/>
</svg>
