<svg width="213" height="213" viewBox="0 0 213 213" fill="none" xmlns="http://www.w3.org/2000/svg">
<rect x="0.46875" width="212.235" height="212.235" rx="106.118" fill="#0E425E"/>
<path d="M63.8102 141.456C65.0058 141.672 66.0804 141.936 67.1697 142.035C68.0022 142.112 68.8751 142.087 69.6966 141.921C71.9044 141.474 73.1954 139.849 73.2284 137.568C73.2614 135.32 73.2687 133.068 73.2687 130.82C73.2687 118.508 73.2577 106.196 73.2504 93.8882C73.2504 90.8661 71.1343 88.8527 68.0976 88.97C66.2675 89.0434 64.6318 89.7292 63.0547 90.5801C60.5498 91.9334 58.3823 93.7415 56.3615 95.7219C48.9092 103.031 42.7441 111.294 37.9947 120.595C37.8113 120.954 37.6353 121.314 37.4556 121.673C37.4482 121.688 37.4225 121.692 37.2428 121.787C37.1952 120.181 37.0595 118.651 37.1145 117.129C37.3639 110.539 39.2233 104.363 42.0803 98.4615C45.2747 91.871 49.639 86.1057 54.5608 80.7255C60.1574 74.6081 66.0327 68.7988 72.5976 63.7083C80.7578 57.3781 89.7762 52.7754 99.7481 50.0541C99.9242 50.0065 100.104 49.9735 100.313 49.9258C99.0073 50.9417 97.6906 51.8732 96.4804 52.9295C93.5757 55.4674 91.0855 58.3427 89.6845 62.0102C88.3238 65.5714 88.3972 69.1912 89.4058 72.8183C89.5781 73.4381 89.8862 74.0506 90.2493 74.5861C91.3935 76.2731 93.0439 76.7279 94.929 75.9541C95.2738 75.811 95.6148 75.6533 96.0366 75.4663C96.0366 75.8917 96.0366 76.2291 96.0366 76.5629C96.0513 94.8601 96.0623 113.157 96.099 131.454C96.099 131.975 96.253 132.551 96.5024 133.009C98.6259 136.912 102.554 138.558 106.863 137.355C110.27 136.406 113.208 134.561 116.014 132.474C116.659 131.994 117.51 131.594 117.836 130.941C118.152 130.314 117.928 129.404 117.924 128.619C117.921 114.272 117.888 99.9212 117.932 85.5739C117.939 82.937 117.238 80.5568 116.01 78.2903C114.8 76.0641 113.208 74.1533 111.044 72.7377C112.977 72.3159 119.256 72.8073 122.113 74.9638C131.949 64.7865 143.894 58.4454 157.786 55.6067C157.654 55.7754 157.526 55.9478 157.387 56.1129C152.755 61.7021 148.196 67.3464 144.096 73.3428C143.472 74.2523 142.94 75.2242 142.306 76.1228C141.536 77.2083 141.25 78.4113 141.231 79.7133C141.147 85.761 140.96 91.8087 140.993 97.8564C141.048 108.023 141.239 118.189 141.382 128.355C141.396 129.375 141.437 130.394 141.528 131.407C141.558 131.729 141.726 132.111 141.961 132.331C143.307 133.622 144.979 133.978 146.78 133.89C149.08 133.78 151.156 132.932 153.151 131.862C156.598 130.013 159.62 127.582 162.455 124.912C163.735 123.705 164.986 122.473 166.335 121.299C166.152 121.692 165.98 122.095 165.782 122.48C159.855 133.985 152.171 144.126 142.181 152.411C139.61 154.541 136.768 156.357 134.017 158.264C132.99 158.975 133.214 158.832 132.415 158.161C128.743 155.073 125.083 151.974 121.419 148.882C121.144 148.651 120.855 148.439 120.521 148.175C120.077 148.633 119.652 149.073 119.23 149.517C115.339 153.635 111.444 157.754 107.567 161.884C107.23 162.243 106.929 162.357 106.419 162.291C99.0916 161.352 91.9547 159.654 85.0854 156.903C78.7737 154.376 72.9057 151.123 67.9949 146.326C66.4765 144.844 65.0645 143.271 63.8066 141.456H63.8102Z" fill="#0CC9AB"/>
<path d="M168.825 90.9874C169.305 91.0204 169.676 91.0461 170.109 91.0791C170.054 91.5925 170.002 92.0656 169.947 92.5754H162.774C163.063 90.2025 163.346 87.881 163.643 85.4715H151.016C151.228 83.8284 151.423 82.2734 151.639 80.722C151.665 80.5277 151.815 80.3406 151.936 80.1719C155.633 74.8907 159.337 69.6132 163.023 64.3246C163.309 63.9139 163.617 63.7378 164.112 63.7195C165.425 63.6681 166.746 63.6388 168.044 63.4738C169.735 63.261 171.198 62.5239 172.353 61.2329C172.43 61.1449 172.529 61.0789 172.768 61.0605C171.891 67.5337 171.018 74.0032 170.127 80.5827H173.574C173.369 82.2697 173.178 83.8541 172.98 85.5008H169.54C169.302 87.3419 169.074 89.1206 168.832 90.9947L168.825 90.9874ZM157.815 80.48C158.024 80.535 158.105 80.5717 158.182 80.5717C160.071 80.5753 161.956 80.5717 163.845 80.5827C164.255 80.5827 164.255 80.3296 164.288 80.0436C164.615 77.2232 164.952 74.4029 165.279 71.5826C165.356 70.9298 165.411 70.2733 165.473 69.6205L165.312 69.5728C162.832 73.178 160.349 76.7868 157.808 80.4837L157.815 80.48Z" fill="#00FFFF"/>
</svg>
