<svg width="214" height="213" viewBox="0 0 214 213" fill="none" xmlns="http://www.w3.org/2000/svg">
<rect x="0.9375" width="212.235" height="212.235" rx="106.118" fill="#0E425E"/>
<path d="M108.708 172.306C142.263 172.306 169.464 145.104 169.464 111.55C169.464 77.996 142.263 50.7949 108.708 50.7949C75.1542 50.7949 47.9531 77.996 47.9531 111.55C47.9531 145.104 75.1542 172.306 108.708 172.306Z" stroke="#0CC9AB" stroke-width="6.25" stroke-miterlimit="10"/>
<path d="M108.707 50.7949V171.215" stroke="#0CC9AB" stroke-width="6.25" stroke-miterlimit="10"/>
<path d="M47.9531 92.9473H168.782" stroke="#0CC9AB" stroke-width="6.25" stroke-miterlimit="10"/>
<path d="M47.9531 129.822H168.782" stroke="#0CC9AB" stroke-width="6.25" stroke-miterlimit="10"/>
<path d="M108.694 172.179C123.31 172.179 135.158 145.105 135.158 111.708C135.158 78.3103 123.31 51.2363 108.694 51.2363C94.0787 51.2363 82.2305 78.3103 82.2305 111.708C82.2305 145.105 94.0787 172.179 108.694 172.179Z" stroke="#0CC9AB" stroke-width="6.25" stroke-miterlimit="10"/>
<path d="M69.1589 171.941C77.0995 171.941 83.5366 165.504 83.5366 157.563C83.5366 149.623 77.0995 143.186 69.1589 143.186C61.2184 143.186 54.7812 149.623 54.7812 157.563C54.7812 165.504 61.2184 171.941 69.1589 171.941Z" fill="#0E425E" stroke="#0CC9AB" stroke-width="6.25" stroke-miterlimit="10"/>
<path d="M166.784 144.097C174.724 144.097 181.162 137.66 181.162 129.719C181.162 121.779 174.724 115.342 166.784 115.342C158.843 115.342 152.406 121.779 152.406 129.719C152.406 137.66 158.843 144.097 166.784 144.097Z" fill="#0E425E" stroke="#0CC9AB" stroke-width="6.25" stroke-miterlimit="10"/>
<path d="M75.1655 82.1826C86.8334 82.1826 96.292 72.724 96.292 61.0561C96.292 49.3883 86.8334 39.9297 75.1655 39.9297C63.4977 39.9297 54.0391 49.3883 54.0391 61.0561C54.0391 72.724 63.4977 82.1826 75.1655 82.1826Z" fill="#0E425E" stroke="#00FFFF" stroke-width="6.25" stroke-linejoin="bevel"/>
</svg>
