<svg width="213" height="213" viewBox="0 0 213 213" fill="none" xmlns="http://www.w3.org/2000/svg">
<rect width="212.235" height="212.235" rx="106.118" fill="#0E425E"/>
<path d="M64.481 74.7354C66.0102 74.4873 67.0487 73.0465 66.8005 71.5173C66.5524 69.9881 65.1115 68.9496 63.5824 69.1978C62.0532 69.4459 61.0147 70.8868 61.2629 72.416C61.511 73.9451 62.9519 74.9836 64.481 74.7354Z" fill="#00FFFF"/>
<path d="M77.812 73.0397C78.4048 71.6085 77.7252 69.9676 76.2939 69.3748C74.8626 68.7819 73.2218 69.4616 72.6289 70.8928C72.0361 72.3241 72.7157 73.965 74.147 74.5578C75.5783 75.1507 77.2191 74.471 77.812 73.0397Z" fill="#00FFFF"/>
<path d="M86.4096 69.1614C85.6657 69.1615 84.9523 69.457 84.4263 69.9831C83.9003 70.5091 83.6048 71.2226 83.6048 71.9664C83.6048 72.7103 83.9003 73.4237 84.4263 73.9497C84.9523 74.4757 85.6658 74.7712 86.4096 74.7712C86.778 74.7712 87.1428 74.6987 87.4831 74.5577C87.8234 74.4168 88.1326 74.2102 88.3931 73.9498C88.6536 73.6893 88.8601 73.3801 89.0011 73.0398C89.1421 72.6995 89.2146 72.3348 89.2146 71.9664C89.2147 71.5981 89.1422 71.2333 89.0013 70.8929C88.8603 70.5526 88.6536 70.2433 88.3931 69.9828C88.1326 69.7223 87.8234 69.5158 87.4831 69.3748C87.1427 69.2339 86.778 69.1613 86.4096 69.1614Z" fill="#00FFFF"/>
<path d="M135.004 48.6172C130.854 48.6186 126.763 49.6079 123.071 51.5035C119.379 53.399 116.191 56.1462 113.771 59.5179H54.3829L51.0625 62.8383V133.305L54.3829 136.625H78.5276C77.2163 139.837 76.5429 143.273 76.5448 146.741C76.553 153.867 79.3872 160.698 84.4257 165.737C89.4642 170.775 96.2955 173.609 103.421 173.617C110.546 173.609 117.378 170.775 122.416 165.737C127.455 160.698 130.289 153.867 130.297 146.741C130.299 143.252 129.618 139.795 128.291 136.567H155.161L158.372 132.404L150.794 103.533C153.929 101.161 156.488 98.1128 158.282 94.6152C160.076 91.1175 161.057 87.2603 161.154 83.3307L161.17 83.3105V74.1579L161.154 74.1376C160.979 67.3154 158.148 60.8309 153.264 56.0645C148.38 51.298 141.828 48.626 135.004 48.6172ZM135.004 55.2579C139.336 55.2635 143.544 56.7071 146.967 59.3624C150.39 62.0176 152.835 65.7343 153.918 69.9291L135.918 66.1083L134.551 66.1056L116.084 69.9489C117.163 65.7496 119.607 62.0279 123.032 59.3687C126.457 56.7095 130.668 55.2635 135.004 55.2579ZM57.7033 66.1587H110.303C109.406 68.7262 108.916 71.4185 108.852 74.1376L108.836 74.1579V78.1589H57.702L57.7033 66.1587ZM57.7033 129.984V84.7996H108.929C109.228 88.4701 110.298 92.0361 112.07 95.2642C113.843 98.4924 116.276 101.31 119.213 103.533L114.317 122.182C110.888 120.652 107.176 119.863 103.421 119.865C99.3865 119.865 95.4042 120.775 91.7701 122.527C88.136 124.279 84.9437 126.828 82.4309 129.984H57.7033ZM103.421 166.976C98.0561 166.97 92.9127 164.837 89.1191 161.043C85.3256 157.25 83.1917 152.106 83.1856 146.741C83.1915 141.376 85.3254 136.233 89.119 132.439C92.9125 128.646 98.056 126.512 103.421 126.506C108.786 126.512 113.929 128.646 117.723 132.439C121.516 136.233 123.65 141.376 123.656 146.741C123.65 152.106 121.516 157.25 117.723 161.043C113.929 164.837 108.786 166.97 103.421 166.976ZM150.856 129.926H124.366C123.141 128.405 121.756 127.02 120.235 125.796L125.186 106.933C128.303 108.202 131.638 108.853 135.003 108.852C138.369 108.853 141.703 108.202 144.821 106.933L150.856 129.926ZM154.53 82.6839C154.524 87.8609 152.465 92.8242 148.804 96.485C145.144 100.146 140.18 102.205 135.003 102.211C129.826 102.205 124.863 100.146 121.202 96.485C117.542 92.8242 115.483 87.8609 115.477 82.6839V76.8583L135.221 72.7494L154.53 76.8477V82.6839Z" fill="#0CC9AB"/>
<path d="M115.137 143.942C114.741 143.89 114.36 143.84 113.979 143.793C113.674 142.985 113.342 142.188 112.987 141.413C113.238 141.095 113.477 140.782 113.697 140.495C113.82 140.334 113.938 140.179 114.052 140.034L114.915 138.918L111.417 135.165L110.219 136.095C110.046 136.229 109.873 136.362 109.7 136.493C109.401 136.721 109.094 136.954 108.789 137.199C108.325 136.985 107.858 136.798 107.405 136.616C107.058 136.477 106.727 136.344 106.407 136.203C106.34 135.833 106.292 135.444 106.241 135.038C106.211 134.806 106.182 134.572 106.149 134.338L105.95 132.909H100.913L100.697 134.316C100.661 134.547 100.624 134.776 100.586 135.001C100.524 135.38 100.46 135.769 100.406 136.164C99.5598 136.476 98.7758 136.798 98.0274 137.142C97.7047 136.891 97.384 136.652 97.0705 136.419C96.8988 136.292 96.7302 136.166 96.5648 136.041L95.4233 135.178L91.7779 138.753L92.7025 139.924C92.8353 140.09 92.9645 140.26 93.0947 140.429C93.3324 140.738 93.5757 141.054 93.8367 141.368C93.4475 142.139 93.113 142.936 92.8354 143.754C92.4217 143.804 92.0192 143.863 91.6268 143.92C91.4129 143.951 91.2001 143.982 90.9886 144.011L89.5556 144.21V149.246L90.964 149.462C91.1964 149.498 91.4226 149.535 91.6477 149.571C92.0292 149.633 92.4197 149.696 92.8155 149.75C93.118 150.578 93.4463 151.377 93.7926 152.131C93.5389 152.457 93.3002 152.778 93.082 153.071C92.9658 153.228 92.8536 153.379 92.7471 153.52L91.8888 154.654L95.4614 158.345L96.6402 157.409C96.8033 157.279 96.9696 157.15 97.1383 157.018C97.4295 156.791 97.7276 156.559 98.0258 156.315C98.8605 156.711 99.6425 157.039 100.398 157.311C100.45 157.72 100.509 158.123 100.567 158.516C100.601 158.738 100.634 158.959 100.664 159.18L100.863 160.608H105.889L106.108 159.203C106.144 158.971 106.181 158.741 106.218 158.514C106.281 158.125 106.346 157.728 106.403 157.326C107.267 156.996 108.051 156.669 108.782 156.336C109.095 156.584 109.409 156.826 109.716 157.062C109.903 157.205 110.091 157.35 110.281 157.496L111.469 158.421L114.983 154.715L114.108 153.589C113.967 153.408 113.829 153.227 113.692 153.047C113.457 152.739 113.216 152.423 112.964 152.11C113.363 151.338 113.701 150.537 113.978 149.714C114.413 149.669 114.833 149.605 115.242 149.543C115.446 149.513 115.649 149.482 115.853 149.454L117.287 149.257V144.22L115.839 144.034C115.602 144.003 115.369 143.973 115.137 143.942ZM108.1 151.444C107.485 152.062 106.754 152.551 105.948 152.884C105.143 153.217 104.279 153.386 103.407 153.383C101.649 153.381 99.9639 152.683 98.7207 151.44C97.4774 150.198 96.7777 148.513 96.775 146.755C96.7769 144.997 97.4758 143.311 98.7184 142.068C99.961 140.825 101.646 140.124 103.404 140.121C105.162 140.123 106.847 140.822 108.091 142.065C109.334 143.307 110.034 144.992 110.037 146.75C110.041 147.621 109.872 148.485 109.539 149.291C109.207 150.097 108.718 150.829 108.1 151.444Z" fill="#00FFFF"/>
<path d="M70.9849 106.156L80.0027 101.706V96.5351L65.0548 104.113V108.13L80.009 115.711L79.9678 110.6L70.9849 106.156Z" fill="#C5FFF6"/>
<path d="M93.488 96.1546H88.7774L82.4686 116.314H87.1793L93.488 96.1546Z" fill="#C5FFF6"/>
<path d="M105.145 106.122L96.1278 110.572V115.709L111.075 108.166V104.115L96.1211 96.5344L96.1623 101.677L105.145 106.122Z" fill="#C5FFF6"/>
</svg>
