<svg width="213" height="213" viewBox="0 0 213 213" fill="none" xmlns="http://www.w3.org/2000/svg">
<rect x="0.109375" y="0.0625" width="212.235" height="212.235" rx="106.118" fill="#0E425E"/>
<path d="M51.875 103.807H86.7812V64.7209L51.875 71.5353V103.807ZM58.9034 77.3246L79.7528 73.2541V96.7788H58.9034V77.3246Z" fill="#C5FFF6"/>
<path d="M94.9034 103.807H153.079V51.7773L94.902 63.1349L94.9034 103.807ZM101.932 68.9238L146.052 60.3105V96.7787H101.932V68.9238Z" fill="#0CC9AB"/>
<path d="M94.9047 151.598L153.081 163.082V111.052H94.9047V151.598ZM101.933 118.08H146.052V154.53L101.932 145.821L101.933 118.08Z" fill="#0CC9AB"/>
<path d="M51.875 143.104L86.7812 149.995V111.052H51.875V143.104ZM58.9034 118.08H79.7528V141.443L58.9034 137.328V118.08Z" fill="#0CC9AB"/>
</svg>
