<svg width="214" height="213" viewBox="0 0 214 213" fill="none" xmlns="http://www.w3.org/2000/svg">
<rect x="0.9375" width="212.235" height="212.235" rx="106.118" fill="#0E425E"/>
<path d="M71.9641 135.624H37.0547V142.96H78.7181V142.933H70.8655C70.8886 142.686 71.1818 139.887 71.9641 135.624Z" fill="#0CC9AB"/>
<path d="M140.772 135.624C141.635 138.152 142.562 140.603 143.537 142.933H135.422V142.96H177.055V135.624H140.772Z" fill="#0CC9AB"/>
<path d="M140.775 135.624C136.147 122.067 133.371 106.252 135.047 94.4764C135.749 89.5513 137.358 82.192 141.044 75.0998C141.4 74.4172 142.23 72.8183 141.15 71.0389L138.012 69.2734L137.862 69.2764C113.184 70.2906 93.839 82.7404 81.917 105.28C76.259 115.976 73.3466 128.089 71.9641 135.624C71.1818 139.887 70.8889 142.686 70.864 142.933H78.7169C78.7316 142.778 80.2653 123.984 88.5049 108.512C98.2821 90.1536 112.918 79.6163 132.066 77.1224C130.005 82.3763 128.567 87.8539 127.783 93.4428C125.605 108.742 128.443 126.87 135.163 142.933H143.538C142.565 140.603 141.638 138.152 140.775 135.624Z" fill="#C5FFF6"/>
</svg>
